%TF.GenerationSoftware,KiCad,Pcbnew,(5.1.8)-1*%
%TF.CreationDate,2021-08-31T22:24:42+08:00*%
%TF.ProjectId,End_World_Kit_V3.0,456e645f-576f-4726-9c64-5f4b69745f56,rev?*%
%TF.SameCoordinates,Original*%
%TF.FileFunction,Copper,L2,Inr*%
%TF.FilePolarity,Positive*%
%FSLAX46Y46*%
G04 Gerber Fmt 4.6, Leading zero omitted, Abs format (unit mm)*
G04 Created by KiCad (PCBNEW (5.1.8)-1) date 2021-08-31 22:24:42*
%MOMM*%
%LPD*%
G01*
G04 APERTURE LIST*
%TA.AperFunction,ComponentPad*%
%ADD10C,1.000000*%
%TD*%
%TA.AperFunction,ComponentPad*%
%ADD11C,0.700000*%
%TD*%
%TA.AperFunction,ComponentPad*%
%ADD12C,4.400000*%
%TD*%
%TA.AperFunction,ComponentPad*%
%ADD13O,2.100000X1.000000*%
%TD*%
%TA.AperFunction,ComponentPad*%
%ADD14O,1.600000X1.000000*%
%TD*%
%TA.AperFunction,ViaPad*%
%ADD15C,0.603000*%
%TD*%
%TA.AperFunction,ViaPad*%
%ADD16C,0.800000*%
%TD*%
%TA.AperFunction,Conductor*%
%ADD17C,0.400000*%
%TD*%
%TA.AperFunction,Conductor*%
%ADD18C,2.000000*%
%TD*%
%TA.AperFunction,Conductor*%
%ADD19C,0.600000*%
%TD*%
%TA.AperFunction,Conductor*%
%ADD20C,0.250000*%
%TD*%
%TA.AperFunction,Conductor*%
%ADD21C,0.200000*%
%TD*%
%TA.AperFunction,Conductor*%
%ADD22C,0.100000*%
%TD*%
%TA.AperFunction,Conductor*%
%ADD23C,0.025400*%
%TD*%
G04 APERTURE END LIST*
D10*
%TO.N,GNDA*%
%TO.C,MK1*%
X130400000Y-97300000D03*
%TO.N,Net-(C21-Pad1)*%
X128800000Y-97300000D03*
%TD*%
D11*
%TO.N,N/C*%
%TO.C,H8*%
X141916726Y-95833274D03*
X140750000Y-95350000D03*
X139583274Y-95833274D03*
X139100000Y-97000000D03*
X139583274Y-98166726D03*
X140750000Y-98650000D03*
X141916726Y-98166726D03*
X142400000Y-97000000D03*
D12*
X140750000Y-97000000D03*
%TD*%
D11*
%TO.N,N/C*%
%TO.C,H7*%
X141916726Y-59833274D03*
X140750000Y-59350000D03*
X139583274Y-59833274D03*
X139100000Y-61000000D03*
X139583274Y-62166726D03*
X140750000Y-62650000D03*
X141916726Y-62166726D03*
X142400000Y-61000000D03*
D12*
X140750000Y-61000000D03*
%TD*%
D11*
%TO.N,N/C*%
%TO.C,H6*%
X59916726Y-95833274D03*
X58750000Y-95350000D03*
X57583274Y-95833274D03*
X57100000Y-97000000D03*
X57583274Y-98166726D03*
X58750000Y-98650000D03*
X59916726Y-98166726D03*
X60400000Y-97000000D03*
D12*
X58750000Y-97000000D03*
%TD*%
D11*
%TO.N,N/C*%
%TO.C,H5*%
X59916726Y-59833274D03*
X58750000Y-59350000D03*
X57583274Y-59833274D03*
X57100000Y-61000000D03*
X57583274Y-62166726D03*
X58750000Y-62650000D03*
X59916726Y-62166726D03*
X60400000Y-61000000D03*
D12*
X58750000Y-61000000D03*
%TD*%
D11*
%TO.N,N/C*%
%TO.C,H4*%
X141916726Y-141583274D03*
X140750000Y-141100000D03*
X139583274Y-141583274D03*
X139100000Y-142750000D03*
X139583274Y-143916726D03*
X140750000Y-144400000D03*
X141916726Y-143916726D03*
X142400000Y-142750000D03*
D12*
X140750000Y-142750000D03*
%TD*%
D11*
%TO.N,N/C*%
%TO.C,H3*%
X141916726Y-105583274D03*
X140750000Y-105100000D03*
X139583274Y-105583274D03*
X139100000Y-106750000D03*
X139583274Y-107916726D03*
X140750000Y-108400000D03*
X141916726Y-107916726D03*
X142400000Y-106750000D03*
D12*
X140750000Y-106750000D03*
%TD*%
D11*
%TO.N,N/C*%
%TO.C,H2*%
X59916726Y-141583274D03*
X58750000Y-141100000D03*
X57583274Y-141583274D03*
X57100000Y-142750000D03*
X57583274Y-143916726D03*
X58750000Y-144400000D03*
X59916726Y-143916726D03*
X60400000Y-142750000D03*
D12*
X58750000Y-142750000D03*
%TD*%
D11*
%TO.N,N/C*%
%TO.C,H1*%
X59916726Y-105583274D03*
X58750000Y-105100000D03*
X57583274Y-105583274D03*
X57100000Y-106750000D03*
X57583274Y-107916726D03*
X58750000Y-108400000D03*
X59916726Y-107916726D03*
X60400000Y-106750000D03*
D12*
X58750000Y-106750000D03*
%TD*%
D13*
%TO.N,GND*%
%TO.C,P1*%
X62130000Y-112930000D03*
X62130000Y-121570000D03*
D14*
X57950000Y-121570000D03*
X57950000Y-112930000D03*
%TD*%
D15*
%TO.N,GND*%
X74550000Y-134700000D03*
X72950000Y-134700000D03*
X74550000Y-133750000D03*
X72950000Y-133750000D03*
D16*
X131100000Y-125800000D03*
X129500000Y-125800000D03*
X127900000Y-125800000D03*
X127900000Y-127400000D03*
X129500000Y-127400000D03*
X131100000Y-127400000D03*
X129500000Y-124100000D03*
X131100000Y-124100000D03*
X127900000Y-124100000D03*
D15*
X129200000Y-137300000D03*
X68250000Y-117250000D03*
X132100000Y-138200000D03*
D16*
X137200000Y-135100000D03*
X136600000Y-118400000D03*
X123940000Y-143150000D03*
X133620000Y-112920000D03*
X56254611Y-115207390D03*
X56315977Y-118799757D03*
X56042657Y-131589235D03*
X56238693Y-135339564D03*
X57271681Y-137870876D03*
X58074346Y-116917231D03*
X58335182Y-133182348D03*
X58986479Y-136184468D03*
X59837184Y-111502874D03*
X59888643Y-118796122D03*
X71050000Y-120350000D03*
X71050000Y-123250000D03*
X73150000Y-122050000D03*
X74309538Y-119901045D03*
X75438867Y-104679141D03*
X75290369Y-138158489D03*
X75187037Y-142059310D03*
X76303156Y-117885579D03*
X76333192Y-144505355D03*
X77316918Y-139742584D03*
X77905925Y-105683540D03*
X78067355Y-122670768D03*
X78143556Y-142745148D03*
X78942982Y-125755353D03*
X80056454Y-107824103D03*
X79904458Y-114056483D03*
X79899600Y-120729860D03*
X79989475Y-139011212D03*
X80081536Y-144834175D03*
X81051677Y-104711406D03*
X80875073Y-141817381D03*
X82013895Y-109437215D03*
X81762826Y-119010297D03*
X82972508Y-106604221D03*
X83892291Y-138912438D03*
X84044183Y-144943451D03*
X85529269Y-114167873D03*
X85939076Y-141125560D03*
X86727907Y-129345145D03*
X87559761Y-116321944D03*
X87502980Y-138889150D03*
X87473446Y-144787736D03*
X88403493Y-123979685D03*
X88369530Y-127758609D03*
X89409790Y-130518095D03*
X89324504Y-140759244D03*
X90524003Y-118848391D03*
X90421672Y-125647822D03*
X91524811Y-128779279D03*
X91245199Y-139077060D03*
X92411239Y-105517298D03*
X93488495Y-120084049D03*
X93479223Y-124550387D03*
X93387732Y-130285205D03*
X93206225Y-140810335D03*
X94424758Y-133085021D03*
X95164223Y-127638295D03*
X96185992Y-104710472D03*
X96164065Y-108620154D03*
X96099474Y-113312065D03*
X97019886Y-125589118D03*
X98027769Y-106493334D03*
X97906667Y-110221207D03*
X100087296Y-104712381D03*
X102626424Y-105516800D03*
X104758482Y-131244804D03*
X105845533Y-112379814D03*
X105905571Y-134122446D03*
X106560563Y-139232926D03*
X107743952Y-104837785D03*
X107797802Y-109325991D03*
X107407397Y-132483277D03*
X109474822Y-134149664D03*
X110586403Y-113352739D03*
X112229272Y-115189993D03*
X112616154Y-124022722D03*
X112358850Y-127675039D03*
X112286753Y-139075471D03*
X112349512Y-143587346D03*
X114087073Y-125822190D03*
X115376617Y-133147500D03*
X115382815Y-138134165D03*
X116018209Y-123913269D03*
X116295149Y-127464149D03*
X116325439Y-143662943D03*
X118063263Y-104600357D03*
X118226639Y-139194860D03*
X118950264Y-109616157D03*
X119216797Y-133424547D03*
X119885324Y-143809660D03*
X121973402Y-104942564D03*
X122983804Y-108734718D03*
X123587442Y-122055553D03*
X123658169Y-127635253D03*
X124806968Y-105530178D03*
X124821458Y-110470399D03*
X124628541Y-130288068D03*
X125803606Y-123827542D03*
X127407441Y-104713883D03*
X127785876Y-108548670D03*
X127690799Y-121723495D03*
X127768701Y-143733588D03*
X128387957Y-111450875D03*
X129603445Y-106712539D03*
X129561833Y-129730037D03*
X130359911Y-109523429D03*
X130438442Y-120830619D03*
X131609586Y-104712604D03*
X131221966Y-112282300D03*
X131307978Y-131636947D03*
X132440563Y-107731747D03*
X133244582Y-110263629D03*
X133340970Y-122074930D03*
X133131075Y-125775554D03*
X133449829Y-129496150D03*
X134441441Y-105916229D03*
X135313269Y-123910431D03*
X136975688Y-121648094D03*
X137286351Y-125592944D03*
X136963693Y-129388022D03*
X99000000Y-128200000D03*
X125100000Y-137300000D03*
X67650000Y-139450000D03*
X67650000Y-140850000D03*
X68950000Y-139450000D03*
X68950000Y-140850000D03*
X70350000Y-139450000D03*
X71650000Y-139450000D03*
X73050000Y-144950000D03*
X70350000Y-140850000D03*
X71650000Y-140950000D03*
X64550000Y-140450000D03*
D15*
X115350000Y-106650000D03*
X116600000Y-106650000D03*
X116600000Y-107925000D03*
X115375000Y-107925000D03*
X115975000Y-107300000D03*
X73750000Y-133750000D03*
X75650000Y-133450000D03*
X75800000Y-134600000D03*
X74600000Y-136050000D03*
X74500000Y-131950000D03*
X75400000Y-132450000D03*
X76750000Y-132850000D03*
X72400000Y-132000000D03*
X77325000Y-109100000D03*
X69650000Y-121050000D03*
X69650000Y-122050000D03*
X69650000Y-123050000D03*
X69650000Y-124050000D03*
X69650000Y-120050000D03*
X58050000Y-115150000D03*
X59650000Y-115250000D03*
X60050000Y-116650000D03*
X61150000Y-117850000D03*
X60050000Y-120350000D03*
X58250000Y-118550000D03*
X56150000Y-117150000D03*
X55750000Y-113150000D03*
X59950000Y-112950000D03*
X69750000Y-113950000D03*
X69950000Y-112050000D03*
X70950000Y-110150000D03*
X71050000Y-106450000D03*
X70050000Y-105150000D03*
X71750000Y-103750000D03*
X73650000Y-103950000D03*
X83675000Y-125200000D03*
X81925000Y-125200000D03*
X80075000Y-126075000D03*
X79725000Y-124550000D03*
X77675000Y-124100000D03*
X82750000Y-125200000D03*
%TO.N,/VDD*%
X113770000Y-105070000D03*
X111540000Y-108970000D03*
X131500000Y-140400000D03*
X131500000Y-141400000D03*
X132400000Y-141400000D03*
X132400000Y-140400000D03*
X133300000Y-140400000D03*
X133300000Y-141400000D03*
X134200000Y-141400000D03*
X134200000Y-140400000D03*
X134200000Y-139500000D03*
D16*
X84100000Y-135600000D03*
X84100000Y-134500000D03*
X84100000Y-133400000D03*
X84100000Y-132300000D03*
X85400000Y-132300000D03*
X86700000Y-132300000D03*
X85400000Y-133400000D03*
X86700000Y-133400000D03*
X88000000Y-132300000D03*
X88000000Y-133400000D03*
X91100000Y-132200000D03*
X91100000Y-133400000D03*
X92400000Y-132200000D03*
X92400000Y-133400000D03*
D15*
X92650000Y-134425000D03*
%TO.N,+5V*%
X64125000Y-114800000D03*
X65900000Y-114800000D03*
X65000000Y-114800000D03*
X64125000Y-119700000D03*
X65900000Y-119700000D03*
X65000000Y-119700000D03*
X62975000Y-103900000D03*
X64450000Y-105275000D03*
X66275000Y-105250000D03*
X64150000Y-104200000D03*
X65375000Y-103800000D03*
X66625000Y-104325000D03*
X68525000Y-104525000D03*
X67700000Y-103825000D03*
X60437500Y-123362500D03*
X58762500Y-128737500D03*
X66775000Y-143100000D03*
X65350000Y-144250000D03*
X67325000Y-144375000D03*
X66400000Y-144000000D03*
X72550000Y-117250000D03*
D16*
X72150000Y-137950000D03*
X73250000Y-137450000D03*
X72250000Y-136650000D03*
%TO.N,/VDDA_GPS*%
X89100000Y-108610000D03*
X89090000Y-107540000D03*
X87710000Y-106240000D03*
X89060000Y-106260000D03*
X90740000Y-106310000D03*
X89960000Y-105290000D03*
X103975000Y-111975000D03*
X83600000Y-122300000D03*
X82500000Y-121800000D03*
X82700000Y-120700000D03*
X83700000Y-121200000D03*
%TO.N,Net-(C23-Pad2)*%
X120000000Y-84600000D03*
X127840000Y-85440000D03*
%TO.N,GNDA*%
X138010000Y-81080000D03*
X137990000Y-82600000D03*
X119980000Y-63530000D03*
X120010000Y-61700000D03*
X139940000Y-86740000D03*
X136635000Y-77135000D03*
X131905000Y-77135000D03*
X138010000Y-90810000D03*
X140250000Y-91720000D03*
X138090000Y-92140000D03*
X143110000Y-88870000D03*
X143970000Y-86670000D03*
X144000000Y-90910000D03*
X143990000Y-82400000D03*
X143960000Y-73300000D03*
X143980000Y-71700000D03*
X117810000Y-80870000D03*
X130400000Y-88960000D03*
X136600000Y-85700000D03*
X114150000Y-58500000D03*
X111200000Y-62050000D03*
X108830000Y-62670000D03*
X115500000Y-62670000D03*
X125000000Y-62150000D03*
X125100000Y-63450000D03*
X126200000Y-62650000D03*
X107454234Y-65924600D03*
X107716218Y-69677773D03*
X107778277Y-81918922D03*
X108700676Y-72394049D03*
X109530855Y-67438321D03*
X110262445Y-70508662D03*
X111387963Y-65621753D03*
X112594907Y-68690164D03*
X112388964Y-81969118D03*
X113289024Y-71198672D03*
X113456013Y-87797900D03*
X114163082Y-66877665D03*
X115625000Y-68800000D03*
X115138626Y-89362367D03*
X116994926Y-65467756D03*
X117959571Y-61142247D03*
X118184567Y-68746713D03*
X119788229Y-66498318D03*
X121134456Y-93387476D03*
X121079975Y-98857160D03*
X123771429Y-99920489D03*
X124696943Y-79807601D03*
X125579983Y-68551868D03*
X128444871Y-79990789D03*
X130346873Y-69709665D03*
X132169500Y-74438189D03*
X132326402Y-99837511D03*
X133453553Y-78951875D03*
X136135839Y-69518369D03*
X136405454Y-94088404D03*
X136427650Y-98177888D03*
X138031835Y-65545350D03*
X141107822Y-66825943D03*
X141096414Y-84858493D03*
X142076634Y-76246736D03*
X142057286Y-79834968D03*
X121100000Y-95900000D03*
X120300000Y-91100000D03*
X117600000Y-89600000D03*
X127840000Y-61720000D03*
X127860000Y-63460000D03*
X108775000Y-78025000D03*
X120025000Y-74000000D03*
X120875000Y-78075000D03*
X116500000Y-76400000D03*
X119500000Y-82800000D03*
X121475000Y-85600000D03*
X138400000Y-76850000D03*
X144000000Y-70300000D03*
X143850000Y-67125000D03*
X138975000Y-66850000D03*
X108900000Y-79625000D03*
X108200000Y-77025000D03*
X106625000Y-75900000D03*
X109400000Y-81200000D03*
X106750000Y-86075000D03*
X108100000Y-86700000D03*
X109250000Y-89425000D03*
X112225000Y-87225000D03*
X112850000Y-85050000D03*
X111200000Y-89500000D03*
X108075000Y-88425000D03*
X113050000Y-83500000D03*
X117575000Y-77400000D03*
X117600000Y-74900000D03*
X113075000Y-74850000D03*
X111675000Y-76350000D03*
X119925000Y-76625000D03*
X119900000Y-79475000D03*
X126325000Y-80550000D03*
X131275000Y-80750000D03*
X129450000Y-80950000D03*
X131925000Y-78425000D03*
X128175000Y-78525000D03*
%TO.N,/VDDA*%
X93880000Y-78980000D03*
X108550000Y-75460000D03*
X137995000Y-88905000D03*
X140200000Y-69300000D03*
%TO.N,VBAT_B*%
X124000000Y-58550000D03*
X125000000Y-58550000D03*
X125900000Y-58900000D03*
X125950000Y-59850000D03*
%TO.N,Net-(C34-Pad1)*%
X136635000Y-75865000D03*
X131875000Y-75865000D03*
D15*
%TO.N,/CCS811_WAKE_T*%
X121290000Y-138370000D03*
X121770000Y-118940000D03*
%TO.N,/I2C_SCL_T*%
X124300000Y-119020000D03*
X122700000Y-137660000D03*
%TO.N,/I2C_SDA_T*%
X122050000Y-138130000D03*
X123070000Y-119030000D03*
D16*
%TO.N,/CCS811_WAKE*%
X136620000Y-84580000D03*
%TO.N,/MIC_OUT*%
X123690000Y-66980000D03*
X123250000Y-83860000D03*
%TO.N,/I2C_SCL*%
X136540000Y-79690000D03*
X134850000Y-79690000D03*
X134850000Y-72080000D03*
%TO.N,/I2C_SDA*%
X135800000Y-91910000D03*
X135800000Y-88810000D03*
X135800000Y-73310000D03*
%TO.N,/RAD_V_B*%
X124940000Y-64730000D03*
X113425000Y-78650000D03*
%TO.N,/UV_OUT_B*%
X124620000Y-66270000D03*
X126860000Y-75030000D03*
D15*
%TO.N,/#EN*%
X110960000Y-130890000D03*
X134470000Y-134860000D03*
X135725000Y-145325000D03*
%TO.N,/RTS*%
X69905000Y-107795000D03*
X78000000Y-109925000D03*
%TO.N,/IO0*%
X101690000Y-123420000D03*
X116100000Y-118190000D03*
%TO.N,/DTR*%
X69890000Y-109065000D03*
X76450000Y-110175000D03*
%TO.N,Net-(R1-Pad1)*%
X68765000Y-136235000D03*
X58600000Y-124250000D03*
%TO.N,Net-(R4-Pad1)*%
X70035000Y-136260000D03*
X59775000Y-128725000D03*
%TO.N,/KEY4*%
X134460000Y-118460000D03*
D16*
X117300000Y-115700000D03*
D15*
%TO.N,/KEY3*%
X130660000Y-118640000D03*
D16*
X117300000Y-114100000D03*
X129300000Y-114500000D03*
D15*
%TO.N,/KEY2*%
X127075000Y-119950000D03*
D16*
X117300000Y-112800000D03*
X128077401Y-113777401D03*
D15*
%TO.N,/KEY1*%
X126225000Y-119050000D03*
D16*
X117300000Y-110900000D03*
X126800000Y-113100000D03*
D15*
%TO.N,/U0_RX*%
X116400000Y-121050000D03*
X131400000Y-117900000D03*
%TO.N,/SPI2_MOSI*%
X97750000Y-129210000D03*
X117190000Y-129220000D03*
%TO.N,/SPI2_SCLK*%
X119362481Y-135010909D03*
D16*
X103000000Y-127200000D03*
D15*
X98250000Y-135100000D03*
%TO.N,/GPS_PPS*%
X94495000Y-113175000D03*
X94495000Y-107875000D03*
%TO.N,/GPS_TXD*%
X116110000Y-119770000D03*
X128130000Y-130630000D03*
%TO.N,/GPS_RXD*%
X115330000Y-120460000D03*
X126840000Y-130650000D03*
D16*
%TO.N,Net-(R45-Pad1)*%
X126900000Y-77540000D03*
X128420000Y-74020000D03*
D15*
%TO.N,/U0_TX*%
X116422590Y-122347590D03*
X132075000Y-119375000D03*
%TO.N,/GYRO_INT*%
X113080000Y-106030000D03*
X125570000Y-112060000D03*
%TO.N,/SPI2_CS0*%
X98870000Y-130030000D03*
X117930002Y-121050000D03*
%TO.N,/SPI2_RST*%
X119370000Y-135860000D03*
X96550000Y-135550000D03*
%TO.N,/SPI2_DC*%
X120330000Y-137290000D03*
X99350000Y-136450000D03*
%TD*%
D17*
%TO.N,/VDD*%
X92400000Y-128110000D02*
X92400000Y-132200000D01*
X111540000Y-108970000D02*
X92400000Y-128110000D01*
D18*
X96900000Y-140900000D02*
X91300000Y-135300000D01*
X134050000Y-140900000D02*
X96900000Y-140900000D01*
D19*
%TO.N,/VDDA_GPS*%
X103975000Y-111975000D02*
X94525000Y-111975000D01*
X94525000Y-111975000D02*
X90720000Y-108170000D01*
X83700000Y-121200000D02*
X83700000Y-112700000D01*
X83700000Y-112700000D02*
X87900000Y-108500000D01*
%TO.N,/VDDA*%
X119940000Y-86850000D02*
X108550000Y-75460000D01*
X135940000Y-86850000D02*
X119940000Y-86850000D01*
D20*
X140200000Y-83550000D02*
X136420000Y-87330000D01*
D19*
X136420000Y-87330000D02*
X135940000Y-86850000D01*
D20*
X140200000Y-69300000D02*
X140200000Y-83550000D01*
D19*
X137995000Y-88905000D02*
X136420000Y-87330000D01*
D20*
%TO.N,/CCS811_WAKE_T*%
X121290000Y-138370000D02*
X121290000Y-119400000D01*
X121290000Y-119400000D02*
X121770000Y-118940000D01*
X121770000Y-118940000D02*
X121760000Y-118930000D01*
%TO.N,/I2C_SCL_T*%
X124300000Y-119020000D02*
X124300000Y-119020000D01*
X122700000Y-120620000D02*
X124300000Y-119020000D01*
X122700000Y-137660000D02*
X122700000Y-120620000D01*
%TO.N,/I2C_SDA_T*%
X122121099Y-119978901D02*
X123070000Y-119030000D01*
X122121099Y-138201099D02*
X122121099Y-119978901D01*
X122050000Y-138130000D02*
X122121099Y-138201099D01*
X123070000Y-119030000D02*
X123070000Y-119030000D01*
%TO.N,/MIC_OUT*%
X123690000Y-83420000D02*
X123250000Y-83860000D01*
X123690000Y-66980000D02*
X123690000Y-83420000D01*
X123250000Y-83860000D02*
X123250000Y-83860000D01*
%TO.N,/I2C_SDA*%
X135800000Y-91910000D02*
X135800000Y-88810000D01*
X135800000Y-88810000D02*
X135800000Y-88810000D01*
%TO.N,/RAD_V_B*%
X124940000Y-64730000D02*
X113425000Y-76245000D01*
X113425000Y-76245000D02*
X113425000Y-78650000D01*
%TO.N,/UV_OUT_B*%
X124620000Y-66270000D02*
X124620000Y-72780000D01*
X124620000Y-72780000D02*
X126860000Y-75030000D01*
X126860000Y-75030000D02*
X126860000Y-75020000D01*
%TO.N,/KEY4*%
X131700000Y-115700000D02*
X134460000Y-118460000D01*
X117300000Y-115700000D02*
X131700000Y-115700000D01*
%TO.N,/KEY3*%
X117300000Y-114100000D02*
X117700000Y-114500000D01*
X117700000Y-114500000D02*
X129300000Y-114500000D01*
X129300000Y-114500000D02*
X129300000Y-114500000D01*
%TO.N,/KEY2*%
X118277401Y-113777401D02*
X128077401Y-113777401D01*
X117300000Y-112800000D02*
X118277401Y-113777401D01*
X128077401Y-113777401D02*
X128077401Y-113777401D01*
%TO.N,/KEY1*%
X117300000Y-110900000D02*
X119500000Y-113100000D01*
X119500000Y-113100000D02*
X126800000Y-113100000D01*
X126800000Y-113100000D02*
X126800000Y-113100000D01*
%TO.N,/U0_RX*%
X131400000Y-117900000D02*
X131397590Y-117897590D01*
X131300000Y-117800000D02*
X131400000Y-117900000D01*
X119650000Y-117800000D02*
X131300000Y-117800000D01*
X116400000Y-121050000D02*
X119650000Y-117800000D01*
%TO.N,/SPI2_SCLK*%
X119273390Y-135100000D02*
X119362481Y-135010909D01*
X103000000Y-135050000D02*
X102950000Y-135100000D01*
X103000000Y-127200000D02*
X103000000Y-135050000D01*
X102950000Y-135100000D02*
X119273390Y-135100000D01*
X99320000Y-135100000D02*
X102950000Y-135100000D01*
X99320000Y-135100000D02*
X98250000Y-135100000D01*
%TO.N,Net-(R45-Pad1)*%
X128420000Y-76020000D02*
X128420000Y-74020000D01*
X126900000Y-77540000D02*
X128420000Y-76020000D01*
X128420000Y-74020000D02*
X128420000Y-74020000D01*
%TO.N,/U0_TX*%
X132075000Y-119375000D02*
X132075000Y-119375000D01*
X116422590Y-122347590D02*
X117489186Y-122347590D01*
X117489186Y-122347590D02*
X121536776Y-118300000D01*
X121536776Y-118300000D02*
X129175000Y-118300000D01*
X129175000Y-118300000D02*
X130250000Y-119375000D01*
X130250000Y-119375000D02*
X132075000Y-119375000D01*
%TO.N,/SPI2_RST*%
X96860000Y-135860000D02*
X119370000Y-135860000D01*
X96550000Y-135550000D02*
X96550000Y-135550000D01*
X96550000Y-135550000D02*
X96860000Y-135860000D01*
%TD*%
D21*
%TO.N,+5V*%
X69000000Y-115900000D02*
X69001921Y-115919509D01*
X69007612Y-115938268D01*
X69016853Y-115955557D01*
X69029289Y-115970711D01*
X69044443Y-115983147D01*
X69061732Y-115992388D01*
X69080491Y-115998079D01*
X69100000Y-116000000D01*
X73800000Y-116000000D01*
X73800000Y-118700000D01*
X69100000Y-118700000D01*
X69080491Y-118701921D01*
X69061732Y-118707612D01*
X69044443Y-118716853D01*
X69029289Y-118729289D01*
X69016853Y-118744443D01*
X69007612Y-118761732D01*
X69001921Y-118780491D01*
X69000000Y-118800000D01*
X69000000Y-133100000D01*
X69001921Y-133119509D01*
X69007612Y-133138268D01*
X69016853Y-133155557D01*
X69029289Y-133170711D01*
X69044443Y-133183147D01*
X69061732Y-133192388D01*
X69080491Y-133198079D01*
X69100000Y-133200000D01*
X72706024Y-133200000D01*
X72665083Y-133216958D01*
X72566566Y-133282785D01*
X72482785Y-133366566D01*
X72416958Y-133465083D01*
X72371616Y-133574549D01*
X72348500Y-133690757D01*
X72348500Y-133809243D01*
X72371616Y-133925451D01*
X72416958Y-134034917D01*
X72482785Y-134133434D01*
X72566566Y-134217215D01*
X72578217Y-134225000D01*
X72566566Y-134232785D01*
X72482785Y-134316566D01*
X72416958Y-134415083D01*
X72371616Y-134524549D01*
X72348500Y-134640757D01*
X72348500Y-134759243D01*
X72371616Y-134875451D01*
X72416958Y-134984917D01*
X72482785Y-135083434D01*
X72566566Y-135167215D01*
X72665083Y-135233042D01*
X72774549Y-135278384D01*
X72890757Y-135301500D01*
X73009243Y-135301500D01*
X73125451Y-135278384D01*
X73234917Y-135233042D01*
X73333434Y-135167215D01*
X73417215Y-135083434D01*
X73483042Y-134984917D01*
X73528384Y-134875451D01*
X73551500Y-134759243D01*
X73551500Y-134640757D01*
X73528384Y-134524549D01*
X73483042Y-134415083D01*
X73417215Y-134316566D01*
X73333434Y-134232785D01*
X73321783Y-134225000D01*
X73333434Y-134217215D01*
X73350000Y-134200649D01*
X73366566Y-134217215D01*
X73465083Y-134283042D01*
X73574549Y-134328384D01*
X73650000Y-134343393D01*
X73650000Y-138350000D01*
X71050000Y-138350000D01*
X71050000Y-135750000D01*
X71048079Y-135730491D01*
X71042388Y-135711732D01*
X71033147Y-135694443D01*
X71020711Y-135679289D01*
X71005557Y-135666853D01*
X70988268Y-135657612D01*
X70969509Y-135651921D01*
X70950000Y-135650000D01*
X68907191Y-135650000D01*
X68824243Y-135633500D01*
X68705757Y-135633500D01*
X68622809Y-135650000D01*
X66750000Y-135650000D01*
X66730491Y-135651921D01*
X66711732Y-135657612D01*
X66694443Y-135666853D01*
X66679289Y-135679289D01*
X66666853Y-135694443D01*
X66657612Y-135711732D01*
X66651921Y-135730491D01*
X66650000Y-135750000D01*
X66650000Y-142000000D01*
X66651921Y-142019509D01*
X66657612Y-142038268D01*
X66666853Y-142055557D01*
X66679289Y-142070711D01*
X66694443Y-142083147D01*
X66711732Y-142092388D01*
X66730491Y-142098079D01*
X66750000Y-142100000D01*
X67650000Y-142100000D01*
X67650000Y-145500000D01*
X62400000Y-145500000D01*
X62400000Y-140381056D01*
X63850000Y-140381056D01*
X63850000Y-140518944D01*
X63876901Y-140654182D01*
X63929668Y-140781574D01*
X64006274Y-140896224D01*
X64103776Y-140993726D01*
X64218426Y-141070332D01*
X64345818Y-141123099D01*
X64481056Y-141150000D01*
X64618944Y-141150000D01*
X64754182Y-141123099D01*
X64881574Y-141070332D01*
X64996224Y-140993726D01*
X65093726Y-140896224D01*
X65170332Y-140781574D01*
X65223099Y-140654182D01*
X65250000Y-140518944D01*
X65250000Y-140381056D01*
X65223099Y-140245818D01*
X65170332Y-140118426D01*
X65093726Y-140003776D01*
X64996224Y-139906274D01*
X64881574Y-139829668D01*
X64754182Y-139776901D01*
X64618944Y-139750000D01*
X64481056Y-139750000D01*
X64345818Y-139776901D01*
X64218426Y-139829668D01*
X64103776Y-139906274D01*
X64006274Y-140003776D01*
X63929668Y-140118426D01*
X63876901Y-140245818D01*
X63850000Y-140381056D01*
X62400000Y-140381056D01*
X62400000Y-130800000D01*
X62398079Y-130780491D01*
X62392388Y-130761732D01*
X62383147Y-130744443D01*
X62370711Y-130729289D01*
X62355557Y-130716853D01*
X62338268Y-130707612D01*
X62319509Y-130701921D01*
X62300000Y-130700000D01*
X55800000Y-130700000D01*
X55800000Y-128665757D01*
X59173500Y-128665757D01*
X59173500Y-128784243D01*
X59196616Y-128900451D01*
X59241958Y-129009917D01*
X59307785Y-129108434D01*
X59391566Y-129192215D01*
X59490083Y-129258042D01*
X59599549Y-129303384D01*
X59715757Y-129326500D01*
X59834243Y-129326500D01*
X59950451Y-129303384D01*
X60059917Y-129258042D01*
X60158434Y-129192215D01*
X60242215Y-129108434D01*
X60308042Y-129009917D01*
X60353384Y-128900451D01*
X60376500Y-128784243D01*
X60376500Y-128665757D01*
X60353384Y-128549549D01*
X60308042Y-128440083D01*
X60242215Y-128341566D01*
X60158434Y-128257785D01*
X60059917Y-128191958D01*
X59950451Y-128146616D01*
X59834243Y-128123500D01*
X59715757Y-128123500D01*
X59599549Y-128146616D01*
X59490083Y-128191958D01*
X59391566Y-128257785D01*
X59307785Y-128341566D01*
X59241958Y-128440083D01*
X59196616Y-128549549D01*
X59173500Y-128665757D01*
X55800000Y-128665757D01*
X55800000Y-124190757D01*
X57998500Y-124190757D01*
X57998500Y-124309243D01*
X58021616Y-124425451D01*
X58066958Y-124534917D01*
X58132785Y-124633434D01*
X58216566Y-124717215D01*
X58315083Y-124783042D01*
X58424549Y-124828384D01*
X58540757Y-124851500D01*
X58659243Y-124851500D01*
X58775451Y-124828384D01*
X58884917Y-124783042D01*
X58983434Y-124717215D01*
X59067215Y-124633434D01*
X59133042Y-124534917D01*
X59178384Y-124425451D01*
X59201500Y-124309243D01*
X59201500Y-124190757D01*
X59178384Y-124074549D01*
X59133042Y-123965083D01*
X59067215Y-123866566D01*
X58983434Y-123782785D01*
X58884917Y-123716958D01*
X58775451Y-123671616D01*
X58659243Y-123648500D01*
X58540757Y-123648500D01*
X58424549Y-123671616D01*
X58315083Y-123716958D01*
X58216566Y-123782785D01*
X58132785Y-123866566D01*
X58066958Y-123965083D01*
X58021616Y-124074549D01*
X57998500Y-124190757D01*
X55800000Y-124190757D01*
X55800000Y-122300000D01*
X57318651Y-122300000D01*
X57342372Y-122312679D01*
X57493173Y-122358424D01*
X57610707Y-122370000D01*
X58289293Y-122370000D01*
X58406827Y-122358424D01*
X58557628Y-122312679D01*
X58581349Y-122300000D01*
X61248651Y-122300000D01*
X61272372Y-122312679D01*
X61423173Y-122358424D01*
X61540707Y-122370000D01*
X62719293Y-122370000D01*
X62836827Y-122358424D01*
X62987628Y-122312679D01*
X63126606Y-122238393D01*
X63248422Y-122138422D01*
X63348393Y-122016606D01*
X63422679Y-121877628D01*
X63468424Y-121726827D01*
X63483870Y-121570000D01*
X63468424Y-121413173D01*
X63422679Y-121262372D01*
X63348393Y-121123394D01*
X63248422Y-121001578D01*
X63126606Y-120901607D01*
X62987628Y-120827321D01*
X62836827Y-120781576D01*
X62719293Y-120770000D01*
X62400000Y-120770000D01*
X62400000Y-117190757D01*
X67648500Y-117190757D01*
X67648500Y-117309243D01*
X67671616Y-117425451D01*
X67716958Y-117534917D01*
X67782785Y-117633434D01*
X67866566Y-117717215D01*
X67965083Y-117783042D01*
X68074549Y-117828384D01*
X68190757Y-117851500D01*
X68309243Y-117851500D01*
X68425451Y-117828384D01*
X68534917Y-117783042D01*
X68633434Y-117717215D01*
X68717215Y-117633434D01*
X68783042Y-117534917D01*
X68828384Y-117425451D01*
X68851500Y-117309243D01*
X68851500Y-117190757D01*
X68828384Y-117074549D01*
X68783042Y-116965083D01*
X68717215Y-116866566D01*
X68633434Y-116782785D01*
X68534917Y-116716958D01*
X68425451Y-116671616D01*
X68309243Y-116648500D01*
X68190757Y-116648500D01*
X68074549Y-116671616D01*
X67965083Y-116716958D01*
X67866566Y-116782785D01*
X67782785Y-116866566D01*
X67716958Y-116965083D01*
X67671616Y-117074549D01*
X67648500Y-117190757D01*
X62400000Y-117190757D01*
X62400000Y-113730000D01*
X62719293Y-113730000D01*
X62836827Y-113718424D01*
X62987628Y-113672679D01*
X63126606Y-113598393D01*
X63248422Y-113498422D01*
X63348393Y-113376606D01*
X63422679Y-113237628D01*
X63468424Y-113086827D01*
X63483870Y-112930000D01*
X63468424Y-112773173D01*
X63422679Y-112622372D01*
X63348393Y-112483394D01*
X63248422Y-112361578D01*
X63126606Y-112261607D01*
X62987628Y-112187321D01*
X62836827Y-112141576D01*
X62719293Y-112130000D01*
X62400000Y-112130000D01*
X62400000Y-103300000D01*
X69000000Y-103300000D01*
X69000000Y-115900000D01*
%TA.AperFunction,Conductor*%
D22*
G36*
X69000000Y-115900000D02*
G01*
X69001921Y-115919509D01*
X69007612Y-115938268D01*
X69016853Y-115955557D01*
X69029289Y-115970711D01*
X69044443Y-115983147D01*
X69061732Y-115992388D01*
X69080491Y-115998079D01*
X69100000Y-116000000D01*
X73800000Y-116000000D01*
X73800000Y-118700000D01*
X69100000Y-118700000D01*
X69080491Y-118701921D01*
X69061732Y-118707612D01*
X69044443Y-118716853D01*
X69029289Y-118729289D01*
X69016853Y-118744443D01*
X69007612Y-118761732D01*
X69001921Y-118780491D01*
X69000000Y-118800000D01*
X69000000Y-133100000D01*
X69001921Y-133119509D01*
X69007612Y-133138268D01*
X69016853Y-133155557D01*
X69029289Y-133170711D01*
X69044443Y-133183147D01*
X69061732Y-133192388D01*
X69080491Y-133198079D01*
X69100000Y-133200000D01*
X72706024Y-133200000D01*
X72665083Y-133216958D01*
X72566566Y-133282785D01*
X72482785Y-133366566D01*
X72416958Y-133465083D01*
X72371616Y-133574549D01*
X72348500Y-133690757D01*
X72348500Y-133809243D01*
X72371616Y-133925451D01*
X72416958Y-134034917D01*
X72482785Y-134133434D01*
X72566566Y-134217215D01*
X72578217Y-134225000D01*
X72566566Y-134232785D01*
X72482785Y-134316566D01*
X72416958Y-134415083D01*
X72371616Y-134524549D01*
X72348500Y-134640757D01*
X72348500Y-134759243D01*
X72371616Y-134875451D01*
X72416958Y-134984917D01*
X72482785Y-135083434D01*
X72566566Y-135167215D01*
X72665083Y-135233042D01*
X72774549Y-135278384D01*
X72890757Y-135301500D01*
X73009243Y-135301500D01*
X73125451Y-135278384D01*
X73234917Y-135233042D01*
X73333434Y-135167215D01*
X73417215Y-135083434D01*
X73483042Y-134984917D01*
X73528384Y-134875451D01*
X73551500Y-134759243D01*
X73551500Y-134640757D01*
X73528384Y-134524549D01*
X73483042Y-134415083D01*
X73417215Y-134316566D01*
X73333434Y-134232785D01*
X73321783Y-134225000D01*
X73333434Y-134217215D01*
X73350000Y-134200649D01*
X73366566Y-134217215D01*
X73465083Y-134283042D01*
X73574549Y-134328384D01*
X73650000Y-134343393D01*
X73650000Y-138350000D01*
X71050000Y-138350000D01*
X71050000Y-135750000D01*
X71048079Y-135730491D01*
X71042388Y-135711732D01*
X71033147Y-135694443D01*
X71020711Y-135679289D01*
X71005557Y-135666853D01*
X70988268Y-135657612D01*
X70969509Y-135651921D01*
X70950000Y-135650000D01*
X68907191Y-135650000D01*
X68824243Y-135633500D01*
X68705757Y-135633500D01*
X68622809Y-135650000D01*
X66750000Y-135650000D01*
X66730491Y-135651921D01*
X66711732Y-135657612D01*
X66694443Y-135666853D01*
X66679289Y-135679289D01*
X66666853Y-135694443D01*
X66657612Y-135711732D01*
X66651921Y-135730491D01*
X66650000Y-135750000D01*
X66650000Y-142000000D01*
X66651921Y-142019509D01*
X66657612Y-142038268D01*
X66666853Y-142055557D01*
X66679289Y-142070711D01*
X66694443Y-142083147D01*
X66711732Y-142092388D01*
X66730491Y-142098079D01*
X66750000Y-142100000D01*
X67650000Y-142100000D01*
X67650000Y-145500000D01*
X62400000Y-145500000D01*
X62400000Y-140381056D01*
X63850000Y-140381056D01*
X63850000Y-140518944D01*
X63876901Y-140654182D01*
X63929668Y-140781574D01*
X64006274Y-140896224D01*
X64103776Y-140993726D01*
X64218426Y-141070332D01*
X64345818Y-141123099D01*
X64481056Y-141150000D01*
X64618944Y-141150000D01*
X64754182Y-141123099D01*
X64881574Y-141070332D01*
X64996224Y-140993726D01*
X65093726Y-140896224D01*
X65170332Y-140781574D01*
X65223099Y-140654182D01*
X65250000Y-140518944D01*
X65250000Y-140381056D01*
X65223099Y-140245818D01*
X65170332Y-140118426D01*
X65093726Y-140003776D01*
X64996224Y-139906274D01*
X64881574Y-139829668D01*
X64754182Y-139776901D01*
X64618944Y-139750000D01*
X64481056Y-139750000D01*
X64345818Y-139776901D01*
X64218426Y-139829668D01*
X64103776Y-139906274D01*
X64006274Y-140003776D01*
X63929668Y-140118426D01*
X63876901Y-140245818D01*
X63850000Y-140381056D01*
X62400000Y-140381056D01*
X62400000Y-130800000D01*
X62398079Y-130780491D01*
X62392388Y-130761732D01*
X62383147Y-130744443D01*
X62370711Y-130729289D01*
X62355557Y-130716853D01*
X62338268Y-130707612D01*
X62319509Y-130701921D01*
X62300000Y-130700000D01*
X55800000Y-130700000D01*
X55800000Y-128665757D01*
X59173500Y-128665757D01*
X59173500Y-128784243D01*
X59196616Y-128900451D01*
X59241958Y-129009917D01*
X59307785Y-129108434D01*
X59391566Y-129192215D01*
X59490083Y-129258042D01*
X59599549Y-129303384D01*
X59715757Y-129326500D01*
X59834243Y-129326500D01*
X59950451Y-129303384D01*
X60059917Y-129258042D01*
X60158434Y-129192215D01*
X60242215Y-129108434D01*
X60308042Y-129009917D01*
X60353384Y-128900451D01*
X60376500Y-128784243D01*
X60376500Y-128665757D01*
X60353384Y-128549549D01*
X60308042Y-128440083D01*
X60242215Y-128341566D01*
X60158434Y-128257785D01*
X60059917Y-128191958D01*
X59950451Y-128146616D01*
X59834243Y-128123500D01*
X59715757Y-128123500D01*
X59599549Y-128146616D01*
X59490083Y-128191958D01*
X59391566Y-128257785D01*
X59307785Y-128341566D01*
X59241958Y-128440083D01*
X59196616Y-128549549D01*
X59173500Y-128665757D01*
X55800000Y-128665757D01*
X55800000Y-124190757D01*
X57998500Y-124190757D01*
X57998500Y-124309243D01*
X58021616Y-124425451D01*
X58066958Y-124534917D01*
X58132785Y-124633434D01*
X58216566Y-124717215D01*
X58315083Y-124783042D01*
X58424549Y-124828384D01*
X58540757Y-124851500D01*
X58659243Y-124851500D01*
X58775451Y-124828384D01*
X58884917Y-124783042D01*
X58983434Y-124717215D01*
X59067215Y-124633434D01*
X59133042Y-124534917D01*
X59178384Y-124425451D01*
X59201500Y-124309243D01*
X59201500Y-124190757D01*
X59178384Y-124074549D01*
X59133042Y-123965083D01*
X59067215Y-123866566D01*
X58983434Y-123782785D01*
X58884917Y-123716958D01*
X58775451Y-123671616D01*
X58659243Y-123648500D01*
X58540757Y-123648500D01*
X58424549Y-123671616D01*
X58315083Y-123716958D01*
X58216566Y-123782785D01*
X58132785Y-123866566D01*
X58066958Y-123965083D01*
X58021616Y-124074549D01*
X57998500Y-124190757D01*
X55800000Y-124190757D01*
X55800000Y-122300000D01*
X57318651Y-122300000D01*
X57342372Y-122312679D01*
X57493173Y-122358424D01*
X57610707Y-122370000D01*
X58289293Y-122370000D01*
X58406827Y-122358424D01*
X58557628Y-122312679D01*
X58581349Y-122300000D01*
X61248651Y-122300000D01*
X61272372Y-122312679D01*
X61423173Y-122358424D01*
X61540707Y-122370000D01*
X62719293Y-122370000D01*
X62836827Y-122358424D01*
X62987628Y-122312679D01*
X63126606Y-122238393D01*
X63248422Y-122138422D01*
X63348393Y-122016606D01*
X63422679Y-121877628D01*
X63468424Y-121726827D01*
X63483870Y-121570000D01*
X63468424Y-121413173D01*
X63422679Y-121262372D01*
X63348393Y-121123394D01*
X63248422Y-121001578D01*
X63126606Y-120901607D01*
X62987628Y-120827321D01*
X62836827Y-120781576D01*
X62719293Y-120770000D01*
X62400000Y-120770000D01*
X62400000Y-117190757D01*
X67648500Y-117190757D01*
X67648500Y-117309243D01*
X67671616Y-117425451D01*
X67716958Y-117534917D01*
X67782785Y-117633434D01*
X67866566Y-117717215D01*
X67965083Y-117783042D01*
X68074549Y-117828384D01*
X68190757Y-117851500D01*
X68309243Y-117851500D01*
X68425451Y-117828384D01*
X68534917Y-117783042D01*
X68633434Y-117717215D01*
X68717215Y-117633434D01*
X68783042Y-117534917D01*
X68828384Y-117425451D01*
X68851500Y-117309243D01*
X68851500Y-117190757D01*
X68828384Y-117074549D01*
X68783042Y-116965083D01*
X68717215Y-116866566D01*
X68633434Y-116782785D01*
X68534917Y-116716958D01*
X68425451Y-116671616D01*
X68309243Y-116648500D01*
X68190757Y-116648500D01*
X68074549Y-116671616D01*
X67965083Y-116716958D01*
X67866566Y-116782785D01*
X67782785Y-116866566D01*
X67716958Y-116965083D01*
X67671616Y-117074549D01*
X67648500Y-117190757D01*
X62400000Y-117190757D01*
X62400000Y-113730000D01*
X62719293Y-113730000D01*
X62836827Y-113718424D01*
X62987628Y-113672679D01*
X63126606Y-113598393D01*
X63248422Y-113498422D01*
X63348393Y-113376606D01*
X63422679Y-113237628D01*
X63468424Y-113086827D01*
X63483870Y-112930000D01*
X63468424Y-112773173D01*
X63422679Y-112622372D01*
X63348393Y-112483394D01*
X63248422Y-112361578D01*
X63126606Y-112261607D01*
X62987628Y-112187321D01*
X62836827Y-112141576D01*
X62719293Y-112130000D01*
X62400000Y-112130000D01*
X62400000Y-103300000D01*
X69000000Y-103300000D01*
X69000000Y-115900000D01*
G37*
%TD.AperFunction*%
%TD*%
D17*
%TO.N,/VDD*%
X93300000Y-137300000D02*
X83300000Y-137300000D01*
X83300000Y-131500000D01*
X93300000Y-131500000D01*
X93300000Y-137300000D01*
%TA.AperFunction,Conductor*%
D22*
G36*
X93300000Y-137300000D02*
G01*
X83300000Y-137300000D01*
X83300000Y-131500000D01*
X93300000Y-131500000D01*
X93300000Y-137300000D01*
G37*
%TD.AperFunction*%
%TD*%
D17*
%TO.N,/VDD*%
X135000000Y-142200000D02*
X130500000Y-142200000D01*
X130500000Y-139000000D01*
X135000000Y-139000000D01*
X135000000Y-142200000D01*
%TA.AperFunction,Conductor*%
D22*
G36*
X135000000Y-142200000D02*
G01*
X130500000Y-142200000D01*
X130500000Y-139000000D01*
X135000000Y-139000000D01*
X135000000Y-142200000D01*
G37*
%TD.AperFunction*%
%TD*%
D21*
%TO.N,/VDDA_GPS*%
X91300000Y-107250000D02*
X91301921Y-107269509D01*
X91307612Y-107288268D01*
X91316853Y-107305557D01*
X91329289Y-107320711D01*
X91344443Y-107333147D01*
X91361732Y-107342388D01*
X91380491Y-107348079D01*
X91400000Y-107350000D01*
X91725000Y-107350000D01*
X91725000Y-109100000D01*
X89000000Y-109100000D01*
X88980491Y-109101921D01*
X88961732Y-109107612D01*
X88944443Y-109116853D01*
X88929289Y-109129289D01*
X88916853Y-109144443D01*
X88907612Y-109161732D01*
X88901921Y-109180491D01*
X88900000Y-109200000D01*
X88900000Y-109225000D01*
X87200000Y-109225000D01*
X87200000Y-104975000D01*
X88725000Y-104975000D01*
X88744509Y-104973079D01*
X88763268Y-104967388D01*
X88780557Y-104958147D01*
X88790850Y-104950258D01*
X90362573Y-103575000D01*
X91300000Y-103575000D01*
X91300000Y-107250000D01*
%TA.AperFunction,Conductor*%
D22*
G36*
X91300000Y-107250000D02*
G01*
X91301921Y-107269509D01*
X91307612Y-107288268D01*
X91316853Y-107305557D01*
X91329289Y-107320711D01*
X91344443Y-107333147D01*
X91361732Y-107342388D01*
X91380491Y-107348079D01*
X91400000Y-107350000D01*
X91725000Y-107350000D01*
X91725000Y-109100000D01*
X89000000Y-109100000D01*
X88980491Y-109101921D01*
X88961732Y-109107612D01*
X88944443Y-109116853D01*
X88929289Y-109129289D01*
X88916853Y-109144443D01*
X88907612Y-109161732D01*
X88901921Y-109180491D01*
X88900000Y-109200000D01*
X88900000Y-109225000D01*
X87200000Y-109225000D01*
X87200000Y-104975000D01*
X88725000Y-104975000D01*
X88744509Y-104973079D01*
X88763268Y-104967388D01*
X88780557Y-104958147D01*
X88790850Y-104950258D01*
X90362573Y-103575000D01*
X91300000Y-103575000D01*
X91300000Y-107250000D01*
G37*
%TD.AperFunction*%
%TD*%
D21*
%TO.N,/VDDA_GPS*%
X85100000Y-121541422D02*
X85100000Y-124475000D01*
X84225000Y-124475000D01*
X84225000Y-122800000D01*
X84223079Y-122780491D01*
X84217388Y-122761732D01*
X84208147Y-122744443D01*
X84195711Y-122729289D01*
X84180557Y-122716853D01*
X84163268Y-122707612D01*
X84144509Y-122701921D01*
X84125000Y-122700000D01*
X82000000Y-122700000D01*
X82000000Y-120300000D01*
X83858578Y-120300000D01*
X85100000Y-121541422D01*
%TA.AperFunction,Conductor*%
D22*
G36*
X85100000Y-121541422D02*
G01*
X85100000Y-124475000D01*
X84225000Y-124475000D01*
X84225000Y-122800000D01*
X84223079Y-122780491D01*
X84217388Y-122761732D01*
X84208147Y-122744443D01*
X84195711Y-122729289D01*
X84180557Y-122716853D01*
X84163268Y-122707612D01*
X84144509Y-122701921D01*
X84125000Y-122700000D01*
X82000000Y-122700000D01*
X82000000Y-120300000D01*
X83858578Y-120300000D01*
X85100000Y-121541422D01*
G37*
%TD.AperFunction*%
%TD*%
D23*
%TO.N,/VDD*%
X111526475Y-109261655D02*
X111520453Y-109265075D01*
X111519348Y-109265780D01*
X111511165Y-109271619D01*
X111510601Y-109272046D01*
X111500383Y-109280233D01*
X111500045Y-109280513D01*
X111487791Y-109291047D01*
X111487566Y-109291246D01*
X111473277Y-109304129D01*
X111473118Y-109304275D01*
X111456793Y-109319505D01*
X111456673Y-109319618D01*
X111438314Y-109337197D01*
X111438222Y-109337286D01*
X111417826Y-109357212D01*
X111417752Y-109357285D01*
X111404302Y-109370642D01*
X111139358Y-109105698D01*
X111152715Y-109092247D01*
X111152787Y-109092173D01*
X111172713Y-109071778D01*
X111172802Y-109071686D01*
X111190381Y-109053326D01*
X111190494Y-109053206D01*
X111205724Y-109036881D01*
X111205870Y-109036722D01*
X111218753Y-109022433D01*
X111218951Y-109022208D01*
X111229486Y-109009954D01*
X111229768Y-109009615D01*
X111237954Y-108999397D01*
X111238380Y-108998834D01*
X111244219Y-108990651D01*
X111244924Y-108989546D01*
X111248343Y-108983525D01*
X111628617Y-108881383D01*
X111526475Y-109261655D01*
%TA.AperFunction,Conductor*%
D22*
G36*
X111526475Y-109261655D02*
G01*
X111520453Y-109265075D01*
X111519348Y-109265780D01*
X111511165Y-109271619D01*
X111510601Y-109272046D01*
X111500383Y-109280233D01*
X111500045Y-109280513D01*
X111487791Y-109291047D01*
X111487566Y-109291246D01*
X111473277Y-109304129D01*
X111473118Y-109304275D01*
X111456793Y-109319505D01*
X111456673Y-109319618D01*
X111438314Y-109337197D01*
X111438222Y-109337286D01*
X111417826Y-109357212D01*
X111417752Y-109357285D01*
X111404302Y-109370642D01*
X111139358Y-109105698D01*
X111152715Y-109092247D01*
X111152787Y-109092173D01*
X111172713Y-109071778D01*
X111172802Y-109071686D01*
X111190381Y-109053326D01*
X111190494Y-109053206D01*
X111205724Y-109036881D01*
X111205870Y-109036722D01*
X111218753Y-109022433D01*
X111218951Y-109022208D01*
X111229486Y-109009954D01*
X111229768Y-109009615D01*
X111237954Y-108999397D01*
X111238380Y-108998834D01*
X111244219Y-108990651D01*
X111244924Y-108989546D01*
X111248343Y-108983525D01*
X111628617Y-108881383D01*
X111526475Y-109261655D01*
G37*
%TD.AperFunction*%
%TD*%
D23*
%TO.N,/VDDA*%
X140464272Y-69583803D02*
X140441324Y-69608058D01*
X140440670Y-69608805D01*
X140414320Y-69641423D01*
X140413705Y-69642250D01*
X140390455Y-69676355D01*
X140389897Y-69677252D01*
X140369747Y-69712845D01*
X140369260Y-69713796D01*
X140352210Y-69750877D01*
X140351806Y-69751863D01*
X140337856Y-69790432D01*
X140337541Y-69791432D01*
X140326691Y-69831488D01*
X140326464Y-69832479D01*
X140318714Y-69874023D01*
X140318573Y-69874988D01*
X140313923Y-69918020D01*
X140313857Y-69918942D01*
X140312734Y-69951204D01*
X140087265Y-69951204D01*
X140086142Y-69918942D01*
X140086076Y-69918020D01*
X140081426Y-69874988D01*
X140081285Y-69874023D01*
X140073535Y-69832479D01*
X140073308Y-69831488D01*
X140062458Y-69791432D01*
X140062143Y-69790432D01*
X140048193Y-69751863D01*
X140047789Y-69750877D01*
X140030739Y-69713796D01*
X140030252Y-69712845D01*
X140010102Y-69677252D01*
X140009544Y-69676355D01*
X139986294Y-69642250D01*
X139985679Y-69641423D01*
X139959329Y-69608805D01*
X139958676Y-69608058D01*
X139935728Y-69583802D01*
X140200000Y-69125426D01*
X140464272Y-69583803D01*
%TA.AperFunction,Conductor*%
D22*
G36*
X140464272Y-69583803D02*
G01*
X140441324Y-69608058D01*
X140440670Y-69608805D01*
X140414320Y-69641423D01*
X140413705Y-69642250D01*
X140390455Y-69676355D01*
X140389897Y-69677252D01*
X140369747Y-69712845D01*
X140369260Y-69713796D01*
X140352210Y-69750877D01*
X140351806Y-69751863D01*
X140337856Y-69790432D01*
X140337541Y-69791432D01*
X140326691Y-69831488D01*
X140326464Y-69832479D01*
X140318714Y-69874023D01*
X140318573Y-69874988D01*
X140313923Y-69918020D01*
X140313857Y-69918942D01*
X140312734Y-69951204D01*
X140087265Y-69951204D01*
X140086142Y-69918942D01*
X140086076Y-69918020D01*
X140081426Y-69874988D01*
X140081285Y-69874023D01*
X140073535Y-69832479D01*
X140073308Y-69831488D01*
X140062458Y-69791432D01*
X140062143Y-69790432D01*
X140048193Y-69751863D01*
X140047789Y-69750877D01*
X140030739Y-69713796D01*
X140030252Y-69712845D01*
X140010102Y-69677252D01*
X140009544Y-69676355D01*
X139986294Y-69642250D01*
X139985679Y-69641423D01*
X139959329Y-69608805D01*
X139958676Y-69608058D01*
X139935728Y-69583802D01*
X140200000Y-69125426D01*
X140464272Y-69583803D01*
G37*
%TD.AperFunction*%
%TD*%
D23*
%TO.N,/CCS811_WAKE_T*%
X121403167Y-137969201D02*
X121403232Y-137970119D01*
X121405814Y-137994145D01*
X121405954Y-137995105D01*
X121410257Y-138018290D01*
X121410482Y-138019279D01*
X121416505Y-138041621D01*
X121416819Y-138042619D01*
X121424564Y-138064119D01*
X121424966Y-138065105D01*
X121434431Y-138085763D01*
X121434918Y-138086716D01*
X121446105Y-138106532D01*
X121446663Y-138107432D01*
X121459570Y-138126406D01*
X121460187Y-138127238D01*
X121474816Y-138145370D01*
X121475472Y-138146121D01*
X121485323Y-138156539D01*
X121290000Y-138495324D01*
X121094677Y-138156538D01*
X121104527Y-138146120D01*
X121105183Y-138145370D01*
X121119812Y-138127238D01*
X121120429Y-138126406D01*
X121133336Y-138107432D01*
X121133894Y-138106532D01*
X121145081Y-138086716D01*
X121145568Y-138085763D01*
X121155033Y-138065105D01*
X121155435Y-138064119D01*
X121163180Y-138042619D01*
X121163494Y-138041621D01*
X121169517Y-138019279D01*
X121169742Y-138018290D01*
X121174045Y-137995105D01*
X121174185Y-137994145D01*
X121176767Y-137970119D01*
X121176832Y-137969201D01*
X121177268Y-137956594D01*
X121402731Y-137956594D01*
X121403167Y-137969201D01*
%TA.AperFunction,Conductor*%
D22*
G36*
X121403167Y-137969201D02*
G01*
X121403232Y-137970119D01*
X121405814Y-137994145D01*
X121405954Y-137995105D01*
X121410257Y-138018290D01*
X121410482Y-138019279D01*
X121416505Y-138041621D01*
X121416819Y-138042619D01*
X121424564Y-138064119D01*
X121424966Y-138065105D01*
X121434431Y-138085763D01*
X121434918Y-138086716D01*
X121446105Y-138106532D01*
X121446663Y-138107432D01*
X121459570Y-138126406D01*
X121460187Y-138127238D01*
X121474816Y-138145370D01*
X121475472Y-138146121D01*
X121485323Y-138156539D01*
X121290000Y-138495324D01*
X121094677Y-138156538D01*
X121104527Y-138146120D01*
X121105183Y-138145370D01*
X121119812Y-138127238D01*
X121120429Y-138126406D01*
X121133336Y-138107432D01*
X121133894Y-138106532D01*
X121145081Y-138086716D01*
X121145568Y-138085763D01*
X121155033Y-138065105D01*
X121155435Y-138064119D01*
X121163180Y-138042619D01*
X121163494Y-138041621D01*
X121169517Y-138019279D01*
X121169742Y-138018290D01*
X121174045Y-137995105D01*
X121174185Y-137994145D01*
X121176767Y-137970119D01*
X121176832Y-137969201D01*
X121177268Y-137956594D01*
X121402731Y-137956594D01*
X121403167Y-137969201D01*
G37*
%TD.AperFunction*%
%TD*%
D23*
%TO.N,/CCS811_WAKE_T*%
X121751029Y-119228715D02*
X121736693Y-119228810D01*
X121735695Y-119228856D01*
X121712482Y-119230841D01*
X121711456Y-119230971D01*
X121688826Y-119234780D01*
X121687790Y-119234999D01*
X121665743Y-119240633D01*
X121664718Y-119240942D01*
X121643254Y-119248402D01*
X121642263Y-119248793D01*
X121621382Y-119258077D01*
X121620445Y-119258541D01*
X121600146Y-119269651D01*
X121599276Y-119270173D01*
X121579560Y-119283108D01*
X121578769Y-119283672D01*
X121559637Y-119298432D01*
X121558930Y-119299020D01*
X121549526Y-119307429D01*
X121393526Y-119144646D01*
X121402327Y-119135608D01*
X121402945Y-119134926D01*
X121418505Y-119116438D01*
X121419101Y-119115672D01*
X121432863Y-119096524D01*
X121433421Y-119095678D01*
X121445384Y-119075871D01*
X121445888Y-119074954D01*
X121456052Y-119054487D01*
X121456485Y-119053514D01*
X121464851Y-119032386D01*
X121465203Y-119031375D01*
X121471770Y-119009588D01*
X121472033Y-119008562D01*
X121476802Y-118986115D01*
X121476975Y-118985095D01*
X121479944Y-118961988D01*
X121480033Y-118960995D01*
X121480739Y-118946676D01*
X121860481Y-118853289D01*
X121751029Y-119228715D01*
%TA.AperFunction,Conductor*%
D22*
G36*
X121751029Y-119228715D02*
G01*
X121736693Y-119228810D01*
X121735695Y-119228856D01*
X121712482Y-119230841D01*
X121711456Y-119230971D01*
X121688826Y-119234780D01*
X121687790Y-119234999D01*
X121665743Y-119240633D01*
X121664718Y-119240942D01*
X121643254Y-119248402D01*
X121642263Y-119248793D01*
X121621382Y-119258077D01*
X121620445Y-119258541D01*
X121600146Y-119269651D01*
X121599276Y-119270173D01*
X121579560Y-119283108D01*
X121578769Y-119283672D01*
X121559637Y-119298432D01*
X121558930Y-119299020D01*
X121549526Y-119307429D01*
X121393526Y-119144646D01*
X121402327Y-119135608D01*
X121402945Y-119134926D01*
X121418505Y-119116438D01*
X121419101Y-119115672D01*
X121432863Y-119096524D01*
X121433421Y-119095678D01*
X121445384Y-119075871D01*
X121445888Y-119074954D01*
X121456052Y-119054487D01*
X121456485Y-119053514D01*
X121464851Y-119032386D01*
X121465203Y-119031375D01*
X121471770Y-119009588D01*
X121472033Y-119008562D01*
X121476802Y-118986115D01*
X121476975Y-118985095D01*
X121479944Y-118961988D01*
X121480033Y-118960995D01*
X121480739Y-118946676D01*
X121860481Y-118853289D01*
X121751029Y-119228715D01*
G37*
%TD.AperFunction*%
%TD*%
D23*
%TO.N,/I2C_SCL_T*%
X124287174Y-119309053D02*
X124272843Y-119309454D01*
X124271848Y-119309521D01*
X124248682Y-119311998D01*
X124247658Y-119312150D01*
X124225115Y-119316440D01*
X124224084Y-119316681D01*
X124202161Y-119322783D01*
X124201142Y-119323113D01*
X124179842Y-119331028D01*
X124178860Y-119331441D01*
X124158181Y-119341168D01*
X124157254Y-119341652D01*
X124137196Y-119353191D01*
X124136338Y-119353731D01*
X124116902Y-119367082D01*
X124116124Y-119367662D01*
X124097309Y-119382826D01*
X124096613Y-119383429D01*
X124087391Y-119392036D01*
X123927963Y-119232608D01*
X123936570Y-119223385D01*
X123937173Y-119222690D01*
X123952337Y-119203875D01*
X123952917Y-119203097D01*
X123966268Y-119183661D01*
X123966808Y-119182803D01*
X123978347Y-119162745D01*
X123978831Y-119161818D01*
X123988558Y-119141139D01*
X123988971Y-119140157D01*
X123996886Y-119118857D01*
X123997216Y-119117838D01*
X124003318Y-119095915D01*
X124003559Y-119094884D01*
X124007849Y-119072341D01*
X124008001Y-119071317D01*
X124010478Y-119048151D01*
X124010545Y-119047156D01*
X124010946Y-119032826D01*
X124388617Y-118931383D01*
X124287174Y-119309053D01*
%TA.AperFunction,Conductor*%
D22*
G36*
X124287174Y-119309053D02*
G01*
X124272843Y-119309454D01*
X124271848Y-119309521D01*
X124248682Y-119311998D01*
X124247658Y-119312150D01*
X124225115Y-119316440D01*
X124224084Y-119316681D01*
X124202161Y-119322783D01*
X124201142Y-119323113D01*
X124179842Y-119331028D01*
X124178860Y-119331441D01*
X124158181Y-119341168D01*
X124157254Y-119341652D01*
X124137196Y-119353191D01*
X124136338Y-119353731D01*
X124116902Y-119367082D01*
X124116124Y-119367662D01*
X124097309Y-119382826D01*
X124096613Y-119383429D01*
X124087391Y-119392036D01*
X123927963Y-119232608D01*
X123936570Y-119223385D01*
X123937173Y-119222690D01*
X123952337Y-119203875D01*
X123952917Y-119203097D01*
X123966268Y-119183661D01*
X123966808Y-119182803D01*
X123978347Y-119162745D01*
X123978831Y-119161818D01*
X123988558Y-119141139D01*
X123988971Y-119140157D01*
X123996886Y-119118857D01*
X123997216Y-119117838D01*
X124003318Y-119095915D01*
X124003559Y-119094884D01*
X124007849Y-119072341D01*
X124008001Y-119071317D01*
X124010478Y-119048151D01*
X124010545Y-119047156D01*
X124010946Y-119032826D01*
X124388617Y-118931383D01*
X124287174Y-119309053D01*
G37*
%TD.AperFunction*%
%TD*%
D23*
%TO.N,/I2C_SCL_T*%
X122813167Y-137259201D02*
X122813232Y-137260119D01*
X122815814Y-137284145D01*
X122815954Y-137285105D01*
X122820257Y-137308290D01*
X122820482Y-137309279D01*
X122826505Y-137331621D01*
X122826819Y-137332619D01*
X122834564Y-137354119D01*
X122834966Y-137355105D01*
X122844431Y-137375763D01*
X122844918Y-137376716D01*
X122856105Y-137396532D01*
X122856663Y-137397432D01*
X122869570Y-137416406D01*
X122870187Y-137417238D01*
X122884816Y-137435370D01*
X122885472Y-137436121D01*
X122895323Y-137446539D01*
X122700000Y-137785324D01*
X122504677Y-137446538D01*
X122514527Y-137436120D01*
X122515183Y-137435370D01*
X122529812Y-137417238D01*
X122530429Y-137416406D01*
X122543336Y-137397432D01*
X122543894Y-137396532D01*
X122555081Y-137376716D01*
X122555568Y-137375763D01*
X122565033Y-137355105D01*
X122565435Y-137354119D01*
X122573180Y-137332619D01*
X122573494Y-137331621D01*
X122579517Y-137309279D01*
X122579742Y-137308290D01*
X122584045Y-137285105D01*
X122584185Y-137284145D01*
X122586767Y-137260119D01*
X122586832Y-137259201D01*
X122587268Y-137246594D01*
X122812731Y-137246594D01*
X122813167Y-137259201D01*
%TA.AperFunction,Conductor*%
D22*
G36*
X122813167Y-137259201D02*
G01*
X122813232Y-137260119D01*
X122815814Y-137284145D01*
X122815954Y-137285105D01*
X122820257Y-137308290D01*
X122820482Y-137309279D01*
X122826505Y-137331621D01*
X122826819Y-137332619D01*
X122834564Y-137354119D01*
X122834966Y-137355105D01*
X122844431Y-137375763D01*
X122844918Y-137376716D01*
X122856105Y-137396532D01*
X122856663Y-137397432D01*
X122869570Y-137416406D01*
X122870187Y-137417238D01*
X122884816Y-137435370D01*
X122885472Y-137436121D01*
X122895323Y-137446539D01*
X122700000Y-137785324D01*
X122504677Y-137446538D01*
X122514527Y-137436120D01*
X122515183Y-137435370D01*
X122529812Y-137417238D01*
X122530429Y-137416406D01*
X122543336Y-137397432D01*
X122543894Y-137396532D01*
X122555081Y-137376716D01*
X122555568Y-137375763D01*
X122565033Y-137355105D01*
X122565435Y-137354119D01*
X122573180Y-137332619D01*
X122573494Y-137331621D01*
X122579517Y-137309279D01*
X122579742Y-137308290D01*
X122584045Y-137285105D01*
X122584185Y-137284145D01*
X122586767Y-137260119D01*
X122586832Y-137259201D01*
X122587268Y-137246594D01*
X122812731Y-137246594D01*
X122813167Y-137259201D01*
G37*
%TD.AperFunction*%
%TD*%
D23*
%TO.N,/I2C_SDA_T*%
X123057174Y-119319053D02*
X123042843Y-119319454D01*
X123041848Y-119319521D01*
X123018682Y-119321998D01*
X123017658Y-119322150D01*
X122995115Y-119326440D01*
X122994084Y-119326681D01*
X122972161Y-119332783D01*
X122971142Y-119333113D01*
X122949842Y-119341028D01*
X122948860Y-119341441D01*
X122928181Y-119351168D01*
X122927254Y-119351652D01*
X122907196Y-119363191D01*
X122906338Y-119363731D01*
X122886902Y-119377082D01*
X122886124Y-119377662D01*
X122867309Y-119392826D01*
X122866613Y-119393429D01*
X122857391Y-119402036D01*
X122697963Y-119242608D01*
X122706570Y-119233385D01*
X122707173Y-119232690D01*
X122722337Y-119213875D01*
X122722917Y-119213097D01*
X122736268Y-119193661D01*
X122736808Y-119192803D01*
X122748347Y-119172745D01*
X122748831Y-119171818D01*
X122758558Y-119151139D01*
X122758971Y-119150157D01*
X122766886Y-119128857D01*
X122767216Y-119127838D01*
X122773318Y-119105915D01*
X122773559Y-119104884D01*
X122777849Y-119082341D01*
X122778001Y-119081317D01*
X122780478Y-119058151D01*
X122780545Y-119057156D01*
X122780946Y-119042826D01*
X123158617Y-118941383D01*
X123057174Y-119319053D01*
%TA.AperFunction,Conductor*%
D22*
G36*
X123057174Y-119319053D02*
G01*
X123042843Y-119319454D01*
X123041848Y-119319521D01*
X123018682Y-119321998D01*
X123017658Y-119322150D01*
X122995115Y-119326440D01*
X122994084Y-119326681D01*
X122972161Y-119332783D01*
X122971142Y-119333113D01*
X122949842Y-119341028D01*
X122948860Y-119341441D01*
X122928181Y-119351168D01*
X122927254Y-119351652D01*
X122907196Y-119363191D01*
X122906338Y-119363731D01*
X122886902Y-119377082D01*
X122886124Y-119377662D01*
X122867309Y-119392826D01*
X122866613Y-119393429D01*
X122857391Y-119402036D01*
X122697963Y-119242608D01*
X122706570Y-119233385D01*
X122707173Y-119232690D01*
X122722337Y-119213875D01*
X122722917Y-119213097D01*
X122736268Y-119193661D01*
X122736808Y-119192803D01*
X122748347Y-119172745D01*
X122748831Y-119171818D01*
X122758558Y-119151139D01*
X122758971Y-119150157D01*
X122766886Y-119128857D01*
X122767216Y-119127838D01*
X122773318Y-119105915D01*
X122773559Y-119104884D01*
X122777849Y-119082341D01*
X122778001Y-119081317D01*
X122780478Y-119058151D01*
X122780545Y-119057156D01*
X122780946Y-119042826D01*
X123158617Y-118941383D01*
X123057174Y-119319053D01*
G37*
%TD.AperFunction*%
%TD*%
D23*
%TO.N,/I2C_SDA_T*%
X122214008Y-137790382D02*
X122212622Y-137792538D01*
X122206260Y-137805057D01*
X122205249Y-137807780D01*
X122202030Y-137820879D01*
X122201663Y-137823839D01*
X122201587Y-137837519D01*
X122201871Y-137840260D01*
X122204937Y-137854519D01*
X122205638Y-137856752D01*
X122211848Y-137871591D01*
X122212704Y-137873274D01*
X122222056Y-137888693D01*
X122222906Y-137889924D01*
X122235402Y-137905923D01*
X122236172Y-137906820D01*
X122245329Y-137916528D01*
X122050000Y-138255324D01*
X121854888Y-137916905D01*
X121864779Y-137907293D01*
X121881512Y-137891321D01*
X121897823Y-137876044D01*
X121913987Y-137861205D01*
X121929646Y-137847130D01*
X121945212Y-137833450D01*
X121960273Y-137820527D01*
X121975157Y-137808078D01*
X121989674Y-137796262D01*
X122000513Y-137787693D01*
X122216149Y-137787693D01*
X122214008Y-137790382D01*
%TA.AperFunction,Conductor*%
D22*
G36*
X122214008Y-137790382D02*
G01*
X122212622Y-137792538D01*
X122206260Y-137805057D01*
X122205249Y-137807780D01*
X122202030Y-137820879D01*
X122201663Y-137823839D01*
X122201587Y-137837519D01*
X122201871Y-137840260D01*
X122204937Y-137854519D01*
X122205638Y-137856752D01*
X122211848Y-137871591D01*
X122212704Y-137873274D01*
X122222056Y-137888693D01*
X122222906Y-137889924D01*
X122235402Y-137905923D01*
X122236172Y-137906820D01*
X122245329Y-137916528D01*
X122050000Y-138255324D01*
X121854888Y-137916905D01*
X121864779Y-137907293D01*
X121881512Y-137891321D01*
X121897823Y-137876044D01*
X121913987Y-137861205D01*
X121929646Y-137847130D01*
X121945212Y-137833450D01*
X121960273Y-137820527D01*
X121975157Y-137808078D01*
X121989674Y-137796262D01*
X122000513Y-137787693D01*
X122216149Y-137787693D01*
X122214008Y-137790382D01*
G37*
%TD.AperFunction*%
%TD*%
D23*
%TO.N,/MIC_OUT*%
X123954272Y-67263803D02*
X123931324Y-67288058D01*
X123930670Y-67288805D01*
X123904320Y-67321423D01*
X123903705Y-67322250D01*
X123880455Y-67356355D01*
X123879897Y-67357252D01*
X123859747Y-67392845D01*
X123859260Y-67393796D01*
X123842210Y-67430877D01*
X123841806Y-67431863D01*
X123827856Y-67470432D01*
X123827541Y-67471432D01*
X123816691Y-67511488D01*
X123816464Y-67512479D01*
X123808714Y-67554023D01*
X123808573Y-67554988D01*
X123803923Y-67598020D01*
X123803857Y-67598942D01*
X123802734Y-67631204D01*
X123577265Y-67631204D01*
X123576142Y-67598942D01*
X123576076Y-67598020D01*
X123571426Y-67554988D01*
X123571285Y-67554023D01*
X123563535Y-67512479D01*
X123563308Y-67511488D01*
X123552458Y-67471432D01*
X123552143Y-67470432D01*
X123538193Y-67431863D01*
X123537789Y-67430877D01*
X123520739Y-67393796D01*
X123520252Y-67392845D01*
X123500102Y-67357252D01*
X123499544Y-67356355D01*
X123476294Y-67322250D01*
X123475679Y-67321423D01*
X123449329Y-67288805D01*
X123448676Y-67288058D01*
X123425728Y-67263802D01*
X123690000Y-66805426D01*
X123954272Y-67263803D01*
%TA.AperFunction,Conductor*%
D22*
G36*
X123954272Y-67263803D02*
G01*
X123931324Y-67288058D01*
X123930670Y-67288805D01*
X123904320Y-67321423D01*
X123903705Y-67322250D01*
X123880455Y-67356355D01*
X123879897Y-67357252D01*
X123859747Y-67392845D01*
X123859260Y-67393796D01*
X123842210Y-67430877D01*
X123841806Y-67431863D01*
X123827856Y-67470432D01*
X123827541Y-67471432D01*
X123816691Y-67511488D01*
X123816464Y-67512479D01*
X123808714Y-67554023D01*
X123808573Y-67554988D01*
X123803923Y-67598020D01*
X123803857Y-67598942D01*
X123802734Y-67631204D01*
X123577265Y-67631204D01*
X123576142Y-67598942D01*
X123576076Y-67598020D01*
X123571426Y-67554988D01*
X123571285Y-67554023D01*
X123563535Y-67512479D01*
X123563308Y-67511488D01*
X123552458Y-67471432D01*
X123552143Y-67470432D01*
X123538193Y-67431863D01*
X123537789Y-67430877D01*
X123520739Y-67393796D01*
X123520252Y-67392845D01*
X123500102Y-67357252D01*
X123499544Y-67356355D01*
X123476294Y-67322250D01*
X123475679Y-67321423D01*
X123449329Y-67288805D01*
X123448676Y-67288058D01*
X123425728Y-67263802D01*
X123690000Y-66805426D01*
X123954272Y-67263803D01*
G37*
%TD.AperFunction*%
%TD*%
D23*
%TO.N,/I2C_SDA*%
X135913857Y-91291057D02*
X135913923Y-91291979D01*
X135918573Y-91335011D01*
X135918714Y-91335976D01*
X135926464Y-91377520D01*
X135926691Y-91378511D01*
X135937541Y-91418567D01*
X135937856Y-91419567D01*
X135951806Y-91458136D01*
X135952210Y-91459122D01*
X135969260Y-91496203D01*
X135969747Y-91497154D01*
X135989897Y-91532747D01*
X135990455Y-91533644D01*
X136013705Y-91567749D01*
X136014320Y-91568576D01*
X136040670Y-91601194D01*
X136041323Y-91601941D01*
X136064272Y-91626198D01*
X135800000Y-92084574D01*
X135535728Y-91626198D01*
X135558676Y-91601941D01*
X135559329Y-91601194D01*
X135585679Y-91568576D01*
X135586294Y-91567749D01*
X135609544Y-91533644D01*
X135610102Y-91532747D01*
X135630252Y-91497154D01*
X135630739Y-91496203D01*
X135647789Y-91459122D01*
X135648193Y-91458136D01*
X135662143Y-91419567D01*
X135662458Y-91418567D01*
X135673308Y-91378511D01*
X135673535Y-91377520D01*
X135681285Y-91335976D01*
X135681426Y-91335011D01*
X135686076Y-91291979D01*
X135686142Y-91291057D01*
X135687265Y-91258796D01*
X135912735Y-91258796D01*
X135913857Y-91291057D01*
%TA.AperFunction,Conductor*%
D22*
G36*
X135913857Y-91291057D02*
G01*
X135913923Y-91291979D01*
X135918573Y-91335011D01*
X135918714Y-91335976D01*
X135926464Y-91377520D01*
X135926691Y-91378511D01*
X135937541Y-91418567D01*
X135937856Y-91419567D01*
X135951806Y-91458136D01*
X135952210Y-91459122D01*
X135969260Y-91496203D01*
X135969747Y-91497154D01*
X135989897Y-91532747D01*
X135990455Y-91533644D01*
X136013705Y-91567749D01*
X136014320Y-91568576D01*
X136040670Y-91601194D01*
X136041323Y-91601941D01*
X136064272Y-91626198D01*
X135800000Y-92084574D01*
X135535728Y-91626198D01*
X135558676Y-91601941D01*
X135559329Y-91601194D01*
X135585679Y-91568576D01*
X135586294Y-91567749D01*
X135609544Y-91533644D01*
X135610102Y-91532747D01*
X135630252Y-91497154D01*
X135630739Y-91496203D01*
X135647789Y-91459122D01*
X135648193Y-91458136D01*
X135662143Y-91419567D01*
X135662458Y-91418567D01*
X135673308Y-91378511D01*
X135673535Y-91377520D01*
X135681285Y-91335976D01*
X135681426Y-91335011D01*
X135686076Y-91291979D01*
X135686142Y-91291057D01*
X135687265Y-91258796D01*
X135912735Y-91258796D01*
X135913857Y-91291057D01*
G37*
%TD.AperFunction*%
%TD*%
D23*
%TO.N,/I2C_SDA*%
X136064272Y-89093803D02*
X136041324Y-89118058D01*
X136040670Y-89118805D01*
X136014320Y-89151423D01*
X136013705Y-89152250D01*
X135990455Y-89186355D01*
X135989897Y-89187252D01*
X135969747Y-89222845D01*
X135969260Y-89223796D01*
X135952210Y-89260877D01*
X135951806Y-89261863D01*
X135937856Y-89300432D01*
X135937541Y-89301432D01*
X135926691Y-89341488D01*
X135926464Y-89342479D01*
X135918714Y-89384023D01*
X135918573Y-89384988D01*
X135913923Y-89428020D01*
X135913857Y-89428942D01*
X135912734Y-89461204D01*
X135687265Y-89461204D01*
X135686142Y-89428942D01*
X135686076Y-89428020D01*
X135681426Y-89384988D01*
X135681285Y-89384023D01*
X135673535Y-89342479D01*
X135673308Y-89341488D01*
X135662458Y-89301432D01*
X135662143Y-89300432D01*
X135648193Y-89261863D01*
X135647789Y-89260877D01*
X135630739Y-89223796D01*
X135630252Y-89222845D01*
X135610102Y-89187252D01*
X135609544Y-89186355D01*
X135586294Y-89152250D01*
X135585679Y-89151423D01*
X135559329Y-89118805D01*
X135558676Y-89118058D01*
X135535728Y-89093802D01*
X135800000Y-88635426D01*
X136064272Y-89093803D01*
%TA.AperFunction,Conductor*%
D22*
G36*
X136064272Y-89093803D02*
G01*
X136041324Y-89118058D01*
X136040670Y-89118805D01*
X136014320Y-89151423D01*
X136013705Y-89152250D01*
X135990455Y-89186355D01*
X135989897Y-89187252D01*
X135969747Y-89222845D01*
X135969260Y-89223796D01*
X135952210Y-89260877D01*
X135951806Y-89261863D01*
X135937856Y-89300432D01*
X135937541Y-89301432D01*
X135926691Y-89341488D01*
X135926464Y-89342479D01*
X135918714Y-89384023D01*
X135918573Y-89384988D01*
X135913923Y-89428020D01*
X135913857Y-89428942D01*
X135912734Y-89461204D01*
X135687265Y-89461204D01*
X135686142Y-89428942D01*
X135686076Y-89428020D01*
X135681426Y-89384988D01*
X135681285Y-89384023D01*
X135673535Y-89342479D01*
X135673308Y-89341488D01*
X135662458Y-89301432D01*
X135662143Y-89300432D01*
X135648193Y-89261863D01*
X135647789Y-89260877D01*
X135630739Y-89223796D01*
X135630252Y-89222845D01*
X135610102Y-89187252D01*
X135609544Y-89186355D01*
X135586294Y-89152250D01*
X135585679Y-89151423D01*
X135559329Y-89118805D01*
X135558676Y-89118058D01*
X135535728Y-89093802D01*
X135800000Y-88635426D01*
X136064272Y-89093803D01*
G37*
%TD.AperFunction*%
%TD*%
D23*
%TO.N,/RAD_V_B*%
X124926190Y-65117546D02*
X124892811Y-65118472D01*
X124891821Y-65118538D01*
X124850125Y-65122970D01*
X124849105Y-65123121D01*
X124808548Y-65130797D01*
X124807519Y-65131036D01*
X124768103Y-65141956D01*
X124767086Y-65142284D01*
X124728810Y-65156448D01*
X124727828Y-65156860D01*
X124690691Y-65174268D01*
X124689761Y-65174751D01*
X124653765Y-65195403D01*
X124652904Y-65195944D01*
X124618048Y-65219840D01*
X124617265Y-65220422D01*
X124583549Y-65247562D01*
X124582850Y-65248168D01*
X124559244Y-65270187D01*
X124399813Y-65110756D01*
X124421831Y-65087148D01*
X124422437Y-65086450D01*
X124449577Y-65052734D01*
X124450159Y-65051951D01*
X124474055Y-65017095D01*
X124474596Y-65016234D01*
X124495248Y-64980238D01*
X124495731Y-64979308D01*
X124513139Y-64942171D01*
X124513551Y-64941189D01*
X124527715Y-64902913D01*
X124528043Y-64901896D01*
X124538963Y-64862480D01*
X124539202Y-64861451D01*
X124546878Y-64820894D01*
X124547029Y-64819874D01*
X124551461Y-64778178D01*
X124551527Y-64777188D01*
X124552453Y-64743810D01*
X125063442Y-64606558D01*
X124926190Y-65117546D01*
%TA.AperFunction,Conductor*%
D22*
G36*
X124926190Y-65117546D02*
G01*
X124892811Y-65118472D01*
X124891821Y-65118538D01*
X124850125Y-65122970D01*
X124849105Y-65123121D01*
X124808548Y-65130797D01*
X124807519Y-65131036D01*
X124768103Y-65141956D01*
X124767086Y-65142284D01*
X124728810Y-65156448D01*
X124727828Y-65156860D01*
X124690691Y-65174268D01*
X124689761Y-65174751D01*
X124653765Y-65195403D01*
X124652904Y-65195944D01*
X124618048Y-65219840D01*
X124617265Y-65220422D01*
X124583549Y-65247562D01*
X124582850Y-65248168D01*
X124559244Y-65270187D01*
X124399813Y-65110756D01*
X124421831Y-65087148D01*
X124422437Y-65086450D01*
X124449577Y-65052734D01*
X124450159Y-65051951D01*
X124474055Y-65017095D01*
X124474596Y-65016234D01*
X124495248Y-64980238D01*
X124495731Y-64979308D01*
X124513139Y-64942171D01*
X124513551Y-64941189D01*
X124527715Y-64902913D01*
X124528043Y-64901896D01*
X124538963Y-64862480D01*
X124539202Y-64861451D01*
X124546878Y-64820894D01*
X124547029Y-64819874D01*
X124551461Y-64778178D01*
X124551527Y-64777188D01*
X124552453Y-64743810D01*
X125063442Y-64606558D01*
X124926190Y-65117546D01*
G37*
%TD.AperFunction*%
%TD*%
D23*
%TO.N,/UV_OUT_B*%
X124884272Y-66553803D02*
X124861324Y-66578058D01*
X124860670Y-66578805D01*
X124834320Y-66611423D01*
X124833705Y-66612250D01*
X124810455Y-66646355D01*
X124809897Y-66647252D01*
X124789747Y-66682845D01*
X124789260Y-66683796D01*
X124772210Y-66720877D01*
X124771806Y-66721863D01*
X124757856Y-66760432D01*
X124757541Y-66761432D01*
X124746691Y-66801488D01*
X124746464Y-66802479D01*
X124738714Y-66844023D01*
X124738573Y-66844988D01*
X124733923Y-66888020D01*
X124733857Y-66888942D01*
X124732734Y-66921204D01*
X124507265Y-66921204D01*
X124506142Y-66888942D01*
X124506076Y-66888020D01*
X124501426Y-66844988D01*
X124501285Y-66844023D01*
X124493535Y-66802479D01*
X124493308Y-66801488D01*
X124482458Y-66761432D01*
X124482143Y-66760432D01*
X124468193Y-66721863D01*
X124467789Y-66720877D01*
X124450739Y-66683796D01*
X124450252Y-66682845D01*
X124430102Y-66647252D01*
X124429544Y-66646355D01*
X124406294Y-66612250D01*
X124405679Y-66611423D01*
X124379329Y-66578805D01*
X124378676Y-66578058D01*
X124355728Y-66553802D01*
X124620000Y-66095426D01*
X124884272Y-66553803D01*
%TA.AperFunction,Conductor*%
D22*
G36*
X124884272Y-66553803D02*
G01*
X124861324Y-66578058D01*
X124860670Y-66578805D01*
X124834320Y-66611423D01*
X124833705Y-66612250D01*
X124810455Y-66646355D01*
X124809897Y-66647252D01*
X124789747Y-66682845D01*
X124789260Y-66683796D01*
X124772210Y-66720877D01*
X124771806Y-66721863D01*
X124757856Y-66760432D01*
X124757541Y-66761432D01*
X124746691Y-66801488D01*
X124746464Y-66802479D01*
X124738714Y-66844023D01*
X124738573Y-66844988D01*
X124733923Y-66888020D01*
X124733857Y-66888942D01*
X124732734Y-66921204D01*
X124507265Y-66921204D01*
X124506142Y-66888942D01*
X124506076Y-66888020D01*
X124501426Y-66844988D01*
X124501285Y-66844023D01*
X124493535Y-66802479D01*
X124493308Y-66801488D01*
X124482458Y-66761432D01*
X124482143Y-66760432D01*
X124468193Y-66721863D01*
X124467789Y-66720877D01*
X124450739Y-66683796D01*
X124450252Y-66682845D01*
X124430102Y-66647252D01*
X124429544Y-66646355D01*
X124406294Y-66612250D01*
X124405679Y-66611423D01*
X124379329Y-66578805D01*
X124378676Y-66578058D01*
X124355728Y-66553802D01*
X124620000Y-66095426D01*
X124884272Y-66553803D01*
G37*
%TD.AperFunction*%
%TD*%
D23*
%TO.N,/UV_OUT_B*%
X126504005Y-74511037D02*
X126504703Y-74511644D01*
X126538359Y-74538859D01*
X126539140Y-74539443D01*
X126573943Y-74563417D01*
X126574802Y-74563960D01*
X126610752Y-74584692D01*
X126611681Y-74585177D01*
X126648778Y-74602668D01*
X126649760Y-74603082D01*
X126688005Y-74617331D01*
X126689021Y-74617661D01*
X126728413Y-74628669D01*
X126729442Y-74628911D01*
X126769981Y-74636677D01*
X126771000Y-74636830D01*
X126812687Y-74641355D01*
X126813676Y-74641423D01*
X126847052Y-74642423D01*
X126983166Y-75153715D01*
X126472485Y-75015326D01*
X126471633Y-74981946D01*
X126471569Y-74980956D01*
X126467230Y-74939249D01*
X126467082Y-74938229D01*
X126459496Y-74897656D01*
X126459259Y-74896627D01*
X126448427Y-74857186D01*
X126448100Y-74856168D01*
X126434022Y-74817861D01*
X126433613Y-74816877D01*
X126416287Y-74779702D01*
X126415806Y-74778771D01*
X126395234Y-74742729D01*
X126394695Y-74741867D01*
X126370877Y-74706958D01*
X126370297Y-74706175D01*
X126343232Y-74672398D01*
X126342628Y-74671697D01*
X126320663Y-74648042D01*
X126480448Y-74488967D01*
X126504005Y-74511037D01*
%TA.AperFunction,Conductor*%
D22*
G36*
X126504005Y-74511037D02*
G01*
X126504703Y-74511644D01*
X126538359Y-74538859D01*
X126539140Y-74539443D01*
X126573943Y-74563417D01*
X126574802Y-74563960D01*
X126610752Y-74584692D01*
X126611681Y-74585177D01*
X126648778Y-74602668D01*
X126649760Y-74603082D01*
X126688005Y-74617331D01*
X126689021Y-74617661D01*
X126728413Y-74628669D01*
X126729442Y-74628911D01*
X126769981Y-74636677D01*
X126771000Y-74636830D01*
X126812687Y-74641355D01*
X126813676Y-74641423D01*
X126847052Y-74642423D01*
X126983166Y-75153715D01*
X126472485Y-75015326D01*
X126471633Y-74981946D01*
X126471569Y-74980956D01*
X126467230Y-74939249D01*
X126467082Y-74938229D01*
X126459496Y-74897656D01*
X126459259Y-74896627D01*
X126448427Y-74857186D01*
X126448100Y-74856168D01*
X126434022Y-74817861D01*
X126433613Y-74816877D01*
X126416287Y-74779702D01*
X126415806Y-74778771D01*
X126395234Y-74742729D01*
X126394695Y-74741867D01*
X126370877Y-74706958D01*
X126370297Y-74706175D01*
X126343232Y-74672398D01*
X126342628Y-74671697D01*
X126320663Y-74648042D01*
X126480448Y-74488967D01*
X126504005Y-74511037D01*
G37*
%TD.AperFunction*%
%TD*%
D23*
%TO.N,/KEY4*%
X134256613Y-118096570D02*
X134257309Y-118097173D01*
X134276124Y-118112337D01*
X134276902Y-118112917D01*
X134296338Y-118126268D01*
X134297196Y-118126808D01*
X134317254Y-118138347D01*
X134318181Y-118138831D01*
X134338860Y-118148558D01*
X134339842Y-118148971D01*
X134361142Y-118156886D01*
X134362161Y-118157216D01*
X134384084Y-118163318D01*
X134385115Y-118163559D01*
X134407658Y-118167849D01*
X134408682Y-118168001D01*
X134431848Y-118170478D01*
X134432843Y-118170545D01*
X134447174Y-118170946D01*
X134548617Y-118548617D01*
X134170946Y-118447174D01*
X134170545Y-118432843D01*
X134170478Y-118431848D01*
X134168001Y-118408682D01*
X134167849Y-118407658D01*
X134163559Y-118385115D01*
X134163318Y-118384084D01*
X134157216Y-118362161D01*
X134156886Y-118361142D01*
X134148971Y-118339842D01*
X134148558Y-118338860D01*
X134138831Y-118318181D01*
X134138347Y-118317254D01*
X134126808Y-118297196D01*
X134126268Y-118296338D01*
X134112917Y-118276902D01*
X134112337Y-118276124D01*
X134097173Y-118257309D01*
X134096570Y-118256613D01*
X134087964Y-118247391D01*
X134247391Y-118087964D01*
X134256613Y-118096570D01*
%TA.AperFunction,Conductor*%
D22*
G36*
X134256613Y-118096570D02*
G01*
X134257309Y-118097173D01*
X134276124Y-118112337D01*
X134276902Y-118112917D01*
X134296338Y-118126268D01*
X134297196Y-118126808D01*
X134317254Y-118138347D01*
X134318181Y-118138831D01*
X134338860Y-118148558D01*
X134339842Y-118148971D01*
X134361142Y-118156886D01*
X134362161Y-118157216D01*
X134384084Y-118163318D01*
X134385115Y-118163559D01*
X134407658Y-118167849D01*
X134408682Y-118168001D01*
X134431848Y-118170478D01*
X134432843Y-118170545D01*
X134447174Y-118170946D01*
X134548617Y-118548617D01*
X134170946Y-118447174D01*
X134170545Y-118432843D01*
X134170478Y-118431848D01*
X134168001Y-118408682D01*
X134167849Y-118407658D01*
X134163559Y-118385115D01*
X134163318Y-118384084D01*
X134157216Y-118362161D01*
X134156886Y-118361142D01*
X134148971Y-118339842D01*
X134148558Y-118338860D01*
X134138831Y-118318181D01*
X134138347Y-118317254D01*
X134126808Y-118297196D01*
X134126268Y-118296338D01*
X134112917Y-118276902D01*
X134112337Y-118276124D01*
X134097173Y-118257309D01*
X134096570Y-118256613D01*
X134087964Y-118247391D01*
X134247391Y-118087964D01*
X134256613Y-118096570D01*
G37*
%TD.AperFunction*%
%TD*%
D23*
%TO.N,/KEY4*%
X117608058Y-115458676D02*
X117608805Y-115459329D01*
X117641423Y-115485679D01*
X117642250Y-115486294D01*
X117676355Y-115509544D01*
X117677252Y-115510102D01*
X117712845Y-115530252D01*
X117713796Y-115530739D01*
X117750877Y-115547789D01*
X117751863Y-115548193D01*
X117790432Y-115562143D01*
X117791432Y-115562458D01*
X117831488Y-115573308D01*
X117832479Y-115573535D01*
X117874023Y-115581285D01*
X117874988Y-115581426D01*
X117918020Y-115586076D01*
X117918942Y-115586142D01*
X117951204Y-115587265D01*
X117951204Y-115812734D01*
X117918942Y-115813857D01*
X117918020Y-115813923D01*
X117874988Y-115818573D01*
X117874023Y-115818714D01*
X117832479Y-115826464D01*
X117831488Y-115826691D01*
X117791432Y-115837541D01*
X117790432Y-115837856D01*
X117751863Y-115851806D01*
X117750877Y-115852210D01*
X117713796Y-115869260D01*
X117712845Y-115869747D01*
X117677252Y-115889897D01*
X117676355Y-115890455D01*
X117642250Y-115913705D01*
X117641423Y-115914320D01*
X117608805Y-115940670D01*
X117608058Y-115941324D01*
X117583803Y-115964272D01*
X117125426Y-115700000D01*
X117583802Y-115435728D01*
X117608058Y-115458676D01*
%TA.AperFunction,Conductor*%
D22*
G36*
X117608058Y-115458676D02*
G01*
X117608805Y-115459329D01*
X117641423Y-115485679D01*
X117642250Y-115486294D01*
X117676355Y-115509544D01*
X117677252Y-115510102D01*
X117712845Y-115530252D01*
X117713796Y-115530739D01*
X117750877Y-115547789D01*
X117751863Y-115548193D01*
X117790432Y-115562143D01*
X117791432Y-115562458D01*
X117831488Y-115573308D01*
X117832479Y-115573535D01*
X117874023Y-115581285D01*
X117874988Y-115581426D01*
X117918020Y-115586076D01*
X117918942Y-115586142D01*
X117951204Y-115587265D01*
X117951204Y-115812734D01*
X117918942Y-115813857D01*
X117918020Y-115813923D01*
X117874988Y-115818573D01*
X117874023Y-115818714D01*
X117832479Y-115826464D01*
X117831488Y-115826691D01*
X117791432Y-115837541D01*
X117790432Y-115837856D01*
X117751863Y-115851806D01*
X117750877Y-115852210D01*
X117713796Y-115869260D01*
X117712845Y-115869747D01*
X117677252Y-115889897D01*
X117676355Y-115890455D01*
X117642250Y-115913705D01*
X117641423Y-115914320D01*
X117608805Y-115940670D01*
X117608058Y-115941324D01*
X117583803Y-115964272D01*
X117125426Y-115700000D01*
X117583802Y-115435728D01*
X117608058Y-115458676D01*
G37*
%TD.AperFunction*%
%TD*%
D23*
%TO.N,/KEY3*%
X117687393Y-114113769D02*
X117687773Y-114146290D01*
X117687794Y-114146892D01*
X117690142Y-114186505D01*
X117690201Y-114187185D01*
X117694405Y-114224269D01*
X117694515Y-114225031D01*
X117700573Y-114259586D01*
X117700753Y-114260440D01*
X117708667Y-114292465D01*
X117708940Y-114293410D01*
X117718708Y-114322907D01*
X117719101Y-114323942D01*
X117730725Y-114350909D01*
X117731267Y-114352015D01*
X117744745Y-114376454D01*
X117745461Y-114377603D01*
X117760794Y-114399512D01*
X117761698Y-114400657D01*
X117770950Y-114411089D01*
X117611089Y-114570950D01*
X117600657Y-114561698D01*
X117599512Y-114560794D01*
X117577603Y-114545461D01*
X117576454Y-114544745D01*
X117552015Y-114531267D01*
X117550909Y-114530725D01*
X117523942Y-114519101D01*
X117522907Y-114518708D01*
X117493410Y-114508940D01*
X117492465Y-114508667D01*
X117460440Y-114500753D01*
X117459586Y-114500573D01*
X117425031Y-114494515D01*
X117424269Y-114494405D01*
X117387185Y-114490201D01*
X117386505Y-114490142D01*
X117346892Y-114487794D01*
X117346290Y-114487773D01*
X117313769Y-114487393D01*
X117176558Y-113976558D01*
X117687393Y-114113769D01*
%TA.AperFunction,Conductor*%
D22*
G36*
X117687393Y-114113769D02*
G01*
X117687773Y-114146290D01*
X117687794Y-114146892D01*
X117690142Y-114186505D01*
X117690201Y-114187185D01*
X117694405Y-114224269D01*
X117694515Y-114225031D01*
X117700573Y-114259586D01*
X117700753Y-114260440D01*
X117708667Y-114292465D01*
X117708940Y-114293410D01*
X117718708Y-114322907D01*
X117719101Y-114323942D01*
X117730725Y-114350909D01*
X117731267Y-114352015D01*
X117744745Y-114376454D01*
X117745461Y-114377603D01*
X117760794Y-114399512D01*
X117761698Y-114400657D01*
X117770950Y-114411089D01*
X117611089Y-114570950D01*
X117600657Y-114561698D01*
X117599512Y-114560794D01*
X117577603Y-114545461D01*
X117576454Y-114544745D01*
X117552015Y-114531267D01*
X117550909Y-114530725D01*
X117523942Y-114519101D01*
X117522907Y-114518708D01*
X117493410Y-114508940D01*
X117492465Y-114508667D01*
X117460440Y-114500753D01*
X117459586Y-114500573D01*
X117425031Y-114494515D01*
X117424269Y-114494405D01*
X117387185Y-114490201D01*
X117386505Y-114490142D01*
X117346892Y-114487794D01*
X117346290Y-114487773D01*
X117313769Y-114487393D01*
X117176558Y-113976558D01*
X117687393Y-114113769D01*
G37*
%TD.AperFunction*%
%TD*%
D23*
%TO.N,/KEY3*%
X129474574Y-114500000D02*
X129016198Y-114764272D01*
X128991941Y-114741323D01*
X128991194Y-114740670D01*
X128958576Y-114714320D01*
X128957749Y-114713705D01*
X128923644Y-114690455D01*
X128922747Y-114689897D01*
X128887154Y-114669747D01*
X128886203Y-114669260D01*
X128849122Y-114652210D01*
X128848136Y-114651806D01*
X128809567Y-114637856D01*
X128808567Y-114637541D01*
X128768511Y-114626691D01*
X128767520Y-114626464D01*
X128725976Y-114618714D01*
X128725011Y-114618573D01*
X128681979Y-114613923D01*
X128681057Y-114613857D01*
X128648796Y-114612735D01*
X128648796Y-114387265D01*
X128681057Y-114386142D01*
X128681979Y-114386076D01*
X128725011Y-114381426D01*
X128725976Y-114381285D01*
X128767520Y-114373535D01*
X128768511Y-114373308D01*
X128808567Y-114362458D01*
X128809567Y-114362143D01*
X128848136Y-114348193D01*
X128849122Y-114347789D01*
X128886203Y-114330739D01*
X128887154Y-114330252D01*
X128922747Y-114310102D01*
X128923644Y-114309544D01*
X128957749Y-114286294D01*
X128958576Y-114285679D01*
X128991194Y-114259329D01*
X128991941Y-114258676D01*
X129016198Y-114235728D01*
X129474574Y-114500000D01*
%TA.AperFunction,Conductor*%
D22*
G36*
X129474574Y-114500000D02*
G01*
X129016198Y-114764272D01*
X128991941Y-114741323D01*
X128991194Y-114740670D01*
X128958576Y-114714320D01*
X128957749Y-114713705D01*
X128923644Y-114690455D01*
X128922747Y-114689897D01*
X128887154Y-114669747D01*
X128886203Y-114669260D01*
X128849122Y-114652210D01*
X128848136Y-114651806D01*
X128809567Y-114637856D01*
X128808567Y-114637541D01*
X128768511Y-114626691D01*
X128767520Y-114626464D01*
X128725976Y-114618714D01*
X128725011Y-114618573D01*
X128681979Y-114613923D01*
X128681057Y-114613857D01*
X128648796Y-114612735D01*
X128648796Y-114387265D01*
X128681057Y-114386142D01*
X128681979Y-114386076D01*
X128725011Y-114381426D01*
X128725976Y-114381285D01*
X128767520Y-114373535D01*
X128768511Y-114373308D01*
X128808567Y-114362458D01*
X128809567Y-114362143D01*
X128848136Y-114348193D01*
X128849122Y-114347789D01*
X128886203Y-114330739D01*
X128887154Y-114330252D01*
X128922747Y-114310102D01*
X128923644Y-114309544D01*
X128957749Y-114286294D01*
X128958576Y-114285679D01*
X128991194Y-114259329D01*
X128991941Y-114258676D01*
X129016198Y-114235728D01*
X129474574Y-114500000D01*
G37*
%TD.AperFunction*%
%TD*%
D23*
%TO.N,/KEY2*%
X128251975Y-113777401D02*
X127793599Y-114041673D01*
X127769342Y-114018724D01*
X127768595Y-114018071D01*
X127735977Y-113991721D01*
X127735150Y-113991106D01*
X127701045Y-113967856D01*
X127700148Y-113967298D01*
X127664555Y-113947148D01*
X127663604Y-113946661D01*
X127626523Y-113929611D01*
X127625537Y-113929207D01*
X127586968Y-113915257D01*
X127585968Y-113914942D01*
X127545912Y-113904092D01*
X127544921Y-113903865D01*
X127503377Y-113896115D01*
X127502412Y-113895974D01*
X127459380Y-113891324D01*
X127458458Y-113891258D01*
X127426197Y-113890136D01*
X127426197Y-113664666D01*
X127458458Y-113663543D01*
X127459380Y-113663477D01*
X127502412Y-113658827D01*
X127503377Y-113658686D01*
X127544921Y-113650936D01*
X127545912Y-113650709D01*
X127585968Y-113639859D01*
X127586968Y-113639544D01*
X127625537Y-113625594D01*
X127626523Y-113625190D01*
X127663604Y-113608140D01*
X127664555Y-113607653D01*
X127700148Y-113587503D01*
X127701045Y-113586945D01*
X127735150Y-113563695D01*
X127735977Y-113563080D01*
X127768595Y-113536730D01*
X127769342Y-113536077D01*
X127793599Y-113513129D01*
X128251975Y-113777401D01*
%TA.AperFunction,Conductor*%
D22*
G36*
X128251975Y-113777401D02*
G01*
X127793599Y-114041673D01*
X127769342Y-114018724D01*
X127768595Y-114018071D01*
X127735977Y-113991721D01*
X127735150Y-113991106D01*
X127701045Y-113967856D01*
X127700148Y-113967298D01*
X127664555Y-113947148D01*
X127663604Y-113946661D01*
X127626523Y-113929611D01*
X127625537Y-113929207D01*
X127586968Y-113915257D01*
X127585968Y-113914942D01*
X127545912Y-113904092D01*
X127544921Y-113903865D01*
X127503377Y-113896115D01*
X127502412Y-113895974D01*
X127459380Y-113891324D01*
X127458458Y-113891258D01*
X127426197Y-113890136D01*
X127426197Y-113664666D01*
X127458458Y-113663543D01*
X127459380Y-113663477D01*
X127502412Y-113658827D01*
X127503377Y-113658686D01*
X127544921Y-113650936D01*
X127545912Y-113650709D01*
X127585968Y-113639859D01*
X127586968Y-113639544D01*
X127625537Y-113625594D01*
X127626523Y-113625190D01*
X127663604Y-113608140D01*
X127664555Y-113607653D01*
X127700148Y-113587503D01*
X127701045Y-113586945D01*
X127735150Y-113563695D01*
X127735977Y-113563080D01*
X127768595Y-113536730D01*
X127769342Y-113536077D01*
X127793599Y-113513129D01*
X128251975Y-113777401D01*
G37*
%TD.AperFunction*%
%TD*%
D23*
%TO.N,/KEY2*%
X117687546Y-112813810D02*
X117688472Y-112847188D01*
X117688538Y-112848178D01*
X117692970Y-112889874D01*
X117693121Y-112890894D01*
X117700797Y-112931451D01*
X117701036Y-112932480D01*
X117711956Y-112971896D01*
X117712284Y-112972913D01*
X117726448Y-113011189D01*
X117726860Y-113012171D01*
X117744268Y-113049308D01*
X117744751Y-113050238D01*
X117765403Y-113086234D01*
X117765944Y-113087095D01*
X117789840Y-113121951D01*
X117790422Y-113122734D01*
X117817562Y-113156450D01*
X117818168Y-113157148D01*
X117840187Y-113180756D01*
X117680756Y-113340187D01*
X117657148Y-113318168D01*
X117656450Y-113317562D01*
X117622734Y-113290422D01*
X117621951Y-113289840D01*
X117587095Y-113265944D01*
X117586234Y-113265403D01*
X117550238Y-113244751D01*
X117549308Y-113244268D01*
X117512171Y-113226860D01*
X117511189Y-113226448D01*
X117472913Y-113212284D01*
X117471896Y-113211956D01*
X117432480Y-113201036D01*
X117431451Y-113200797D01*
X117390894Y-113193121D01*
X117389874Y-113192970D01*
X117348178Y-113188538D01*
X117347188Y-113188472D01*
X117313810Y-113187546D01*
X117176558Y-112676558D01*
X117687546Y-112813810D01*
%TA.AperFunction,Conductor*%
D22*
G36*
X117687546Y-112813810D02*
G01*
X117688472Y-112847188D01*
X117688538Y-112848178D01*
X117692970Y-112889874D01*
X117693121Y-112890894D01*
X117700797Y-112931451D01*
X117701036Y-112932480D01*
X117711956Y-112971896D01*
X117712284Y-112972913D01*
X117726448Y-113011189D01*
X117726860Y-113012171D01*
X117744268Y-113049308D01*
X117744751Y-113050238D01*
X117765403Y-113086234D01*
X117765944Y-113087095D01*
X117789840Y-113121951D01*
X117790422Y-113122734D01*
X117817562Y-113156450D01*
X117818168Y-113157148D01*
X117840187Y-113180756D01*
X117680756Y-113340187D01*
X117657148Y-113318168D01*
X117656450Y-113317562D01*
X117622734Y-113290422D01*
X117621951Y-113289840D01*
X117587095Y-113265944D01*
X117586234Y-113265403D01*
X117550238Y-113244751D01*
X117549308Y-113244268D01*
X117512171Y-113226860D01*
X117511189Y-113226448D01*
X117472913Y-113212284D01*
X117471896Y-113211956D01*
X117432480Y-113201036D01*
X117431451Y-113200797D01*
X117390894Y-113193121D01*
X117389874Y-113192970D01*
X117348178Y-113188538D01*
X117347188Y-113188472D01*
X117313810Y-113187546D01*
X117176558Y-112676558D01*
X117687546Y-112813810D01*
G37*
%TD.AperFunction*%
%TD*%
D23*
%TO.N,/KEY1*%
X117687546Y-110913810D02*
X117688472Y-110947188D01*
X117688538Y-110948178D01*
X117692970Y-110989874D01*
X117693121Y-110990894D01*
X117700797Y-111031451D01*
X117701036Y-111032480D01*
X117711956Y-111071896D01*
X117712284Y-111072913D01*
X117726448Y-111111189D01*
X117726860Y-111112171D01*
X117744268Y-111149308D01*
X117744751Y-111150238D01*
X117765403Y-111186234D01*
X117765944Y-111187095D01*
X117789840Y-111221951D01*
X117790422Y-111222734D01*
X117817562Y-111256450D01*
X117818168Y-111257148D01*
X117840187Y-111280756D01*
X117680756Y-111440187D01*
X117657148Y-111418168D01*
X117656450Y-111417562D01*
X117622734Y-111390422D01*
X117621951Y-111389840D01*
X117587095Y-111365944D01*
X117586234Y-111365403D01*
X117550238Y-111344751D01*
X117549308Y-111344268D01*
X117512171Y-111326860D01*
X117511189Y-111326448D01*
X117472913Y-111312284D01*
X117471896Y-111311956D01*
X117432480Y-111301036D01*
X117431451Y-111300797D01*
X117390894Y-111293121D01*
X117389874Y-111292970D01*
X117348178Y-111288538D01*
X117347188Y-111288472D01*
X117313810Y-111287546D01*
X117176558Y-110776558D01*
X117687546Y-110913810D01*
%TA.AperFunction,Conductor*%
D22*
G36*
X117687546Y-110913810D02*
G01*
X117688472Y-110947188D01*
X117688538Y-110948178D01*
X117692970Y-110989874D01*
X117693121Y-110990894D01*
X117700797Y-111031451D01*
X117701036Y-111032480D01*
X117711956Y-111071896D01*
X117712284Y-111072913D01*
X117726448Y-111111189D01*
X117726860Y-111112171D01*
X117744268Y-111149308D01*
X117744751Y-111150238D01*
X117765403Y-111186234D01*
X117765944Y-111187095D01*
X117789840Y-111221951D01*
X117790422Y-111222734D01*
X117817562Y-111256450D01*
X117818168Y-111257148D01*
X117840187Y-111280756D01*
X117680756Y-111440187D01*
X117657148Y-111418168D01*
X117656450Y-111417562D01*
X117622734Y-111390422D01*
X117621951Y-111389840D01*
X117587095Y-111365944D01*
X117586234Y-111365403D01*
X117550238Y-111344751D01*
X117549308Y-111344268D01*
X117512171Y-111326860D01*
X117511189Y-111326448D01*
X117472913Y-111312284D01*
X117471896Y-111311956D01*
X117432480Y-111301036D01*
X117431451Y-111300797D01*
X117390894Y-111293121D01*
X117389874Y-111292970D01*
X117348178Y-111288538D01*
X117347188Y-111288472D01*
X117313810Y-111287546D01*
X117176558Y-110776558D01*
X117687546Y-110913810D01*
G37*
%TD.AperFunction*%
%TD*%
D23*
%TO.N,/KEY1*%
X126974574Y-113100000D02*
X126516198Y-113364272D01*
X126491941Y-113341323D01*
X126491194Y-113340670D01*
X126458576Y-113314320D01*
X126457749Y-113313705D01*
X126423644Y-113290455D01*
X126422747Y-113289897D01*
X126387154Y-113269747D01*
X126386203Y-113269260D01*
X126349122Y-113252210D01*
X126348136Y-113251806D01*
X126309567Y-113237856D01*
X126308567Y-113237541D01*
X126268511Y-113226691D01*
X126267520Y-113226464D01*
X126225976Y-113218714D01*
X126225011Y-113218573D01*
X126181979Y-113213923D01*
X126181057Y-113213857D01*
X126148796Y-113212735D01*
X126148796Y-112987265D01*
X126181057Y-112986142D01*
X126181979Y-112986076D01*
X126225011Y-112981426D01*
X126225976Y-112981285D01*
X126267520Y-112973535D01*
X126268511Y-112973308D01*
X126308567Y-112962458D01*
X126309567Y-112962143D01*
X126348136Y-112948193D01*
X126349122Y-112947789D01*
X126386203Y-112930739D01*
X126387154Y-112930252D01*
X126422747Y-112910102D01*
X126423644Y-112909544D01*
X126457749Y-112886294D01*
X126458576Y-112885679D01*
X126491194Y-112859329D01*
X126491941Y-112858676D01*
X126516198Y-112835728D01*
X126974574Y-113100000D01*
%TA.AperFunction,Conductor*%
D22*
G36*
X126974574Y-113100000D02*
G01*
X126516198Y-113364272D01*
X126491941Y-113341323D01*
X126491194Y-113340670D01*
X126458576Y-113314320D01*
X126457749Y-113313705D01*
X126423644Y-113290455D01*
X126422747Y-113289897D01*
X126387154Y-113269747D01*
X126386203Y-113269260D01*
X126349122Y-113252210D01*
X126348136Y-113251806D01*
X126309567Y-113237856D01*
X126308567Y-113237541D01*
X126268511Y-113226691D01*
X126267520Y-113226464D01*
X126225976Y-113218714D01*
X126225011Y-113218573D01*
X126181979Y-113213923D01*
X126181057Y-113213857D01*
X126148796Y-113212735D01*
X126148796Y-112987265D01*
X126181057Y-112986142D01*
X126181979Y-112986076D01*
X126225011Y-112981426D01*
X126225976Y-112981285D01*
X126267520Y-112973535D01*
X126268511Y-112973308D01*
X126308567Y-112962458D01*
X126309567Y-112962143D01*
X126348136Y-112948193D01*
X126349122Y-112947789D01*
X126386203Y-112930739D01*
X126387154Y-112930252D01*
X126422747Y-112910102D01*
X126423644Y-112909544D01*
X126457749Y-112886294D01*
X126458576Y-112885679D01*
X126491194Y-112859329D01*
X126491941Y-112858676D01*
X126516198Y-112835728D01*
X126974574Y-113100000D01*
G37*
%TD.AperFunction*%
%TD*%
D23*
%TO.N,/U0_RX*%
X130912909Y-117704876D02*
X130913551Y-117705122D01*
X130954577Y-117719540D01*
X130955362Y-117719787D01*
X130993547Y-117730484D01*
X130994513Y-117730715D01*
X131029855Y-117737692D01*
X131031049Y-117737869D01*
X131063549Y-117741124D01*
X131065014Y-117741185D01*
X131094672Y-117740720D01*
X131096432Y-117740570D01*
X131123248Y-117736383D01*
X131125267Y-117735896D01*
X131149241Y-117727989D01*
X131151386Y-117727055D01*
X131172518Y-117715426D01*
X131174559Y-117714027D01*
X131186042Y-117704391D01*
X131525324Y-117900000D01*
X131186552Y-118095315D01*
X131175135Y-118084486D01*
X131174531Y-118083948D01*
X131153399Y-118066319D01*
X131152863Y-118065896D01*
X131128889Y-118047989D01*
X131128417Y-118047653D01*
X131101601Y-118029466D01*
X131101185Y-118029196D01*
X131071527Y-118010731D01*
X131071160Y-118010511D01*
X131038660Y-117991766D01*
X131038334Y-117991584D01*
X131002992Y-117972561D01*
X131002703Y-117972410D01*
X130964518Y-117953107D01*
X130964259Y-117952980D01*
X130923233Y-117933398D01*
X130923000Y-117933289D01*
X130886594Y-117916807D01*
X130886594Y-117693995D01*
X130912909Y-117704876D01*
%TA.AperFunction,Conductor*%
D22*
G36*
X130912909Y-117704876D02*
G01*
X130913551Y-117705122D01*
X130954577Y-117719540D01*
X130955362Y-117719787D01*
X130993547Y-117730484D01*
X130994513Y-117730715D01*
X131029855Y-117737692D01*
X131031049Y-117737869D01*
X131063549Y-117741124D01*
X131065014Y-117741185D01*
X131094672Y-117740720D01*
X131096432Y-117740570D01*
X131123248Y-117736383D01*
X131125267Y-117735896D01*
X131149241Y-117727989D01*
X131151386Y-117727055D01*
X131172518Y-117715426D01*
X131174559Y-117714027D01*
X131186042Y-117704391D01*
X131525324Y-117900000D01*
X131186552Y-118095315D01*
X131175135Y-118084486D01*
X131174531Y-118083948D01*
X131153399Y-118066319D01*
X131152863Y-118065896D01*
X131128889Y-118047989D01*
X131128417Y-118047653D01*
X131101601Y-118029466D01*
X131101185Y-118029196D01*
X131071527Y-118010731D01*
X131071160Y-118010511D01*
X131038660Y-117991766D01*
X131038334Y-117991584D01*
X131002992Y-117972561D01*
X131002703Y-117972410D01*
X130964518Y-117953107D01*
X130964259Y-117952980D01*
X130923233Y-117933398D01*
X130923000Y-117933289D01*
X130886594Y-117916807D01*
X130886594Y-117693995D01*
X130912909Y-117704876D01*
G37*
%TD.AperFunction*%
%TD*%
D23*
%TO.N,/U0_RX*%
X116772036Y-120837391D02*
X116763429Y-120846613D01*
X116762826Y-120847309D01*
X116747662Y-120866124D01*
X116747082Y-120866902D01*
X116733731Y-120886338D01*
X116733191Y-120887196D01*
X116721652Y-120907254D01*
X116721168Y-120908181D01*
X116711441Y-120928860D01*
X116711028Y-120929842D01*
X116703113Y-120951142D01*
X116702783Y-120952161D01*
X116696681Y-120974084D01*
X116696440Y-120975115D01*
X116692150Y-120997658D01*
X116691998Y-120998682D01*
X116689521Y-121021848D01*
X116689454Y-121022843D01*
X116689053Y-121037174D01*
X116311383Y-121138617D01*
X116412826Y-120760946D01*
X116427156Y-120760545D01*
X116428151Y-120760478D01*
X116451317Y-120758001D01*
X116452341Y-120757849D01*
X116474884Y-120753559D01*
X116475915Y-120753318D01*
X116497838Y-120747216D01*
X116498857Y-120746886D01*
X116520157Y-120738971D01*
X116521139Y-120738558D01*
X116541818Y-120728831D01*
X116542745Y-120728347D01*
X116562803Y-120716808D01*
X116563661Y-120716268D01*
X116583097Y-120702917D01*
X116583875Y-120702337D01*
X116602690Y-120687173D01*
X116603385Y-120686570D01*
X116612608Y-120677963D01*
X116772036Y-120837391D01*
%TA.AperFunction,Conductor*%
D22*
G36*
X116772036Y-120837391D02*
G01*
X116763429Y-120846613D01*
X116762826Y-120847309D01*
X116747662Y-120866124D01*
X116747082Y-120866902D01*
X116733731Y-120886338D01*
X116733191Y-120887196D01*
X116721652Y-120907254D01*
X116721168Y-120908181D01*
X116711441Y-120928860D01*
X116711028Y-120929842D01*
X116703113Y-120951142D01*
X116702783Y-120952161D01*
X116696681Y-120974084D01*
X116696440Y-120975115D01*
X116692150Y-120997658D01*
X116691998Y-120998682D01*
X116689521Y-121021848D01*
X116689454Y-121022843D01*
X116689053Y-121037174D01*
X116311383Y-121138617D01*
X116412826Y-120760946D01*
X116427156Y-120760545D01*
X116428151Y-120760478D01*
X116451317Y-120758001D01*
X116452341Y-120757849D01*
X116474884Y-120753559D01*
X116475915Y-120753318D01*
X116497838Y-120747216D01*
X116498857Y-120746886D01*
X116520157Y-120738971D01*
X116521139Y-120738558D01*
X116541818Y-120728831D01*
X116542745Y-120728347D01*
X116562803Y-120716808D01*
X116563661Y-120716268D01*
X116583097Y-120702917D01*
X116583875Y-120702337D01*
X116602690Y-120687173D01*
X116603385Y-120686570D01*
X116612608Y-120677963D01*
X116772036Y-120837391D01*
G37*
%TD.AperFunction*%
%TD*%
D23*
%TO.N,/SPI2_SCLK*%
X103264272Y-127483803D02*
X103241324Y-127508058D01*
X103240670Y-127508805D01*
X103214320Y-127541423D01*
X103213705Y-127542250D01*
X103190455Y-127576355D01*
X103189897Y-127577252D01*
X103169747Y-127612845D01*
X103169260Y-127613796D01*
X103152210Y-127650877D01*
X103151806Y-127651863D01*
X103137856Y-127690432D01*
X103137541Y-127691432D01*
X103126691Y-127731488D01*
X103126464Y-127732479D01*
X103118714Y-127774023D01*
X103118573Y-127774988D01*
X103113923Y-127818020D01*
X103113857Y-127818942D01*
X103112734Y-127851204D01*
X102887265Y-127851204D01*
X102886142Y-127818942D01*
X102886076Y-127818020D01*
X102881426Y-127774988D01*
X102881285Y-127774023D01*
X102873535Y-127732479D01*
X102873308Y-127731488D01*
X102862458Y-127691432D01*
X102862143Y-127690432D01*
X102848193Y-127651863D01*
X102847789Y-127650877D01*
X102830739Y-127613796D01*
X102830252Y-127612845D01*
X102810102Y-127577252D01*
X102809544Y-127576355D01*
X102786294Y-127542250D01*
X102785679Y-127541423D01*
X102759329Y-127508805D01*
X102758676Y-127508058D01*
X102735728Y-127483802D01*
X103000000Y-127025426D01*
X103264272Y-127483803D01*
%TA.AperFunction,Conductor*%
D22*
G36*
X103264272Y-127483803D02*
G01*
X103241324Y-127508058D01*
X103240670Y-127508805D01*
X103214320Y-127541423D01*
X103213705Y-127542250D01*
X103190455Y-127576355D01*
X103189897Y-127577252D01*
X103169747Y-127612845D01*
X103169260Y-127613796D01*
X103152210Y-127650877D01*
X103151806Y-127651863D01*
X103137856Y-127690432D01*
X103137541Y-127691432D01*
X103126691Y-127731488D01*
X103126464Y-127732479D01*
X103118714Y-127774023D01*
X103118573Y-127774988D01*
X103113923Y-127818020D01*
X103113857Y-127818942D01*
X103112734Y-127851204D01*
X102887265Y-127851204D01*
X102886142Y-127818942D01*
X102886076Y-127818020D01*
X102881426Y-127774988D01*
X102881285Y-127774023D01*
X102873535Y-127732479D01*
X102873308Y-127731488D01*
X102862458Y-127691432D01*
X102862143Y-127690432D01*
X102848193Y-127651863D01*
X102847789Y-127650877D01*
X102830739Y-127613796D01*
X102830252Y-127612845D01*
X102810102Y-127577252D01*
X102809544Y-127576355D01*
X102786294Y-127542250D01*
X102785679Y-127541423D01*
X102759329Y-127508805D01*
X102758676Y-127508058D01*
X102735728Y-127483802D01*
X103000000Y-127025426D01*
X103264272Y-127483803D01*
G37*
%TD.AperFunction*%
%TD*%
D23*
%TO.N,/SPI2_SCLK*%
X119487805Y-135010909D02*
X119148577Y-135206487D01*
X119137213Y-135196825D01*
X119135314Y-135195489D01*
X119114509Y-135183533D01*
X119112491Y-135182598D01*
X119089062Y-135174145D01*
X119087123Y-135173614D01*
X119061071Y-135168664D01*
X119059340Y-135168457D01*
X119030663Y-135167010D01*
X119029191Y-135167021D01*
X118997891Y-135169076D01*
X118996670Y-135169216D01*
X118962746Y-135174774D01*
X118961743Y-135174980D01*
X118925195Y-135184041D01*
X118924372Y-135184275D01*
X118885200Y-135196839D01*
X118884522Y-135197078D01*
X118859984Y-135206511D01*
X118859984Y-134983398D01*
X118894052Y-134968899D01*
X118894315Y-134968783D01*
X118933487Y-134951055D01*
X118933778Y-134950919D01*
X118970326Y-134933253D01*
X118970649Y-134933091D01*
X119004573Y-134915486D01*
X119004933Y-134915292D01*
X119036233Y-134897747D01*
X119036634Y-134897513D01*
X119065311Y-134880029D01*
X119065760Y-134879742D01*
X119091812Y-134862319D01*
X119092313Y-134861966D01*
X119115742Y-134844604D01*
X119116301Y-134844165D01*
X119137106Y-134826864D01*
X119137725Y-134826315D01*
X119149032Y-134815593D01*
X119487805Y-135010909D01*
%TA.AperFunction,Conductor*%
D22*
G36*
X119487805Y-135010909D02*
G01*
X119148577Y-135206487D01*
X119137213Y-135196825D01*
X119135314Y-135195489D01*
X119114509Y-135183533D01*
X119112491Y-135182598D01*
X119089062Y-135174145D01*
X119087123Y-135173614D01*
X119061071Y-135168664D01*
X119059340Y-135168457D01*
X119030663Y-135167010D01*
X119029191Y-135167021D01*
X118997891Y-135169076D01*
X118996670Y-135169216D01*
X118962746Y-135174774D01*
X118961743Y-135174980D01*
X118925195Y-135184041D01*
X118924372Y-135184275D01*
X118885200Y-135196839D01*
X118884522Y-135197078D01*
X118859984Y-135206511D01*
X118859984Y-134983398D01*
X118894052Y-134968899D01*
X118894315Y-134968783D01*
X118933487Y-134951055D01*
X118933778Y-134950919D01*
X118970326Y-134933253D01*
X118970649Y-134933091D01*
X119004573Y-134915486D01*
X119004933Y-134915292D01*
X119036233Y-134897747D01*
X119036634Y-134897513D01*
X119065311Y-134880029D01*
X119065760Y-134879742D01*
X119091812Y-134862319D01*
X119092313Y-134861966D01*
X119115742Y-134844604D01*
X119116301Y-134844165D01*
X119137106Y-134826864D01*
X119137725Y-134826315D01*
X119149032Y-134815593D01*
X119487805Y-135010909D01*
G37*
%TD.AperFunction*%
%TD*%
D23*
%TO.N,Net-(R45-Pad1)*%
X128684272Y-74303803D02*
X128661324Y-74328058D01*
X128660670Y-74328805D01*
X128634320Y-74361423D01*
X128633705Y-74362250D01*
X128610455Y-74396355D01*
X128609897Y-74397252D01*
X128589747Y-74432845D01*
X128589260Y-74433796D01*
X128572210Y-74470877D01*
X128571806Y-74471863D01*
X128557856Y-74510432D01*
X128557541Y-74511432D01*
X128546691Y-74551488D01*
X128546464Y-74552479D01*
X128538714Y-74594023D01*
X128538573Y-74594988D01*
X128533923Y-74638020D01*
X128533857Y-74638942D01*
X128532734Y-74671204D01*
X128307265Y-74671204D01*
X128306142Y-74638942D01*
X128306076Y-74638020D01*
X128301426Y-74594988D01*
X128301285Y-74594023D01*
X128293535Y-74552479D01*
X128293308Y-74551488D01*
X128282458Y-74511432D01*
X128282143Y-74510432D01*
X128268193Y-74471863D01*
X128267789Y-74470877D01*
X128250739Y-74433796D01*
X128250252Y-74432845D01*
X128230102Y-74397252D01*
X128229544Y-74396355D01*
X128206294Y-74362250D01*
X128205679Y-74361423D01*
X128179329Y-74328805D01*
X128178676Y-74328058D01*
X128155728Y-74303802D01*
X128420000Y-73845426D01*
X128684272Y-74303803D01*
%TA.AperFunction,Conductor*%
D22*
G36*
X128684272Y-74303803D02*
G01*
X128661324Y-74328058D01*
X128660670Y-74328805D01*
X128634320Y-74361423D01*
X128633705Y-74362250D01*
X128610455Y-74396355D01*
X128609897Y-74397252D01*
X128589747Y-74432845D01*
X128589260Y-74433796D01*
X128572210Y-74470877D01*
X128571806Y-74471863D01*
X128557856Y-74510432D01*
X128557541Y-74511432D01*
X128546691Y-74551488D01*
X128546464Y-74552479D01*
X128538714Y-74594023D01*
X128538573Y-74594988D01*
X128533923Y-74638020D01*
X128533857Y-74638942D01*
X128532734Y-74671204D01*
X128307265Y-74671204D01*
X128306142Y-74638942D01*
X128306076Y-74638020D01*
X128301426Y-74594988D01*
X128301285Y-74594023D01*
X128293535Y-74552479D01*
X128293308Y-74551488D01*
X128282458Y-74511432D01*
X128282143Y-74510432D01*
X128268193Y-74471863D01*
X128267789Y-74470877D01*
X128250739Y-74433796D01*
X128250252Y-74432845D01*
X128230102Y-74397252D01*
X128229544Y-74396355D01*
X128206294Y-74362250D01*
X128205679Y-74361423D01*
X128179329Y-74328805D01*
X128178676Y-74328058D01*
X128155728Y-74303802D01*
X128420000Y-73845426D01*
X128684272Y-74303803D01*
G37*
%TD.AperFunction*%
%TD*%
D23*
%TO.N,Net-(R45-Pad1)*%
X127440187Y-77159244D02*
X127418168Y-77182850D01*
X127417562Y-77183549D01*
X127390422Y-77217265D01*
X127389840Y-77218048D01*
X127365944Y-77252904D01*
X127365403Y-77253765D01*
X127344751Y-77289761D01*
X127344268Y-77290691D01*
X127326860Y-77327828D01*
X127326448Y-77328810D01*
X127312284Y-77367086D01*
X127311956Y-77368103D01*
X127301036Y-77407519D01*
X127300797Y-77408548D01*
X127293121Y-77449105D01*
X127292970Y-77450125D01*
X127288538Y-77491821D01*
X127288472Y-77492811D01*
X127287546Y-77526190D01*
X126776558Y-77663442D01*
X126913810Y-77152453D01*
X126947188Y-77151527D01*
X126948178Y-77151461D01*
X126989874Y-77147029D01*
X126990894Y-77146878D01*
X127031451Y-77139202D01*
X127032480Y-77138963D01*
X127071896Y-77128043D01*
X127072913Y-77127715D01*
X127111189Y-77113551D01*
X127112171Y-77113139D01*
X127149308Y-77095731D01*
X127150238Y-77095248D01*
X127186234Y-77074596D01*
X127187095Y-77074055D01*
X127221951Y-77050159D01*
X127222734Y-77049577D01*
X127256450Y-77022437D01*
X127257148Y-77021831D01*
X127280756Y-76999813D01*
X127440187Y-77159244D01*
%TA.AperFunction,Conductor*%
D22*
G36*
X127440187Y-77159244D02*
G01*
X127418168Y-77182850D01*
X127417562Y-77183549D01*
X127390422Y-77217265D01*
X127389840Y-77218048D01*
X127365944Y-77252904D01*
X127365403Y-77253765D01*
X127344751Y-77289761D01*
X127344268Y-77290691D01*
X127326860Y-77327828D01*
X127326448Y-77328810D01*
X127312284Y-77367086D01*
X127311956Y-77368103D01*
X127301036Y-77407519D01*
X127300797Y-77408548D01*
X127293121Y-77449105D01*
X127292970Y-77450125D01*
X127288538Y-77491821D01*
X127288472Y-77492811D01*
X127287546Y-77526190D01*
X126776558Y-77663442D01*
X126913810Y-77152453D01*
X126947188Y-77151527D01*
X126948178Y-77151461D01*
X126989874Y-77147029D01*
X126990894Y-77146878D01*
X127031451Y-77139202D01*
X127032480Y-77138963D01*
X127071896Y-77128043D01*
X127072913Y-77127715D01*
X127111189Y-77113551D01*
X127112171Y-77113139D01*
X127149308Y-77095731D01*
X127150238Y-77095248D01*
X127186234Y-77074596D01*
X127187095Y-77074055D01*
X127221951Y-77050159D01*
X127222734Y-77049577D01*
X127256450Y-77022437D01*
X127257148Y-77021831D01*
X127280756Y-76999813D01*
X127440187Y-77159244D01*
G37*
%TD.AperFunction*%
%TD*%
D23*
%TO.N,/U0_TX*%
X116646468Y-122162117D02*
X116647219Y-122162773D01*
X116665351Y-122177402D01*
X116666183Y-122178019D01*
X116685157Y-122190926D01*
X116686057Y-122191484D01*
X116705873Y-122202671D01*
X116706826Y-122203158D01*
X116727484Y-122212623D01*
X116728470Y-122213025D01*
X116749970Y-122220770D01*
X116750968Y-122221084D01*
X116773310Y-122227107D01*
X116774299Y-122227332D01*
X116797484Y-122231635D01*
X116798444Y-122231775D01*
X116822470Y-122234357D01*
X116823388Y-122234422D01*
X116835996Y-122234859D01*
X116835996Y-122460321D01*
X116823388Y-122460757D01*
X116822470Y-122460822D01*
X116798444Y-122463404D01*
X116797484Y-122463544D01*
X116774299Y-122467847D01*
X116773310Y-122468072D01*
X116750968Y-122474095D01*
X116749970Y-122474409D01*
X116728470Y-122482154D01*
X116727484Y-122482556D01*
X116706826Y-122492021D01*
X116705873Y-122492508D01*
X116686057Y-122503695D01*
X116685157Y-122504253D01*
X116666183Y-122517160D01*
X116665351Y-122517777D01*
X116647219Y-122532406D01*
X116646468Y-122533062D01*
X116636051Y-122542913D01*
X116297266Y-122347590D01*
X116636051Y-122152267D01*
X116646468Y-122162117D01*
%TA.AperFunction,Conductor*%
D22*
G36*
X116646468Y-122162117D02*
G01*
X116647219Y-122162773D01*
X116665351Y-122177402D01*
X116666183Y-122178019D01*
X116685157Y-122190926D01*
X116686057Y-122191484D01*
X116705873Y-122202671D01*
X116706826Y-122203158D01*
X116727484Y-122212623D01*
X116728470Y-122213025D01*
X116749970Y-122220770D01*
X116750968Y-122221084D01*
X116773310Y-122227107D01*
X116774299Y-122227332D01*
X116797484Y-122231635D01*
X116798444Y-122231775D01*
X116822470Y-122234357D01*
X116823388Y-122234422D01*
X116835996Y-122234859D01*
X116835996Y-122460321D01*
X116823388Y-122460757D01*
X116822470Y-122460822D01*
X116798444Y-122463404D01*
X116797484Y-122463544D01*
X116774299Y-122467847D01*
X116773310Y-122468072D01*
X116750968Y-122474095D01*
X116749970Y-122474409D01*
X116728470Y-122482154D01*
X116727484Y-122482556D01*
X116706826Y-122492021D01*
X116705873Y-122492508D01*
X116686057Y-122503695D01*
X116685157Y-122504253D01*
X116666183Y-122517160D01*
X116665351Y-122517777D01*
X116647219Y-122532406D01*
X116646468Y-122533062D01*
X116636051Y-122542913D01*
X116297266Y-122347590D01*
X116636051Y-122152267D01*
X116646468Y-122162117D01*
G37*
%TD.AperFunction*%
%TD*%
D23*
%TO.N,/U0_TX*%
X132200324Y-119375000D02*
X131861539Y-119570323D01*
X131851121Y-119560472D01*
X131850370Y-119559816D01*
X131832238Y-119545187D01*
X131831406Y-119544570D01*
X131812432Y-119531663D01*
X131811532Y-119531105D01*
X131791716Y-119519918D01*
X131790763Y-119519431D01*
X131770105Y-119509966D01*
X131769119Y-119509564D01*
X131747619Y-119501819D01*
X131746621Y-119501505D01*
X131724279Y-119495482D01*
X131723290Y-119495257D01*
X131700105Y-119490954D01*
X131699145Y-119490814D01*
X131675119Y-119488232D01*
X131674201Y-119488167D01*
X131661594Y-119487731D01*
X131661594Y-119262268D01*
X131674201Y-119261832D01*
X131675119Y-119261767D01*
X131699145Y-119259185D01*
X131700105Y-119259045D01*
X131723290Y-119254742D01*
X131724279Y-119254517D01*
X131746621Y-119248494D01*
X131747619Y-119248180D01*
X131769119Y-119240435D01*
X131770105Y-119240033D01*
X131790763Y-119230568D01*
X131791716Y-119230081D01*
X131811532Y-119218894D01*
X131812432Y-119218336D01*
X131831406Y-119205429D01*
X131832238Y-119204812D01*
X131850370Y-119190183D01*
X131851120Y-119189527D01*
X131861538Y-119179677D01*
X132200324Y-119375000D01*
%TA.AperFunction,Conductor*%
D22*
G36*
X132200324Y-119375000D02*
G01*
X131861539Y-119570323D01*
X131851121Y-119560472D01*
X131850370Y-119559816D01*
X131832238Y-119545187D01*
X131831406Y-119544570D01*
X131812432Y-119531663D01*
X131811532Y-119531105D01*
X131791716Y-119519918D01*
X131790763Y-119519431D01*
X131770105Y-119509966D01*
X131769119Y-119509564D01*
X131747619Y-119501819D01*
X131746621Y-119501505D01*
X131724279Y-119495482D01*
X131723290Y-119495257D01*
X131700105Y-119490954D01*
X131699145Y-119490814D01*
X131675119Y-119488232D01*
X131674201Y-119488167D01*
X131661594Y-119487731D01*
X131661594Y-119262268D01*
X131674201Y-119261832D01*
X131675119Y-119261767D01*
X131699145Y-119259185D01*
X131700105Y-119259045D01*
X131723290Y-119254742D01*
X131724279Y-119254517D01*
X131746621Y-119248494D01*
X131747619Y-119248180D01*
X131769119Y-119240435D01*
X131770105Y-119240033D01*
X131790763Y-119230568D01*
X131791716Y-119230081D01*
X131811532Y-119218894D01*
X131812432Y-119218336D01*
X131831406Y-119205429D01*
X131832238Y-119204812D01*
X131850370Y-119190183D01*
X131851120Y-119189527D01*
X131861538Y-119179677D01*
X132200324Y-119375000D01*
G37*
%TD.AperFunction*%
%TD*%
D23*
%TO.N,/SPI2_RST*%
X119495324Y-135860000D02*
X119156539Y-136055323D01*
X119146121Y-136045472D01*
X119145370Y-136044816D01*
X119127238Y-136030187D01*
X119126406Y-136029570D01*
X119107432Y-136016663D01*
X119106532Y-136016105D01*
X119086716Y-136004918D01*
X119085763Y-136004431D01*
X119065105Y-135994966D01*
X119064119Y-135994564D01*
X119042619Y-135986819D01*
X119041621Y-135986505D01*
X119019279Y-135980482D01*
X119018290Y-135980257D01*
X118995105Y-135975954D01*
X118994145Y-135975814D01*
X118970119Y-135973232D01*
X118969201Y-135973167D01*
X118956594Y-135972731D01*
X118956594Y-135747268D01*
X118969201Y-135746832D01*
X118970119Y-135746767D01*
X118994145Y-135744185D01*
X118995105Y-135744045D01*
X119018290Y-135739742D01*
X119019279Y-135739517D01*
X119041621Y-135733494D01*
X119042619Y-135733180D01*
X119064119Y-135725435D01*
X119065105Y-135725033D01*
X119085763Y-135715568D01*
X119086716Y-135715081D01*
X119106532Y-135703894D01*
X119107432Y-135703336D01*
X119126406Y-135690429D01*
X119127238Y-135689812D01*
X119145370Y-135675183D01*
X119146120Y-135674527D01*
X119156538Y-135664677D01*
X119495324Y-135860000D01*
%TA.AperFunction,Conductor*%
D22*
G36*
X119495324Y-135860000D02*
G01*
X119156539Y-136055323D01*
X119146121Y-136045472D01*
X119145370Y-136044816D01*
X119127238Y-136030187D01*
X119126406Y-136029570D01*
X119107432Y-136016663D01*
X119106532Y-136016105D01*
X119086716Y-136004918D01*
X119085763Y-136004431D01*
X119065105Y-135994966D01*
X119064119Y-135994564D01*
X119042619Y-135986819D01*
X119041621Y-135986505D01*
X119019279Y-135980482D01*
X119018290Y-135980257D01*
X118995105Y-135975954D01*
X118994145Y-135975814D01*
X118970119Y-135973232D01*
X118969201Y-135973167D01*
X118956594Y-135972731D01*
X118956594Y-135747268D01*
X118969201Y-135746832D01*
X118970119Y-135746767D01*
X118994145Y-135744185D01*
X118995105Y-135744045D01*
X119018290Y-135739742D01*
X119019279Y-135739517D01*
X119041621Y-135733494D01*
X119042619Y-135733180D01*
X119064119Y-135725435D01*
X119065105Y-135725033D01*
X119085763Y-135715568D01*
X119086716Y-135715081D01*
X119106532Y-135703894D01*
X119107432Y-135703336D01*
X119126406Y-135690429D01*
X119127238Y-135689812D01*
X119145370Y-135675183D01*
X119146120Y-135674527D01*
X119156538Y-135664677D01*
X119495324Y-135860000D01*
G37*
%TD.AperFunction*%
%TD*%
D23*
%TO.N,/RAD_V_B*%
X113538857Y-78031057D02*
X113538923Y-78031979D01*
X113543573Y-78075011D01*
X113543714Y-78075976D01*
X113551464Y-78117520D01*
X113551691Y-78118511D01*
X113562541Y-78158567D01*
X113562856Y-78159567D01*
X113576806Y-78198136D01*
X113577210Y-78199122D01*
X113594260Y-78236203D01*
X113594747Y-78237154D01*
X113614897Y-78272747D01*
X113615455Y-78273644D01*
X113638705Y-78307749D01*
X113639320Y-78308576D01*
X113665670Y-78341194D01*
X113666323Y-78341941D01*
X113689272Y-78366198D01*
X113425000Y-78824574D01*
X113160728Y-78366198D01*
X113183676Y-78341941D01*
X113184329Y-78341194D01*
X113210679Y-78308576D01*
X113211294Y-78307749D01*
X113234544Y-78273644D01*
X113235102Y-78272747D01*
X113255252Y-78237154D01*
X113255739Y-78236203D01*
X113272789Y-78199122D01*
X113273193Y-78198136D01*
X113287143Y-78159567D01*
X113287458Y-78158567D01*
X113298308Y-78118511D01*
X113298535Y-78117520D01*
X113306285Y-78075976D01*
X113306426Y-78075011D01*
X113311076Y-78031979D01*
X113311142Y-78031057D01*
X113312265Y-77998796D01*
X113537735Y-77998796D01*
X113538857Y-78031057D01*
%TA.AperFunction,Conductor*%
D22*
G36*
X113538857Y-78031057D02*
G01*
X113538923Y-78031979D01*
X113543573Y-78075011D01*
X113543714Y-78075976D01*
X113551464Y-78117520D01*
X113551691Y-78118511D01*
X113562541Y-78158567D01*
X113562856Y-78159567D01*
X113576806Y-78198136D01*
X113577210Y-78199122D01*
X113594260Y-78236203D01*
X113594747Y-78237154D01*
X113614897Y-78272747D01*
X113615455Y-78273644D01*
X113638705Y-78307749D01*
X113639320Y-78308576D01*
X113665670Y-78341194D01*
X113666323Y-78341941D01*
X113689272Y-78366198D01*
X113425000Y-78824574D01*
X113160728Y-78366198D01*
X113183676Y-78341941D01*
X113184329Y-78341194D01*
X113210679Y-78308576D01*
X113211294Y-78307749D01*
X113234544Y-78273644D01*
X113235102Y-78272747D01*
X113255252Y-78237154D01*
X113255739Y-78236203D01*
X113272789Y-78199122D01*
X113273193Y-78198136D01*
X113287143Y-78159567D01*
X113287458Y-78158567D01*
X113298308Y-78118511D01*
X113298535Y-78117520D01*
X113306285Y-78075976D01*
X113306426Y-78075011D01*
X113311076Y-78031979D01*
X113311142Y-78031057D01*
X113312265Y-77998796D01*
X113537735Y-77998796D01*
X113538857Y-78031057D01*
G37*
%TD.AperFunction*%
%TD*%
D23*
%TO.N,/SPI2_SCLK*%
X98473878Y-134914527D02*
X98474629Y-134915183D01*
X98492761Y-134929812D01*
X98493593Y-134930429D01*
X98512567Y-134943336D01*
X98513467Y-134943894D01*
X98533283Y-134955081D01*
X98534236Y-134955568D01*
X98554894Y-134965033D01*
X98555880Y-134965435D01*
X98577380Y-134973180D01*
X98578378Y-134973494D01*
X98600720Y-134979517D01*
X98601709Y-134979742D01*
X98624894Y-134984045D01*
X98625854Y-134984185D01*
X98649880Y-134986767D01*
X98650798Y-134986832D01*
X98663406Y-134987269D01*
X98663406Y-135212731D01*
X98650798Y-135213167D01*
X98649880Y-135213232D01*
X98625854Y-135215814D01*
X98624894Y-135215954D01*
X98601709Y-135220257D01*
X98600720Y-135220482D01*
X98578378Y-135226505D01*
X98577380Y-135226819D01*
X98555880Y-135234564D01*
X98554894Y-135234966D01*
X98534236Y-135244431D01*
X98533283Y-135244918D01*
X98513467Y-135256105D01*
X98512567Y-135256663D01*
X98493593Y-135269570D01*
X98492761Y-135270187D01*
X98474629Y-135284816D01*
X98473878Y-135285472D01*
X98463461Y-135295323D01*
X98124676Y-135100000D01*
X98463461Y-134904677D01*
X98473878Y-134914527D01*
%TA.AperFunction,Conductor*%
D22*
G36*
X98473878Y-134914527D02*
G01*
X98474629Y-134915183D01*
X98492761Y-134929812D01*
X98493593Y-134930429D01*
X98512567Y-134943336D01*
X98513467Y-134943894D01*
X98533283Y-134955081D01*
X98534236Y-134955568D01*
X98554894Y-134965033D01*
X98555880Y-134965435D01*
X98577380Y-134973180D01*
X98578378Y-134973494D01*
X98600720Y-134979517D01*
X98601709Y-134979742D01*
X98624894Y-134984045D01*
X98625854Y-134984185D01*
X98649880Y-134986767D01*
X98650798Y-134986832D01*
X98663406Y-134987269D01*
X98663406Y-135212731D01*
X98650798Y-135213167D01*
X98649880Y-135213232D01*
X98625854Y-135215814D01*
X98624894Y-135215954D01*
X98601709Y-135220257D01*
X98600720Y-135220482D01*
X98578378Y-135226505D01*
X98577380Y-135226819D01*
X98555880Y-135234564D01*
X98554894Y-135234966D01*
X98534236Y-135244431D01*
X98533283Y-135244918D01*
X98513467Y-135256105D01*
X98512567Y-135256663D01*
X98493593Y-135269570D01*
X98492761Y-135270187D01*
X98474629Y-135284816D01*
X98473878Y-135285472D01*
X98463461Y-135295323D01*
X98124676Y-135100000D01*
X98463461Y-134904677D01*
X98473878Y-134914527D01*
G37*
%TD.AperFunction*%
%TD*%
D23*
%TO.N,/SPI2_RST*%
X96839053Y-135562826D02*
X96839454Y-135577156D01*
X96839521Y-135578151D01*
X96841998Y-135601317D01*
X96842150Y-135602341D01*
X96846440Y-135624884D01*
X96846681Y-135625915D01*
X96852783Y-135647838D01*
X96853113Y-135648857D01*
X96861028Y-135670157D01*
X96861441Y-135671139D01*
X96871168Y-135691818D01*
X96871652Y-135692745D01*
X96883191Y-135712803D01*
X96883731Y-135713661D01*
X96897082Y-135733097D01*
X96897662Y-135733875D01*
X96912826Y-135752690D01*
X96913429Y-135753386D01*
X96922036Y-135762609D01*
X96762609Y-135922036D01*
X96753386Y-135913429D01*
X96752690Y-135912826D01*
X96733875Y-135897662D01*
X96733097Y-135897082D01*
X96713661Y-135883731D01*
X96712803Y-135883191D01*
X96692745Y-135871652D01*
X96691818Y-135871168D01*
X96671139Y-135861441D01*
X96670157Y-135861028D01*
X96648857Y-135853113D01*
X96647838Y-135852783D01*
X96625915Y-135846681D01*
X96624884Y-135846440D01*
X96602341Y-135842150D01*
X96601317Y-135841998D01*
X96578151Y-135839521D01*
X96577156Y-135839454D01*
X96562826Y-135839053D01*
X96461383Y-135461383D01*
X96839053Y-135562826D01*
%TA.AperFunction,Conductor*%
D22*
G36*
X96839053Y-135562826D02*
G01*
X96839454Y-135577156D01*
X96839521Y-135578151D01*
X96841998Y-135601317D01*
X96842150Y-135602341D01*
X96846440Y-135624884D01*
X96846681Y-135625915D01*
X96852783Y-135647838D01*
X96853113Y-135648857D01*
X96861028Y-135670157D01*
X96861441Y-135671139D01*
X96871168Y-135691818D01*
X96871652Y-135692745D01*
X96883191Y-135712803D01*
X96883731Y-135713661D01*
X96897082Y-135733097D01*
X96897662Y-135733875D01*
X96912826Y-135752690D01*
X96913429Y-135753386D01*
X96922036Y-135762609D01*
X96762609Y-135922036D01*
X96753386Y-135913429D01*
X96752690Y-135912826D01*
X96733875Y-135897662D01*
X96733097Y-135897082D01*
X96713661Y-135883731D01*
X96712803Y-135883191D01*
X96692745Y-135871652D01*
X96691818Y-135871168D01*
X96671139Y-135861441D01*
X96670157Y-135861028D01*
X96648857Y-135853113D01*
X96647838Y-135852783D01*
X96625915Y-135846681D01*
X96624884Y-135846440D01*
X96602341Y-135842150D01*
X96601317Y-135841998D01*
X96578151Y-135839521D01*
X96577156Y-135839454D01*
X96562826Y-135839053D01*
X96461383Y-135461383D01*
X96839053Y-135562826D01*
G37*
%TD.AperFunction*%
%TD*%
M02*
