%TF.GenerationSoftware,KiCad,Pcbnew,(5.1.8)-1*%
%TF.CreationDate,2021-08-31T22:24:42+08:00*%
%TF.ProjectId,End_World_Kit_V3.0,456e645f-576f-4726-9c64-5f4b69745f56,rev?*%
%TF.SameCoordinates,Original*%
%TF.FileFunction,Profile,NP*%
%FSLAX46Y46*%
G04 Gerber Fmt 4.6, Leading zero omitted, Abs format (unit mm)*
G04 Created by KiCad (PCBNEW (5.1.8)-1) date 2021-08-31 22:24:42*
%MOMM*%
%LPD*%
G01*
G04 APERTURE LIST*
%TA.AperFunction,Profile*%
%ADD10C,0.050000*%
%TD*%
G04 APERTURE END LIST*
D10*
X61500000Y-101000000D02*
X61500000Y-102750000D01*
X61500000Y-102750000D02*
X58750000Y-102750000D01*
X58750000Y-101000000D02*
X61500000Y-101000000D01*
X137000000Y-101000000D02*
X137000000Y-102750000D01*
X140750000Y-102750000D02*
X137000000Y-102750000D01*
X140750000Y-101000000D02*
X137000000Y-101000000D01*
X58750000Y-101000000D02*
G75*
G02*
X54750000Y-97000000I0J4000000D01*
G01*
X144750000Y-97000000D02*
X144750000Y-61000000D01*
X54750000Y-61000000D02*
G75*
G02*
X58750000Y-57000000I4000000J0D01*
G01*
X140750000Y-57000000D02*
G75*
G02*
X144750000Y-61000000I0J-4000000D01*
G01*
X58750000Y-57000000D02*
X140750000Y-57000000D01*
X54750000Y-61000000D02*
X54750000Y-97000000D01*
X144750000Y-97000000D02*
G75*
G02*
X140750000Y-101000000I-4000000J0D01*
G01*
X91250000Y-143250000D02*
X87750000Y-146750000D01*
X108250000Y-143250000D02*
X91250000Y-143250000D01*
X111750000Y-146750000D02*
X108250000Y-143250000D01*
X58750000Y-146750000D02*
X87750000Y-146750000D01*
X140750000Y-146750000D02*
X111750000Y-146750000D01*
X144750000Y-142750000D02*
G75*
G02*
X140750000Y-146750000I-4000000J0D01*
G01*
X58750000Y-146750000D02*
G75*
G02*
X54750000Y-142750000I0J4000000D01*
G01*
X54750000Y-106750000D02*
G75*
G02*
X58750000Y-102750000I4000000J0D01*
G01*
X140750000Y-102750000D02*
G75*
G02*
X144750000Y-106750000I0J-4000000D01*
G01*
X54750000Y-106750000D02*
X54750000Y-142750000D01*
X144750000Y-142750000D02*
X144750000Y-106750000D01*
M02*
