%TF.GenerationSoftware,KiCad,Pcbnew,(5.1.8)-1*%
%TF.CreationDate,2021-08-31T22:24:42+08:00*%
%TF.ProjectId,End_World_Kit_V3.0,456e645f-576f-4726-9c64-5f4b69745f56,rev?*%
%TF.SameCoordinates,Original*%
%TF.FileFunction,Soldermask,Top*%
%TF.FilePolarity,Negative*%
%FSLAX46Y46*%
G04 Gerber Fmt 4.6, Leading zero omitted, Abs format (unit mm)*
G04 Created by KiCad (PCBNEW (5.1.8)-1) date 2021-08-31 22:24:42*
%MOMM*%
%LPD*%
G01*
G04 APERTURE LIST*
%ADD10C,0.010000*%
%ADD11C,1.000000*%
%ADD12C,0.700000*%
%ADD13C,4.400000*%
%ADD14O,2.100000X1.000000*%
%ADD15C,0.650000*%
%ADD16O,1.600000X1.000000*%
%ADD17R,2.300000X3.100000*%
%ADD18R,0.300000X1.100000*%
G04 APERTURE END LIST*
D10*
%TO.C,G\u002A\u002A\u002A*%
G36*
X70687083Y-95876250D02*
G01*
X69600398Y-95906432D01*
X69079979Y-95914153D01*
X68738094Y-95900707D01*
X68542374Y-95862881D01*
X68460451Y-95797459D01*
X68458629Y-95793065D01*
X68438050Y-95630564D01*
X68427446Y-95310041D01*
X68427915Y-94884953D01*
X68434064Y-94598717D01*
X68464583Y-93547917D01*
X70687083Y-93547917D01*
X70687083Y-95876250D01*
G37*
X70687083Y-95876250D02*
X69600398Y-95906432D01*
X69079979Y-95914153D01*
X68738094Y-95900707D01*
X68542374Y-95862881D01*
X68460451Y-95797459D01*
X68458629Y-95793065D01*
X68438050Y-95630564D01*
X68427446Y-95310041D01*
X68427915Y-94884953D01*
X68434064Y-94598717D01*
X68464583Y-93547917D01*
X70687083Y-93547917D01*
X70687083Y-95876250D01*
G36*
X73097564Y-93528612D02*
G01*
X73345230Y-93558998D01*
X73411780Y-93584447D01*
X73452256Y-93725990D01*
X73482384Y-94021505D01*
X73501404Y-94413517D01*
X73508556Y-94844548D01*
X73503081Y-95257123D01*
X73484217Y-95593765D01*
X73451207Y-95796997D01*
X73441323Y-95819170D01*
X73304806Y-95877200D01*
X73016905Y-95914864D01*
X72633166Y-95932904D01*
X72209132Y-95932062D01*
X71800350Y-95913080D01*
X71462363Y-95876701D01*
X71250716Y-95823666D01*
X71208867Y-95789342D01*
X71188904Y-95628530D01*
X71178778Y-95309462D01*
X71179522Y-94885366D01*
X71185730Y-94598717D01*
X71216250Y-93547917D01*
X72265252Y-93517419D01*
X72720686Y-93513765D01*
X73097564Y-93528612D01*
G37*
X73097564Y-93528612D02*
X73345230Y-93558998D01*
X73411780Y-93584447D01*
X73452256Y-93725990D01*
X73482384Y-94021505D01*
X73501404Y-94413517D01*
X73508556Y-94844548D01*
X73503081Y-95257123D01*
X73484217Y-95593765D01*
X73451207Y-95796997D01*
X73441323Y-95819170D01*
X73304806Y-95877200D01*
X73016905Y-95914864D01*
X72633166Y-95932904D01*
X72209132Y-95932062D01*
X71800350Y-95913080D01*
X71462363Y-95876701D01*
X71250716Y-95823666D01*
X71208867Y-95789342D01*
X71188904Y-95628530D01*
X71178778Y-95309462D01*
X71179522Y-94885366D01*
X71185730Y-94598717D01*
X71216250Y-93547917D01*
X72265252Y-93517419D01*
X72720686Y-93513765D01*
X73097564Y-93528612D01*
G36*
X75999306Y-88247087D02*
G01*
X76296250Y-88502507D01*
X76296250Y-95418327D01*
X75999306Y-95673747D01*
X75809830Y-95810807D01*
X75597131Y-95888487D01*
X75294838Y-95922604D01*
X74927473Y-95929167D01*
X74426636Y-95907802D01*
X74121027Y-95844546D01*
X74037445Y-95790433D01*
X73988557Y-95632904D01*
X73944354Y-95311506D01*
X73909980Y-94874035D01*
X73892195Y-94441058D01*
X73862083Y-93230417D01*
X72628786Y-93200688D01*
X71996797Y-93174542D01*
X71566499Y-93130819D01*
X71328553Y-93068373D01*
X71283064Y-93035497D01*
X71235656Y-92880128D01*
X71192450Y-92561468D01*
X71158570Y-92127890D01*
X71140528Y-91689392D01*
X71110416Y-90478750D01*
X69899775Y-90448638D01*
X69400675Y-90426845D01*
X68976508Y-90390794D01*
X68675072Y-90345629D01*
X68550400Y-90303388D01*
X68465841Y-90117047D01*
X68420443Y-89728714D01*
X68411666Y-89349731D01*
X68415957Y-89081543D01*
X74780835Y-89081543D01*
X74815874Y-89322035D01*
X74967427Y-89517225D01*
X75132083Y-89579167D01*
X75307031Y-89505110D01*
X75392447Y-89425501D01*
X75500331Y-89180769D01*
X75421850Y-88986030D01*
X75182294Y-88893184D01*
X75132083Y-88891250D01*
X74874076Y-88942486D01*
X74780835Y-89081543D01*
X68415957Y-89081543D01*
X68418623Y-88914940D01*
X68448799Y-88632594D01*
X68516154Y-88443672D01*
X68634648Y-88289154D01*
X68671439Y-88251440D01*
X68931212Y-87991667D01*
X75702363Y-87991667D01*
X75999306Y-88247087D01*
G37*
X75999306Y-88247087D02*
X76296250Y-88502507D01*
X76296250Y-95418327D01*
X75999306Y-95673747D01*
X75809830Y-95810807D01*
X75597131Y-95888487D01*
X75294838Y-95922604D01*
X74927473Y-95929167D01*
X74426636Y-95907802D01*
X74121027Y-95844546D01*
X74037445Y-95790433D01*
X73988557Y-95632904D01*
X73944354Y-95311506D01*
X73909980Y-94874035D01*
X73892195Y-94441058D01*
X73862083Y-93230417D01*
X72628786Y-93200688D01*
X71996797Y-93174542D01*
X71566499Y-93130819D01*
X71328553Y-93068373D01*
X71283064Y-93035497D01*
X71235656Y-92880128D01*
X71192450Y-92561468D01*
X71158570Y-92127890D01*
X71140528Y-91689392D01*
X71110416Y-90478750D01*
X69899775Y-90448638D01*
X69400675Y-90426845D01*
X68976508Y-90390794D01*
X68675072Y-90345629D01*
X68550400Y-90303388D01*
X68465841Y-90117047D01*
X68420443Y-89728714D01*
X68411666Y-89349731D01*
X68415957Y-89081543D01*
X74780835Y-89081543D01*
X74815874Y-89322035D01*
X74967427Y-89517225D01*
X75132083Y-89579167D01*
X75307031Y-89505110D01*
X75392447Y-89425501D01*
X75500331Y-89180769D01*
X75421850Y-88986030D01*
X75182294Y-88893184D01*
X75132083Y-88891250D01*
X74874076Y-88942486D01*
X74780835Y-89081543D01*
X68415957Y-89081543D01*
X68418623Y-88914940D01*
X68448799Y-88632594D01*
X68516154Y-88443672D01*
X68634648Y-88289154D01*
X68671439Y-88251440D01*
X68931212Y-87991667D01*
X75702363Y-87991667D01*
X75999306Y-88247087D01*
G36*
X78571666Y-94447500D02*
G01*
X82064166Y-94447500D01*
X82064166Y-95082500D01*
X80018055Y-95082500D01*
X79380326Y-95079010D01*
X78816361Y-95069289D01*
X78359883Y-95054461D01*
X78044612Y-95035650D01*
X77904270Y-95013980D01*
X77901388Y-95011945D01*
X77883330Y-94891940D01*
X77866979Y-94587477D01*
X77852952Y-94125763D01*
X77841862Y-93534003D01*
X77834324Y-92839405D01*
X77830954Y-92069174D01*
X77830833Y-91889861D01*
X77830833Y-88838334D01*
X78571666Y-88838334D01*
X78571666Y-94447500D01*
G37*
X78571666Y-94447500D02*
X82064166Y-94447500D01*
X82064166Y-95082500D01*
X80018055Y-95082500D01*
X79380326Y-95079010D01*
X78816361Y-95069289D01*
X78359883Y-95054461D01*
X78044612Y-95035650D01*
X77904270Y-95013980D01*
X77901388Y-95011945D01*
X77883330Y-94891940D01*
X77866979Y-94587477D01*
X77852952Y-94125763D01*
X77841862Y-93534003D01*
X77834324Y-92839405D01*
X77830954Y-92069174D01*
X77830833Y-91889861D01*
X77830833Y-88838334D01*
X78571666Y-88838334D01*
X78571666Y-94447500D01*
G36*
X87516167Y-88838334D02*
G01*
X87862842Y-88838334D01*
X86475394Y-91960417D01*
X86038950Y-92950512D01*
X85682277Y-93752514D01*
X85388818Y-94366812D01*
X85142018Y-94793789D01*
X84925320Y-95033833D01*
X84722167Y-95087330D01*
X84516004Y-94954666D01*
X84290275Y-94636226D01*
X84028424Y-94132398D01*
X83713894Y-93443566D01*
X83330128Y-92570118D01*
X83096001Y-92039233D01*
X82764745Y-91290005D01*
X82462977Y-90602783D01*
X82201016Y-90001441D01*
X81989181Y-89509850D01*
X81837794Y-89151883D01*
X81757174Y-88951415D01*
X81746626Y-88917709D01*
X81839243Y-88864318D01*
X82064761Y-88840790D01*
X82090625Y-88840748D01*
X82434583Y-88843162D01*
X83592127Y-91487912D01*
X83897663Y-92177357D01*
X84178224Y-92793994D01*
X84422309Y-93313854D01*
X84618415Y-93712968D01*
X84755041Y-93967367D01*
X84820684Y-94053081D01*
X84822504Y-94051956D01*
X84883277Y-93937111D01*
X85017263Y-93654778D01*
X85212454Y-93231223D01*
X85456848Y-92692712D01*
X85738437Y-92065512D01*
X86032414Y-91404792D01*
X87169491Y-88838333D01*
X87516167Y-88838334D01*
G37*
X87516167Y-88838334D02*
X87862842Y-88838334D01*
X86475394Y-91960417D01*
X86038950Y-92950512D01*
X85682277Y-93752514D01*
X85388818Y-94366812D01*
X85142018Y-94793789D01*
X84925320Y-95033833D01*
X84722167Y-95087330D01*
X84516004Y-94954666D01*
X84290275Y-94636226D01*
X84028424Y-94132398D01*
X83713894Y-93443566D01*
X83330128Y-92570118D01*
X83096001Y-92039233D01*
X82764745Y-91290005D01*
X82462977Y-90602783D01*
X82201016Y-90001441D01*
X81989181Y-89509850D01*
X81837794Y-89151883D01*
X81757174Y-88951415D01*
X81746626Y-88917709D01*
X81839243Y-88864318D01*
X82064761Y-88840790D01*
X82090625Y-88840748D01*
X82434583Y-88843162D01*
X83592127Y-91487912D01*
X83897663Y-92177357D01*
X84178224Y-92793994D01*
X84422309Y-93313854D01*
X84618415Y-93712968D01*
X84755041Y-93967367D01*
X84820684Y-94053081D01*
X84822504Y-94051956D01*
X84883277Y-93937111D01*
X85017263Y-93654778D01*
X85212454Y-93231223D01*
X85456848Y-92692712D01*
X85738437Y-92065512D01*
X86032414Y-91404792D01*
X87169491Y-88838333D01*
X87516167Y-88838334D01*
G36*
X92074991Y-88799270D02*
G01*
X92824170Y-89009560D01*
X93344679Y-89278351D01*
X93624933Y-89461376D01*
X93751552Y-89577430D01*
X93749947Y-89672440D01*
X93645531Y-89792331D01*
X93634934Y-89802936D01*
X93516874Y-89909596D01*
X93404373Y-89945344D01*
X93241845Y-89901942D01*
X92973705Y-89771150D01*
X92798907Y-89679009D01*
X92456214Y-89507986D01*
X92182717Y-89413116D01*
X91893599Y-89377556D01*
X91504049Y-89384462D01*
X91355093Y-89392287D01*
X90874392Y-89434420D01*
X90520205Y-89512205D01*
X90207765Y-89648575D01*
X90034974Y-89749436D01*
X89500645Y-90191442D01*
X89127249Y-90733223D01*
X88911915Y-91340498D01*
X88851774Y-91978984D01*
X88943954Y-92614401D01*
X89185587Y-93212466D01*
X89573802Y-93738897D01*
X90105729Y-94159412D01*
X90417303Y-94316133D01*
X90855875Y-94429113D01*
X91405019Y-94469840D01*
X91976733Y-94439353D01*
X92483014Y-94338691D01*
X92621041Y-94290122D01*
X93070833Y-94107017D01*
X93070833Y-91894089D01*
X93414791Y-91927253D01*
X93758750Y-91960417D01*
X93788713Y-93090736D01*
X93798957Y-93597766D01*
X93793023Y-93938546D01*
X93764043Y-94158285D01*
X93705152Y-94302196D01*
X93609481Y-94415489D01*
X93583796Y-94439882D01*
X93131076Y-94736952D01*
X92538965Y-94944460D01*
X91862794Y-95055829D01*
X91157894Y-95064483D01*
X90479594Y-94963845D01*
X90117719Y-94851865D01*
X89528761Y-94530890D01*
X88988059Y-94063860D01*
X88565766Y-93515253D01*
X88468673Y-93336250D01*
X88311107Y-92853885D01*
X88225817Y-92256033D01*
X88216134Y-91627332D01*
X88285393Y-91052419D01*
X88367426Y-90765349D01*
X88726974Y-90102589D01*
X89233775Y-89560745D01*
X89854903Y-89149655D01*
X90557432Y-88879154D01*
X91308437Y-88759080D01*
X92074991Y-88799270D01*
G37*
X92074991Y-88799270D02*
X92824170Y-89009560D01*
X93344679Y-89278351D01*
X93624933Y-89461376D01*
X93751552Y-89577430D01*
X93749947Y-89672440D01*
X93645531Y-89792331D01*
X93634934Y-89802936D01*
X93516874Y-89909596D01*
X93404373Y-89945344D01*
X93241845Y-89901942D01*
X92973705Y-89771150D01*
X92798907Y-89679009D01*
X92456214Y-89507986D01*
X92182717Y-89413116D01*
X91893599Y-89377556D01*
X91504049Y-89384462D01*
X91355093Y-89392287D01*
X90874392Y-89434420D01*
X90520205Y-89512205D01*
X90207765Y-89648575D01*
X90034974Y-89749436D01*
X89500645Y-90191442D01*
X89127249Y-90733223D01*
X88911915Y-91340498D01*
X88851774Y-91978984D01*
X88943954Y-92614401D01*
X89185587Y-93212466D01*
X89573802Y-93738897D01*
X90105729Y-94159412D01*
X90417303Y-94316133D01*
X90855875Y-94429113D01*
X91405019Y-94469840D01*
X91976733Y-94439353D01*
X92483014Y-94338691D01*
X92621041Y-94290122D01*
X93070833Y-94107017D01*
X93070833Y-91894089D01*
X93414791Y-91927253D01*
X93758750Y-91960417D01*
X93788713Y-93090736D01*
X93798957Y-93597766D01*
X93793023Y-93938546D01*
X93764043Y-94158285D01*
X93705152Y-94302196D01*
X93609481Y-94415489D01*
X93583796Y-94439882D01*
X93131076Y-94736952D01*
X92538965Y-94944460D01*
X91862794Y-95055829D01*
X91157894Y-95064483D01*
X90479594Y-94963845D01*
X90117719Y-94851865D01*
X89528761Y-94530890D01*
X88988059Y-94063860D01*
X88565766Y-93515253D01*
X88468673Y-93336250D01*
X88311107Y-92853885D01*
X88225817Y-92256033D01*
X88216134Y-91627332D01*
X88285393Y-91052419D01*
X88367426Y-90765349D01*
X88726974Y-90102589D01*
X89233775Y-89560745D01*
X89854903Y-89149655D01*
X90557432Y-88879154D01*
X91308437Y-88759080D01*
X92074991Y-88799270D01*
G36*
X96245833Y-94447500D02*
G01*
X99738333Y-94447500D01*
X99738333Y-95082500D01*
X95610833Y-95082500D01*
X95610833Y-88838334D01*
X96245833Y-88838334D01*
X96245833Y-94447500D01*
G37*
X96245833Y-94447500D02*
X99738333Y-94447500D01*
X99738333Y-95082500D01*
X95610833Y-95082500D01*
X95610833Y-88838334D01*
X96245833Y-88838334D01*
X96245833Y-94447500D01*
G36*
X70687083Y-93124584D02*
G01*
X69600398Y-93154765D01*
X69079979Y-93162486D01*
X68738094Y-93149040D01*
X68542374Y-93111214D01*
X68460451Y-93045793D01*
X68458629Y-93041399D01*
X68438050Y-92878898D01*
X68427446Y-92558374D01*
X68427915Y-92133286D01*
X68434064Y-91847050D01*
X68464583Y-90796250D01*
X70687083Y-90796250D01*
X70687083Y-93124584D01*
G37*
X70687083Y-93124584D02*
X69600398Y-93154765D01*
X69079979Y-93162486D01*
X68738094Y-93149040D01*
X68542374Y-93111214D01*
X68460451Y-93045793D01*
X68458629Y-93041399D01*
X68438050Y-92878898D01*
X68427446Y-92558374D01*
X68427915Y-92133286D01*
X68434064Y-91847050D01*
X68464583Y-90796250D01*
X70687083Y-90796250D01*
X70687083Y-93124584D01*
%TD*%
D11*
%TO.C,MK1*%
X130400000Y-97300000D03*
X128800000Y-97300000D03*
%TD*%
D12*
%TO.C,H8*%
X141916726Y-95833274D03*
X140750000Y-95350000D03*
X139583274Y-95833274D03*
X139100000Y-97000000D03*
X139583274Y-98166726D03*
X140750000Y-98650000D03*
X141916726Y-98166726D03*
X142400000Y-97000000D03*
D13*
X140750000Y-97000000D03*
%TD*%
D12*
%TO.C,H7*%
X141916726Y-59833274D03*
X140750000Y-59350000D03*
X139583274Y-59833274D03*
X139100000Y-61000000D03*
X139583274Y-62166726D03*
X140750000Y-62650000D03*
X141916726Y-62166726D03*
X142400000Y-61000000D03*
D13*
X140750000Y-61000000D03*
%TD*%
D12*
%TO.C,H6*%
X59916726Y-95833274D03*
X58750000Y-95350000D03*
X57583274Y-95833274D03*
X57100000Y-97000000D03*
X57583274Y-98166726D03*
X58750000Y-98650000D03*
X59916726Y-98166726D03*
X60400000Y-97000000D03*
D13*
X58750000Y-97000000D03*
%TD*%
D12*
%TO.C,H5*%
X59916726Y-59833274D03*
X58750000Y-59350000D03*
X57583274Y-59833274D03*
X57100000Y-61000000D03*
X57583274Y-62166726D03*
X58750000Y-62650000D03*
X59916726Y-62166726D03*
X60400000Y-61000000D03*
D13*
X58750000Y-61000000D03*
%TD*%
D12*
%TO.C,H4*%
X141916726Y-141583274D03*
X140750000Y-141100000D03*
X139583274Y-141583274D03*
X139100000Y-142750000D03*
X139583274Y-143916726D03*
X140750000Y-144400000D03*
X141916726Y-143916726D03*
X142400000Y-142750000D03*
D13*
X140750000Y-142750000D03*
%TD*%
D12*
%TO.C,H3*%
X141916726Y-105583274D03*
X140750000Y-105100000D03*
X139583274Y-105583274D03*
X139100000Y-106750000D03*
X139583274Y-107916726D03*
X140750000Y-108400000D03*
X141916726Y-107916726D03*
X142400000Y-106750000D03*
D13*
X140750000Y-106750000D03*
%TD*%
D12*
%TO.C,H2*%
X59916726Y-141583274D03*
X58750000Y-141100000D03*
X57583274Y-141583274D03*
X57100000Y-142750000D03*
X57583274Y-143916726D03*
X58750000Y-144400000D03*
X59916726Y-143916726D03*
X60400000Y-142750000D03*
D13*
X58750000Y-142750000D03*
%TD*%
D12*
%TO.C,H1*%
X59916726Y-105583274D03*
X58750000Y-105100000D03*
X57583274Y-105583274D03*
X57100000Y-106750000D03*
X57583274Y-107916726D03*
X58750000Y-108400000D03*
X59916726Y-107916726D03*
X60400000Y-106750000D03*
D13*
X58750000Y-106750000D03*
%TD*%
%TO.C,SW6*%
G36*
G01*
X130550000Y-134150000D02*
X130550000Y-133350000D01*
G75*
G02*
X130950000Y-132950000I400000J0D01*
G01*
X132550000Y-132950000D01*
G75*
G02*
X132950000Y-133350000I0J-400000D01*
G01*
X132950000Y-134150000D01*
G75*
G02*
X132550000Y-134550000I-400000J0D01*
G01*
X130950000Y-134550000D01*
G75*
G02*
X130550000Y-134150000I0J400000D01*
G01*
G37*
G36*
G01*
X124550000Y-134150000D02*
X124550000Y-133350000D01*
G75*
G02*
X124950000Y-132950000I400000J0D01*
G01*
X126550000Y-132950000D01*
G75*
G02*
X126950000Y-133350000I0J-400000D01*
G01*
X126950000Y-134150000D01*
G75*
G02*
X126550000Y-134550000I-400000J0D01*
G01*
X124950000Y-134550000D01*
G75*
G02*
X124550000Y-134150000I0J400000D01*
G01*
G37*
%TD*%
%TO.C,SW5*%
G36*
G01*
X130550000Y-115150000D02*
X130550000Y-114350000D01*
G75*
G02*
X130950000Y-113950000I400000J0D01*
G01*
X132550000Y-113950000D01*
G75*
G02*
X132950000Y-114350000I0J-400000D01*
G01*
X132950000Y-115150000D01*
G75*
G02*
X132550000Y-115550000I-400000J0D01*
G01*
X130950000Y-115550000D01*
G75*
G02*
X130550000Y-115150000I0J400000D01*
G01*
G37*
G36*
G01*
X124550000Y-115150000D02*
X124550000Y-114350000D01*
G75*
G02*
X124950000Y-113950000I400000J0D01*
G01*
X126550000Y-113950000D01*
G75*
G02*
X126950000Y-114350000I0J-400000D01*
G01*
X126950000Y-115150000D01*
G75*
G02*
X126550000Y-115550000I-400000J0D01*
G01*
X124950000Y-115550000D01*
G75*
G02*
X124550000Y-115150000I0J400000D01*
G01*
G37*
%TD*%
%TO.C,SW4*%
G36*
G01*
X72550000Y-134150000D02*
X72550000Y-133350000D01*
G75*
G02*
X72950000Y-132950000I400000J0D01*
G01*
X74550000Y-132950000D01*
G75*
G02*
X74950000Y-133350000I0J-400000D01*
G01*
X74950000Y-134150000D01*
G75*
G02*
X74550000Y-134550000I-400000J0D01*
G01*
X72950000Y-134550000D01*
G75*
G02*
X72550000Y-134150000I0J400000D01*
G01*
G37*
G36*
G01*
X66550000Y-134150000D02*
X66550000Y-133350000D01*
G75*
G02*
X66950000Y-132950000I400000J0D01*
G01*
X68550000Y-132950000D01*
G75*
G02*
X68950000Y-133350000I0J-400000D01*
G01*
X68950000Y-134150000D01*
G75*
G02*
X68550000Y-134550000I-400000J0D01*
G01*
X66950000Y-134550000D01*
G75*
G02*
X66550000Y-134150000I0J400000D01*
G01*
G37*
%TD*%
%TO.C,SW3*%
G36*
G01*
X72550000Y-115150000D02*
X72550000Y-114350000D01*
G75*
G02*
X72950000Y-113950000I400000J0D01*
G01*
X74550000Y-113950000D01*
G75*
G02*
X74950000Y-114350000I0J-400000D01*
G01*
X74950000Y-115150000D01*
G75*
G02*
X74550000Y-115550000I-400000J0D01*
G01*
X72950000Y-115550000D01*
G75*
G02*
X72550000Y-115150000I0J400000D01*
G01*
G37*
G36*
G01*
X66550000Y-115150000D02*
X66550000Y-114350000D01*
G75*
G02*
X66950000Y-113950000I400000J0D01*
G01*
X68550000Y-113950000D01*
G75*
G02*
X68950000Y-114350000I0J-400000D01*
G01*
X68950000Y-115150000D01*
G75*
G02*
X68550000Y-115550000I-400000J0D01*
G01*
X66950000Y-115550000D01*
G75*
G02*
X66550000Y-115150000I0J400000D01*
G01*
G37*
%TD*%
D14*
%TO.C,P1*%
X62130000Y-112930000D03*
X62130000Y-121570000D03*
D15*
X61600000Y-120140000D03*
D16*
X57950000Y-121570000D03*
D15*
X61600000Y-114360000D03*
D16*
X57950000Y-112930000D03*
%TD*%
D17*
%TO.C,J4*%
X127870000Y-62600000D03*
X120030000Y-62600000D03*
D18*
X126200000Y-60900000D03*
X125700000Y-60900000D03*
X125200000Y-60900000D03*
X124700000Y-60900000D03*
X124200000Y-60900000D03*
X123700000Y-60900000D03*
X123200000Y-60900000D03*
X122700000Y-60900000D03*
X122200000Y-60900000D03*
X121700000Y-60900000D03*
%TD*%
M02*
