M48
; DRILL file {KiCad (5.1.8)-1} date 08/31/21 22:24:44
; FORMAT={-:-/ absolute / metric / decimal}
; #@! TF.CreationDate,2021-08-31T22:24:44+08:00
; #@! TF.GenerationSoftware,Kicad,Pcbnew,(5.1.8)-1
; #@! TF.FileFunction,Plated,1,4,PTH
FMAT,2
METRIC
T1C0.301
T2C0.400
T3C0.500
T4C0.600
T5C2.200
%
G90
G05
T1
X55.75Y-113.15
X56.15Y-117.15
X58.05Y-115.15
X58.25Y-118.55
X58.6Y-124.25
X58.762Y-128.737
X59.65Y-115.25
X59.775Y-128.725
X59.95Y-112.95
X60.05Y-116.65
X60.05Y-120.35
X60.438Y-123.362
X61.15Y-117.85
X62.975Y-103.9
X64.125Y-114.8
X64.125Y-119.7
X64.15Y-104.2
X64.45Y-105.275
X65.0Y-114.8
X65.0Y-119.7
X65.35Y-144.25
X65.375Y-103.8
X65.9Y-114.8
X65.9Y-119.7
X66.275Y-105.25
X66.4Y-144.0
X66.625Y-104.325
X66.775Y-143.1
X67.325Y-144.375
X67.7Y-103.825
X68.25Y-117.25
X68.525Y-104.525
X68.765Y-136.235
X69.65Y-120.05
X69.65Y-121.05
X69.65Y-122.05
X69.65Y-123.05
X69.65Y-124.05
X69.75Y-113.95
X69.89Y-109.065
X69.905Y-107.795
X69.95Y-112.05
X70.035Y-136.26
X70.05Y-105.15
X70.95Y-110.15
X71.05Y-106.45
X71.75Y-103.75
X72.4Y-132.0
X72.55Y-117.25
X72.95Y-133.75
X72.95Y-134.7
X73.65Y-103.95
X73.75Y-133.75
X74.5Y-131.95
X74.55Y-133.75
X74.55Y-134.7
X74.6Y-136.05
X75.4Y-132.45
X75.65Y-133.45
X75.8Y-134.6
X76.45Y-110.175
X76.75Y-132.85
X77.325Y-109.1
X77.675Y-124.1
X78.0Y-109.925
X79.725Y-124.55
X80.075Y-126.075
X81.925Y-125.2
X82.75Y-125.2
X83.675Y-125.2
X92.65Y-134.425
X94.495Y-107.875
X94.495Y-113.175
X96.55Y-135.55
X97.75Y-129.21
X98.25Y-135.1
X98.87Y-130.03
X99.35Y-136.45
X101.69Y-123.42
X110.96Y-130.89
X111.54Y-108.97
X113.08Y-106.03
X113.77Y-105.07
X115.33Y-120.46
X115.35Y-106.65
X115.375Y-107.925
X115.975Y-107.3
X116.1Y-118.19
X116.11Y-119.77
X116.4Y-121.05
X116.423Y-122.348
X116.6Y-106.65
X116.6Y-107.925
X117.19Y-129.22
X117.93Y-121.05
X119.362Y-135.011
X119.37Y-135.86
X120.33Y-137.29
X121.29Y-138.37
X121.77Y-118.94
X122.05Y-138.13
X122.7Y-137.66
X123.07Y-119.03
X124.3Y-119.02
X125.57Y-112.06
X126.225Y-119.05
X126.84Y-130.65
X127.075Y-119.95
X128.13Y-130.63
X129.2Y-137.3
X130.66Y-118.64
X131.4Y-117.9
X131.5Y-140.4
X131.5Y-141.4
X132.075Y-119.375
X132.1Y-138.2
X132.4Y-140.4
X132.4Y-141.4
X133.3Y-140.4
X133.3Y-141.4
X134.2Y-139.5
X134.2Y-140.4
X134.2Y-141.4
X134.46Y-118.46
X134.47Y-134.86
X135.725Y-145.325
T2
X56.043Y-131.589
X56.239Y-135.34
X56.255Y-115.207
X56.316Y-118.8
X57.272Y-137.871
X58.074Y-116.917
X58.335Y-133.182
X58.986Y-136.184
X59.837Y-111.503
X59.889Y-118.796
X64.55Y-140.45
X67.65Y-139.45
X67.65Y-140.85
X68.95Y-139.45
X68.95Y-140.85
X70.35Y-139.45
X70.35Y-140.85
X71.05Y-120.35
X71.05Y-123.25
X71.65Y-139.45
X71.65Y-140.95
X72.15Y-137.95
X72.25Y-136.65
X73.05Y-144.95
X73.15Y-122.05
X73.25Y-137.45
X74.31Y-119.901
X75.187Y-142.059
X75.29Y-138.158
X75.439Y-104.679
X76.303Y-117.886
X76.333Y-144.505
X77.317Y-139.743
X77.906Y-105.684
X78.067Y-122.671
X78.144Y-142.745
X78.943Y-125.755
X79.9Y-120.73
X79.904Y-114.056
X79.989Y-139.011
X80.056Y-107.824
X80.082Y-144.834
X80.875Y-141.817
X81.052Y-104.711
X81.763Y-119.01
X82.014Y-109.437
X82.5Y-121.8
X82.7Y-120.7
X82.973Y-106.604
X83.6Y-122.3
X83.7Y-121.2
X83.892Y-138.912
X84.044Y-144.943
X84.1Y-132.3
X84.1Y-133.4
X84.1Y-134.5
X84.1Y-135.6
X85.4Y-132.3
X85.4Y-133.4
X85.529Y-114.168
X85.939Y-141.126
X86.7Y-132.3
X86.7Y-133.4
X86.728Y-129.345
X87.473Y-144.788
X87.503Y-138.889
X87.56Y-116.322
X87.71Y-106.24
X88.0Y-132.3
X88.0Y-133.4
X88.37Y-127.759
X88.403Y-123.98
X89.06Y-106.26
X89.09Y-107.54
X89.1Y-108.61
X89.325Y-140.759
X89.41Y-130.518
X89.96Y-105.29
X90.422Y-125.648
X90.524Y-118.848
X90.74Y-106.31
X91.1Y-132.2
X91.1Y-133.4
X91.245Y-139.077
X91.525Y-128.779
X92.4Y-132.2
X92.4Y-133.4
X92.411Y-105.517
X93.206Y-140.81
X93.388Y-130.285
X93.479Y-124.55
X93.488Y-120.084
X93.88Y-78.98
X94.425Y-133.085
X95.164Y-127.638
X96.099Y-113.312
X96.164Y-108.62
X96.186Y-104.71
X97.02Y-125.589
X97.907Y-110.221
X98.028Y-106.493
X99.0Y-128.2
X100.087Y-104.712
X102.626Y-105.517
X103.0Y-127.2
X103.975Y-111.975
X104.758Y-131.245
X105.846Y-112.38
X105.906Y-134.122
X106.561Y-139.233
X106.625Y-75.9
X106.75Y-86.075
X107.407Y-132.483
X107.454Y-65.925
X107.716Y-69.678
X107.744Y-104.838
X107.778Y-81.919
X107.798Y-109.326
X108.075Y-88.425
X108.1Y-86.7
X108.2Y-77.025
X108.55Y-75.46
X108.701Y-72.394
X108.775Y-78.025
X108.83Y-62.67
X108.9Y-79.625
X109.25Y-89.425
X109.4Y-81.2
X109.475Y-134.15
X109.531Y-67.438
X110.262Y-70.509
X110.586Y-113.353
X111.2Y-62.05
X111.2Y-89.5
X111.388Y-65.622
X111.675Y-76.35
X112.225Y-87.225
X112.229Y-115.19
X112.287Y-139.075
X112.35Y-143.587
X112.359Y-127.675
X112.389Y-81.969
X112.595Y-68.69
X112.616Y-124.023
X112.85Y-85.05
X113.05Y-83.5
X113.075Y-74.85
X113.289Y-71.199
X113.425Y-78.65
X113.456Y-87.798
X114.087Y-125.822
X114.15Y-58.5
X114.163Y-66.878
X115.139Y-89.362
X115.377Y-133.148
X115.383Y-138.134
X115.5Y-62.67
X115.625Y-68.8
X116.018Y-123.913
X116.295Y-127.464
X116.325Y-143.663
X116.5Y-76.4
X116.995Y-65.468
X117.3Y-110.9
X117.3Y-112.8
X117.3Y-114.1
X117.3Y-115.7
X117.575Y-77.4
X117.6Y-74.9
X117.6Y-89.6
X117.81Y-80.87
X117.96Y-61.142
X118.063Y-104.6
X118.185Y-68.747
X118.227Y-139.195
X118.95Y-109.616
X119.217Y-133.425
X119.5Y-82.8
X119.788Y-66.498
X119.885Y-143.81
X119.9Y-79.475
X119.925Y-76.625
X119.98Y-63.53
X120.0Y-84.6
X120.01Y-61.7
X120.025Y-74.0
X120.3Y-91.1
X120.875Y-78.075
X121.08Y-98.857
X121.1Y-95.9
X121.134Y-93.387
X121.475Y-85.6
X121.973Y-104.943
X122.984Y-108.735
X123.25Y-83.86
X123.587Y-122.056
X123.658Y-127.635
X123.69Y-66.98
X123.771Y-99.92
X123.94Y-143.15
X124.0Y-58.55
X124.62Y-66.27
X124.629Y-130.288
X124.697Y-79.808
X124.807Y-105.53
X124.821Y-110.47
X124.94Y-64.73
X125.0Y-58.55
X125.0Y-62.15
X125.1Y-63.45
X125.1Y-137.3
X125.58Y-68.552
X125.804Y-123.828
X125.9Y-58.9
X125.95Y-59.85
X126.2Y-62.65
X126.325Y-80.55
X126.8Y-113.1
X126.86Y-75.03
X126.9Y-77.54
X127.407Y-104.714
X127.691Y-121.723
X127.769Y-143.734
X127.786Y-108.549
X127.84Y-61.72
X127.84Y-85.44
X127.86Y-63.46
X127.9Y-124.1
X127.9Y-125.8
X127.9Y-127.4
X128.077Y-113.777
X128.175Y-78.525
X128.388Y-111.451
X128.42Y-74.02
X128.445Y-79.991
X129.3Y-114.5
X129.45Y-80.95
X129.5Y-124.1
X129.5Y-125.8
X129.5Y-127.4
X129.562Y-129.73
X129.603Y-106.713
X130.347Y-69.71
X130.36Y-109.523
X130.4Y-88.96
X130.438Y-120.831
X131.1Y-124.1
X131.1Y-125.8
X131.1Y-127.4
X131.222Y-112.282
X131.275Y-80.75
X131.308Y-131.637
X131.61Y-104.713
X131.875Y-75.865
X131.905Y-77.135
X131.925Y-78.425
X132.169Y-74.438
X132.326Y-99.838
X132.441Y-107.732
X133.131Y-125.776
X133.245Y-110.264
X133.341Y-122.075
X133.45Y-129.496
X133.454Y-78.952
X133.62Y-112.92
X134.441Y-105.916
X134.85Y-72.08
X134.85Y-79.69
X135.313Y-123.91
X135.8Y-73.31
X135.8Y-88.81
X135.8Y-91.91
X136.136Y-69.518
X136.405Y-94.088
X136.428Y-98.178
X136.54Y-79.69
X136.6Y-85.7
X136.6Y-118.4
X136.62Y-84.58
X136.635Y-75.865
X136.635Y-77.135
X136.964Y-129.388
X136.976Y-121.648
X137.2Y-135.1
X137.286Y-125.593
X137.99Y-82.6
X137.995Y-88.905
X138.01Y-81.08
X138.01Y-90.81
X138.032Y-65.545
X138.09Y-92.14
X138.4Y-76.85
X138.975Y-66.85
X139.94Y-86.74
X140.2Y-69.3
X140.25Y-91.72
X141.096Y-84.858
X141.108Y-66.826
X142.057Y-79.835
X142.077Y-76.247
X143.11Y-88.87
X143.85Y-67.125
X143.96Y-73.3
X143.97Y-86.67
X143.98Y-71.7
X143.99Y-82.4
X144.0Y-70.3
X144.0Y-90.91
X139.1Y-97.0
X139.583Y-95.833
X139.583Y-98.167
X140.75Y-95.35
X140.75Y-98.65
X141.917Y-95.833
X141.917Y-98.167
X142.4Y-97.0
X57.1Y-142.75
X57.583Y-141.583
X57.583Y-143.917
X58.75Y-141.1
X58.75Y-144.4
X59.917Y-141.583
X59.917Y-143.917
X60.4Y-142.75
X139.1Y-142.75
X139.583Y-141.583
X139.583Y-143.917
X140.75Y-141.1
X140.75Y-144.4
X141.917Y-141.583
X141.917Y-143.917
X142.4Y-142.75
X57.1Y-61.0
X57.583Y-59.833
X57.583Y-62.167
X58.75Y-59.35
X58.75Y-62.65
X59.917Y-59.833
X59.917Y-62.167
X60.4Y-61.0
X139.1Y-61.0
X139.583Y-59.833
X139.583Y-62.167
X140.75Y-59.35
X140.75Y-62.65
X141.917Y-59.833
X141.917Y-62.167
X142.4Y-61.0
X57.1Y-106.75
X57.583Y-105.583
X57.583Y-107.917
X58.75Y-105.1
X58.75Y-108.4
X59.917Y-105.583
X59.917Y-107.917
X60.4Y-106.75
X57.1Y-97.0
X57.583Y-95.833
X57.583Y-98.167
X58.75Y-95.35
X58.75Y-98.65
X59.917Y-95.833
X59.917Y-98.167
X60.4Y-97.0
X139.1Y-106.75
X139.583Y-105.583
X139.583Y-107.917
X140.75Y-105.1
X140.75Y-108.4
X141.917Y-105.583
X141.917Y-107.917
X142.4Y-106.75
T3
X128.8Y-97.3
X130.4Y-97.3
T5
X58.75Y-97.0
X140.75Y-106.75
X140.75Y-97.0
X58.75Y-142.75
X140.75Y-142.75
X58.75Y-61.0
X140.75Y-61.0
X58.75Y-106.75
T4
G00X57.65Y-112.93
M15
G01X58.25Y-112.93
M16
G05
G00X57.65Y-121.57
M15
G01X58.25Y-121.57
M16
G05
G00X61.58Y-112.93
M15
G01X62.68Y-112.93
M16
G05
G00X61.58Y-121.57
M15
G01X62.68Y-121.57
M16
G05
T0
M30
