%TF.GenerationSoftware,KiCad,Pcbnew,(5.1.8)-1*%
%TF.CreationDate,2021-08-31T22:24:41+08:00*%
%TF.ProjectId,End_World_Kit_V3.0,456e645f-576f-4726-9c64-5f4b69745f56,rev?*%
%TF.SameCoordinates,Original*%
%TF.FileFunction,Copper,L1,Top*%
%TF.FilePolarity,Positive*%
%FSLAX46Y46*%
G04 Gerber Fmt 4.6, Leading zero omitted, Abs format (unit mm)*
G04 Created by KiCad (PCBNEW (5.1.8)-1) date 2021-08-31 22:24:42*
%MOMM*%
%LPD*%
G01*
G04 APERTURE LIST*
%TA.AperFunction,ComponentPad*%
%ADD10C,1.000000*%
%TD*%
%TA.AperFunction,ComponentPad*%
%ADD11C,0.700000*%
%TD*%
%TA.AperFunction,ComponentPad*%
%ADD12C,4.400000*%
%TD*%
%TA.AperFunction,ComponentPad*%
%ADD13O,2.100000X1.000000*%
%TD*%
%TA.AperFunction,ComponentPad*%
%ADD14O,1.600000X1.000000*%
%TD*%
%TA.AperFunction,SMDPad,CuDef*%
%ADD15R,2.300000X3.100000*%
%TD*%
%TA.AperFunction,SMDPad,CuDef*%
%ADD16R,0.300000X1.100000*%
%TD*%
%TA.AperFunction,ViaPad*%
%ADD17C,0.603000*%
%TD*%
%TA.AperFunction,ViaPad*%
%ADD18C,0.800000*%
%TD*%
%TA.AperFunction,Conductor*%
%ADD19C,0.600000*%
%TD*%
%TA.AperFunction,Conductor*%
%ADD20C,0.300000*%
%TD*%
%TA.AperFunction,Conductor*%
%ADD21C,0.250000*%
%TD*%
%TA.AperFunction,Conductor*%
%ADD22C,0.400000*%
%TD*%
%TA.AperFunction,Conductor*%
%ADD23C,0.200000*%
%TD*%
%TA.AperFunction,Conductor*%
%ADD24C,0.100000*%
%TD*%
%TA.AperFunction,Conductor*%
%ADD25C,0.025400*%
%TD*%
G04 APERTURE END LIST*
D10*
%TO.P,MK1,1*%
%TO.N,GNDA*%
X130400000Y-97300000D03*
%TO.P,MK1,2*%
%TO.N,Net-(C21-Pad1)*%
X128800000Y-97300000D03*
%TD*%
D11*
%TO.P,H8,1*%
%TO.N,N/C*%
X141916726Y-95833274D03*
X140750000Y-95350000D03*
X139583274Y-95833274D03*
X139100000Y-97000000D03*
X139583274Y-98166726D03*
X140750000Y-98650000D03*
X141916726Y-98166726D03*
X142400000Y-97000000D03*
D12*
X140750000Y-97000000D03*
%TD*%
D11*
%TO.P,H7,1*%
%TO.N,N/C*%
X141916726Y-59833274D03*
X140750000Y-59350000D03*
X139583274Y-59833274D03*
X139100000Y-61000000D03*
X139583274Y-62166726D03*
X140750000Y-62650000D03*
X141916726Y-62166726D03*
X142400000Y-61000000D03*
D12*
X140750000Y-61000000D03*
%TD*%
D11*
%TO.P,H6,1*%
%TO.N,N/C*%
X59916726Y-95833274D03*
X58750000Y-95350000D03*
X57583274Y-95833274D03*
X57100000Y-97000000D03*
X57583274Y-98166726D03*
X58750000Y-98650000D03*
X59916726Y-98166726D03*
X60400000Y-97000000D03*
D12*
X58750000Y-97000000D03*
%TD*%
D11*
%TO.P,H5,1*%
%TO.N,N/C*%
X59916726Y-59833274D03*
X58750000Y-59350000D03*
X57583274Y-59833274D03*
X57100000Y-61000000D03*
X57583274Y-62166726D03*
X58750000Y-62650000D03*
X59916726Y-62166726D03*
X60400000Y-61000000D03*
D12*
X58750000Y-61000000D03*
%TD*%
D11*
%TO.P,H4,1*%
%TO.N,N/C*%
X141916726Y-141583274D03*
X140750000Y-141100000D03*
X139583274Y-141583274D03*
X139100000Y-142750000D03*
X139583274Y-143916726D03*
X140750000Y-144400000D03*
X141916726Y-143916726D03*
X142400000Y-142750000D03*
D12*
X140750000Y-142750000D03*
%TD*%
D11*
%TO.P,H3,1*%
%TO.N,N/C*%
X141916726Y-105583274D03*
X140750000Y-105100000D03*
X139583274Y-105583274D03*
X139100000Y-106750000D03*
X139583274Y-107916726D03*
X140750000Y-108400000D03*
X141916726Y-107916726D03*
X142400000Y-106750000D03*
D12*
X140750000Y-106750000D03*
%TD*%
D11*
%TO.P,H2,1*%
%TO.N,N/C*%
X59916726Y-141583274D03*
X58750000Y-141100000D03*
X57583274Y-141583274D03*
X57100000Y-142750000D03*
X57583274Y-143916726D03*
X58750000Y-144400000D03*
X59916726Y-143916726D03*
X60400000Y-142750000D03*
D12*
X58750000Y-142750000D03*
%TD*%
D11*
%TO.P,H1,1*%
%TO.N,N/C*%
X59916726Y-105583274D03*
X58750000Y-105100000D03*
X57583274Y-105583274D03*
X57100000Y-106750000D03*
X57583274Y-107916726D03*
X58750000Y-108400000D03*
X59916726Y-107916726D03*
X60400000Y-106750000D03*
D12*
X58750000Y-106750000D03*
%TD*%
%TO.P,SW6,2*%
%TO.N,GND*%
%TA.AperFunction,SMDPad,CuDef*%
G36*
G01*
X130550000Y-134150000D02*
X130550000Y-133350000D01*
G75*
G02*
X130950000Y-132950000I400000J0D01*
G01*
X132550000Y-132950000D01*
G75*
G02*
X132950000Y-133350000I0J-400000D01*
G01*
X132950000Y-134150000D01*
G75*
G02*
X132550000Y-134550000I-400000J0D01*
G01*
X130950000Y-134550000D01*
G75*
G02*
X130550000Y-134150000I0J400000D01*
G01*
G37*
%TD.AperFunction*%
%TO.P,SW6,1*%
%TO.N,/KEY4*%
%TA.AperFunction,SMDPad,CuDef*%
G36*
G01*
X124550000Y-134150000D02*
X124550000Y-133350000D01*
G75*
G02*
X124950000Y-132950000I400000J0D01*
G01*
X126550000Y-132950000D01*
G75*
G02*
X126950000Y-133350000I0J-400000D01*
G01*
X126950000Y-134150000D01*
G75*
G02*
X126550000Y-134550000I-400000J0D01*
G01*
X124950000Y-134550000D01*
G75*
G02*
X124550000Y-134150000I0J400000D01*
G01*
G37*
%TD.AperFunction*%
%TD*%
%TO.P,SW5,2*%
%TO.N,GND*%
%TA.AperFunction,SMDPad,CuDef*%
G36*
G01*
X130550000Y-115150000D02*
X130550000Y-114350000D01*
G75*
G02*
X130950000Y-113950000I400000J0D01*
G01*
X132550000Y-113950000D01*
G75*
G02*
X132950000Y-114350000I0J-400000D01*
G01*
X132950000Y-115150000D01*
G75*
G02*
X132550000Y-115550000I-400000J0D01*
G01*
X130950000Y-115550000D01*
G75*
G02*
X130550000Y-115150000I0J400000D01*
G01*
G37*
%TD.AperFunction*%
%TO.P,SW5,1*%
%TO.N,/KEY3*%
%TA.AperFunction,SMDPad,CuDef*%
G36*
G01*
X124550000Y-115150000D02*
X124550000Y-114350000D01*
G75*
G02*
X124950000Y-113950000I400000J0D01*
G01*
X126550000Y-113950000D01*
G75*
G02*
X126950000Y-114350000I0J-400000D01*
G01*
X126950000Y-115150000D01*
G75*
G02*
X126550000Y-115550000I-400000J0D01*
G01*
X124950000Y-115550000D01*
G75*
G02*
X124550000Y-115150000I0J400000D01*
G01*
G37*
%TD.AperFunction*%
%TD*%
%TO.P,SW4,2*%
%TO.N,GND*%
%TA.AperFunction,SMDPad,CuDef*%
G36*
G01*
X72550000Y-134150000D02*
X72550000Y-133350000D01*
G75*
G02*
X72950000Y-132950000I400000J0D01*
G01*
X74550000Y-132950000D01*
G75*
G02*
X74950000Y-133350000I0J-400000D01*
G01*
X74950000Y-134150000D01*
G75*
G02*
X74550000Y-134550000I-400000J0D01*
G01*
X72950000Y-134550000D01*
G75*
G02*
X72550000Y-134150000I0J400000D01*
G01*
G37*
%TD.AperFunction*%
%TO.P,SW4,1*%
%TO.N,/KEY2*%
%TA.AperFunction,SMDPad,CuDef*%
G36*
G01*
X66550000Y-134150000D02*
X66550000Y-133350000D01*
G75*
G02*
X66950000Y-132950000I400000J0D01*
G01*
X68550000Y-132950000D01*
G75*
G02*
X68950000Y-133350000I0J-400000D01*
G01*
X68950000Y-134150000D01*
G75*
G02*
X68550000Y-134550000I-400000J0D01*
G01*
X66950000Y-134550000D01*
G75*
G02*
X66550000Y-134150000I0J400000D01*
G01*
G37*
%TD.AperFunction*%
%TD*%
%TO.P,SW3,2*%
%TO.N,GND*%
%TA.AperFunction,SMDPad,CuDef*%
G36*
G01*
X72550000Y-115150000D02*
X72550000Y-114350000D01*
G75*
G02*
X72950000Y-113950000I400000J0D01*
G01*
X74550000Y-113950000D01*
G75*
G02*
X74950000Y-114350000I0J-400000D01*
G01*
X74950000Y-115150000D01*
G75*
G02*
X74550000Y-115550000I-400000J0D01*
G01*
X72950000Y-115550000D01*
G75*
G02*
X72550000Y-115150000I0J400000D01*
G01*
G37*
%TD.AperFunction*%
%TO.P,SW3,1*%
%TO.N,/KEY1*%
%TA.AperFunction,SMDPad,CuDef*%
G36*
G01*
X66550000Y-115150000D02*
X66550000Y-114350000D01*
G75*
G02*
X66950000Y-113950000I400000J0D01*
G01*
X68550000Y-113950000D01*
G75*
G02*
X68950000Y-114350000I0J-400000D01*
G01*
X68950000Y-115150000D01*
G75*
G02*
X68550000Y-115550000I-400000J0D01*
G01*
X66950000Y-115550000D01*
G75*
G02*
X66550000Y-115150000I0J400000D01*
G01*
G37*
%TD.AperFunction*%
%TD*%
D13*
%TO.P,P1,S1*%
%TO.N,GND*%
X62130000Y-112930000D03*
X62130000Y-121570000D03*
D14*
X57950000Y-121570000D03*
X57950000Y-112930000D03*
%TD*%
D15*
%TO.P,J4,MP*%
%TO.N,GNDA*%
X127870000Y-62600000D03*
X120030000Y-62600000D03*
D16*
%TO.P,J4,10*%
%TO.N,VBAT_B*%
X126200000Y-60900000D03*
%TO.P,J4,9*%
X125700000Y-60900000D03*
%TO.P,J4,8*%
%TO.N,GNDA*%
X125200000Y-60900000D03*
%TO.P,J4,7*%
X124700000Y-60900000D03*
%TO.P,J4,6*%
%TO.N,/RAD_V_B*%
X124200000Y-60900000D03*
%TO.P,J4,5*%
%TO.N,/UV_OUT_B*%
X123700000Y-60900000D03*
%TO.P,J4,4*%
%TO.N,/MIC_OUT*%
X123200000Y-60900000D03*
%TO.P,J4,3*%
%TO.N,/I2C_SCL*%
X122700000Y-60900000D03*
%TO.P,J4,2*%
%TO.N,/I2C_SDA*%
X122200000Y-60900000D03*
%TO.P,J4,1*%
%TO.N,/CCS811_WAKE*%
X121700000Y-60900000D03*
%TD*%
D17*
%TO.N,GND*%
X74550000Y-134700000D03*
X72950000Y-134700000D03*
X74550000Y-133750000D03*
X72950000Y-133750000D03*
D18*
X131100000Y-125800000D03*
X129500000Y-125800000D03*
X127900000Y-125800000D03*
X127900000Y-127400000D03*
X129500000Y-127400000D03*
X131100000Y-127400000D03*
X129500000Y-124100000D03*
X131100000Y-124100000D03*
X127900000Y-124100000D03*
D17*
X129200000Y-137300000D03*
X68250000Y-117250000D03*
X132100000Y-138200000D03*
D18*
X137200000Y-135100000D03*
X136600000Y-118400000D03*
X123940000Y-143150000D03*
X133620000Y-112920000D03*
X56254611Y-115207390D03*
X56315977Y-118799757D03*
X56042657Y-131589235D03*
X56238693Y-135339564D03*
X57271681Y-137870876D03*
X58074346Y-116917231D03*
X58335182Y-133182348D03*
X58986479Y-136184468D03*
X59837184Y-111502874D03*
X59888643Y-118796122D03*
X71050000Y-120350000D03*
X71050000Y-123250000D03*
X73150000Y-122050000D03*
X74309538Y-119901045D03*
X75438867Y-104679141D03*
X75290369Y-138158489D03*
X75187037Y-142059310D03*
X76303156Y-117885579D03*
X76333192Y-144505355D03*
X77316918Y-139742584D03*
X77905925Y-105683540D03*
X78067355Y-122670768D03*
X78143556Y-142745148D03*
X78942982Y-125755353D03*
X80056454Y-107824103D03*
X79904458Y-114056483D03*
X79899600Y-120729860D03*
X79989475Y-139011212D03*
X80081536Y-144834175D03*
X81051677Y-104711406D03*
X80875073Y-141817381D03*
X82013895Y-109437215D03*
X81762826Y-119010297D03*
X82972508Y-106604221D03*
X83892291Y-138912438D03*
X84044183Y-144943451D03*
X85529269Y-114167873D03*
X85939076Y-141125560D03*
X86727907Y-129345145D03*
X87559761Y-116321944D03*
X87502980Y-138889150D03*
X87473446Y-144787736D03*
X88403493Y-123979685D03*
X88369530Y-127758609D03*
X89409790Y-130518095D03*
X89324504Y-140759244D03*
X90524003Y-118848391D03*
X90421672Y-125647822D03*
X91524811Y-128779279D03*
X91245199Y-139077060D03*
X92411239Y-105517298D03*
X93488495Y-120084049D03*
X93479223Y-124550387D03*
X93387732Y-130285205D03*
X93206225Y-140810335D03*
X94424758Y-133085021D03*
X95164223Y-127638295D03*
X96185992Y-104710472D03*
X96164065Y-108620154D03*
X96099474Y-113312065D03*
X97019886Y-125589118D03*
X98027769Y-106493334D03*
X97906667Y-110221207D03*
X100087296Y-104712381D03*
X102626424Y-105516800D03*
X104758482Y-131244804D03*
X105845533Y-112379814D03*
X105905571Y-134122446D03*
X106560563Y-139232926D03*
X107743952Y-104837785D03*
X107797802Y-109325991D03*
X107407397Y-132483277D03*
X109474822Y-134149664D03*
X110586403Y-113352739D03*
X112229272Y-115189993D03*
X112616154Y-124022722D03*
X112358850Y-127675039D03*
X112286753Y-139075471D03*
X112349512Y-143587346D03*
X114087073Y-125822190D03*
X115376617Y-133147500D03*
X115382815Y-138134165D03*
X116018209Y-123913269D03*
X116295149Y-127464149D03*
X116325439Y-143662943D03*
X118063263Y-104600357D03*
X118226639Y-139194860D03*
X118950264Y-109616157D03*
X119216797Y-133424547D03*
X119885324Y-143809660D03*
X121973402Y-104942564D03*
X122983804Y-108734718D03*
X123587442Y-122055553D03*
X123658169Y-127635253D03*
X124806968Y-105530178D03*
X124821458Y-110470399D03*
X124628541Y-130288068D03*
X125803606Y-123827542D03*
X127407441Y-104713883D03*
X127785876Y-108548670D03*
X127690799Y-121723495D03*
X127768701Y-143733588D03*
X128387957Y-111450875D03*
X129603445Y-106712539D03*
X129561833Y-129730037D03*
X130359911Y-109523429D03*
X130438442Y-120830619D03*
X131609586Y-104712604D03*
X131221966Y-112282300D03*
X131307978Y-131636947D03*
X132440563Y-107731747D03*
X133244582Y-110263629D03*
X133340970Y-122074930D03*
X133131075Y-125775554D03*
X133449829Y-129496150D03*
X134441441Y-105916229D03*
X135313269Y-123910431D03*
X136975688Y-121648094D03*
X137286351Y-125592944D03*
X136963693Y-129388022D03*
X99000000Y-128200000D03*
X125100000Y-137300000D03*
X67650000Y-139450000D03*
X67650000Y-140850000D03*
X68950000Y-139450000D03*
X68950000Y-140850000D03*
X70350000Y-139450000D03*
X71650000Y-139450000D03*
X73050000Y-144950000D03*
X70350000Y-140850000D03*
X71650000Y-140950000D03*
X64550000Y-140450000D03*
D17*
X115350000Y-106650000D03*
X116600000Y-106650000D03*
X116600000Y-107925000D03*
X115375000Y-107925000D03*
X115975000Y-107300000D03*
X73750000Y-133750000D03*
X75650000Y-133450000D03*
X75800000Y-134600000D03*
X74600000Y-136050000D03*
X74500000Y-131950000D03*
X75400000Y-132450000D03*
X76750000Y-132850000D03*
X72400000Y-132000000D03*
X77325000Y-109100000D03*
X69650000Y-121050000D03*
X69650000Y-122050000D03*
X69650000Y-123050000D03*
X69650000Y-124050000D03*
X69650000Y-120050000D03*
X58050000Y-115150000D03*
X59650000Y-115250000D03*
X60050000Y-116650000D03*
X61150000Y-117850000D03*
X60050000Y-120350000D03*
X58250000Y-118550000D03*
X56150000Y-117150000D03*
X55750000Y-113150000D03*
X59950000Y-112950000D03*
X69750000Y-113950000D03*
X69950000Y-112050000D03*
X70950000Y-110150000D03*
X71050000Y-106450000D03*
X70050000Y-105150000D03*
X71750000Y-103750000D03*
X73650000Y-103950000D03*
X83675000Y-125200000D03*
X81925000Y-125200000D03*
X80075000Y-126075000D03*
X79725000Y-124550000D03*
X77675000Y-124100000D03*
X82750000Y-125200000D03*
%TO.N,/VDD*%
X113770000Y-105070000D03*
X111540000Y-108970000D03*
X131500000Y-140400000D03*
X131500000Y-141400000D03*
X132400000Y-141400000D03*
X132400000Y-140400000D03*
X133300000Y-140400000D03*
X133300000Y-141400000D03*
X134200000Y-141400000D03*
X134200000Y-140400000D03*
X134200000Y-139500000D03*
D18*
X84100000Y-135600000D03*
X84100000Y-134500000D03*
X84100000Y-133400000D03*
X84100000Y-132300000D03*
X85400000Y-132300000D03*
X86700000Y-132300000D03*
X85400000Y-133400000D03*
X86700000Y-133400000D03*
X88000000Y-132300000D03*
X88000000Y-133400000D03*
X91100000Y-132200000D03*
X91100000Y-133400000D03*
X92400000Y-132200000D03*
X92400000Y-133400000D03*
D17*
X92650000Y-134425000D03*
%TO.N,+5V*%
X64125000Y-114800000D03*
X65900000Y-114800000D03*
X65000000Y-114800000D03*
X64125000Y-119700000D03*
X65900000Y-119700000D03*
X65000000Y-119700000D03*
X62975000Y-103900000D03*
X64450000Y-105275000D03*
X66275000Y-105250000D03*
X64150000Y-104200000D03*
X65375000Y-103800000D03*
X66625000Y-104325000D03*
X68525000Y-104525000D03*
X67700000Y-103825000D03*
X60437500Y-123362500D03*
X58762500Y-128737500D03*
X66775000Y-143100000D03*
X65350000Y-144250000D03*
X67325000Y-144375000D03*
X66400000Y-144000000D03*
X72550000Y-117250000D03*
D18*
X72150000Y-137950000D03*
X73250000Y-137450000D03*
X72250000Y-136650000D03*
%TO.N,/VDDA_GPS*%
X89100000Y-108610000D03*
X89090000Y-107540000D03*
X87710000Y-106240000D03*
X89060000Y-106260000D03*
X90740000Y-106310000D03*
X89960000Y-105290000D03*
X103975000Y-111975000D03*
X83600000Y-122300000D03*
X82500000Y-121800000D03*
X82700000Y-120700000D03*
X83700000Y-121200000D03*
%TO.N,Net-(C23-Pad2)*%
X120000000Y-84600000D03*
X127840000Y-85440000D03*
%TO.N,GNDA*%
X138010000Y-81080000D03*
X137990000Y-82600000D03*
X119980000Y-63530000D03*
X120010000Y-61700000D03*
X139940000Y-86740000D03*
X136635000Y-77135000D03*
X131905000Y-77135000D03*
X138010000Y-90810000D03*
X140250000Y-91720000D03*
X138090000Y-92140000D03*
X143110000Y-88870000D03*
X143970000Y-86670000D03*
X144000000Y-90910000D03*
X143990000Y-82400000D03*
X143960000Y-73300000D03*
X143980000Y-71700000D03*
X117810000Y-80870000D03*
X130400000Y-88960000D03*
X136600000Y-85700000D03*
X114150000Y-58500000D03*
X111200000Y-62050000D03*
X108830000Y-62670000D03*
X115500000Y-62670000D03*
X125000000Y-62150000D03*
X125100000Y-63450000D03*
X126200000Y-62650000D03*
X107454234Y-65924600D03*
X107716218Y-69677773D03*
X107778277Y-81918922D03*
X108700676Y-72394049D03*
X109530855Y-67438321D03*
X110262445Y-70508662D03*
X111387963Y-65621753D03*
X112594907Y-68690164D03*
X112388964Y-81969118D03*
X113289024Y-71198672D03*
X113456013Y-87797900D03*
X114163082Y-66877665D03*
X115625000Y-68800000D03*
X115138626Y-89362367D03*
X116994926Y-65467756D03*
X117959571Y-61142247D03*
X118184567Y-68746713D03*
X119788229Y-66498318D03*
X121134456Y-93387476D03*
X121079975Y-98857160D03*
X123771429Y-99920489D03*
X124696943Y-79807601D03*
X125579983Y-68551868D03*
X128444871Y-79990789D03*
X130346873Y-69709665D03*
X132169500Y-74438189D03*
X132326402Y-99837511D03*
X133453553Y-78951875D03*
X136135839Y-69518369D03*
X136405454Y-94088404D03*
X136427650Y-98177888D03*
X138031835Y-65545350D03*
X141107822Y-66825943D03*
X141096414Y-84858493D03*
X142076634Y-76246736D03*
X142057286Y-79834968D03*
X121100000Y-95900000D03*
X120300000Y-91100000D03*
X117600000Y-89600000D03*
X127840000Y-61720000D03*
X127860000Y-63460000D03*
X108775000Y-78025000D03*
X120025000Y-74000000D03*
X120875000Y-78075000D03*
X116500000Y-76400000D03*
X119500000Y-82800000D03*
X121475000Y-85600000D03*
X138400000Y-76850000D03*
X144000000Y-70300000D03*
X143850000Y-67125000D03*
X138975000Y-66850000D03*
X108900000Y-79625000D03*
X108200000Y-77025000D03*
X106625000Y-75900000D03*
X109400000Y-81200000D03*
X106750000Y-86075000D03*
X108100000Y-86700000D03*
X109250000Y-89425000D03*
X112225000Y-87225000D03*
X112850000Y-85050000D03*
X111200000Y-89500000D03*
X108075000Y-88425000D03*
X113050000Y-83500000D03*
X117575000Y-77400000D03*
X117600000Y-74900000D03*
X113075000Y-74850000D03*
X111675000Y-76350000D03*
X119925000Y-76625000D03*
X119900000Y-79475000D03*
X126325000Y-80550000D03*
X131275000Y-80750000D03*
X129450000Y-80950000D03*
X131925000Y-78425000D03*
X128175000Y-78525000D03*
%TO.N,/VDDA*%
X93880000Y-78980000D03*
X108550000Y-75460000D03*
X137995000Y-88905000D03*
X140200000Y-69300000D03*
%TO.N,VBAT_B*%
X124000000Y-58550000D03*
X125000000Y-58550000D03*
X125900000Y-58900000D03*
X125950000Y-59850000D03*
%TO.N,Net-(C34-Pad1)*%
X136635000Y-75865000D03*
X131875000Y-75865000D03*
D17*
%TO.N,/CCS811_WAKE_T*%
X121290000Y-138370000D03*
X121770000Y-118940000D03*
%TO.N,/I2C_SCL_T*%
X124300000Y-119020000D03*
X122700000Y-137660000D03*
%TO.N,/I2C_SDA_T*%
X122050000Y-138130000D03*
X123070000Y-119030000D03*
D18*
%TO.N,/CCS811_WAKE*%
X136620000Y-84580000D03*
%TO.N,/MIC_OUT*%
X123690000Y-66980000D03*
X123250000Y-83860000D03*
%TO.N,/I2C_SCL*%
X136540000Y-79690000D03*
X134850000Y-79690000D03*
X134850000Y-72080000D03*
%TO.N,/I2C_SDA*%
X135800000Y-91910000D03*
X135800000Y-88810000D03*
X135800000Y-73310000D03*
%TO.N,/RAD_V_B*%
X124940000Y-64730000D03*
X113425000Y-78650000D03*
%TO.N,/UV_OUT_B*%
X124620000Y-66270000D03*
X126860000Y-75030000D03*
D17*
%TO.N,/#EN*%
X110960000Y-130890000D03*
X134470000Y-134860000D03*
X135725000Y-145325000D03*
%TO.N,/RTS*%
X69905000Y-107795000D03*
X78000000Y-109925000D03*
%TO.N,/IO0*%
X101690000Y-123420000D03*
X116100000Y-118190000D03*
%TO.N,/DTR*%
X69890000Y-109065000D03*
X76450000Y-110175000D03*
%TO.N,Net-(R1-Pad1)*%
X68765000Y-136235000D03*
X58600000Y-124250000D03*
%TO.N,Net-(R4-Pad1)*%
X70035000Y-136260000D03*
X59775000Y-128725000D03*
%TO.N,/KEY4*%
X134460000Y-118460000D03*
D18*
X117300000Y-115700000D03*
D17*
%TO.N,/KEY3*%
X130660000Y-118640000D03*
D18*
X117300000Y-114100000D03*
X129300000Y-114500000D03*
D17*
%TO.N,/KEY2*%
X127075000Y-119950000D03*
D18*
X117300000Y-112800000D03*
X128077401Y-113777401D03*
D17*
%TO.N,/KEY1*%
X126225000Y-119050000D03*
D18*
X117300000Y-110900000D03*
X126800000Y-113100000D03*
D17*
%TO.N,/U0_RX*%
X116400000Y-121050000D03*
X131400000Y-117900000D03*
%TO.N,/SPI2_MOSI*%
X97750000Y-129210000D03*
X117190000Y-129220000D03*
%TO.N,/SPI2_SCLK*%
X119362481Y-135010909D03*
D18*
X103000000Y-127200000D03*
D17*
X98250000Y-135100000D03*
%TO.N,/GPS_PPS*%
X94495000Y-113175000D03*
X94495000Y-107875000D03*
%TO.N,/GPS_TXD*%
X116110000Y-119770000D03*
X128130000Y-130630000D03*
%TO.N,/GPS_RXD*%
X115330000Y-120460000D03*
X126840000Y-130650000D03*
D18*
%TO.N,Net-(R45-Pad1)*%
X126900000Y-77540000D03*
X128420000Y-74020000D03*
D17*
%TO.N,/U0_TX*%
X116422590Y-122347590D03*
X132075000Y-119375000D03*
%TO.N,/GYRO_INT*%
X113080000Y-106030000D03*
X125570000Y-112060000D03*
%TO.N,/SPI2_CS0*%
X98870000Y-130030000D03*
X117930002Y-121050000D03*
%TO.N,/SPI2_RST*%
X119370000Y-135860000D03*
X96550000Y-135550000D03*
%TO.N,/SPI2_DC*%
X120330000Y-137290000D03*
X99350000Y-136450000D03*
%TD*%
D19*
%TO.N,GND*%
X70750000Y-114750000D02*
X68250000Y-117250000D01*
X73750000Y-114750000D02*
X70750000Y-114750000D01*
X73750000Y-133750000D02*
X73750000Y-133750000D01*
X131750000Y-133750000D02*
X135850000Y-133750000D01*
X135850000Y-133750000D02*
X137200000Y-135100000D01*
X137200000Y-135100000D02*
X137200000Y-135100000D01*
X131750000Y-114750000D02*
X132950000Y-114750000D01*
X132950000Y-114750000D02*
X136600000Y-118400000D01*
X136600000Y-118400000D02*
X136600000Y-118400000D01*
D20*
%TO.N,/VDD*%
X111540000Y-108970000D02*
X111540000Y-108970000D01*
X111540000Y-106310000D02*
X111540000Y-108970000D01*
X112780000Y-105070000D02*
X111540000Y-106310000D01*
X113770000Y-105070000D02*
X112780000Y-105070000D01*
D21*
%TO.N,Net-(C23-Pad2)*%
X120000000Y-84600000D02*
X127000000Y-84600000D01*
X127000000Y-84600000D02*
X127840000Y-85440000D01*
X127840000Y-85440000D02*
X127840000Y-85440000D01*
%TO.N,GNDA*%
X136635000Y-77135000D02*
X131905000Y-77135000D01*
X131905000Y-77135000D02*
X131905000Y-77135000D01*
%TO.N,/VDDA*%
X93880000Y-78980000D02*
X105030000Y-78980000D01*
X105030000Y-78980000D02*
X108550000Y-75460000D01*
X108550000Y-75460000D02*
X108550000Y-75460000D01*
%TO.N,Net-(C34-Pad1)*%
X136635000Y-75865000D02*
X131875000Y-75865000D01*
X131875000Y-75865000D02*
X131875000Y-75865000D01*
%TO.N,/CCS811_WAKE*%
X136620000Y-84580000D02*
X136620000Y-84580000D01*
X127830000Y-75790000D02*
X136620000Y-84580000D01*
X126617446Y-75790000D02*
X127830000Y-75790000D01*
X121700000Y-70872554D02*
X126617446Y-75790000D01*
X121700000Y-60900000D02*
X121700000Y-70872554D01*
%TO.N,/MIC_OUT*%
X123200000Y-60900000D02*
X123200000Y-66490000D01*
X123200000Y-66490000D02*
X123690000Y-66980000D01*
X123690000Y-66980000D02*
X123690000Y-66980000D01*
%TO.N,/I2C_SCL*%
X136540000Y-79690000D02*
X134850000Y-79690000D01*
X134850000Y-79690000D02*
X134850000Y-79690000D01*
X127700000Y-72080000D02*
X134850000Y-72080000D01*
X127700000Y-72080000D02*
X127209914Y-72055923D01*
X127209914Y-72055923D02*
X126724548Y-71983926D01*
X126724548Y-71983926D02*
X126248576Y-71864701D01*
X126248576Y-71864701D02*
X125786582Y-71699397D01*
X125786582Y-71699397D02*
X125343016Y-71489606D01*
X125343016Y-71489606D02*
X124922148Y-71237348D01*
X124922148Y-71237348D02*
X124528033Y-70945052D01*
X124528033Y-70945052D02*
X124164466Y-70615533D01*
X124164466Y-70615533D02*
X123834947Y-70251966D01*
X123834947Y-70251966D02*
X123542651Y-69857851D01*
X123542651Y-69857851D02*
X123290393Y-69436983D01*
X123290393Y-69436983D02*
X123080602Y-68993417D01*
X123080602Y-68993417D02*
X122915298Y-68531423D01*
X122915298Y-68531423D02*
X122796073Y-68055451D01*
X122796073Y-68055451D02*
X122724076Y-67570085D01*
X122724076Y-67570085D02*
X122700000Y-67080000D01*
X122700000Y-67080000D02*
X122700000Y-60910000D01*
%TO.N,/I2C_SDA*%
X135800000Y-73310000D02*
X133980000Y-73310000D01*
X133980000Y-73310000D02*
X133980000Y-73310000D01*
X122200000Y-68310000D02*
X122200000Y-60840000D01*
X122200000Y-68310000D02*
X122224076Y-68800085D01*
X122224076Y-68800085D02*
X122296073Y-69285451D01*
X122296073Y-69285451D02*
X122415298Y-69761423D01*
X122415298Y-69761423D02*
X122580602Y-70223417D01*
X122580602Y-70223417D02*
X122790393Y-70666983D01*
X122790393Y-70666983D02*
X123042651Y-71087851D01*
X123042651Y-71087851D02*
X123334947Y-71481966D01*
X123334947Y-71481966D02*
X123664466Y-71845533D01*
X123664466Y-71845533D02*
X124028033Y-72175052D01*
X124028033Y-72175052D02*
X124422148Y-72467348D01*
X124422148Y-72467348D02*
X124843016Y-72719606D01*
X124843016Y-72719606D02*
X125286582Y-72929397D01*
X125286582Y-72929397D02*
X125748576Y-73094701D01*
X125748576Y-73094701D02*
X126224548Y-73213926D01*
X126224548Y-73213926D02*
X126709914Y-73285923D01*
X126709914Y-73285923D02*
X127200000Y-73310000D01*
X127200000Y-73310000D02*
X133980000Y-73310000D01*
%TO.N,/RAD_V_B*%
X124200000Y-60900000D02*
X124200000Y-63990000D01*
X124200000Y-63990000D02*
X124940000Y-64730000D01*
X124940000Y-64730000D02*
X124940000Y-64730000D01*
%TO.N,/UV_OUT_B*%
X123700000Y-60900000D02*
X123700000Y-65350000D01*
X123700000Y-65350000D02*
X124620000Y-66270000D01*
X124620000Y-66270000D02*
X124620000Y-66270000D01*
%TO.N,/#EN*%
X134470000Y-134860000D02*
X134470000Y-134860000D01*
X132750000Y-136580000D02*
X134470000Y-134860000D01*
X116610000Y-136580000D02*
X132750000Y-136580000D01*
X110960000Y-130930000D02*
X116610000Y-136580000D01*
X110960000Y-130890000D02*
X110960000Y-130930000D01*
X134470000Y-134860000D02*
X136275000Y-136665000D01*
X136275000Y-136665000D02*
X136275000Y-144750000D01*
X136275000Y-144750000D02*
X136275000Y-144775000D01*
X136275000Y-144775000D02*
X135725000Y-145325000D01*
X135725000Y-145325000D02*
X135725000Y-145325000D01*
%TO.N,/RTS*%
X78000000Y-109925000D02*
X78000000Y-109925000D01*
X77225000Y-109925000D02*
X78000000Y-109925000D01*
X75095000Y-107795000D02*
X77225000Y-109925000D01*
X69905000Y-107795000D02*
X75095000Y-107795000D01*
%TO.N,/IO0*%
X101690000Y-123420000D02*
X110870000Y-123420000D01*
X110870000Y-123420000D02*
X116100000Y-118190000D01*
X116100000Y-118190000D02*
X116100000Y-118190000D01*
%TO.N,/DTR*%
X69890000Y-109065000D02*
X75340000Y-109065000D01*
X75340000Y-109065000D02*
X76450000Y-110175000D01*
X76450000Y-110175000D02*
X76450000Y-110175000D01*
D22*
%TO.N,Net-(R1-Pad1)*%
X57575000Y-125275000D02*
X58600000Y-124250000D01*
X58600000Y-124250000D02*
X58600000Y-124250000D01*
X57575000Y-130100000D02*
X57575000Y-125275000D01*
X63710000Y-136235000D02*
X57575000Y-130100000D01*
X68765000Y-136235000D02*
X63710000Y-136235000D01*
%TO.N,Net-(R4-Pad1)*%
X70035000Y-136260000D02*
X69200000Y-135425000D01*
X69200000Y-135425000D02*
X64050000Y-135425000D01*
X64050000Y-135425000D02*
X59775000Y-131150000D01*
X59775000Y-131150000D02*
X59775000Y-129025000D01*
X59775000Y-128725000D02*
X59775000Y-128725000D01*
D21*
%TO.N,/KEY4*%
X126950000Y-133750000D02*
X134460000Y-126240000D01*
X125750000Y-133750000D02*
X126950000Y-133750000D01*
X134460000Y-126240000D02*
X134460000Y-118460000D01*
X134460000Y-118460000D02*
X134460000Y-118460000D01*
%TO.N,/KEY3*%
X125750000Y-114750000D02*
X129640000Y-118640000D01*
X129640000Y-118640000D02*
X130660000Y-118640000D01*
X130660000Y-118640000D02*
X130660000Y-118640000D01*
%TO.N,/KEY2*%
X127075000Y-119950000D02*
X127075000Y-119950000D01*
X126268226Y-119950000D02*
X127075000Y-119950000D01*
X123818226Y-117500000D02*
X126268226Y-119950000D01*
X81150000Y-117500000D02*
X123818226Y-117500000D01*
X67750000Y-130900000D02*
X81150000Y-117500000D01*
X67750000Y-133750000D02*
X67750000Y-130900000D01*
%TO.N,/KEY1*%
X126225000Y-119050000D02*
X126225000Y-119050000D01*
X124100000Y-116925000D02*
X126225000Y-119050000D01*
X96175000Y-116925000D02*
X124100000Y-116925000D01*
X92175000Y-112925000D02*
X96175000Y-116925000D01*
X69575000Y-112925000D02*
X92175000Y-112925000D01*
X67750000Y-114750000D02*
X69575000Y-112925000D01*
%TO.N,/SPI2_MOSI*%
X97750000Y-129210000D02*
X117190000Y-129220000D01*
X117190000Y-129220000D02*
X117180000Y-129210000D01*
%TO.N,/GPS_PPS*%
X94495000Y-113175000D02*
X94495000Y-107875000D01*
X94495000Y-107875000D02*
X94495000Y-107875000D01*
%TO.N,/GPS_TXD*%
X128130000Y-130630000D02*
X128130000Y-130630000D01*
X118570000Y-119770000D02*
X128130000Y-129330000D01*
X128130000Y-129330000D02*
X128130000Y-130630000D01*
X116110000Y-119770000D02*
X118570000Y-119770000D01*
%TO.N,/GPS_RXD*%
X126840000Y-130650000D02*
X126840000Y-130650000D01*
X126840000Y-128840000D02*
X126840000Y-130650000D01*
X118460000Y-120460000D02*
X126840000Y-128840000D01*
X115330000Y-120460000D02*
X118460000Y-120460000D01*
D20*
%TO.N,/GYRO_INT*%
X113080000Y-106030000D02*
X113080000Y-108140000D01*
X113080000Y-108140000D02*
X117000000Y-112060000D01*
X117000000Y-112060000D02*
X125570000Y-112060000D01*
X125570000Y-112060000D02*
X125570000Y-112060000D01*
D21*
%TO.N,/SPI2_CS0*%
X117930002Y-129230000D02*
X117930002Y-121050000D01*
X117930002Y-129230000D02*
X117926149Y-129308413D01*
X117926149Y-129308413D02*
X117914630Y-129386072D01*
X117914630Y-129386072D02*
X117895554Y-129462227D01*
X117895554Y-129462227D02*
X117869105Y-129536146D01*
X117869105Y-129536146D02*
X117835539Y-129607117D01*
X117835539Y-129607117D02*
X117795177Y-129674456D01*
X117795177Y-129674456D02*
X117748410Y-129737514D01*
X117748410Y-129737514D02*
X117695687Y-129795685D01*
X117695687Y-129795685D02*
X117637516Y-129848408D01*
X117637516Y-129848408D02*
X117574458Y-129895175D01*
X117574458Y-129895175D02*
X117507119Y-129935537D01*
X117507119Y-129935537D02*
X117436148Y-129969103D01*
X117436148Y-129969103D02*
X117362229Y-129995552D01*
X117362229Y-129995552D02*
X117286074Y-130014628D01*
X117286074Y-130014628D02*
X117208415Y-130026147D01*
X117208415Y-130026147D02*
X117130002Y-130030000D01*
X117130002Y-130030000D02*
X98870000Y-130030000D01*
%TO.N,/SPI2_DC*%
X100190000Y-137290000D02*
X120330000Y-137290000D01*
X99350000Y-136450000D02*
X100190000Y-137290000D01*
%TD*%
D23*
%TO.N,VBAT_B*%
X126250000Y-61350000D02*
X125651451Y-61350000D01*
X125651451Y-60350000D01*
X125650000Y-60335267D01*
X125650000Y-59250000D01*
X125648079Y-59230491D01*
X125642388Y-59211732D01*
X125633147Y-59194443D01*
X125620711Y-59179289D01*
X125605557Y-59166853D01*
X125588268Y-59157612D01*
X125569509Y-59151921D01*
X125550000Y-59150000D01*
X123600000Y-59150000D01*
X123600000Y-57950000D01*
X126250000Y-57950000D01*
X126250000Y-61350000D01*
%TA.AperFunction,Conductor*%
D24*
G36*
X126250000Y-61350000D02*
G01*
X125651451Y-61350000D01*
X125651451Y-60350000D01*
X125650000Y-60335267D01*
X125650000Y-59250000D01*
X125648079Y-59230491D01*
X125642388Y-59211732D01*
X125633147Y-59194443D01*
X125620711Y-59179289D01*
X125605557Y-59166853D01*
X125588268Y-59157612D01*
X125569509Y-59151921D01*
X125550000Y-59150000D01*
X123600000Y-59150000D01*
X123600000Y-57950000D01*
X126250000Y-57950000D01*
X126250000Y-61350000D01*
G37*
%TD.AperFunction*%
%TD*%
D23*
%TO.N,GNDA*%
X125248549Y-61450000D02*
X125250000Y-61464733D01*
X125250000Y-61850000D01*
X125251921Y-61869509D01*
X125257612Y-61888268D01*
X125266853Y-61905557D01*
X125279289Y-61920711D01*
X125294443Y-61933147D01*
X125311732Y-61942388D01*
X125330491Y-61948079D01*
X125350000Y-61950000D01*
X126700000Y-61950000D01*
X126719509Y-61948079D01*
X126738268Y-61942388D01*
X126755557Y-61933147D01*
X126770711Y-61920711D01*
X126783147Y-61905557D01*
X126792388Y-61888268D01*
X126798079Y-61869509D01*
X126800000Y-61850000D01*
X126800000Y-61150000D01*
X128950000Y-61150000D01*
X128950000Y-64050000D01*
X125109489Y-64050000D01*
X125008944Y-64030000D01*
X124939424Y-64030000D01*
X124913197Y-64029272D01*
X124895295Y-64027369D01*
X124878970Y-64024279D01*
X124863764Y-64020067D01*
X124849147Y-64014658D01*
X124834631Y-64007853D01*
X124819799Y-63999344D01*
X124804364Y-63988762D01*
X124788152Y-63975713D01*
X124767357Y-63956316D01*
X124650000Y-63838960D01*
X124650000Y-61464733D01*
X124651451Y-61450000D01*
X124651451Y-60450000D01*
X125248549Y-60450000D01*
X125248549Y-61450000D01*
%TA.AperFunction,Conductor*%
D24*
G36*
X125248549Y-61450000D02*
G01*
X125250000Y-61464733D01*
X125250000Y-61850000D01*
X125251921Y-61869509D01*
X125257612Y-61888268D01*
X125266853Y-61905557D01*
X125279289Y-61920711D01*
X125294443Y-61933147D01*
X125311732Y-61942388D01*
X125330491Y-61948079D01*
X125350000Y-61950000D01*
X126700000Y-61950000D01*
X126719509Y-61948079D01*
X126738268Y-61942388D01*
X126755557Y-61933147D01*
X126770711Y-61920711D01*
X126783147Y-61905557D01*
X126792388Y-61888268D01*
X126798079Y-61869509D01*
X126800000Y-61850000D01*
X126800000Y-61150000D01*
X128950000Y-61150000D01*
X128950000Y-64050000D01*
X125109489Y-64050000D01*
X125008944Y-64030000D01*
X124939424Y-64030000D01*
X124913197Y-64029272D01*
X124895295Y-64027369D01*
X124878970Y-64024279D01*
X124863764Y-64020067D01*
X124849147Y-64014658D01*
X124834631Y-64007853D01*
X124819799Y-63999344D01*
X124804364Y-63988762D01*
X124788152Y-63975713D01*
X124767357Y-63956316D01*
X124650000Y-63838960D01*
X124650000Y-61464733D01*
X124651451Y-61450000D01*
X124651451Y-60450000D01*
X125248549Y-60450000D01*
X125248549Y-61450000D01*
G37*
%TD.AperFunction*%
%TD*%
D25*
%TO.N,GND*%
X74124574Y-114750000D02*
X73180540Y-115294272D01*
X73135181Y-115251373D01*
X73134431Y-115250718D01*
X73079679Y-115206518D01*
X73078850Y-115205903D01*
X73021575Y-115166903D01*
X73020676Y-115166344D01*
X72960880Y-115132544D01*
X72959928Y-115132058D01*
X72897611Y-115103458D01*
X72896625Y-115103054D01*
X72831785Y-115079654D01*
X72830787Y-115079340D01*
X72763426Y-115061140D01*
X72762436Y-115060914D01*
X72692553Y-115047914D01*
X72691590Y-115047773D01*
X72619186Y-115039973D01*
X72618266Y-115039908D01*
X72555600Y-115037733D01*
X72555600Y-114462267D01*
X72618266Y-114460092D01*
X72619186Y-114460027D01*
X72691590Y-114452227D01*
X72692553Y-114452086D01*
X72762436Y-114439086D01*
X72763426Y-114438860D01*
X72830787Y-114420660D01*
X72831785Y-114420346D01*
X72896625Y-114396946D01*
X72897611Y-114396542D01*
X72959928Y-114367942D01*
X72960880Y-114367456D01*
X73020676Y-114333656D01*
X73021575Y-114333097D01*
X73078850Y-114294097D01*
X73079679Y-114293482D01*
X73134431Y-114249282D01*
X73135181Y-114248627D01*
X73180540Y-114205728D01*
X74124574Y-114750000D01*
%TA.AperFunction,Conductor*%
D24*
G36*
X74124574Y-114750000D02*
G01*
X73180540Y-115294272D01*
X73135181Y-115251373D01*
X73134431Y-115250718D01*
X73079679Y-115206518D01*
X73078850Y-115205903D01*
X73021575Y-115166903D01*
X73020676Y-115166344D01*
X72960880Y-115132544D01*
X72959928Y-115132058D01*
X72897611Y-115103458D01*
X72896625Y-115103054D01*
X72831785Y-115079654D01*
X72830787Y-115079340D01*
X72763426Y-115061140D01*
X72762436Y-115060914D01*
X72692553Y-115047914D01*
X72691590Y-115047773D01*
X72619186Y-115039973D01*
X72618266Y-115039908D01*
X72555600Y-115037733D01*
X72555600Y-114462267D01*
X72618266Y-114460092D01*
X72619186Y-114460027D01*
X72691590Y-114452227D01*
X72692553Y-114452086D01*
X72762436Y-114439086D01*
X72763426Y-114438860D01*
X72830787Y-114420660D01*
X72831785Y-114420346D01*
X72896625Y-114396946D01*
X72897611Y-114396542D01*
X72959928Y-114367942D01*
X72960880Y-114367456D01*
X73020676Y-114333656D01*
X73021575Y-114333097D01*
X73078850Y-114294097D01*
X73079679Y-114293482D01*
X73134431Y-114249282D01*
X73135181Y-114248627D01*
X73180540Y-114205728D01*
X74124574Y-114750000D01*
G37*
%TD.AperFunction*%
%TD*%
D25*
%TO.N,GND*%
X74294272Y-134319460D02*
X74251373Y-134364818D01*
X74250718Y-134365568D01*
X74206518Y-134420320D01*
X74205903Y-134421149D01*
X74166903Y-134478424D01*
X74166344Y-134479323D01*
X74132544Y-134539119D01*
X74132058Y-134540071D01*
X74103458Y-134602389D01*
X74103054Y-134603375D01*
X74079654Y-134668214D01*
X74079340Y-134669212D01*
X74061140Y-134736573D01*
X74060914Y-134737563D01*
X74047914Y-134807446D01*
X74047773Y-134808409D01*
X74039973Y-134880813D01*
X74039908Y-134881733D01*
X74037733Y-134944400D01*
X73462267Y-134944400D01*
X73460092Y-134881733D01*
X73460027Y-134880813D01*
X73452227Y-134808409D01*
X73452086Y-134807446D01*
X73439086Y-134737563D01*
X73438860Y-134736573D01*
X73420660Y-134669212D01*
X73420346Y-134668214D01*
X73396946Y-134603375D01*
X73396542Y-134602389D01*
X73367942Y-134540071D01*
X73367456Y-134539119D01*
X73333656Y-134479323D01*
X73333097Y-134478424D01*
X73294097Y-134421149D01*
X73293482Y-134420320D01*
X73249282Y-134365568D01*
X73248627Y-134364818D01*
X73205728Y-134319460D01*
X73750000Y-133375426D01*
X74294272Y-134319460D01*
%TA.AperFunction,Conductor*%
D24*
G36*
X74294272Y-134319460D02*
G01*
X74251373Y-134364818D01*
X74250718Y-134365568D01*
X74206518Y-134420320D01*
X74205903Y-134421149D01*
X74166903Y-134478424D01*
X74166344Y-134479323D01*
X74132544Y-134539119D01*
X74132058Y-134540071D01*
X74103458Y-134602389D01*
X74103054Y-134603375D01*
X74079654Y-134668214D01*
X74079340Y-134669212D01*
X74061140Y-134736573D01*
X74060914Y-134737563D01*
X74047914Y-134807446D01*
X74047773Y-134808409D01*
X74039973Y-134880813D01*
X74039908Y-134881733D01*
X74037733Y-134944400D01*
X73462267Y-134944400D01*
X73460092Y-134881733D01*
X73460027Y-134880813D01*
X73452227Y-134808409D01*
X73452086Y-134807446D01*
X73439086Y-134737563D01*
X73438860Y-134736573D01*
X73420660Y-134669212D01*
X73420346Y-134668214D01*
X73396946Y-134603375D01*
X73396542Y-134602389D01*
X73367942Y-134540071D01*
X73367456Y-134539119D01*
X73333656Y-134479323D01*
X73333097Y-134478424D01*
X73294097Y-134421149D01*
X73293482Y-134420320D01*
X73249282Y-134365568D01*
X73248627Y-134364818D01*
X73205728Y-134319460D01*
X73750000Y-133375426D01*
X74294272Y-134319460D01*
G37*
%TD.AperFunction*%
%TD*%
D25*
%TO.N,GND*%
X132364818Y-133248627D02*
X132365568Y-133249282D01*
X132420320Y-133293482D01*
X132421149Y-133294097D01*
X132478424Y-133333097D01*
X132479323Y-133333656D01*
X132539119Y-133367456D01*
X132540071Y-133367942D01*
X132602389Y-133396542D01*
X132603375Y-133396946D01*
X132668214Y-133420346D01*
X132669212Y-133420660D01*
X132736573Y-133438860D01*
X132737563Y-133439086D01*
X132807446Y-133452086D01*
X132808409Y-133452227D01*
X132880813Y-133460027D01*
X132881733Y-133460092D01*
X132944400Y-133462267D01*
X132944400Y-134037733D01*
X132881733Y-134039908D01*
X132880813Y-134039973D01*
X132808409Y-134047773D01*
X132807446Y-134047914D01*
X132737563Y-134060914D01*
X132736573Y-134061140D01*
X132669212Y-134079340D01*
X132668214Y-134079654D01*
X132603375Y-134103054D01*
X132602389Y-134103458D01*
X132540071Y-134132058D01*
X132539119Y-134132544D01*
X132479323Y-134166344D01*
X132478424Y-134166903D01*
X132421149Y-134205903D01*
X132420320Y-134206518D01*
X132365568Y-134250718D01*
X132364818Y-134251373D01*
X132319460Y-134294272D01*
X131375426Y-133750000D01*
X132319460Y-133205728D01*
X132364818Y-133248627D01*
%TA.AperFunction,Conductor*%
D24*
G36*
X132364818Y-133248627D02*
G01*
X132365568Y-133249282D01*
X132420320Y-133293482D01*
X132421149Y-133294097D01*
X132478424Y-133333097D01*
X132479323Y-133333656D01*
X132539119Y-133367456D01*
X132540071Y-133367942D01*
X132602389Y-133396542D01*
X132603375Y-133396946D01*
X132668214Y-133420346D01*
X132669212Y-133420660D01*
X132736573Y-133438860D01*
X132737563Y-133439086D01*
X132807446Y-133452086D01*
X132808409Y-133452227D01*
X132880813Y-133460027D01*
X132881733Y-133460092D01*
X132944400Y-133462267D01*
X132944400Y-134037733D01*
X132881733Y-134039908D01*
X132880813Y-134039973D01*
X132808409Y-134047773D01*
X132807446Y-134047914D01*
X132737563Y-134060914D01*
X132736573Y-134061140D01*
X132669212Y-134079340D01*
X132668214Y-134079654D01*
X132603375Y-134103054D01*
X132602389Y-134103458D01*
X132540071Y-134132058D01*
X132539119Y-134132544D01*
X132479323Y-134166344D01*
X132478424Y-134166903D01*
X132421149Y-134205903D01*
X132420320Y-134206518D01*
X132365568Y-134250718D01*
X132364818Y-134251373D01*
X132319460Y-134294272D01*
X131375426Y-133750000D01*
X132319460Y-133205728D01*
X132364818Y-133248627D01*
G37*
%TD.AperFunction*%
%TD*%
D25*
%TO.N,GND*%
X132364741Y-114248621D02*
X132365478Y-114249267D01*
X132420017Y-114293467D01*
X132420835Y-114294077D01*
X132477755Y-114333077D01*
X132478644Y-114333634D01*
X132537943Y-114367434D01*
X132538890Y-114367922D01*
X132600569Y-114396522D01*
X132601553Y-114396929D01*
X132665611Y-114420329D01*
X132666614Y-114420649D01*
X132733052Y-114438849D01*
X132734050Y-114439079D01*
X132802868Y-114452079D01*
X132803842Y-114452224D01*
X132875039Y-114460024D01*
X132875974Y-114460092D01*
X132937300Y-114462259D01*
X132937300Y-115037741D01*
X132875974Y-115039908D01*
X132875039Y-115039976D01*
X132803842Y-115047776D01*
X132802868Y-115047921D01*
X132734050Y-115060921D01*
X132733052Y-115061151D01*
X132666614Y-115079351D01*
X132665611Y-115079671D01*
X132601553Y-115103071D01*
X132600569Y-115103478D01*
X132538890Y-115132078D01*
X132537943Y-115132566D01*
X132478644Y-115166366D01*
X132477755Y-115166923D01*
X132420835Y-115205923D01*
X132420017Y-115206533D01*
X132365478Y-115250733D01*
X132364741Y-115251379D01*
X132319455Y-115294269D01*
X131375426Y-114750000D01*
X132319455Y-114205731D01*
X132364741Y-114248621D01*
%TA.AperFunction,Conductor*%
D24*
G36*
X132364741Y-114248621D02*
G01*
X132365478Y-114249267D01*
X132420017Y-114293467D01*
X132420835Y-114294077D01*
X132477755Y-114333077D01*
X132478644Y-114333634D01*
X132537943Y-114367434D01*
X132538890Y-114367922D01*
X132600569Y-114396522D01*
X132601553Y-114396929D01*
X132665611Y-114420329D01*
X132666614Y-114420649D01*
X132733052Y-114438849D01*
X132734050Y-114439079D01*
X132802868Y-114452079D01*
X132803842Y-114452224D01*
X132875039Y-114460024D01*
X132875974Y-114460092D01*
X132937300Y-114462259D01*
X132937300Y-115037741D01*
X132875974Y-115039908D01*
X132875039Y-115039976D01*
X132803842Y-115047776D01*
X132802868Y-115047921D01*
X132734050Y-115060921D01*
X132733052Y-115061151D01*
X132666614Y-115079351D01*
X132665611Y-115079671D01*
X132601553Y-115103071D01*
X132600569Y-115103478D01*
X132538890Y-115132078D01*
X132537943Y-115132566D01*
X132478644Y-115166366D01*
X132477755Y-115166923D01*
X132420835Y-115205923D01*
X132420017Y-115206533D01*
X132365478Y-115250733D01*
X132364741Y-115251379D01*
X132319455Y-115294269D01*
X131375426Y-114750000D01*
X132319455Y-114205731D01*
X132364741Y-114248621D01*
G37*
%TD.AperFunction*%
%TD*%
D25*
%TO.N,/VDD*%
X111677915Y-108601179D02*
X111677955Y-108601910D01*
X111679787Y-108623560D01*
X111679880Y-108624358D01*
X111682932Y-108644870D01*
X111683092Y-108645737D01*
X111687366Y-108665109D01*
X111687608Y-108666037D01*
X111693102Y-108684270D01*
X111693442Y-108685250D01*
X111700158Y-108702344D01*
X111700607Y-108703356D01*
X111708543Y-108719311D01*
X111709111Y-108720332D01*
X111718269Y-108735148D01*
X111718955Y-108736148D01*
X111729333Y-108749825D01*
X111730128Y-108750773D01*
X111735376Y-108756446D01*
X111540000Y-109095324D01*
X111344623Y-108756445D01*
X111349872Y-108750772D01*
X111350666Y-108749825D01*
X111361045Y-108736148D01*
X111361731Y-108735148D01*
X111370888Y-108720332D01*
X111371456Y-108719312D01*
X111379393Y-108703357D01*
X111379843Y-108702343D01*
X111386558Y-108685249D01*
X111386897Y-108684271D01*
X111392392Y-108666038D01*
X111392634Y-108665109D01*
X111396907Y-108645737D01*
X111397067Y-108644871D01*
X111400120Y-108624359D01*
X111400213Y-108623559D01*
X111402044Y-108601909D01*
X111402084Y-108601179D01*
X111402364Y-108590750D01*
X111677636Y-108590750D01*
X111677915Y-108601179D01*
%TA.AperFunction,Conductor*%
D24*
G36*
X111677915Y-108601179D02*
G01*
X111677955Y-108601910D01*
X111679787Y-108623560D01*
X111679880Y-108624358D01*
X111682932Y-108644870D01*
X111683092Y-108645737D01*
X111687366Y-108665109D01*
X111687608Y-108666037D01*
X111693102Y-108684270D01*
X111693442Y-108685250D01*
X111700158Y-108702344D01*
X111700607Y-108703356D01*
X111708543Y-108719311D01*
X111709111Y-108720332D01*
X111718269Y-108735148D01*
X111718955Y-108736148D01*
X111729333Y-108749825D01*
X111730128Y-108750773D01*
X111735376Y-108756446D01*
X111540000Y-109095324D01*
X111344623Y-108756445D01*
X111349872Y-108750772D01*
X111350666Y-108749825D01*
X111361045Y-108736148D01*
X111361731Y-108735148D01*
X111370888Y-108720332D01*
X111371456Y-108719312D01*
X111379393Y-108703357D01*
X111379843Y-108702343D01*
X111386558Y-108685249D01*
X111386897Y-108684271D01*
X111392392Y-108666038D01*
X111392634Y-108665109D01*
X111396907Y-108645737D01*
X111397067Y-108644871D01*
X111400120Y-108624359D01*
X111400213Y-108623559D01*
X111402044Y-108601909D01*
X111402084Y-108601179D01*
X111402364Y-108590750D01*
X111677636Y-108590750D01*
X111677915Y-108601179D01*
G37*
%TD.AperFunction*%
%TD*%
D25*
%TO.N,/VDD*%
X113895324Y-105070000D02*
X113556446Y-105265376D01*
X113550773Y-105260128D01*
X113549825Y-105259333D01*
X113536148Y-105248955D01*
X113535148Y-105248269D01*
X113520332Y-105239111D01*
X113519311Y-105238543D01*
X113503356Y-105230607D01*
X113502344Y-105230158D01*
X113485250Y-105223442D01*
X113484270Y-105223102D01*
X113466037Y-105217608D01*
X113465109Y-105217366D01*
X113445737Y-105213092D01*
X113444870Y-105212932D01*
X113424358Y-105209880D01*
X113423560Y-105209787D01*
X113401910Y-105207955D01*
X113401179Y-105207915D01*
X113390750Y-105207636D01*
X113390750Y-104932364D01*
X113401179Y-104932084D01*
X113401909Y-104932044D01*
X113423559Y-104930213D01*
X113424359Y-104930120D01*
X113444871Y-104927067D01*
X113445737Y-104926907D01*
X113465109Y-104922634D01*
X113466038Y-104922392D01*
X113484271Y-104916897D01*
X113485249Y-104916558D01*
X113502343Y-104909843D01*
X113503357Y-104909393D01*
X113519312Y-104901456D01*
X113520332Y-104900888D01*
X113535148Y-104891731D01*
X113536148Y-104891045D01*
X113549825Y-104880666D01*
X113550772Y-104879872D01*
X113556445Y-104874623D01*
X113895324Y-105070000D01*
%TA.AperFunction,Conductor*%
D24*
G36*
X113895324Y-105070000D02*
G01*
X113556446Y-105265376D01*
X113550773Y-105260128D01*
X113549825Y-105259333D01*
X113536148Y-105248955D01*
X113535148Y-105248269D01*
X113520332Y-105239111D01*
X113519311Y-105238543D01*
X113503356Y-105230607D01*
X113502344Y-105230158D01*
X113485250Y-105223442D01*
X113484270Y-105223102D01*
X113466037Y-105217608D01*
X113465109Y-105217366D01*
X113445737Y-105213092D01*
X113444870Y-105212932D01*
X113424358Y-105209880D01*
X113423560Y-105209787D01*
X113401910Y-105207955D01*
X113401179Y-105207915D01*
X113390750Y-105207636D01*
X113390750Y-104932364D01*
X113401179Y-104932084D01*
X113401909Y-104932044D01*
X113423559Y-104930213D01*
X113424359Y-104930120D01*
X113444871Y-104927067D01*
X113445737Y-104926907D01*
X113465109Y-104922634D01*
X113466038Y-104922392D01*
X113484271Y-104916897D01*
X113485249Y-104916558D01*
X113502343Y-104909843D01*
X113503357Y-104909393D01*
X113519312Y-104901456D01*
X113520332Y-104900888D01*
X113535148Y-104891731D01*
X113536148Y-104891045D01*
X113549825Y-104880666D01*
X113550772Y-104879872D01*
X113556445Y-104874623D01*
X113895324Y-105070000D01*
G37*
%TD.AperFunction*%
%TD*%
D25*
%TO.N,Net-(C23-Pad2)*%
X120308058Y-84358676D02*
X120308805Y-84359329D01*
X120341423Y-84385679D01*
X120342250Y-84386294D01*
X120376355Y-84409544D01*
X120377252Y-84410102D01*
X120412845Y-84430252D01*
X120413796Y-84430739D01*
X120450877Y-84447789D01*
X120451863Y-84448193D01*
X120490432Y-84462143D01*
X120491432Y-84462458D01*
X120531488Y-84473308D01*
X120532479Y-84473535D01*
X120574023Y-84481285D01*
X120574988Y-84481426D01*
X120618020Y-84486076D01*
X120618942Y-84486142D01*
X120651204Y-84487265D01*
X120651204Y-84712734D01*
X120618942Y-84713857D01*
X120618020Y-84713923D01*
X120574988Y-84718573D01*
X120574023Y-84718714D01*
X120532479Y-84726464D01*
X120531488Y-84726691D01*
X120491432Y-84737541D01*
X120490432Y-84737856D01*
X120451863Y-84751806D01*
X120450877Y-84752210D01*
X120413796Y-84769260D01*
X120412845Y-84769747D01*
X120377252Y-84789897D01*
X120376355Y-84790455D01*
X120342250Y-84813705D01*
X120341423Y-84814320D01*
X120308805Y-84840670D01*
X120308058Y-84841324D01*
X120283803Y-84864272D01*
X119825426Y-84600000D01*
X120283802Y-84335728D01*
X120308058Y-84358676D01*
%TA.AperFunction,Conductor*%
D24*
G36*
X120308058Y-84358676D02*
G01*
X120308805Y-84359329D01*
X120341423Y-84385679D01*
X120342250Y-84386294D01*
X120376355Y-84409544D01*
X120377252Y-84410102D01*
X120412845Y-84430252D01*
X120413796Y-84430739D01*
X120450877Y-84447789D01*
X120451863Y-84448193D01*
X120490432Y-84462143D01*
X120491432Y-84462458D01*
X120531488Y-84473308D01*
X120532479Y-84473535D01*
X120574023Y-84481285D01*
X120574988Y-84481426D01*
X120618020Y-84486076D01*
X120618942Y-84486142D01*
X120651204Y-84487265D01*
X120651204Y-84712734D01*
X120618942Y-84713857D01*
X120618020Y-84713923D01*
X120574988Y-84718573D01*
X120574023Y-84718714D01*
X120532479Y-84726464D01*
X120531488Y-84726691D01*
X120491432Y-84737541D01*
X120490432Y-84737856D01*
X120451863Y-84751806D01*
X120450877Y-84752210D01*
X120413796Y-84769260D01*
X120412845Y-84769747D01*
X120377252Y-84789897D01*
X120376355Y-84790455D01*
X120342250Y-84813705D01*
X120341423Y-84814320D01*
X120308805Y-84840670D01*
X120308058Y-84841324D01*
X120283803Y-84864272D01*
X119825426Y-84600000D01*
X120283802Y-84335728D01*
X120308058Y-84358676D01*
G37*
%TD.AperFunction*%
%TD*%
D25*
%TO.N,GNDA*%
X136809574Y-77135000D02*
X136351198Y-77399272D01*
X136326941Y-77376323D01*
X136326194Y-77375670D01*
X136293576Y-77349320D01*
X136292749Y-77348705D01*
X136258644Y-77325455D01*
X136257747Y-77324897D01*
X136222154Y-77304747D01*
X136221203Y-77304260D01*
X136184122Y-77287210D01*
X136183136Y-77286806D01*
X136144567Y-77272856D01*
X136143567Y-77272541D01*
X136103511Y-77261691D01*
X136102520Y-77261464D01*
X136060976Y-77253714D01*
X136060011Y-77253573D01*
X136016979Y-77248923D01*
X136016057Y-77248857D01*
X135983796Y-77247735D01*
X135983796Y-77022265D01*
X136016057Y-77021142D01*
X136016979Y-77021076D01*
X136060011Y-77016426D01*
X136060976Y-77016285D01*
X136102520Y-77008535D01*
X136103511Y-77008308D01*
X136143567Y-76997458D01*
X136144567Y-76997143D01*
X136183136Y-76983193D01*
X136184122Y-76982789D01*
X136221203Y-76965739D01*
X136222154Y-76965252D01*
X136257747Y-76945102D01*
X136258644Y-76944544D01*
X136292749Y-76921294D01*
X136293576Y-76920679D01*
X136326194Y-76894329D01*
X136326941Y-76893676D01*
X136351198Y-76870728D01*
X136809574Y-77135000D01*
%TA.AperFunction,Conductor*%
D24*
G36*
X136809574Y-77135000D02*
G01*
X136351198Y-77399272D01*
X136326941Y-77376323D01*
X136326194Y-77375670D01*
X136293576Y-77349320D01*
X136292749Y-77348705D01*
X136258644Y-77325455D01*
X136257747Y-77324897D01*
X136222154Y-77304747D01*
X136221203Y-77304260D01*
X136184122Y-77287210D01*
X136183136Y-77286806D01*
X136144567Y-77272856D01*
X136143567Y-77272541D01*
X136103511Y-77261691D01*
X136102520Y-77261464D01*
X136060976Y-77253714D01*
X136060011Y-77253573D01*
X136016979Y-77248923D01*
X136016057Y-77248857D01*
X135983796Y-77247735D01*
X135983796Y-77022265D01*
X136016057Y-77021142D01*
X136016979Y-77021076D01*
X136060011Y-77016426D01*
X136060976Y-77016285D01*
X136102520Y-77008535D01*
X136103511Y-77008308D01*
X136143567Y-76997458D01*
X136144567Y-76997143D01*
X136183136Y-76983193D01*
X136184122Y-76982789D01*
X136221203Y-76965739D01*
X136222154Y-76965252D01*
X136257747Y-76945102D01*
X136258644Y-76944544D01*
X136292749Y-76921294D01*
X136293576Y-76920679D01*
X136326194Y-76894329D01*
X136326941Y-76893676D01*
X136351198Y-76870728D01*
X136809574Y-77135000D01*
G37*
%TD.AperFunction*%
%TD*%
D25*
%TO.N,GNDA*%
X132213058Y-76893676D02*
X132213805Y-76894329D01*
X132246423Y-76920679D01*
X132247250Y-76921294D01*
X132281355Y-76944544D01*
X132282252Y-76945102D01*
X132317845Y-76965252D01*
X132318796Y-76965739D01*
X132355877Y-76982789D01*
X132356863Y-76983193D01*
X132395432Y-76997143D01*
X132396432Y-76997458D01*
X132436488Y-77008308D01*
X132437479Y-77008535D01*
X132479023Y-77016285D01*
X132479988Y-77016426D01*
X132523020Y-77021076D01*
X132523942Y-77021142D01*
X132556204Y-77022265D01*
X132556204Y-77247734D01*
X132523942Y-77248857D01*
X132523020Y-77248923D01*
X132479988Y-77253573D01*
X132479023Y-77253714D01*
X132437479Y-77261464D01*
X132436488Y-77261691D01*
X132396432Y-77272541D01*
X132395432Y-77272856D01*
X132356863Y-77286806D01*
X132355877Y-77287210D01*
X132318796Y-77304260D01*
X132317845Y-77304747D01*
X132282252Y-77324897D01*
X132281355Y-77325455D01*
X132247250Y-77348705D01*
X132246423Y-77349320D01*
X132213805Y-77375670D01*
X132213058Y-77376324D01*
X132188803Y-77399272D01*
X131730426Y-77135000D01*
X132188802Y-76870728D01*
X132213058Y-76893676D01*
%TA.AperFunction,Conductor*%
D24*
G36*
X132213058Y-76893676D02*
G01*
X132213805Y-76894329D01*
X132246423Y-76920679D01*
X132247250Y-76921294D01*
X132281355Y-76944544D01*
X132282252Y-76945102D01*
X132317845Y-76965252D01*
X132318796Y-76965739D01*
X132355877Y-76982789D01*
X132356863Y-76983193D01*
X132395432Y-76997143D01*
X132396432Y-76997458D01*
X132436488Y-77008308D01*
X132437479Y-77008535D01*
X132479023Y-77016285D01*
X132479988Y-77016426D01*
X132523020Y-77021076D01*
X132523942Y-77021142D01*
X132556204Y-77022265D01*
X132556204Y-77247734D01*
X132523942Y-77248857D01*
X132523020Y-77248923D01*
X132479988Y-77253573D01*
X132479023Y-77253714D01*
X132437479Y-77261464D01*
X132436488Y-77261691D01*
X132396432Y-77272541D01*
X132395432Y-77272856D01*
X132356863Y-77286806D01*
X132355877Y-77287210D01*
X132318796Y-77304260D01*
X132317845Y-77304747D01*
X132282252Y-77324897D01*
X132281355Y-77325455D01*
X132247250Y-77348705D01*
X132246423Y-77349320D01*
X132213805Y-77375670D01*
X132213058Y-77376324D01*
X132188803Y-77399272D01*
X131730426Y-77135000D01*
X132188802Y-76870728D01*
X132213058Y-76893676D01*
G37*
%TD.AperFunction*%
%TD*%
D25*
%TO.N,/VDDA*%
X94188058Y-78738676D02*
X94188805Y-78739329D01*
X94221423Y-78765679D01*
X94222250Y-78766294D01*
X94256355Y-78789544D01*
X94257252Y-78790102D01*
X94292845Y-78810252D01*
X94293796Y-78810739D01*
X94330877Y-78827789D01*
X94331863Y-78828193D01*
X94370432Y-78842143D01*
X94371432Y-78842458D01*
X94411488Y-78853308D01*
X94412479Y-78853535D01*
X94454023Y-78861285D01*
X94454988Y-78861426D01*
X94498020Y-78866076D01*
X94498942Y-78866142D01*
X94531204Y-78867265D01*
X94531204Y-79092734D01*
X94498942Y-79093857D01*
X94498020Y-79093923D01*
X94454988Y-79098573D01*
X94454023Y-79098714D01*
X94412479Y-79106464D01*
X94411488Y-79106691D01*
X94371432Y-79117541D01*
X94370432Y-79117856D01*
X94331863Y-79131806D01*
X94330877Y-79132210D01*
X94293796Y-79149260D01*
X94292845Y-79149747D01*
X94257252Y-79169897D01*
X94256355Y-79170455D01*
X94222250Y-79193705D01*
X94221423Y-79194320D01*
X94188805Y-79220670D01*
X94188058Y-79221324D01*
X94163803Y-79244272D01*
X93705426Y-78980000D01*
X94163802Y-78715728D01*
X94188058Y-78738676D01*
%TA.AperFunction,Conductor*%
D24*
G36*
X94188058Y-78738676D02*
G01*
X94188805Y-78739329D01*
X94221423Y-78765679D01*
X94222250Y-78766294D01*
X94256355Y-78789544D01*
X94257252Y-78790102D01*
X94292845Y-78810252D01*
X94293796Y-78810739D01*
X94330877Y-78827789D01*
X94331863Y-78828193D01*
X94370432Y-78842143D01*
X94371432Y-78842458D01*
X94411488Y-78853308D01*
X94412479Y-78853535D01*
X94454023Y-78861285D01*
X94454988Y-78861426D01*
X94498020Y-78866076D01*
X94498942Y-78866142D01*
X94531204Y-78867265D01*
X94531204Y-79092734D01*
X94498942Y-79093857D01*
X94498020Y-79093923D01*
X94454988Y-79098573D01*
X94454023Y-79098714D01*
X94412479Y-79106464D01*
X94411488Y-79106691D01*
X94371432Y-79117541D01*
X94370432Y-79117856D01*
X94331863Y-79131806D01*
X94330877Y-79132210D01*
X94293796Y-79149260D01*
X94292845Y-79149747D01*
X94257252Y-79169897D01*
X94256355Y-79170455D01*
X94222250Y-79193705D01*
X94221423Y-79194320D01*
X94188805Y-79220670D01*
X94188058Y-79221324D01*
X94163803Y-79244272D01*
X93705426Y-78980000D01*
X94163802Y-78715728D01*
X94188058Y-78738676D01*
G37*
%TD.AperFunction*%
%TD*%
D25*
%TO.N,/VDDA*%
X108536190Y-75847546D02*
X108502811Y-75848472D01*
X108501821Y-75848538D01*
X108460125Y-75852970D01*
X108459105Y-75853121D01*
X108418548Y-75860797D01*
X108417519Y-75861036D01*
X108378103Y-75871956D01*
X108377086Y-75872284D01*
X108338810Y-75886448D01*
X108337828Y-75886860D01*
X108300691Y-75904268D01*
X108299761Y-75904751D01*
X108263765Y-75925403D01*
X108262904Y-75925944D01*
X108228048Y-75949840D01*
X108227265Y-75950422D01*
X108193549Y-75977562D01*
X108192850Y-75978168D01*
X108169244Y-76000187D01*
X108009813Y-75840756D01*
X108031831Y-75817148D01*
X108032437Y-75816450D01*
X108059577Y-75782734D01*
X108060159Y-75781951D01*
X108084055Y-75747095D01*
X108084596Y-75746234D01*
X108105248Y-75710238D01*
X108105731Y-75709308D01*
X108123139Y-75672171D01*
X108123551Y-75671189D01*
X108137715Y-75632913D01*
X108138043Y-75631896D01*
X108148963Y-75592480D01*
X108149202Y-75591451D01*
X108156878Y-75550894D01*
X108157029Y-75549874D01*
X108161461Y-75508178D01*
X108161527Y-75507188D01*
X108162453Y-75473810D01*
X108673442Y-75336558D01*
X108536190Y-75847546D01*
%TA.AperFunction,Conductor*%
D24*
G36*
X108536190Y-75847546D02*
G01*
X108502811Y-75848472D01*
X108501821Y-75848538D01*
X108460125Y-75852970D01*
X108459105Y-75853121D01*
X108418548Y-75860797D01*
X108417519Y-75861036D01*
X108378103Y-75871956D01*
X108377086Y-75872284D01*
X108338810Y-75886448D01*
X108337828Y-75886860D01*
X108300691Y-75904268D01*
X108299761Y-75904751D01*
X108263765Y-75925403D01*
X108262904Y-75925944D01*
X108228048Y-75949840D01*
X108227265Y-75950422D01*
X108193549Y-75977562D01*
X108192850Y-75978168D01*
X108169244Y-76000187D01*
X108009813Y-75840756D01*
X108031831Y-75817148D01*
X108032437Y-75816450D01*
X108059577Y-75782734D01*
X108060159Y-75781951D01*
X108084055Y-75747095D01*
X108084596Y-75746234D01*
X108105248Y-75710238D01*
X108105731Y-75709308D01*
X108123139Y-75672171D01*
X108123551Y-75671189D01*
X108137715Y-75632913D01*
X108138043Y-75631896D01*
X108148963Y-75592480D01*
X108149202Y-75591451D01*
X108156878Y-75550894D01*
X108157029Y-75549874D01*
X108161461Y-75508178D01*
X108161527Y-75507188D01*
X108162453Y-75473810D01*
X108673442Y-75336558D01*
X108536190Y-75847546D01*
G37*
%TD.AperFunction*%
%TD*%
D25*
%TO.N,Net-(C34-Pad1)*%
X136809574Y-75865000D02*
X136351198Y-76129272D01*
X136326941Y-76106323D01*
X136326194Y-76105670D01*
X136293576Y-76079320D01*
X136292749Y-76078705D01*
X136258644Y-76055455D01*
X136257747Y-76054897D01*
X136222154Y-76034747D01*
X136221203Y-76034260D01*
X136184122Y-76017210D01*
X136183136Y-76016806D01*
X136144567Y-76002856D01*
X136143567Y-76002541D01*
X136103511Y-75991691D01*
X136102520Y-75991464D01*
X136060976Y-75983714D01*
X136060011Y-75983573D01*
X136016979Y-75978923D01*
X136016057Y-75978857D01*
X135983796Y-75977735D01*
X135983796Y-75752265D01*
X136016057Y-75751142D01*
X136016979Y-75751076D01*
X136060011Y-75746426D01*
X136060976Y-75746285D01*
X136102520Y-75738535D01*
X136103511Y-75738308D01*
X136143567Y-75727458D01*
X136144567Y-75727143D01*
X136183136Y-75713193D01*
X136184122Y-75712789D01*
X136221203Y-75695739D01*
X136222154Y-75695252D01*
X136257747Y-75675102D01*
X136258644Y-75674544D01*
X136292749Y-75651294D01*
X136293576Y-75650679D01*
X136326194Y-75624329D01*
X136326941Y-75623676D01*
X136351198Y-75600728D01*
X136809574Y-75865000D01*
%TA.AperFunction,Conductor*%
D24*
G36*
X136809574Y-75865000D02*
G01*
X136351198Y-76129272D01*
X136326941Y-76106323D01*
X136326194Y-76105670D01*
X136293576Y-76079320D01*
X136292749Y-76078705D01*
X136258644Y-76055455D01*
X136257747Y-76054897D01*
X136222154Y-76034747D01*
X136221203Y-76034260D01*
X136184122Y-76017210D01*
X136183136Y-76016806D01*
X136144567Y-76002856D01*
X136143567Y-76002541D01*
X136103511Y-75991691D01*
X136102520Y-75991464D01*
X136060976Y-75983714D01*
X136060011Y-75983573D01*
X136016979Y-75978923D01*
X136016057Y-75978857D01*
X135983796Y-75977735D01*
X135983796Y-75752265D01*
X136016057Y-75751142D01*
X136016979Y-75751076D01*
X136060011Y-75746426D01*
X136060976Y-75746285D01*
X136102520Y-75738535D01*
X136103511Y-75738308D01*
X136143567Y-75727458D01*
X136144567Y-75727143D01*
X136183136Y-75713193D01*
X136184122Y-75712789D01*
X136221203Y-75695739D01*
X136222154Y-75695252D01*
X136257747Y-75675102D01*
X136258644Y-75674544D01*
X136292749Y-75651294D01*
X136293576Y-75650679D01*
X136326194Y-75624329D01*
X136326941Y-75623676D01*
X136351198Y-75600728D01*
X136809574Y-75865000D01*
G37*
%TD.AperFunction*%
%TD*%
D25*
%TO.N,Net-(C34-Pad1)*%
X132183058Y-75623676D02*
X132183805Y-75624329D01*
X132216423Y-75650679D01*
X132217250Y-75651294D01*
X132251355Y-75674544D01*
X132252252Y-75675102D01*
X132287845Y-75695252D01*
X132288796Y-75695739D01*
X132325877Y-75712789D01*
X132326863Y-75713193D01*
X132365432Y-75727143D01*
X132366432Y-75727458D01*
X132406488Y-75738308D01*
X132407479Y-75738535D01*
X132449023Y-75746285D01*
X132449988Y-75746426D01*
X132493020Y-75751076D01*
X132493942Y-75751142D01*
X132526204Y-75752265D01*
X132526204Y-75977734D01*
X132493942Y-75978857D01*
X132493020Y-75978923D01*
X132449988Y-75983573D01*
X132449023Y-75983714D01*
X132407479Y-75991464D01*
X132406488Y-75991691D01*
X132366432Y-76002541D01*
X132365432Y-76002856D01*
X132326863Y-76016806D01*
X132325877Y-76017210D01*
X132288796Y-76034260D01*
X132287845Y-76034747D01*
X132252252Y-76054897D01*
X132251355Y-76055455D01*
X132217250Y-76078705D01*
X132216423Y-76079320D01*
X132183805Y-76105670D01*
X132183058Y-76106324D01*
X132158803Y-76129272D01*
X131700426Y-75865000D01*
X132158802Y-75600728D01*
X132183058Y-75623676D01*
%TA.AperFunction,Conductor*%
D24*
G36*
X132183058Y-75623676D02*
G01*
X132183805Y-75624329D01*
X132216423Y-75650679D01*
X132217250Y-75651294D01*
X132251355Y-75674544D01*
X132252252Y-75675102D01*
X132287845Y-75695252D01*
X132288796Y-75695739D01*
X132325877Y-75712789D01*
X132326863Y-75713193D01*
X132365432Y-75727143D01*
X132366432Y-75727458D01*
X132406488Y-75738308D01*
X132407479Y-75738535D01*
X132449023Y-75746285D01*
X132449988Y-75746426D01*
X132493020Y-75751076D01*
X132493942Y-75751142D01*
X132526204Y-75752265D01*
X132526204Y-75977734D01*
X132493942Y-75978857D01*
X132493020Y-75978923D01*
X132449988Y-75983573D01*
X132449023Y-75983714D01*
X132407479Y-75991464D01*
X132406488Y-75991691D01*
X132366432Y-76002541D01*
X132365432Y-76002856D01*
X132326863Y-76016806D01*
X132325877Y-76017210D01*
X132288796Y-76034260D01*
X132287845Y-76034747D01*
X132252252Y-76054897D01*
X132251355Y-76055455D01*
X132217250Y-76078705D01*
X132216423Y-76079320D01*
X132183805Y-76105670D01*
X132183058Y-76106324D01*
X132158803Y-76129272D01*
X131700426Y-75865000D01*
X132158802Y-75600728D01*
X132183058Y-75623676D01*
G37*
%TD.AperFunction*%
%TD*%
D25*
%TO.N,/CCS811_WAKE*%
X136262851Y-84061831D02*
X136263549Y-84062437D01*
X136297265Y-84089577D01*
X136298048Y-84090159D01*
X136332904Y-84114055D01*
X136333765Y-84114596D01*
X136369761Y-84135248D01*
X136370691Y-84135731D01*
X136407828Y-84153139D01*
X136408810Y-84153551D01*
X136447086Y-84167715D01*
X136448103Y-84168043D01*
X136487519Y-84178963D01*
X136488548Y-84179202D01*
X136529105Y-84186878D01*
X136530125Y-84187029D01*
X136571821Y-84191461D01*
X136572811Y-84191527D01*
X136606190Y-84192453D01*
X136743442Y-84703442D01*
X136232453Y-84566190D01*
X136231527Y-84532811D01*
X136231461Y-84531821D01*
X136227029Y-84490125D01*
X136226878Y-84489105D01*
X136219202Y-84448548D01*
X136218963Y-84447519D01*
X136208043Y-84408103D01*
X136207715Y-84407086D01*
X136193551Y-84368810D01*
X136193139Y-84367828D01*
X136175731Y-84330691D01*
X136175248Y-84329761D01*
X136154596Y-84293765D01*
X136154055Y-84292904D01*
X136130159Y-84258048D01*
X136129577Y-84257265D01*
X136102437Y-84223549D01*
X136101831Y-84222851D01*
X136079813Y-84199244D01*
X136239244Y-84039813D01*
X136262851Y-84061831D01*
%TA.AperFunction,Conductor*%
D24*
G36*
X136262851Y-84061831D02*
G01*
X136263549Y-84062437D01*
X136297265Y-84089577D01*
X136298048Y-84090159D01*
X136332904Y-84114055D01*
X136333765Y-84114596D01*
X136369761Y-84135248D01*
X136370691Y-84135731D01*
X136407828Y-84153139D01*
X136408810Y-84153551D01*
X136447086Y-84167715D01*
X136448103Y-84168043D01*
X136487519Y-84178963D01*
X136488548Y-84179202D01*
X136529105Y-84186878D01*
X136530125Y-84187029D01*
X136571821Y-84191461D01*
X136572811Y-84191527D01*
X136606190Y-84192453D01*
X136743442Y-84703442D01*
X136232453Y-84566190D01*
X136231527Y-84532811D01*
X136231461Y-84531821D01*
X136227029Y-84490125D01*
X136226878Y-84489105D01*
X136219202Y-84448548D01*
X136218963Y-84447519D01*
X136208043Y-84408103D01*
X136207715Y-84407086D01*
X136193551Y-84368810D01*
X136193139Y-84367828D01*
X136175731Y-84330691D01*
X136175248Y-84329761D01*
X136154596Y-84293765D01*
X136154055Y-84292904D01*
X136130159Y-84258048D01*
X136129577Y-84257265D01*
X136102437Y-84223549D01*
X136101831Y-84222851D01*
X136079813Y-84199244D01*
X136239244Y-84039813D01*
X136262851Y-84061831D01*
G37*
%TD.AperFunction*%
%TD*%
D25*
%TO.N,/MIC_OUT*%
X123332851Y-66461831D02*
X123333549Y-66462437D01*
X123367265Y-66489577D01*
X123368048Y-66490159D01*
X123402904Y-66514055D01*
X123403765Y-66514596D01*
X123439761Y-66535248D01*
X123440691Y-66535731D01*
X123477828Y-66553139D01*
X123478810Y-66553551D01*
X123517086Y-66567715D01*
X123518103Y-66568043D01*
X123557519Y-66578963D01*
X123558548Y-66579202D01*
X123599105Y-66586878D01*
X123600125Y-66587029D01*
X123641821Y-66591461D01*
X123642811Y-66591527D01*
X123676190Y-66592453D01*
X123813442Y-67103442D01*
X123302453Y-66966190D01*
X123301527Y-66932811D01*
X123301461Y-66931821D01*
X123297029Y-66890125D01*
X123296878Y-66889105D01*
X123289202Y-66848548D01*
X123288963Y-66847519D01*
X123278043Y-66808103D01*
X123277715Y-66807086D01*
X123263551Y-66768810D01*
X123263139Y-66767828D01*
X123245731Y-66730691D01*
X123245248Y-66729761D01*
X123224596Y-66693765D01*
X123224055Y-66692904D01*
X123200159Y-66658048D01*
X123199577Y-66657265D01*
X123172437Y-66623549D01*
X123171831Y-66622851D01*
X123149813Y-66599244D01*
X123309244Y-66439813D01*
X123332851Y-66461831D01*
%TA.AperFunction,Conductor*%
D24*
G36*
X123332851Y-66461831D02*
G01*
X123333549Y-66462437D01*
X123367265Y-66489577D01*
X123368048Y-66490159D01*
X123402904Y-66514055D01*
X123403765Y-66514596D01*
X123439761Y-66535248D01*
X123440691Y-66535731D01*
X123477828Y-66553139D01*
X123478810Y-66553551D01*
X123517086Y-66567715D01*
X123518103Y-66568043D01*
X123557519Y-66578963D01*
X123558548Y-66579202D01*
X123599105Y-66586878D01*
X123600125Y-66587029D01*
X123641821Y-66591461D01*
X123642811Y-66591527D01*
X123676190Y-66592453D01*
X123813442Y-67103442D01*
X123302453Y-66966190D01*
X123301527Y-66932811D01*
X123301461Y-66931821D01*
X123297029Y-66890125D01*
X123296878Y-66889105D01*
X123289202Y-66848548D01*
X123288963Y-66847519D01*
X123278043Y-66808103D01*
X123277715Y-66807086D01*
X123263551Y-66768810D01*
X123263139Y-66767828D01*
X123245731Y-66730691D01*
X123245248Y-66729761D01*
X123224596Y-66693765D01*
X123224055Y-66692904D01*
X123200159Y-66658048D01*
X123199577Y-66657265D01*
X123172437Y-66623549D01*
X123171831Y-66622851D01*
X123149813Y-66599244D01*
X123309244Y-66439813D01*
X123332851Y-66461831D01*
G37*
%TD.AperFunction*%
%TD*%
D25*
%TO.N,/I2C_SCL*%
X136714574Y-79690000D02*
X136256198Y-79954272D01*
X136231941Y-79931323D01*
X136231194Y-79930670D01*
X136198576Y-79904320D01*
X136197749Y-79903705D01*
X136163644Y-79880455D01*
X136162747Y-79879897D01*
X136127154Y-79859747D01*
X136126203Y-79859260D01*
X136089122Y-79842210D01*
X136088136Y-79841806D01*
X136049567Y-79827856D01*
X136048567Y-79827541D01*
X136008511Y-79816691D01*
X136007520Y-79816464D01*
X135965976Y-79808714D01*
X135965011Y-79808573D01*
X135921979Y-79803923D01*
X135921057Y-79803857D01*
X135888796Y-79802735D01*
X135888796Y-79577265D01*
X135921057Y-79576142D01*
X135921979Y-79576076D01*
X135965011Y-79571426D01*
X135965976Y-79571285D01*
X136007520Y-79563535D01*
X136008511Y-79563308D01*
X136048567Y-79552458D01*
X136049567Y-79552143D01*
X136088136Y-79538193D01*
X136089122Y-79537789D01*
X136126203Y-79520739D01*
X136127154Y-79520252D01*
X136162747Y-79500102D01*
X136163644Y-79499544D01*
X136197749Y-79476294D01*
X136198576Y-79475679D01*
X136231194Y-79449329D01*
X136231941Y-79448676D01*
X136256198Y-79425728D01*
X136714574Y-79690000D01*
%TA.AperFunction,Conductor*%
D24*
G36*
X136714574Y-79690000D02*
G01*
X136256198Y-79954272D01*
X136231941Y-79931323D01*
X136231194Y-79930670D01*
X136198576Y-79904320D01*
X136197749Y-79903705D01*
X136163644Y-79880455D01*
X136162747Y-79879897D01*
X136127154Y-79859747D01*
X136126203Y-79859260D01*
X136089122Y-79842210D01*
X136088136Y-79841806D01*
X136049567Y-79827856D01*
X136048567Y-79827541D01*
X136008511Y-79816691D01*
X136007520Y-79816464D01*
X135965976Y-79808714D01*
X135965011Y-79808573D01*
X135921979Y-79803923D01*
X135921057Y-79803857D01*
X135888796Y-79802735D01*
X135888796Y-79577265D01*
X135921057Y-79576142D01*
X135921979Y-79576076D01*
X135965011Y-79571426D01*
X135965976Y-79571285D01*
X136007520Y-79563535D01*
X136008511Y-79563308D01*
X136048567Y-79552458D01*
X136049567Y-79552143D01*
X136088136Y-79538193D01*
X136089122Y-79537789D01*
X136126203Y-79520739D01*
X136127154Y-79520252D01*
X136162747Y-79500102D01*
X136163644Y-79499544D01*
X136197749Y-79476294D01*
X136198576Y-79475679D01*
X136231194Y-79449329D01*
X136231941Y-79448676D01*
X136256198Y-79425728D01*
X136714574Y-79690000D01*
G37*
%TD.AperFunction*%
%TD*%
D25*
%TO.N,/I2C_SCL*%
X135158058Y-79448676D02*
X135158805Y-79449329D01*
X135191423Y-79475679D01*
X135192250Y-79476294D01*
X135226355Y-79499544D01*
X135227252Y-79500102D01*
X135262845Y-79520252D01*
X135263796Y-79520739D01*
X135300877Y-79537789D01*
X135301863Y-79538193D01*
X135340432Y-79552143D01*
X135341432Y-79552458D01*
X135381488Y-79563308D01*
X135382479Y-79563535D01*
X135424023Y-79571285D01*
X135424988Y-79571426D01*
X135468020Y-79576076D01*
X135468942Y-79576142D01*
X135501204Y-79577265D01*
X135501204Y-79802734D01*
X135468942Y-79803857D01*
X135468020Y-79803923D01*
X135424988Y-79808573D01*
X135424023Y-79808714D01*
X135382479Y-79816464D01*
X135381488Y-79816691D01*
X135341432Y-79827541D01*
X135340432Y-79827856D01*
X135301863Y-79841806D01*
X135300877Y-79842210D01*
X135263796Y-79859260D01*
X135262845Y-79859747D01*
X135227252Y-79879897D01*
X135226355Y-79880455D01*
X135192250Y-79903705D01*
X135191423Y-79904320D01*
X135158805Y-79930670D01*
X135158058Y-79931324D01*
X135133803Y-79954272D01*
X134675426Y-79690000D01*
X135133802Y-79425728D01*
X135158058Y-79448676D01*
%TA.AperFunction,Conductor*%
D24*
G36*
X135158058Y-79448676D02*
G01*
X135158805Y-79449329D01*
X135191423Y-79475679D01*
X135192250Y-79476294D01*
X135226355Y-79499544D01*
X135227252Y-79500102D01*
X135262845Y-79520252D01*
X135263796Y-79520739D01*
X135300877Y-79537789D01*
X135301863Y-79538193D01*
X135340432Y-79552143D01*
X135341432Y-79552458D01*
X135381488Y-79563308D01*
X135382479Y-79563535D01*
X135424023Y-79571285D01*
X135424988Y-79571426D01*
X135468020Y-79576076D01*
X135468942Y-79576142D01*
X135501204Y-79577265D01*
X135501204Y-79802734D01*
X135468942Y-79803857D01*
X135468020Y-79803923D01*
X135424988Y-79808573D01*
X135424023Y-79808714D01*
X135382479Y-79816464D01*
X135381488Y-79816691D01*
X135341432Y-79827541D01*
X135340432Y-79827856D01*
X135301863Y-79841806D01*
X135300877Y-79842210D01*
X135263796Y-79859260D01*
X135262845Y-79859747D01*
X135227252Y-79879897D01*
X135226355Y-79880455D01*
X135192250Y-79903705D01*
X135191423Y-79904320D01*
X135158805Y-79930670D01*
X135158058Y-79931324D01*
X135133803Y-79954272D01*
X134675426Y-79690000D01*
X135133802Y-79425728D01*
X135158058Y-79448676D01*
G37*
%TD.AperFunction*%
%TD*%
D25*
%TO.N,/I2C_SCL*%
X135024574Y-72080000D02*
X134566198Y-72344272D01*
X134541941Y-72321323D01*
X134541194Y-72320670D01*
X134508576Y-72294320D01*
X134507749Y-72293705D01*
X134473644Y-72270455D01*
X134472747Y-72269897D01*
X134437154Y-72249747D01*
X134436203Y-72249260D01*
X134399122Y-72232210D01*
X134398136Y-72231806D01*
X134359567Y-72217856D01*
X134358567Y-72217541D01*
X134318511Y-72206691D01*
X134317520Y-72206464D01*
X134275976Y-72198714D01*
X134275011Y-72198573D01*
X134231979Y-72193923D01*
X134231057Y-72193857D01*
X134198796Y-72192735D01*
X134198796Y-71967265D01*
X134231057Y-71966142D01*
X134231979Y-71966076D01*
X134275011Y-71961426D01*
X134275976Y-71961285D01*
X134317520Y-71953535D01*
X134318511Y-71953308D01*
X134358567Y-71942458D01*
X134359567Y-71942143D01*
X134398136Y-71928193D01*
X134399122Y-71927789D01*
X134436203Y-71910739D01*
X134437154Y-71910252D01*
X134472747Y-71890102D01*
X134473644Y-71889544D01*
X134507749Y-71866294D01*
X134508576Y-71865679D01*
X134541194Y-71839329D01*
X134541941Y-71838676D01*
X134566198Y-71815728D01*
X135024574Y-72080000D01*
%TA.AperFunction,Conductor*%
D24*
G36*
X135024574Y-72080000D02*
G01*
X134566198Y-72344272D01*
X134541941Y-72321323D01*
X134541194Y-72320670D01*
X134508576Y-72294320D01*
X134507749Y-72293705D01*
X134473644Y-72270455D01*
X134472747Y-72269897D01*
X134437154Y-72249747D01*
X134436203Y-72249260D01*
X134399122Y-72232210D01*
X134398136Y-72231806D01*
X134359567Y-72217856D01*
X134358567Y-72217541D01*
X134318511Y-72206691D01*
X134317520Y-72206464D01*
X134275976Y-72198714D01*
X134275011Y-72198573D01*
X134231979Y-72193923D01*
X134231057Y-72193857D01*
X134198796Y-72192735D01*
X134198796Y-71967265D01*
X134231057Y-71966142D01*
X134231979Y-71966076D01*
X134275011Y-71961426D01*
X134275976Y-71961285D01*
X134317520Y-71953535D01*
X134318511Y-71953308D01*
X134358567Y-71942458D01*
X134359567Y-71942143D01*
X134398136Y-71928193D01*
X134399122Y-71927789D01*
X134436203Y-71910739D01*
X134437154Y-71910252D01*
X134472747Y-71890102D01*
X134473644Y-71889544D01*
X134507749Y-71866294D01*
X134508576Y-71865679D01*
X134541194Y-71839329D01*
X134541941Y-71838676D01*
X134566198Y-71815728D01*
X135024574Y-72080000D01*
G37*
%TD.AperFunction*%
%TD*%
D25*
%TO.N,/I2C_SDA*%
X135974574Y-73310000D02*
X135516198Y-73574272D01*
X135491941Y-73551323D01*
X135491194Y-73550670D01*
X135458576Y-73524320D01*
X135457749Y-73523705D01*
X135423644Y-73500455D01*
X135422747Y-73499897D01*
X135387154Y-73479747D01*
X135386203Y-73479260D01*
X135349122Y-73462210D01*
X135348136Y-73461806D01*
X135309567Y-73447856D01*
X135308567Y-73447541D01*
X135268511Y-73436691D01*
X135267520Y-73436464D01*
X135225976Y-73428714D01*
X135225011Y-73428573D01*
X135181979Y-73423923D01*
X135181057Y-73423857D01*
X135148796Y-73422735D01*
X135148796Y-73197265D01*
X135181057Y-73196142D01*
X135181979Y-73196076D01*
X135225011Y-73191426D01*
X135225976Y-73191285D01*
X135267520Y-73183535D01*
X135268511Y-73183308D01*
X135308567Y-73172458D01*
X135309567Y-73172143D01*
X135348136Y-73158193D01*
X135349122Y-73157789D01*
X135386203Y-73140739D01*
X135387154Y-73140252D01*
X135422747Y-73120102D01*
X135423644Y-73119544D01*
X135457749Y-73096294D01*
X135458576Y-73095679D01*
X135491194Y-73069329D01*
X135491941Y-73068676D01*
X135516198Y-73045728D01*
X135974574Y-73310000D01*
%TA.AperFunction,Conductor*%
D24*
G36*
X135974574Y-73310000D02*
G01*
X135516198Y-73574272D01*
X135491941Y-73551323D01*
X135491194Y-73550670D01*
X135458576Y-73524320D01*
X135457749Y-73523705D01*
X135423644Y-73500455D01*
X135422747Y-73499897D01*
X135387154Y-73479747D01*
X135386203Y-73479260D01*
X135349122Y-73462210D01*
X135348136Y-73461806D01*
X135309567Y-73447856D01*
X135308567Y-73447541D01*
X135268511Y-73436691D01*
X135267520Y-73436464D01*
X135225976Y-73428714D01*
X135225011Y-73428573D01*
X135181979Y-73423923D01*
X135181057Y-73423857D01*
X135148796Y-73422735D01*
X135148796Y-73197265D01*
X135181057Y-73196142D01*
X135181979Y-73196076D01*
X135225011Y-73191426D01*
X135225976Y-73191285D01*
X135267520Y-73183535D01*
X135268511Y-73183308D01*
X135308567Y-73172458D01*
X135309567Y-73172143D01*
X135348136Y-73158193D01*
X135349122Y-73157789D01*
X135386203Y-73140739D01*
X135387154Y-73140252D01*
X135422747Y-73120102D01*
X135423644Y-73119544D01*
X135457749Y-73096294D01*
X135458576Y-73095679D01*
X135491194Y-73069329D01*
X135491941Y-73068676D01*
X135516198Y-73045728D01*
X135974574Y-73310000D01*
G37*
%TD.AperFunction*%
%TD*%
D25*
%TO.N,/RAD_V_B*%
X124582851Y-64211831D02*
X124583549Y-64212437D01*
X124617265Y-64239577D01*
X124618048Y-64240159D01*
X124652904Y-64264055D01*
X124653765Y-64264596D01*
X124689761Y-64285248D01*
X124690691Y-64285731D01*
X124727828Y-64303139D01*
X124728810Y-64303551D01*
X124767086Y-64317715D01*
X124768103Y-64318043D01*
X124807519Y-64328963D01*
X124808548Y-64329202D01*
X124849105Y-64336878D01*
X124850125Y-64337029D01*
X124891821Y-64341461D01*
X124892811Y-64341527D01*
X124926190Y-64342453D01*
X125063442Y-64853442D01*
X124552453Y-64716190D01*
X124551527Y-64682811D01*
X124551461Y-64681821D01*
X124547029Y-64640125D01*
X124546878Y-64639105D01*
X124539202Y-64598548D01*
X124538963Y-64597519D01*
X124528043Y-64558103D01*
X124527715Y-64557086D01*
X124513551Y-64518810D01*
X124513139Y-64517828D01*
X124495731Y-64480691D01*
X124495248Y-64479761D01*
X124474596Y-64443765D01*
X124474055Y-64442904D01*
X124450159Y-64408048D01*
X124449577Y-64407265D01*
X124422437Y-64373549D01*
X124421831Y-64372851D01*
X124399813Y-64349244D01*
X124559244Y-64189813D01*
X124582851Y-64211831D01*
%TA.AperFunction,Conductor*%
D24*
G36*
X124582851Y-64211831D02*
G01*
X124583549Y-64212437D01*
X124617265Y-64239577D01*
X124618048Y-64240159D01*
X124652904Y-64264055D01*
X124653765Y-64264596D01*
X124689761Y-64285248D01*
X124690691Y-64285731D01*
X124727828Y-64303139D01*
X124728810Y-64303551D01*
X124767086Y-64317715D01*
X124768103Y-64318043D01*
X124807519Y-64328963D01*
X124808548Y-64329202D01*
X124849105Y-64336878D01*
X124850125Y-64337029D01*
X124891821Y-64341461D01*
X124892811Y-64341527D01*
X124926190Y-64342453D01*
X125063442Y-64853442D01*
X124552453Y-64716190D01*
X124551527Y-64682811D01*
X124551461Y-64681821D01*
X124547029Y-64640125D01*
X124546878Y-64639105D01*
X124539202Y-64598548D01*
X124538963Y-64597519D01*
X124528043Y-64558103D01*
X124527715Y-64557086D01*
X124513551Y-64518810D01*
X124513139Y-64517828D01*
X124495731Y-64480691D01*
X124495248Y-64479761D01*
X124474596Y-64443765D01*
X124474055Y-64442904D01*
X124450159Y-64408048D01*
X124449577Y-64407265D01*
X124422437Y-64373549D01*
X124421831Y-64372851D01*
X124399813Y-64349244D01*
X124559244Y-64189813D01*
X124582851Y-64211831D01*
G37*
%TD.AperFunction*%
%TD*%
D25*
%TO.N,/UV_OUT_B*%
X124262851Y-65751831D02*
X124263549Y-65752437D01*
X124297265Y-65779577D01*
X124298048Y-65780159D01*
X124332904Y-65804055D01*
X124333765Y-65804596D01*
X124369761Y-65825248D01*
X124370691Y-65825731D01*
X124407828Y-65843139D01*
X124408810Y-65843551D01*
X124447086Y-65857715D01*
X124448103Y-65858043D01*
X124487519Y-65868963D01*
X124488548Y-65869202D01*
X124529105Y-65876878D01*
X124530125Y-65877029D01*
X124571821Y-65881461D01*
X124572811Y-65881527D01*
X124606190Y-65882453D01*
X124743442Y-66393442D01*
X124232453Y-66256190D01*
X124231527Y-66222811D01*
X124231461Y-66221821D01*
X124227029Y-66180125D01*
X124226878Y-66179105D01*
X124219202Y-66138548D01*
X124218963Y-66137519D01*
X124208043Y-66098103D01*
X124207715Y-66097086D01*
X124193551Y-66058810D01*
X124193139Y-66057828D01*
X124175731Y-66020691D01*
X124175248Y-66019761D01*
X124154596Y-65983765D01*
X124154055Y-65982904D01*
X124130159Y-65948048D01*
X124129577Y-65947265D01*
X124102437Y-65913549D01*
X124101831Y-65912851D01*
X124079813Y-65889244D01*
X124239244Y-65729813D01*
X124262851Y-65751831D01*
%TA.AperFunction,Conductor*%
D24*
G36*
X124262851Y-65751831D02*
G01*
X124263549Y-65752437D01*
X124297265Y-65779577D01*
X124298048Y-65780159D01*
X124332904Y-65804055D01*
X124333765Y-65804596D01*
X124369761Y-65825248D01*
X124370691Y-65825731D01*
X124407828Y-65843139D01*
X124408810Y-65843551D01*
X124447086Y-65857715D01*
X124448103Y-65858043D01*
X124487519Y-65868963D01*
X124488548Y-65869202D01*
X124529105Y-65876878D01*
X124530125Y-65877029D01*
X124571821Y-65881461D01*
X124572811Y-65881527D01*
X124606190Y-65882453D01*
X124743442Y-66393442D01*
X124232453Y-66256190D01*
X124231527Y-66222811D01*
X124231461Y-66221821D01*
X124227029Y-66180125D01*
X124226878Y-66179105D01*
X124219202Y-66138548D01*
X124218963Y-66137519D01*
X124208043Y-66098103D01*
X124207715Y-66097086D01*
X124193551Y-66058810D01*
X124193139Y-66057828D01*
X124175731Y-66020691D01*
X124175248Y-66019761D01*
X124154596Y-65983765D01*
X124154055Y-65982904D01*
X124130159Y-65948048D01*
X124129577Y-65947265D01*
X124102437Y-65913549D01*
X124101831Y-65912851D01*
X124079813Y-65889244D01*
X124239244Y-65729813D01*
X124262851Y-65751831D01*
G37*
%TD.AperFunction*%
%TD*%
D25*
%TO.N,/#EN*%
X134457174Y-135149053D02*
X134442843Y-135149454D01*
X134441848Y-135149521D01*
X134418682Y-135151998D01*
X134417658Y-135152150D01*
X134395115Y-135156440D01*
X134394084Y-135156681D01*
X134372161Y-135162783D01*
X134371142Y-135163113D01*
X134349842Y-135171028D01*
X134348860Y-135171441D01*
X134328181Y-135181168D01*
X134327254Y-135181652D01*
X134307196Y-135193191D01*
X134306338Y-135193731D01*
X134286902Y-135207082D01*
X134286124Y-135207662D01*
X134267309Y-135222826D01*
X134266613Y-135223429D01*
X134257391Y-135232036D01*
X134097963Y-135072608D01*
X134106570Y-135063385D01*
X134107173Y-135062690D01*
X134122337Y-135043875D01*
X134122917Y-135043097D01*
X134136268Y-135023661D01*
X134136808Y-135022803D01*
X134148347Y-135002745D01*
X134148831Y-135001818D01*
X134158558Y-134981139D01*
X134158971Y-134980157D01*
X134166886Y-134958857D01*
X134167216Y-134957838D01*
X134173318Y-134935915D01*
X134173559Y-134934884D01*
X134177849Y-134912341D01*
X134178001Y-134911317D01*
X134180478Y-134888151D01*
X134180545Y-134887156D01*
X134180946Y-134872826D01*
X134558617Y-134771383D01*
X134457174Y-135149053D01*
%TA.AperFunction,Conductor*%
D24*
G36*
X134457174Y-135149053D02*
G01*
X134442843Y-135149454D01*
X134441848Y-135149521D01*
X134418682Y-135151998D01*
X134417658Y-135152150D01*
X134395115Y-135156440D01*
X134394084Y-135156681D01*
X134372161Y-135162783D01*
X134371142Y-135163113D01*
X134349842Y-135171028D01*
X134348860Y-135171441D01*
X134328181Y-135181168D01*
X134327254Y-135181652D01*
X134307196Y-135193191D01*
X134306338Y-135193731D01*
X134286902Y-135207082D01*
X134286124Y-135207662D01*
X134267309Y-135222826D01*
X134266613Y-135223429D01*
X134257391Y-135232036D01*
X134097963Y-135072608D01*
X134106570Y-135063385D01*
X134107173Y-135062690D01*
X134122337Y-135043875D01*
X134122917Y-135043097D01*
X134136268Y-135023661D01*
X134136808Y-135022803D01*
X134148347Y-135002745D01*
X134148831Y-135001818D01*
X134158558Y-134981139D01*
X134158971Y-134980157D01*
X134166886Y-134958857D01*
X134167216Y-134957838D01*
X134173318Y-134935915D01*
X134173559Y-134934884D01*
X134177849Y-134912341D01*
X134178001Y-134911317D01*
X134180478Y-134888151D01*
X134180545Y-134887156D01*
X134180946Y-134872826D01*
X134558617Y-134771383D01*
X134457174Y-135149053D01*
G37*
%TD.AperFunction*%
%TD*%
D25*
%TO.N,/#EN*%
X111249049Y-130902825D02*
X111249454Y-130917550D01*
X111249514Y-130918485D01*
X111251991Y-130942851D01*
X111252116Y-130943754D01*
X111256406Y-130968297D01*
X111256586Y-130969153D01*
X111262688Y-130993876D01*
X111262915Y-130994680D01*
X111270830Y-131019580D01*
X111271092Y-131020325D01*
X111280819Y-131045404D01*
X111281108Y-131046089D01*
X111292647Y-131071347D01*
X111292954Y-131071972D01*
X111306305Y-131097408D01*
X111306621Y-131097976D01*
X111321785Y-131123591D01*
X111322106Y-131124103D01*
X111333393Y-131141252D01*
X111174354Y-131300291D01*
X111164929Y-131287558D01*
X111164366Y-131286852D01*
X111145551Y-131264888D01*
X111144867Y-131264150D01*
X111125431Y-131244799D01*
X111124607Y-131244048D01*
X111104549Y-131227309D01*
X111103576Y-131226573D01*
X111082897Y-131212446D01*
X111081773Y-131211761D01*
X111060473Y-131200246D01*
X111059211Y-131199651D01*
X111037288Y-131190749D01*
X111035923Y-131190283D01*
X111013380Y-131183993D01*
X111011958Y-131183683D01*
X110988792Y-131180006D01*
X110987369Y-131179862D01*
X110972869Y-131179213D01*
X110871383Y-130801383D01*
X111249049Y-130902825D01*
%TA.AperFunction,Conductor*%
D24*
G36*
X111249049Y-130902825D02*
G01*
X111249454Y-130917550D01*
X111249514Y-130918485D01*
X111251991Y-130942851D01*
X111252116Y-130943754D01*
X111256406Y-130968297D01*
X111256586Y-130969153D01*
X111262688Y-130993876D01*
X111262915Y-130994680D01*
X111270830Y-131019580D01*
X111271092Y-131020325D01*
X111280819Y-131045404D01*
X111281108Y-131046089D01*
X111292647Y-131071347D01*
X111292954Y-131071972D01*
X111306305Y-131097408D01*
X111306621Y-131097976D01*
X111321785Y-131123591D01*
X111322106Y-131124103D01*
X111333393Y-131141252D01*
X111174354Y-131300291D01*
X111164929Y-131287558D01*
X111164366Y-131286852D01*
X111145551Y-131264888D01*
X111144867Y-131264150D01*
X111125431Y-131244799D01*
X111124607Y-131244048D01*
X111104549Y-131227309D01*
X111103576Y-131226573D01*
X111082897Y-131212446D01*
X111081773Y-131211761D01*
X111060473Y-131200246D01*
X111059211Y-131199651D01*
X111037288Y-131190749D01*
X111035923Y-131190283D01*
X111013380Y-131183993D01*
X111011958Y-131183683D01*
X110988792Y-131180006D01*
X110987369Y-131179862D01*
X110972869Y-131179213D01*
X110871383Y-130801383D01*
X111249049Y-130902825D01*
G37*
%TD.AperFunction*%
%TD*%
D25*
%TO.N,/#EN*%
X134759053Y-134872826D02*
X134759454Y-134887156D01*
X134759521Y-134888151D01*
X134761998Y-134911317D01*
X134762150Y-134912341D01*
X134766440Y-134934884D01*
X134766681Y-134935915D01*
X134772783Y-134957838D01*
X134773113Y-134958857D01*
X134781028Y-134980157D01*
X134781441Y-134981139D01*
X134791168Y-135001818D01*
X134791652Y-135002745D01*
X134803191Y-135022803D01*
X134803731Y-135023661D01*
X134817082Y-135043097D01*
X134817662Y-135043875D01*
X134832826Y-135062690D01*
X134833429Y-135063386D01*
X134842036Y-135072609D01*
X134682609Y-135232036D01*
X134673386Y-135223429D01*
X134672690Y-135222826D01*
X134653875Y-135207662D01*
X134653097Y-135207082D01*
X134633661Y-135193731D01*
X134632803Y-135193191D01*
X134612745Y-135181652D01*
X134611818Y-135181168D01*
X134591139Y-135171441D01*
X134590157Y-135171028D01*
X134568857Y-135163113D01*
X134567838Y-135162783D01*
X134545915Y-135156681D01*
X134544884Y-135156440D01*
X134522341Y-135152150D01*
X134521317Y-135151998D01*
X134498151Y-135149521D01*
X134497156Y-135149454D01*
X134482826Y-135149053D01*
X134381383Y-134771383D01*
X134759053Y-134872826D01*
%TA.AperFunction,Conductor*%
D24*
G36*
X134759053Y-134872826D02*
G01*
X134759454Y-134887156D01*
X134759521Y-134888151D01*
X134761998Y-134911317D01*
X134762150Y-134912341D01*
X134766440Y-134934884D01*
X134766681Y-134935915D01*
X134772783Y-134957838D01*
X134773113Y-134958857D01*
X134781028Y-134980157D01*
X134781441Y-134981139D01*
X134791168Y-135001818D01*
X134791652Y-135002745D01*
X134803191Y-135022803D01*
X134803731Y-135023661D01*
X134817082Y-135043097D01*
X134817662Y-135043875D01*
X134832826Y-135062690D01*
X134833429Y-135063386D01*
X134842036Y-135072609D01*
X134682609Y-135232036D01*
X134673386Y-135223429D01*
X134672690Y-135222826D01*
X134653875Y-135207662D01*
X134653097Y-135207082D01*
X134633661Y-135193731D01*
X134632803Y-135193191D01*
X134612745Y-135181652D01*
X134611818Y-135181168D01*
X134591139Y-135171441D01*
X134590157Y-135171028D01*
X134568857Y-135163113D01*
X134567838Y-135162783D01*
X134545915Y-135156681D01*
X134544884Y-135156440D01*
X134522341Y-135152150D01*
X134521317Y-135151998D01*
X134498151Y-135149521D01*
X134497156Y-135149454D01*
X134482826Y-135149053D01*
X134381383Y-134771383D01*
X134759053Y-134872826D01*
G37*
%TD.AperFunction*%
%TD*%
D25*
%TO.N,/#EN*%
X136097036Y-145112391D02*
X136088429Y-145121613D01*
X136087826Y-145122309D01*
X136072662Y-145141124D01*
X136072082Y-145141902D01*
X136058731Y-145161338D01*
X136058191Y-145162196D01*
X136046652Y-145182254D01*
X136046168Y-145183181D01*
X136036441Y-145203860D01*
X136036028Y-145204842D01*
X136028113Y-145226142D01*
X136027783Y-145227161D01*
X136021681Y-145249084D01*
X136021440Y-145250115D01*
X136017150Y-145272658D01*
X136016998Y-145273682D01*
X136014521Y-145296848D01*
X136014454Y-145297843D01*
X136014053Y-145312174D01*
X135636383Y-145413617D01*
X135737826Y-145035946D01*
X135752156Y-145035545D01*
X135753151Y-145035478D01*
X135776317Y-145033001D01*
X135777341Y-145032849D01*
X135799884Y-145028559D01*
X135800915Y-145028318D01*
X135822838Y-145022216D01*
X135823857Y-145021886D01*
X135845157Y-145013971D01*
X135846139Y-145013558D01*
X135866818Y-145003831D01*
X135867745Y-145003347D01*
X135887803Y-144991808D01*
X135888661Y-144991268D01*
X135908097Y-144977917D01*
X135908875Y-144977337D01*
X135927690Y-144962173D01*
X135928385Y-144961570D01*
X135937608Y-144952963D01*
X136097036Y-145112391D01*
%TA.AperFunction,Conductor*%
D24*
G36*
X136097036Y-145112391D02*
G01*
X136088429Y-145121613D01*
X136087826Y-145122309D01*
X136072662Y-145141124D01*
X136072082Y-145141902D01*
X136058731Y-145161338D01*
X136058191Y-145162196D01*
X136046652Y-145182254D01*
X136046168Y-145183181D01*
X136036441Y-145203860D01*
X136036028Y-145204842D01*
X136028113Y-145226142D01*
X136027783Y-145227161D01*
X136021681Y-145249084D01*
X136021440Y-145250115D01*
X136017150Y-145272658D01*
X136016998Y-145273682D01*
X136014521Y-145296848D01*
X136014454Y-145297843D01*
X136014053Y-145312174D01*
X135636383Y-145413617D01*
X135737826Y-145035946D01*
X135752156Y-145035545D01*
X135753151Y-145035478D01*
X135776317Y-145033001D01*
X135777341Y-145032849D01*
X135799884Y-145028559D01*
X135800915Y-145028318D01*
X135822838Y-145022216D01*
X135823857Y-145021886D01*
X135845157Y-145013971D01*
X135846139Y-145013558D01*
X135866818Y-145003831D01*
X135867745Y-145003347D01*
X135887803Y-144991808D01*
X135888661Y-144991268D01*
X135908097Y-144977917D01*
X135908875Y-144977337D01*
X135927690Y-144962173D01*
X135928385Y-144961570D01*
X135937608Y-144952963D01*
X136097036Y-145112391D01*
G37*
%TD.AperFunction*%
%TD*%
D25*
%TO.N,/RTS*%
X70128878Y-107609527D02*
X70129629Y-107610183D01*
X70147761Y-107624812D01*
X70148593Y-107625429D01*
X70167567Y-107638336D01*
X70168467Y-107638894D01*
X70188283Y-107650081D01*
X70189236Y-107650568D01*
X70209894Y-107660033D01*
X70210880Y-107660435D01*
X70232380Y-107668180D01*
X70233378Y-107668494D01*
X70255720Y-107674517D01*
X70256709Y-107674742D01*
X70279894Y-107679045D01*
X70280854Y-107679185D01*
X70304880Y-107681767D01*
X70305798Y-107681832D01*
X70318406Y-107682269D01*
X70318406Y-107907731D01*
X70305798Y-107908167D01*
X70304880Y-107908232D01*
X70280854Y-107910814D01*
X70279894Y-107910954D01*
X70256709Y-107915257D01*
X70255720Y-107915482D01*
X70233378Y-107921505D01*
X70232380Y-107921819D01*
X70210880Y-107929564D01*
X70209894Y-107929966D01*
X70189236Y-107939431D01*
X70188283Y-107939918D01*
X70168467Y-107951105D01*
X70167567Y-107951663D01*
X70148593Y-107964570D01*
X70147761Y-107965187D01*
X70129629Y-107979816D01*
X70128878Y-107980472D01*
X70118461Y-107990323D01*
X69779676Y-107795000D01*
X70118461Y-107599677D01*
X70128878Y-107609527D01*
%TA.AperFunction,Conductor*%
D24*
G36*
X70128878Y-107609527D02*
G01*
X70129629Y-107610183D01*
X70147761Y-107624812D01*
X70148593Y-107625429D01*
X70167567Y-107638336D01*
X70168467Y-107638894D01*
X70188283Y-107650081D01*
X70189236Y-107650568D01*
X70209894Y-107660033D01*
X70210880Y-107660435D01*
X70232380Y-107668180D01*
X70233378Y-107668494D01*
X70255720Y-107674517D01*
X70256709Y-107674742D01*
X70279894Y-107679045D01*
X70280854Y-107679185D01*
X70304880Y-107681767D01*
X70305798Y-107681832D01*
X70318406Y-107682269D01*
X70318406Y-107907731D01*
X70305798Y-107908167D01*
X70304880Y-107908232D01*
X70280854Y-107910814D01*
X70279894Y-107910954D01*
X70256709Y-107915257D01*
X70255720Y-107915482D01*
X70233378Y-107921505D01*
X70232380Y-107921819D01*
X70210880Y-107929564D01*
X70209894Y-107929966D01*
X70189236Y-107939431D01*
X70188283Y-107939918D01*
X70168467Y-107951105D01*
X70167567Y-107951663D01*
X70148593Y-107964570D01*
X70147761Y-107965187D01*
X70129629Y-107979816D01*
X70128878Y-107980472D01*
X70118461Y-107990323D01*
X69779676Y-107795000D01*
X70118461Y-107599677D01*
X70128878Y-107609527D01*
G37*
%TD.AperFunction*%
%TD*%
D25*
%TO.N,/RTS*%
X77796613Y-109561570D02*
X77797309Y-109562173D01*
X77816124Y-109577337D01*
X77816902Y-109577917D01*
X77836338Y-109591268D01*
X77837196Y-109591808D01*
X77857254Y-109603347D01*
X77858181Y-109603831D01*
X77878860Y-109613558D01*
X77879842Y-109613971D01*
X77901142Y-109621886D01*
X77902161Y-109622216D01*
X77924084Y-109628318D01*
X77925115Y-109628559D01*
X77947658Y-109632849D01*
X77948682Y-109633001D01*
X77971848Y-109635478D01*
X77972843Y-109635545D01*
X77987174Y-109635946D01*
X78088617Y-110013617D01*
X77710946Y-109912174D01*
X77710545Y-109897843D01*
X77710478Y-109896848D01*
X77708001Y-109873682D01*
X77707849Y-109872658D01*
X77703559Y-109850115D01*
X77703318Y-109849084D01*
X77697216Y-109827161D01*
X77696886Y-109826142D01*
X77688971Y-109804842D01*
X77688558Y-109803860D01*
X77678831Y-109783181D01*
X77678347Y-109782254D01*
X77666808Y-109762196D01*
X77666268Y-109761338D01*
X77652917Y-109741902D01*
X77652337Y-109741124D01*
X77637173Y-109722309D01*
X77636570Y-109721613D01*
X77627964Y-109712391D01*
X77787391Y-109552964D01*
X77796613Y-109561570D01*
%TA.AperFunction,Conductor*%
D24*
G36*
X77796613Y-109561570D02*
G01*
X77797309Y-109562173D01*
X77816124Y-109577337D01*
X77816902Y-109577917D01*
X77836338Y-109591268D01*
X77837196Y-109591808D01*
X77857254Y-109603347D01*
X77858181Y-109603831D01*
X77878860Y-109613558D01*
X77879842Y-109613971D01*
X77901142Y-109621886D01*
X77902161Y-109622216D01*
X77924084Y-109628318D01*
X77925115Y-109628559D01*
X77947658Y-109632849D01*
X77948682Y-109633001D01*
X77971848Y-109635478D01*
X77972843Y-109635545D01*
X77987174Y-109635946D01*
X78088617Y-110013617D01*
X77710946Y-109912174D01*
X77710545Y-109897843D01*
X77710478Y-109896848D01*
X77708001Y-109873682D01*
X77707849Y-109872658D01*
X77703559Y-109850115D01*
X77703318Y-109849084D01*
X77697216Y-109827161D01*
X77696886Y-109826142D01*
X77688971Y-109804842D01*
X77688558Y-109803860D01*
X77678831Y-109783181D01*
X77678347Y-109782254D01*
X77666808Y-109762196D01*
X77666268Y-109761338D01*
X77652917Y-109741902D01*
X77652337Y-109741124D01*
X77637173Y-109722309D01*
X77636570Y-109721613D01*
X77627964Y-109712391D01*
X77787391Y-109552964D01*
X77796613Y-109561570D01*
G37*
%TD.AperFunction*%
%TD*%
D25*
%TO.N,/IO0*%
X101913878Y-123234527D02*
X101914629Y-123235183D01*
X101932761Y-123249812D01*
X101933593Y-123250429D01*
X101952567Y-123263336D01*
X101953467Y-123263894D01*
X101973283Y-123275081D01*
X101974236Y-123275568D01*
X101994894Y-123285033D01*
X101995880Y-123285435D01*
X102017380Y-123293180D01*
X102018378Y-123293494D01*
X102040720Y-123299517D01*
X102041709Y-123299742D01*
X102064894Y-123304045D01*
X102065854Y-123304185D01*
X102089880Y-123306767D01*
X102090798Y-123306832D01*
X102103406Y-123307269D01*
X102103406Y-123532731D01*
X102090798Y-123533167D01*
X102089880Y-123533232D01*
X102065854Y-123535814D01*
X102064894Y-123535954D01*
X102041709Y-123540257D01*
X102040720Y-123540482D01*
X102018378Y-123546505D01*
X102017380Y-123546819D01*
X101995880Y-123554564D01*
X101994894Y-123554966D01*
X101974236Y-123564431D01*
X101973283Y-123564918D01*
X101953467Y-123576105D01*
X101952567Y-123576663D01*
X101933593Y-123589570D01*
X101932761Y-123590187D01*
X101914629Y-123604816D01*
X101913878Y-123605472D01*
X101903461Y-123615323D01*
X101564676Y-123420000D01*
X101903461Y-123224677D01*
X101913878Y-123234527D01*
%TA.AperFunction,Conductor*%
D24*
G36*
X101913878Y-123234527D02*
G01*
X101914629Y-123235183D01*
X101932761Y-123249812D01*
X101933593Y-123250429D01*
X101952567Y-123263336D01*
X101953467Y-123263894D01*
X101973283Y-123275081D01*
X101974236Y-123275568D01*
X101994894Y-123285033D01*
X101995880Y-123285435D01*
X102017380Y-123293180D01*
X102018378Y-123293494D01*
X102040720Y-123299517D01*
X102041709Y-123299742D01*
X102064894Y-123304045D01*
X102065854Y-123304185D01*
X102089880Y-123306767D01*
X102090798Y-123306832D01*
X102103406Y-123307269D01*
X102103406Y-123532731D01*
X102090798Y-123533167D01*
X102089880Y-123533232D01*
X102065854Y-123535814D01*
X102064894Y-123535954D01*
X102041709Y-123540257D01*
X102040720Y-123540482D01*
X102018378Y-123546505D01*
X102017380Y-123546819D01*
X101995880Y-123554564D01*
X101994894Y-123554966D01*
X101974236Y-123564431D01*
X101973283Y-123564918D01*
X101953467Y-123576105D01*
X101952567Y-123576663D01*
X101933593Y-123589570D01*
X101932761Y-123590187D01*
X101914629Y-123604816D01*
X101913878Y-123605472D01*
X101903461Y-123615323D01*
X101564676Y-123420000D01*
X101903461Y-123224677D01*
X101913878Y-123234527D01*
G37*
%TD.AperFunction*%
%TD*%
D25*
%TO.N,/IO0*%
X116087174Y-118479053D02*
X116072843Y-118479454D01*
X116071848Y-118479521D01*
X116048682Y-118481998D01*
X116047658Y-118482150D01*
X116025115Y-118486440D01*
X116024084Y-118486681D01*
X116002161Y-118492783D01*
X116001142Y-118493113D01*
X115979842Y-118501028D01*
X115978860Y-118501441D01*
X115958181Y-118511168D01*
X115957254Y-118511652D01*
X115937196Y-118523191D01*
X115936338Y-118523731D01*
X115916902Y-118537082D01*
X115916124Y-118537662D01*
X115897309Y-118552826D01*
X115896613Y-118553429D01*
X115887391Y-118562036D01*
X115727963Y-118402608D01*
X115736570Y-118393385D01*
X115737173Y-118392690D01*
X115752337Y-118373875D01*
X115752917Y-118373097D01*
X115766268Y-118353661D01*
X115766808Y-118352803D01*
X115778347Y-118332745D01*
X115778831Y-118331818D01*
X115788558Y-118311139D01*
X115788971Y-118310157D01*
X115796886Y-118288857D01*
X115797216Y-118287838D01*
X115803318Y-118265915D01*
X115803559Y-118264884D01*
X115807849Y-118242341D01*
X115808001Y-118241317D01*
X115810478Y-118218151D01*
X115810545Y-118217156D01*
X115810946Y-118202826D01*
X116188617Y-118101383D01*
X116087174Y-118479053D01*
%TA.AperFunction,Conductor*%
D24*
G36*
X116087174Y-118479053D02*
G01*
X116072843Y-118479454D01*
X116071848Y-118479521D01*
X116048682Y-118481998D01*
X116047658Y-118482150D01*
X116025115Y-118486440D01*
X116024084Y-118486681D01*
X116002161Y-118492783D01*
X116001142Y-118493113D01*
X115979842Y-118501028D01*
X115978860Y-118501441D01*
X115958181Y-118511168D01*
X115957254Y-118511652D01*
X115937196Y-118523191D01*
X115936338Y-118523731D01*
X115916902Y-118537082D01*
X115916124Y-118537662D01*
X115897309Y-118552826D01*
X115896613Y-118553429D01*
X115887391Y-118562036D01*
X115727963Y-118402608D01*
X115736570Y-118393385D01*
X115737173Y-118392690D01*
X115752337Y-118373875D01*
X115752917Y-118373097D01*
X115766268Y-118353661D01*
X115766808Y-118352803D01*
X115778347Y-118332745D01*
X115778831Y-118331818D01*
X115788558Y-118311139D01*
X115788971Y-118310157D01*
X115796886Y-118288857D01*
X115797216Y-118287838D01*
X115803318Y-118265915D01*
X115803559Y-118264884D01*
X115807849Y-118242341D01*
X115808001Y-118241317D01*
X115810478Y-118218151D01*
X115810545Y-118217156D01*
X115810946Y-118202826D01*
X116188617Y-118101383D01*
X116087174Y-118479053D01*
G37*
%TD.AperFunction*%
%TD*%
D25*
%TO.N,/DTR*%
X70113878Y-108879527D02*
X70114629Y-108880183D01*
X70132761Y-108894812D01*
X70133593Y-108895429D01*
X70152567Y-108908336D01*
X70153467Y-108908894D01*
X70173283Y-108920081D01*
X70174236Y-108920568D01*
X70194894Y-108930033D01*
X70195880Y-108930435D01*
X70217380Y-108938180D01*
X70218378Y-108938494D01*
X70240720Y-108944517D01*
X70241709Y-108944742D01*
X70264894Y-108949045D01*
X70265854Y-108949185D01*
X70289880Y-108951767D01*
X70290798Y-108951832D01*
X70303406Y-108952269D01*
X70303406Y-109177731D01*
X70290798Y-109178167D01*
X70289880Y-109178232D01*
X70265854Y-109180814D01*
X70264894Y-109180954D01*
X70241709Y-109185257D01*
X70240720Y-109185482D01*
X70218378Y-109191505D01*
X70217380Y-109191819D01*
X70195880Y-109199564D01*
X70194894Y-109199966D01*
X70174236Y-109209431D01*
X70173283Y-109209918D01*
X70153467Y-109221105D01*
X70152567Y-109221663D01*
X70133593Y-109234570D01*
X70132761Y-109235187D01*
X70114629Y-109249816D01*
X70113878Y-109250472D01*
X70103461Y-109260323D01*
X69764676Y-109065000D01*
X70103461Y-108869677D01*
X70113878Y-108879527D01*
%TA.AperFunction,Conductor*%
D24*
G36*
X70113878Y-108879527D02*
G01*
X70114629Y-108880183D01*
X70132761Y-108894812D01*
X70133593Y-108895429D01*
X70152567Y-108908336D01*
X70153467Y-108908894D01*
X70173283Y-108920081D01*
X70174236Y-108920568D01*
X70194894Y-108930033D01*
X70195880Y-108930435D01*
X70217380Y-108938180D01*
X70218378Y-108938494D01*
X70240720Y-108944517D01*
X70241709Y-108944742D01*
X70264894Y-108949045D01*
X70265854Y-108949185D01*
X70289880Y-108951767D01*
X70290798Y-108951832D01*
X70303406Y-108952269D01*
X70303406Y-109177731D01*
X70290798Y-109178167D01*
X70289880Y-109178232D01*
X70265854Y-109180814D01*
X70264894Y-109180954D01*
X70241709Y-109185257D01*
X70240720Y-109185482D01*
X70218378Y-109191505D01*
X70217380Y-109191819D01*
X70195880Y-109199564D01*
X70194894Y-109199966D01*
X70174236Y-109209431D01*
X70173283Y-109209918D01*
X70153467Y-109221105D01*
X70152567Y-109221663D01*
X70133593Y-109234570D01*
X70132761Y-109235187D01*
X70114629Y-109249816D01*
X70113878Y-109250472D01*
X70103461Y-109260323D01*
X69764676Y-109065000D01*
X70103461Y-108869677D01*
X70113878Y-108879527D01*
G37*
%TD.AperFunction*%
%TD*%
D25*
%TO.N,/DTR*%
X76246613Y-109811570D02*
X76247309Y-109812173D01*
X76266124Y-109827337D01*
X76266902Y-109827917D01*
X76286338Y-109841268D01*
X76287196Y-109841808D01*
X76307254Y-109853347D01*
X76308181Y-109853831D01*
X76328860Y-109863558D01*
X76329842Y-109863971D01*
X76351142Y-109871886D01*
X76352161Y-109872216D01*
X76374084Y-109878318D01*
X76375115Y-109878559D01*
X76397658Y-109882849D01*
X76398682Y-109883001D01*
X76421848Y-109885478D01*
X76422843Y-109885545D01*
X76437174Y-109885946D01*
X76538617Y-110263617D01*
X76160946Y-110162174D01*
X76160545Y-110147843D01*
X76160478Y-110146848D01*
X76158001Y-110123682D01*
X76157849Y-110122658D01*
X76153559Y-110100115D01*
X76153318Y-110099084D01*
X76147216Y-110077161D01*
X76146886Y-110076142D01*
X76138971Y-110054842D01*
X76138558Y-110053860D01*
X76128831Y-110033181D01*
X76128347Y-110032254D01*
X76116808Y-110012196D01*
X76116268Y-110011338D01*
X76102917Y-109991902D01*
X76102337Y-109991124D01*
X76087173Y-109972309D01*
X76086570Y-109971613D01*
X76077964Y-109962391D01*
X76237391Y-109802964D01*
X76246613Y-109811570D01*
%TA.AperFunction,Conductor*%
D24*
G36*
X76246613Y-109811570D02*
G01*
X76247309Y-109812173D01*
X76266124Y-109827337D01*
X76266902Y-109827917D01*
X76286338Y-109841268D01*
X76287196Y-109841808D01*
X76307254Y-109853347D01*
X76308181Y-109853831D01*
X76328860Y-109863558D01*
X76329842Y-109863971D01*
X76351142Y-109871886D01*
X76352161Y-109872216D01*
X76374084Y-109878318D01*
X76375115Y-109878559D01*
X76397658Y-109882849D01*
X76398682Y-109883001D01*
X76421848Y-109885478D01*
X76422843Y-109885545D01*
X76437174Y-109885946D01*
X76538617Y-110263617D01*
X76160946Y-110162174D01*
X76160545Y-110147843D01*
X76160478Y-110146848D01*
X76158001Y-110123682D01*
X76157849Y-110122658D01*
X76153559Y-110100115D01*
X76153318Y-110099084D01*
X76147216Y-110077161D01*
X76146886Y-110076142D01*
X76138971Y-110054842D01*
X76138558Y-110053860D01*
X76128831Y-110033181D01*
X76128347Y-110032254D01*
X76116808Y-110012196D01*
X76116268Y-110011338D01*
X76102917Y-109991902D01*
X76102337Y-109991124D01*
X76087173Y-109972309D01*
X76086570Y-109971613D01*
X76077964Y-109962391D01*
X76237391Y-109802964D01*
X76246613Y-109811570D01*
G37*
%TD.AperFunction*%
%TD*%
D25*
%TO.N,Net-(R1-Pad1)*%
X68890324Y-136235000D02*
X68549205Y-136431668D01*
X68542529Y-136429828D01*
X68541247Y-136429545D01*
X68531332Y-136427888D01*
X68530633Y-136427791D01*
X68517619Y-136426354D01*
X68517180Y-136426313D01*
X68501066Y-136425098D01*
X68500768Y-136425079D01*
X68481555Y-136424084D01*
X68481338Y-136424075D01*
X68459025Y-136423302D01*
X68458861Y-136423297D01*
X68433449Y-136422744D01*
X68433320Y-136422742D01*
X68404808Y-136422411D01*
X68404705Y-136422410D01*
X68385750Y-136422344D01*
X68385750Y-136047656D01*
X68404706Y-136047589D01*
X68404808Y-136047588D01*
X68433320Y-136047257D01*
X68433449Y-136047255D01*
X68458861Y-136046702D01*
X68459025Y-136046697D01*
X68481338Y-136045924D01*
X68481554Y-136045915D01*
X68500767Y-136044921D01*
X68501067Y-136044902D01*
X68517181Y-136043686D01*
X68517619Y-136043645D01*
X68530633Y-136042208D01*
X68531332Y-136042111D01*
X68541247Y-136040454D01*
X68542529Y-136040171D01*
X68549204Y-136038331D01*
X68890324Y-136235000D01*
%TA.AperFunction,Conductor*%
D24*
G36*
X68890324Y-136235000D02*
G01*
X68549205Y-136431668D01*
X68542529Y-136429828D01*
X68541247Y-136429545D01*
X68531332Y-136427888D01*
X68530633Y-136427791D01*
X68517619Y-136426354D01*
X68517180Y-136426313D01*
X68501066Y-136425098D01*
X68500768Y-136425079D01*
X68481555Y-136424084D01*
X68481338Y-136424075D01*
X68459025Y-136423302D01*
X68458861Y-136423297D01*
X68433449Y-136422744D01*
X68433320Y-136422742D01*
X68404808Y-136422411D01*
X68404705Y-136422410D01*
X68385750Y-136422344D01*
X68385750Y-136047656D01*
X68404706Y-136047589D01*
X68404808Y-136047588D01*
X68433320Y-136047257D01*
X68433449Y-136047255D01*
X68458861Y-136046702D01*
X68459025Y-136046697D01*
X68481338Y-136045924D01*
X68481554Y-136045915D01*
X68500767Y-136044921D01*
X68501067Y-136044902D01*
X68517181Y-136043686D01*
X68517619Y-136043645D01*
X68530633Y-136042208D01*
X68531332Y-136042111D01*
X68541247Y-136040454D01*
X68542529Y-136040171D01*
X68549204Y-136038331D01*
X68890324Y-136235000D01*
G37*
%TD.AperFunction*%
%TD*%
D25*
%TO.N,Net-(R1-Pad1)*%
X58586475Y-124541655D02*
X58580453Y-124545075D01*
X58579348Y-124545780D01*
X58571165Y-124551619D01*
X58570601Y-124552046D01*
X58560383Y-124560233D01*
X58560045Y-124560513D01*
X58547791Y-124571047D01*
X58547566Y-124571246D01*
X58533277Y-124584129D01*
X58533118Y-124584275D01*
X58516793Y-124599505D01*
X58516673Y-124599618D01*
X58498314Y-124617197D01*
X58498222Y-124617286D01*
X58477826Y-124637212D01*
X58477752Y-124637285D01*
X58464302Y-124650642D01*
X58199358Y-124385698D01*
X58212715Y-124372247D01*
X58212787Y-124372173D01*
X58232713Y-124351778D01*
X58232802Y-124351686D01*
X58250381Y-124333326D01*
X58250494Y-124333206D01*
X58265724Y-124316881D01*
X58265870Y-124316722D01*
X58278753Y-124302433D01*
X58278951Y-124302208D01*
X58289486Y-124289954D01*
X58289768Y-124289615D01*
X58297954Y-124279397D01*
X58298380Y-124278834D01*
X58304219Y-124270651D01*
X58304924Y-124269546D01*
X58308343Y-124263525D01*
X58688617Y-124161383D01*
X58586475Y-124541655D01*
%TA.AperFunction,Conductor*%
D24*
G36*
X58586475Y-124541655D02*
G01*
X58580453Y-124545075D01*
X58579348Y-124545780D01*
X58571165Y-124551619D01*
X58570601Y-124552046D01*
X58560383Y-124560233D01*
X58560045Y-124560513D01*
X58547791Y-124571047D01*
X58547566Y-124571246D01*
X58533277Y-124584129D01*
X58533118Y-124584275D01*
X58516793Y-124599505D01*
X58516673Y-124599618D01*
X58498314Y-124617197D01*
X58498222Y-124617286D01*
X58477826Y-124637212D01*
X58477752Y-124637285D01*
X58464302Y-124650642D01*
X58199358Y-124385698D01*
X58212715Y-124372247D01*
X58212787Y-124372173D01*
X58232713Y-124351778D01*
X58232802Y-124351686D01*
X58250381Y-124333326D01*
X58250494Y-124333206D01*
X58265724Y-124316881D01*
X58265870Y-124316722D01*
X58278753Y-124302433D01*
X58278951Y-124302208D01*
X58289486Y-124289954D01*
X58289768Y-124289615D01*
X58297954Y-124279397D01*
X58298380Y-124278834D01*
X58304219Y-124270651D01*
X58304924Y-124269546D01*
X58308343Y-124263525D01*
X58688617Y-124161383D01*
X58586475Y-124541655D01*
G37*
%TD.AperFunction*%
%TD*%
D25*
%TO.N,Net-(R4-Pad1)*%
X69912752Y-135872715D02*
X69912826Y-135872787D01*
X69933222Y-135892713D01*
X69933314Y-135892802D01*
X69951673Y-135910381D01*
X69951793Y-135910494D01*
X69968118Y-135925724D01*
X69968277Y-135925870D01*
X69982566Y-135938753D01*
X69982791Y-135938951D01*
X69995045Y-135949486D01*
X69995384Y-135949768D01*
X70005602Y-135957954D01*
X70006165Y-135958380D01*
X70014348Y-135964219D01*
X70015453Y-135964924D01*
X70021475Y-135968344D01*
X70123617Y-136348617D01*
X69743344Y-136246475D01*
X69739924Y-136240453D01*
X69739219Y-136239348D01*
X69733380Y-136231165D01*
X69732954Y-136230602D01*
X69724768Y-136220384D01*
X69724486Y-136220045D01*
X69713951Y-136207791D01*
X69713753Y-136207566D01*
X69700870Y-136193277D01*
X69700724Y-136193118D01*
X69685494Y-136176793D01*
X69685381Y-136176673D01*
X69667802Y-136158314D01*
X69667713Y-136158222D01*
X69647787Y-136137826D01*
X69647715Y-136137752D01*
X69634358Y-136124302D01*
X69899302Y-135859358D01*
X69912752Y-135872715D01*
%TA.AperFunction,Conductor*%
D24*
G36*
X69912752Y-135872715D02*
G01*
X69912826Y-135872787D01*
X69933222Y-135892713D01*
X69933314Y-135892802D01*
X69951673Y-135910381D01*
X69951793Y-135910494D01*
X69968118Y-135925724D01*
X69968277Y-135925870D01*
X69982566Y-135938753D01*
X69982791Y-135938951D01*
X69995045Y-135949486D01*
X69995384Y-135949768D01*
X70005602Y-135957954D01*
X70006165Y-135958380D01*
X70014348Y-135964219D01*
X70015453Y-135964924D01*
X70021475Y-135968344D01*
X70123617Y-136348617D01*
X69743344Y-136246475D01*
X69739924Y-136240453D01*
X69739219Y-136239348D01*
X69733380Y-136231165D01*
X69732954Y-136230602D01*
X69724768Y-136220384D01*
X69724486Y-136220045D01*
X69713951Y-136207791D01*
X69713753Y-136207566D01*
X69700870Y-136193277D01*
X69700724Y-136193118D01*
X69685494Y-136176793D01*
X69685381Y-136176673D01*
X69667802Y-136158314D01*
X69667713Y-136158222D01*
X69647787Y-136137826D01*
X69647715Y-136137752D01*
X69634358Y-136124302D01*
X69899302Y-135859358D01*
X69912752Y-135872715D01*
G37*
%TD.AperFunction*%
%TD*%
D25*
%TO.N,Net-(R4-Pad1)*%
X59971668Y-128940795D02*
X59969828Y-128947470D01*
X59969545Y-128948752D01*
X59967888Y-128958667D01*
X59967791Y-128959366D01*
X59966354Y-128972380D01*
X59966313Y-128972819D01*
X59965098Y-128988933D01*
X59965079Y-128989231D01*
X59964084Y-129008444D01*
X59964075Y-129008661D01*
X59963302Y-129030974D01*
X59963297Y-129031138D01*
X59962744Y-129056550D01*
X59962742Y-129056679D01*
X59962411Y-129085191D01*
X59962410Y-129085294D01*
X59962344Y-129104250D01*
X59587656Y-129104250D01*
X59587589Y-129085293D01*
X59587588Y-129085191D01*
X59587257Y-129056679D01*
X59587255Y-129056550D01*
X59586702Y-129031138D01*
X59586697Y-129030974D01*
X59585924Y-129008661D01*
X59585915Y-129008445D01*
X59584921Y-128989232D01*
X59584902Y-128988932D01*
X59583686Y-128972818D01*
X59583645Y-128972380D01*
X59582208Y-128959366D01*
X59582111Y-128958667D01*
X59580454Y-128948752D01*
X59580171Y-128947470D01*
X59578331Y-128940796D01*
X59775000Y-128599676D01*
X59971668Y-128940795D01*
%TA.AperFunction,Conductor*%
D24*
G36*
X59971668Y-128940795D02*
G01*
X59969828Y-128947470D01*
X59969545Y-128948752D01*
X59967888Y-128958667D01*
X59967791Y-128959366D01*
X59966354Y-128972380D01*
X59966313Y-128972819D01*
X59965098Y-128988933D01*
X59965079Y-128989231D01*
X59964084Y-129008444D01*
X59964075Y-129008661D01*
X59963302Y-129030974D01*
X59963297Y-129031138D01*
X59962744Y-129056550D01*
X59962742Y-129056679D01*
X59962411Y-129085191D01*
X59962410Y-129085294D01*
X59962344Y-129104250D01*
X59587656Y-129104250D01*
X59587589Y-129085293D01*
X59587588Y-129085191D01*
X59587257Y-129056679D01*
X59587255Y-129056550D01*
X59586702Y-129031138D01*
X59586697Y-129030974D01*
X59585924Y-129008661D01*
X59585915Y-129008445D01*
X59584921Y-128989232D01*
X59584902Y-128988932D01*
X59583686Y-128972818D01*
X59583645Y-128972380D01*
X59582208Y-128959366D01*
X59582111Y-128958667D01*
X59580454Y-128948752D01*
X59580171Y-128947470D01*
X59578331Y-128940796D01*
X59775000Y-128599676D01*
X59971668Y-128940795D01*
G37*
%TD.AperFunction*%
%TD*%
D25*
%TO.N,/KEY4*%
X126395391Y-133281651D02*
X126395645Y-133281897D01*
X126474199Y-133355847D01*
X126474509Y-133356130D01*
X126548582Y-133421380D01*
X126548968Y-133421706D01*
X126618559Y-133478256D01*
X126619047Y-133478634D01*
X126684157Y-133526484D01*
X126684789Y-133526919D01*
X126745416Y-133566069D01*
X126746250Y-133566564D01*
X126802396Y-133597014D01*
X126803523Y-133597555D01*
X126855188Y-133619305D01*
X126856730Y-133619840D01*
X126903912Y-133632890D01*
X126906011Y-133633285D01*
X126937300Y-133636472D01*
X126937300Y-133863528D01*
X126906011Y-133866715D01*
X126903912Y-133867110D01*
X126856730Y-133880160D01*
X126855188Y-133880695D01*
X126803523Y-133902445D01*
X126802396Y-133902986D01*
X126746250Y-133933436D01*
X126745416Y-133933931D01*
X126684789Y-133973081D01*
X126684157Y-133973516D01*
X126619047Y-134021366D01*
X126618559Y-134021744D01*
X126548968Y-134078294D01*
X126548582Y-134078620D01*
X126474509Y-134143870D01*
X126474199Y-134144153D01*
X126395645Y-134218103D01*
X126395391Y-134218349D01*
X126319240Y-134294146D01*
X125375426Y-133750000D01*
X126319240Y-133205854D01*
X126395391Y-133281651D01*
%TA.AperFunction,Conductor*%
D24*
G36*
X126395391Y-133281651D02*
G01*
X126395645Y-133281897D01*
X126474199Y-133355847D01*
X126474509Y-133356130D01*
X126548582Y-133421380D01*
X126548968Y-133421706D01*
X126618559Y-133478256D01*
X126619047Y-133478634D01*
X126684157Y-133526484D01*
X126684789Y-133526919D01*
X126745416Y-133566069D01*
X126746250Y-133566564D01*
X126802396Y-133597014D01*
X126803523Y-133597555D01*
X126855188Y-133619305D01*
X126856730Y-133619840D01*
X126903912Y-133632890D01*
X126906011Y-133633285D01*
X126937300Y-133636472D01*
X126937300Y-133863528D01*
X126906011Y-133866715D01*
X126903912Y-133867110D01*
X126856730Y-133880160D01*
X126855188Y-133880695D01*
X126803523Y-133902445D01*
X126802396Y-133902986D01*
X126746250Y-133933436D01*
X126745416Y-133933931D01*
X126684789Y-133973081D01*
X126684157Y-133973516D01*
X126619047Y-134021366D01*
X126618559Y-134021744D01*
X126548968Y-134078294D01*
X126548582Y-134078620D01*
X126474509Y-134143870D01*
X126474199Y-134144153D01*
X126395645Y-134218103D01*
X126395391Y-134218349D01*
X126319240Y-134294146D01*
X125375426Y-133750000D01*
X126319240Y-133205854D01*
X126395391Y-133281651D01*
G37*
%TD.AperFunction*%
%TD*%
D25*
%TO.N,/KEY4*%
X134655323Y-118673461D02*
X134645472Y-118683878D01*
X134644816Y-118684629D01*
X134630187Y-118702761D01*
X134629570Y-118703593D01*
X134616663Y-118722567D01*
X134616105Y-118723467D01*
X134604918Y-118743283D01*
X134604431Y-118744236D01*
X134594966Y-118764894D01*
X134594564Y-118765880D01*
X134586819Y-118787380D01*
X134586505Y-118788378D01*
X134580482Y-118810720D01*
X134580257Y-118811709D01*
X134575954Y-118834894D01*
X134575814Y-118835854D01*
X134573232Y-118859880D01*
X134573167Y-118860798D01*
X134572731Y-118873406D01*
X134347269Y-118873406D01*
X134346832Y-118860798D01*
X134346767Y-118859880D01*
X134344185Y-118835854D01*
X134344045Y-118834894D01*
X134339742Y-118811709D01*
X134339517Y-118810720D01*
X134333494Y-118788378D01*
X134333180Y-118787380D01*
X134325435Y-118765880D01*
X134325033Y-118764894D01*
X134315568Y-118744236D01*
X134315081Y-118743283D01*
X134303894Y-118723467D01*
X134303336Y-118722567D01*
X134290429Y-118703593D01*
X134289812Y-118702761D01*
X134275183Y-118684629D01*
X134274527Y-118683878D01*
X134264677Y-118673461D01*
X134460000Y-118334676D01*
X134655323Y-118673461D01*
%TA.AperFunction,Conductor*%
D24*
G36*
X134655323Y-118673461D02*
G01*
X134645472Y-118683878D01*
X134644816Y-118684629D01*
X134630187Y-118702761D01*
X134629570Y-118703593D01*
X134616663Y-118722567D01*
X134616105Y-118723467D01*
X134604918Y-118743283D01*
X134604431Y-118744236D01*
X134594966Y-118764894D01*
X134594564Y-118765880D01*
X134586819Y-118787380D01*
X134586505Y-118788378D01*
X134580482Y-118810720D01*
X134580257Y-118811709D01*
X134575954Y-118834894D01*
X134575814Y-118835854D01*
X134573232Y-118859880D01*
X134573167Y-118860798D01*
X134572731Y-118873406D01*
X134347269Y-118873406D01*
X134346832Y-118860798D01*
X134346767Y-118859880D01*
X134344185Y-118835854D01*
X134344045Y-118834894D01*
X134339742Y-118811709D01*
X134339517Y-118810720D01*
X134333494Y-118788378D01*
X134333180Y-118787380D01*
X134325435Y-118765880D01*
X134325033Y-118764894D01*
X134315568Y-118744236D01*
X134315081Y-118743283D01*
X134303894Y-118723467D01*
X134303336Y-118722567D01*
X134290429Y-118703593D01*
X134289812Y-118702761D01*
X134275183Y-118684629D01*
X134274527Y-118683878D01*
X134264677Y-118673461D01*
X134460000Y-118334676D01*
X134655323Y-118673461D01*
G37*
%TD.AperFunction*%
%TD*%
D25*
%TO.N,/KEY3*%
X126537525Y-114767810D02*
X126540574Y-114878545D01*
X126540639Y-114879531D01*
X126553008Y-114996481D01*
X126553158Y-114997497D01*
X126574585Y-115111201D01*
X126574823Y-115112228D01*
X126605308Y-115222687D01*
X126605635Y-115223703D01*
X126645178Y-115330916D01*
X126645588Y-115331899D01*
X126694189Y-115435866D01*
X126694672Y-115436798D01*
X126752331Y-115537520D01*
X126752873Y-115538383D01*
X126819590Y-115635859D01*
X126820173Y-115636645D01*
X126895948Y-115730876D01*
X126896556Y-115731578D01*
X126973026Y-115813594D01*
X126813594Y-115973026D01*
X126731578Y-115896556D01*
X126730876Y-115895948D01*
X126636645Y-115820173D01*
X126635859Y-115819590D01*
X126538383Y-115752873D01*
X126537520Y-115752331D01*
X126436798Y-115694672D01*
X126435866Y-115694189D01*
X126331899Y-115645588D01*
X126330916Y-115645178D01*
X126223703Y-115605635D01*
X126222687Y-115605308D01*
X126112228Y-115574823D01*
X126111201Y-115574585D01*
X125997497Y-115553158D01*
X125996481Y-115553008D01*
X125879531Y-115540639D01*
X125878545Y-115540574D01*
X125767810Y-115537525D01*
X125485137Y-114485137D01*
X126537525Y-114767810D01*
%TA.AperFunction,Conductor*%
D24*
G36*
X126537525Y-114767810D02*
G01*
X126540574Y-114878545D01*
X126540639Y-114879531D01*
X126553008Y-114996481D01*
X126553158Y-114997497D01*
X126574585Y-115111201D01*
X126574823Y-115112228D01*
X126605308Y-115222687D01*
X126605635Y-115223703D01*
X126645178Y-115330916D01*
X126645588Y-115331899D01*
X126694189Y-115435866D01*
X126694672Y-115436798D01*
X126752331Y-115537520D01*
X126752873Y-115538383D01*
X126819590Y-115635859D01*
X126820173Y-115636645D01*
X126895948Y-115730876D01*
X126896556Y-115731578D01*
X126973026Y-115813594D01*
X126813594Y-115973026D01*
X126731578Y-115896556D01*
X126730876Y-115895948D01*
X126636645Y-115820173D01*
X126635859Y-115819590D01*
X126538383Y-115752873D01*
X126537520Y-115752331D01*
X126436798Y-115694672D01*
X126435866Y-115694189D01*
X126331899Y-115645588D01*
X126330916Y-115645178D01*
X126223703Y-115605635D01*
X126222687Y-115605308D01*
X126112228Y-115574823D01*
X126111201Y-115574585D01*
X125997497Y-115553158D01*
X125996481Y-115553008D01*
X125879531Y-115540639D01*
X125878545Y-115540574D01*
X125767810Y-115537525D01*
X125485137Y-114485137D01*
X126537525Y-114767810D01*
G37*
%TD.AperFunction*%
%TD*%
D25*
%TO.N,/KEY3*%
X130785324Y-118640000D02*
X130446539Y-118835323D01*
X130436121Y-118825472D01*
X130435370Y-118824816D01*
X130417238Y-118810187D01*
X130416406Y-118809570D01*
X130397432Y-118796663D01*
X130396532Y-118796105D01*
X130376716Y-118784918D01*
X130375763Y-118784431D01*
X130355105Y-118774966D01*
X130354119Y-118774564D01*
X130332619Y-118766819D01*
X130331621Y-118766505D01*
X130309279Y-118760482D01*
X130308290Y-118760257D01*
X130285105Y-118755954D01*
X130284145Y-118755814D01*
X130260119Y-118753232D01*
X130259201Y-118753167D01*
X130246594Y-118752731D01*
X130246594Y-118527268D01*
X130259201Y-118526832D01*
X130260119Y-118526767D01*
X130284145Y-118524185D01*
X130285105Y-118524045D01*
X130308290Y-118519742D01*
X130309279Y-118519517D01*
X130331621Y-118513494D01*
X130332619Y-118513180D01*
X130354119Y-118505435D01*
X130355105Y-118505033D01*
X130375763Y-118495568D01*
X130376716Y-118495081D01*
X130396532Y-118483894D01*
X130397432Y-118483336D01*
X130416406Y-118470429D01*
X130417238Y-118469812D01*
X130435370Y-118455183D01*
X130436120Y-118454527D01*
X130446538Y-118444677D01*
X130785324Y-118640000D01*
%TA.AperFunction,Conductor*%
D24*
G36*
X130785324Y-118640000D02*
G01*
X130446539Y-118835323D01*
X130436121Y-118825472D01*
X130435370Y-118824816D01*
X130417238Y-118810187D01*
X130416406Y-118809570D01*
X130397432Y-118796663D01*
X130396532Y-118796105D01*
X130376716Y-118784918D01*
X130375763Y-118784431D01*
X130355105Y-118774966D01*
X130354119Y-118774564D01*
X130332619Y-118766819D01*
X130331621Y-118766505D01*
X130309279Y-118760482D01*
X130308290Y-118760257D01*
X130285105Y-118755954D01*
X130284145Y-118755814D01*
X130260119Y-118753232D01*
X130259201Y-118753167D01*
X130246594Y-118752731D01*
X130246594Y-118527268D01*
X130259201Y-118526832D01*
X130260119Y-118526767D01*
X130284145Y-118524185D01*
X130285105Y-118524045D01*
X130308290Y-118519742D01*
X130309279Y-118519517D01*
X130331621Y-118513494D01*
X130332619Y-118513180D01*
X130354119Y-118505435D01*
X130355105Y-118505033D01*
X130375763Y-118495568D01*
X130376716Y-118495081D01*
X130396532Y-118483894D01*
X130397432Y-118483336D01*
X130416406Y-118470429D01*
X130417238Y-118469812D01*
X130435370Y-118455183D01*
X130436120Y-118454527D01*
X130446538Y-118444677D01*
X130785324Y-118640000D01*
G37*
%TD.AperFunction*%
%TD*%
D25*
%TO.N,/KEY2*%
X127200324Y-119950000D02*
X126861539Y-120145323D01*
X126851121Y-120135472D01*
X126850370Y-120134816D01*
X126832238Y-120120187D01*
X126831406Y-120119570D01*
X126812432Y-120106663D01*
X126811532Y-120106105D01*
X126791716Y-120094918D01*
X126790763Y-120094431D01*
X126770105Y-120084966D01*
X126769119Y-120084564D01*
X126747619Y-120076819D01*
X126746621Y-120076505D01*
X126724279Y-120070482D01*
X126723290Y-120070257D01*
X126700105Y-120065954D01*
X126699145Y-120065814D01*
X126675119Y-120063232D01*
X126674201Y-120063167D01*
X126661594Y-120062731D01*
X126661594Y-119837268D01*
X126674201Y-119836832D01*
X126675119Y-119836767D01*
X126699145Y-119834185D01*
X126700105Y-119834045D01*
X126723290Y-119829742D01*
X126724279Y-119829517D01*
X126746621Y-119823494D01*
X126747619Y-119823180D01*
X126769119Y-119815435D01*
X126770105Y-119815033D01*
X126790763Y-119805568D01*
X126791716Y-119805081D01*
X126811532Y-119793894D01*
X126812432Y-119793336D01*
X126831406Y-119780429D01*
X126832238Y-119779812D01*
X126850370Y-119765183D01*
X126851120Y-119764527D01*
X126861538Y-119754677D01*
X127200324Y-119950000D01*
%TA.AperFunction,Conductor*%
D24*
G36*
X127200324Y-119950000D02*
G01*
X126861539Y-120145323D01*
X126851121Y-120135472D01*
X126850370Y-120134816D01*
X126832238Y-120120187D01*
X126831406Y-120119570D01*
X126812432Y-120106663D01*
X126811532Y-120106105D01*
X126791716Y-120094918D01*
X126790763Y-120094431D01*
X126770105Y-120084966D01*
X126769119Y-120084564D01*
X126747619Y-120076819D01*
X126746621Y-120076505D01*
X126724279Y-120070482D01*
X126723290Y-120070257D01*
X126700105Y-120065954D01*
X126699145Y-120065814D01*
X126675119Y-120063232D01*
X126674201Y-120063167D01*
X126661594Y-120062731D01*
X126661594Y-119837268D01*
X126674201Y-119836832D01*
X126675119Y-119836767D01*
X126699145Y-119834185D01*
X126700105Y-119834045D01*
X126723290Y-119829742D01*
X126724279Y-119829517D01*
X126746621Y-119823494D01*
X126747619Y-119823180D01*
X126769119Y-119815435D01*
X126770105Y-119815033D01*
X126790763Y-119805568D01*
X126791716Y-119805081D01*
X126811532Y-119793894D01*
X126812432Y-119793336D01*
X126831406Y-119780429D01*
X126832238Y-119779812D01*
X126850370Y-119765183D01*
X126851120Y-119764527D01*
X126861538Y-119754677D01*
X127200324Y-119950000D01*
G37*
%TD.AperFunction*%
%TD*%
D25*
%TO.N,/KEY2*%
X67866657Y-132245181D02*
X67866723Y-132246108D01*
X67879773Y-132366320D01*
X67879916Y-132367287D01*
X67901666Y-132483389D01*
X67901894Y-132484383D01*
X67932344Y-132596375D01*
X67932661Y-132597375D01*
X67971811Y-132705257D01*
X67972216Y-132706243D01*
X68020066Y-132810015D01*
X68020553Y-132810965D01*
X68077103Y-132910627D01*
X68077661Y-132911521D01*
X68142911Y-133007073D01*
X68143524Y-133007897D01*
X68217474Y-133099339D01*
X68218125Y-133100083D01*
X68294271Y-133180542D01*
X67750000Y-134124574D01*
X67205729Y-133180542D01*
X67281874Y-133100083D01*
X67282525Y-133099339D01*
X67356475Y-133007897D01*
X67357088Y-133007073D01*
X67422338Y-132911521D01*
X67422896Y-132910627D01*
X67479446Y-132810965D01*
X67479933Y-132810015D01*
X67527783Y-132706243D01*
X67528188Y-132705257D01*
X67567338Y-132597375D01*
X67567655Y-132596375D01*
X67598105Y-132484383D01*
X67598333Y-132483389D01*
X67620083Y-132367287D01*
X67620226Y-132366320D01*
X67633276Y-132246108D01*
X67633342Y-132245181D01*
X67637264Y-132133115D01*
X67862736Y-132133115D01*
X67866657Y-132245181D01*
%TA.AperFunction,Conductor*%
D24*
G36*
X67866657Y-132245181D02*
G01*
X67866723Y-132246108D01*
X67879773Y-132366320D01*
X67879916Y-132367287D01*
X67901666Y-132483389D01*
X67901894Y-132484383D01*
X67932344Y-132596375D01*
X67932661Y-132597375D01*
X67971811Y-132705257D01*
X67972216Y-132706243D01*
X68020066Y-132810015D01*
X68020553Y-132810965D01*
X68077103Y-132910627D01*
X68077661Y-132911521D01*
X68142911Y-133007073D01*
X68143524Y-133007897D01*
X68217474Y-133099339D01*
X68218125Y-133100083D01*
X68294271Y-133180542D01*
X67750000Y-134124574D01*
X67205729Y-133180542D01*
X67281874Y-133100083D01*
X67282525Y-133099339D01*
X67356475Y-133007897D01*
X67357088Y-133007073D01*
X67422338Y-132911521D01*
X67422896Y-132910627D01*
X67479446Y-132810965D01*
X67479933Y-132810015D01*
X67527783Y-132706243D01*
X67528188Y-132705257D01*
X67567338Y-132597375D01*
X67567655Y-132596375D01*
X67598105Y-132484383D01*
X67598333Y-132483389D01*
X67620083Y-132367287D01*
X67620226Y-132366320D01*
X67633276Y-132246108D01*
X67633342Y-132245181D01*
X67637264Y-132133115D01*
X67862736Y-132133115D01*
X67866657Y-132245181D01*
G37*
%TD.AperFunction*%
%TD*%
D25*
%TO.N,/KEY1*%
X126021613Y-118686570D02*
X126022309Y-118687173D01*
X126041124Y-118702337D01*
X126041902Y-118702917D01*
X126061338Y-118716268D01*
X126062196Y-118716808D01*
X126082254Y-118728347D01*
X126083181Y-118728831D01*
X126103860Y-118738558D01*
X126104842Y-118738971D01*
X126126142Y-118746886D01*
X126127161Y-118747216D01*
X126149084Y-118753318D01*
X126150115Y-118753559D01*
X126172658Y-118757849D01*
X126173682Y-118758001D01*
X126196848Y-118760478D01*
X126197843Y-118760545D01*
X126212174Y-118760946D01*
X126313617Y-119138617D01*
X125935946Y-119037174D01*
X125935545Y-119022843D01*
X125935478Y-119021848D01*
X125933001Y-118998682D01*
X125932849Y-118997658D01*
X125928559Y-118975115D01*
X125928318Y-118974084D01*
X125922216Y-118952161D01*
X125921886Y-118951142D01*
X125913971Y-118929842D01*
X125913558Y-118928860D01*
X125903831Y-118908181D01*
X125903347Y-118907254D01*
X125891808Y-118887196D01*
X125891268Y-118886338D01*
X125877917Y-118866902D01*
X125877337Y-118866124D01*
X125862173Y-118847309D01*
X125861570Y-118846613D01*
X125852964Y-118837391D01*
X126012391Y-118677964D01*
X126021613Y-118686570D01*
%TA.AperFunction,Conductor*%
D24*
G36*
X126021613Y-118686570D02*
G01*
X126022309Y-118687173D01*
X126041124Y-118702337D01*
X126041902Y-118702917D01*
X126061338Y-118716268D01*
X126062196Y-118716808D01*
X126082254Y-118728347D01*
X126083181Y-118728831D01*
X126103860Y-118738558D01*
X126104842Y-118738971D01*
X126126142Y-118746886D01*
X126127161Y-118747216D01*
X126149084Y-118753318D01*
X126150115Y-118753559D01*
X126172658Y-118757849D01*
X126173682Y-118758001D01*
X126196848Y-118760478D01*
X126197843Y-118760545D01*
X126212174Y-118760946D01*
X126313617Y-119138617D01*
X125935946Y-119037174D01*
X125935545Y-119022843D01*
X125935478Y-119021848D01*
X125933001Y-118998682D01*
X125932849Y-118997658D01*
X125928559Y-118975115D01*
X125928318Y-118974084D01*
X125922216Y-118952161D01*
X125921886Y-118951142D01*
X125913971Y-118929842D01*
X125913558Y-118928860D01*
X125903831Y-118908181D01*
X125903347Y-118907254D01*
X125891808Y-118887196D01*
X125891268Y-118886338D01*
X125877917Y-118866902D01*
X125877337Y-118866124D01*
X125862173Y-118847309D01*
X125861570Y-118846613D01*
X125852964Y-118837391D01*
X126012391Y-118677964D01*
X126021613Y-118686570D01*
G37*
%TD.AperFunction*%
%TD*%
D25*
%TO.N,/KEY1*%
X68973026Y-113686406D02*
X68896556Y-113768422D01*
X68895948Y-113769124D01*
X68820173Y-113863354D01*
X68819590Y-113864140D01*
X68752873Y-113961616D01*
X68752331Y-113962479D01*
X68694672Y-114063201D01*
X68694189Y-114064133D01*
X68645588Y-114168101D01*
X68645178Y-114169084D01*
X68605635Y-114276297D01*
X68605308Y-114277313D01*
X68574823Y-114387771D01*
X68574585Y-114388798D01*
X68553158Y-114502502D01*
X68553008Y-114503518D01*
X68540639Y-114620468D01*
X68540574Y-114621454D01*
X68537525Y-114732190D01*
X67485137Y-115014863D01*
X67767810Y-113962475D01*
X67878545Y-113959425D01*
X67879531Y-113959360D01*
X67996481Y-113946991D01*
X67997497Y-113946841D01*
X68111201Y-113925414D01*
X68112228Y-113925176D01*
X68222687Y-113894691D01*
X68223703Y-113894364D01*
X68330916Y-113854821D01*
X68331899Y-113854411D01*
X68435866Y-113805810D01*
X68436798Y-113805327D01*
X68537520Y-113747668D01*
X68538383Y-113747126D01*
X68635859Y-113680409D01*
X68636645Y-113679826D01*
X68730876Y-113604051D01*
X68731578Y-113603443D01*
X68813594Y-113526974D01*
X68973026Y-113686406D01*
%TA.AperFunction,Conductor*%
D24*
G36*
X68973026Y-113686406D02*
G01*
X68896556Y-113768422D01*
X68895948Y-113769124D01*
X68820173Y-113863354D01*
X68819590Y-113864140D01*
X68752873Y-113961616D01*
X68752331Y-113962479D01*
X68694672Y-114063201D01*
X68694189Y-114064133D01*
X68645588Y-114168101D01*
X68645178Y-114169084D01*
X68605635Y-114276297D01*
X68605308Y-114277313D01*
X68574823Y-114387771D01*
X68574585Y-114388798D01*
X68553158Y-114502502D01*
X68553008Y-114503518D01*
X68540639Y-114620468D01*
X68540574Y-114621454D01*
X68537525Y-114732190D01*
X67485137Y-115014863D01*
X67767810Y-113962475D01*
X67878545Y-113959425D01*
X67879531Y-113959360D01*
X67996481Y-113946991D01*
X67997497Y-113946841D01*
X68111201Y-113925414D01*
X68112228Y-113925176D01*
X68222687Y-113894691D01*
X68223703Y-113894364D01*
X68330916Y-113854821D01*
X68331899Y-113854411D01*
X68435866Y-113805810D01*
X68436798Y-113805327D01*
X68537520Y-113747668D01*
X68538383Y-113747126D01*
X68635859Y-113680409D01*
X68636645Y-113679826D01*
X68730876Y-113604051D01*
X68731578Y-113603443D01*
X68813594Y-113526974D01*
X68973026Y-113686406D01*
G37*
%TD.AperFunction*%
%TD*%
D25*
%TO.N,/SPI2_MOSI*%
X97973972Y-129024642D02*
X97974724Y-129025299D01*
X97992849Y-129039937D01*
X97993680Y-129040554D01*
X98012648Y-129053471D01*
X98013547Y-129054030D01*
X98033357Y-129065227D01*
X98034310Y-129065714D01*
X98054964Y-129075190D01*
X98055950Y-129075593D01*
X98077446Y-129083349D01*
X98078444Y-129083663D01*
X98100783Y-129089698D01*
X98101772Y-129089924D01*
X98124954Y-129094238D01*
X98125914Y-129094379D01*
X98149939Y-129096973D01*
X98150856Y-129097038D01*
X98163464Y-129097481D01*
X98163347Y-129322944D01*
X98150740Y-129323373D01*
X98149822Y-129323438D01*
X98125794Y-129326007D01*
X98124833Y-129326147D01*
X98101647Y-129330438D01*
X98100658Y-129330662D01*
X98078313Y-129336674D01*
X98077315Y-129336987D01*
X98055811Y-129344720D01*
X98054825Y-129345122D01*
X98034161Y-129354577D01*
X98033207Y-129355063D01*
X98013386Y-129366239D01*
X98012486Y-129366798D01*
X97993505Y-129379696D01*
X97992674Y-129380311D01*
X97974534Y-129394930D01*
X97973782Y-129395587D01*
X97963361Y-129405432D01*
X97624678Y-129209936D01*
X97963562Y-129014788D01*
X97973972Y-129024642D01*
%TA.AperFunction,Conductor*%
D24*
G36*
X97973972Y-129024642D02*
G01*
X97974724Y-129025299D01*
X97992849Y-129039937D01*
X97993680Y-129040554D01*
X98012648Y-129053471D01*
X98013547Y-129054030D01*
X98033357Y-129065227D01*
X98034310Y-129065714D01*
X98054964Y-129075190D01*
X98055950Y-129075593D01*
X98077446Y-129083349D01*
X98078444Y-129083663D01*
X98100783Y-129089698D01*
X98101772Y-129089924D01*
X98124954Y-129094238D01*
X98125914Y-129094379D01*
X98149939Y-129096973D01*
X98150856Y-129097038D01*
X98163464Y-129097481D01*
X98163347Y-129322944D01*
X98150740Y-129323373D01*
X98149822Y-129323438D01*
X98125794Y-129326007D01*
X98124833Y-129326147D01*
X98101647Y-129330438D01*
X98100658Y-129330662D01*
X98078313Y-129336674D01*
X98077315Y-129336987D01*
X98055811Y-129344720D01*
X98054825Y-129345122D01*
X98034161Y-129354577D01*
X98033207Y-129355063D01*
X98013386Y-129366239D01*
X98012486Y-129366798D01*
X97993505Y-129379696D01*
X97992674Y-129380311D01*
X97974534Y-129394930D01*
X97973782Y-129395587D01*
X97963361Y-129405432D01*
X97624678Y-129209936D01*
X97963562Y-129014788D01*
X97973972Y-129024642D01*
G37*
%TD.AperFunction*%
%TD*%
D25*
%TO.N,/SPI2_MOSI*%
X117315322Y-129220064D02*
X116976438Y-129415212D01*
X116966027Y-129405357D01*
X116965275Y-129404700D01*
X116947150Y-129390062D01*
X116946319Y-129389445D01*
X116927351Y-129376528D01*
X116926452Y-129375969D01*
X116906642Y-129364772D01*
X116905689Y-129364285D01*
X116885036Y-129354809D01*
X116884050Y-129354406D01*
X116862553Y-129346650D01*
X116861555Y-129346336D01*
X116839216Y-129340301D01*
X116838227Y-129340075D01*
X116815045Y-129335761D01*
X116814085Y-129335620D01*
X116790060Y-129333026D01*
X116789143Y-129332961D01*
X116776536Y-129332518D01*
X116776653Y-129107056D01*
X116789260Y-129106626D01*
X116790177Y-129106561D01*
X116814205Y-129103992D01*
X116815166Y-129103852D01*
X116838352Y-129099561D01*
X116839341Y-129099337D01*
X116861686Y-129093325D01*
X116862683Y-129093012D01*
X116884188Y-129085279D01*
X116885175Y-129084876D01*
X116905838Y-129075421D01*
X116906792Y-129074936D01*
X116926613Y-129063760D01*
X116927513Y-129063201D01*
X116946494Y-129050303D01*
X116947325Y-129049688D01*
X116965465Y-129035069D01*
X116966217Y-129034413D01*
X116976639Y-129024568D01*
X117315322Y-129220064D01*
%TA.AperFunction,Conductor*%
D24*
G36*
X117315322Y-129220064D02*
G01*
X116976438Y-129415212D01*
X116966027Y-129405357D01*
X116965275Y-129404700D01*
X116947150Y-129390062D01*
X116946319Y-129389445D01*
X116927351Y-129376528D01*
X116926452Y-129375969D01*
X116906642Y-129364772D01*
X116905689Y-129364285D01*
X116885036Y-129354809D01*
X116884050Y-129354406D01*
X116862553Y-129346650D01*
X116861555Y-129346336D01*
X116839216Y-129340301D01*
X116838227Y-129340075D01*
X116815045Y-129335761D01*
X116814085Y-129335620D01*
X116790060Y-129333026D01*
X116789143Y-129332961D01*
X116776536Y-129332518D01*
X116776653Y-129107056D01*
X116789260Y-129106626D01*
X116790177Y-129106561D01*
X116814205Y-129103992D01*
X116815166Y-129103852D01*
X116838352Y-129099561D01*
X116839341Y-129099337D01*
X116861686Y-129093325D01*
X116862683Y-129093012D01*
X116884188Y-129085279D01*
X116885175Y-129084876D01*
X116905838Y-129075421D01*
X116906792Y-129074936D01*
X116926613Y-129063760D01*
X116927513Y-129063201D01*
X116946494Y-129050303D01*
X116947325Y-129049688D01*
X116965465Y-129035069D01*
X116966217Y-129034413D01*
X116976639Y-129024568D01*
X117315322Y-129220064D01*
G37*
%TD.AperFunction*%
%TD*%
D25*
%TO.N,/GPS_PPS*%
X94608167Y-112774201D02*
X94608232Y-112775119D01*
X94610814Y-112799145D01*
X94610954Y-112800105D01*
X94615257Y-112823290D01*
X94615482Y-112824279D01*
X94621505Y-112846621D01*
X94621819Y-112847619D01*
X94629564Y-112869119D01*
X94629966Y-112870105D01*
X94639431Y-112890763D01*
X94639918Y-112891716D01*
X94651105Y-112911532D01*
X94651663Y-112912432D01*
X94664570Y-112931406D01*
X94665187Y-112932238D01*
X94679816Y-112950370D01*
X94680472Y-112951121D01*
X94690323Y-112961539D01*
X94495000Y-113300324D01*
X94299677Y-112961538D01*
X94309527Y-112951120D01*
X94310183Y-112950370D01*
X94324812Y-112932238D01*
X94325429Y-112931406D01*
X94338336Y-112912432D01*
X94338894Y-112911532D01*
X94350081Y-112891716D01*
X94350568Y-112890763D01*
X94360033Y-112870105D01*
X94360435Y-112869119D01*
X94368180Y-112847619D01*
X94368494Y-112846621D01*
X94374517Y-112824279D01*
X94374742Y-112823290D01*
X94379045Y-112800105D01*
X94379185Y-112799145D01*
X94381767Y-112775119D01*
X94381832Y-112774201D01*
X94382268Y-112761594D01*
X94607731Y-112761594D01*
X94608167Y-112774201D01*
%TA.AperFunction,Conductor*%
D24*
G36*
X94608167Y-112774201D02*
G01*
X94608232Y-112775119D01*
X94610814Y-112799145D01*
X94610954Y-112800105D01*
X94615257Y-112823290D01*
X94615482Y-112824279D01*
X94621505Y-112846621D01*
X94621819Y-112847619D01*
X94629564Y-112869119D01*
X94629966Y-112870105D01*
X94639431Y-112890763D01*
X94639918Y-112891716D01*
X94651105Y-112911532D01*
X94651663Y-112912432D01*
X94664570Y-112931406D01*
X94665187Y-112932238D01*
X94679816Y-112950370D01*
X94680472Y-112951121D01*
X94690323Y-112961539D01*
X94495000Y-113300324D01*
X94299677Y-112961538D01*
X94309527Y-112951120D01*
X94310183Y-112950370D01*
X94324812Y-112932238D01*
X94325429Y-112931406D01*
X94338336Y-112912432D01*
X94338894Y-112911532D01*
X94350081Y-112891716D01*
X94350568Y-112890763D01*
X94360033Y-112870105D01*
X94360435Y-112869119D01*
X94368180Y-112847619D01*
X94368494Y-112846621D01*
X94374517Y-112824279D01*
X94374742Y-112823290D01*
X94379045Y-112800105D01*
X94379185Y-112799145D01*
X94381767Y-112775119D01*
X94381832Y-112774201D01*
X94382268Y-112761594D01*
X94607731Y-112761594D01*
X94608167Y-112774201D01*
G37*
%TD.AperFunction*%
%TD*%
D25*
%TO.N,/GPS_PPS*%
X94690323Y-108088461D02*
X94680472Y-108098878D01*
X94679816Y-108099629D01*
X94665187Y-108117761D01*
X94664570Y-108118593D01*
X94651663Y-108137567D01*
X94651105Y-108138467D01*
X94639918Y-108158283D01*
X94639431Y-108159236D01*
X94629966Y-108179894D01*
X94629564Y-108180880D01*
X94621819Y-108202380D01*
X94621505Y-108203378D01*
X94615482Y-108225720D01*
X94615257Y-108226709D01*
X94610954Y-108249894D01*
X94610814Y-108250854D01*
X94608232Y-108274880D01*
X94608167Y-108275798D01*
X94607731Y-108288406D01*
X94382269Y-108288406D01*
X94381832Y-108275798D01*
X94381767Y-108274880D01*
X94379185Y-108250854D01*
X94379045Y-108249894D01*
X94374742Y-108226709D01*
X94374517Y-108225720D01*
X94368494Y-108203378D01*
X94368180Y-108202380D01*
X94360435Y-108180880D01*
X94360033Y-108179894D01*
X94350568Y-108159236D01*
X94350081Y-108158283D01*
X94338894Y-108138467D01*
X94338336Y-108137567D01*
X94325429Y-108118593D01*
X94324812Y-108117761D01*
X94310183Y-108099629D01*
X94309527Y-108098878D01*
X94299677Y-108088461D01*
X94495000Y-107749676D01*
X94690323Y-108088461D01*
%TA.AperFunction,Conductor*%
D24*
G36*
X94690323Y-108088461D02*
G01*
X94680472Y-108098878D01*
X94679816Y-108099629D01*
X94665187Y-108117761D01*
X94664570Y-108118593D01*
X94651663Y-108137567D01*
X94651105Y-108138467D01*
X94639918Y-108158283D01*
X94639431Y-108159236D01*
X94629966Y-108179894D01*
X94629564Y-108180880D01*
X94621819Y-108202380D01*
X94621505Y-108203378D01*
X94615482Y-108225720D01*
X94615257Y-108226709D01*
X94610954Y-108249894D01*
X94610814Y-108250854D01*
X94608232Y-108274880D01*
X94608167Y-108275798D01*
X94607731Y-108288406D01*
X94382269Y-108288406D01*
X94381832Y-108275798D01*
X94381767Y-108274880D01*
X94379185Y-108250854D01*
X94379045Y-108249894D01*
X94374742Y-108226709D01*
X94374517Y-108225720D01*
X94368494Y-108203378D01*
X94368180Y-108202380D01*
X94360435Y-108180880D01*
X94360033Y-108179894D01*
X94350568Y-108159236D01*
X94350081Y-108158283D01*
X94338894Y-108138467D01*
X94338336Y-108137567D01*
X94325429Y-108118593D01*
X94324812Y-108117761D01*
X94310183Y-108099629D01*
X94309527Y-108098878D01*
X94299677Y-108088461D01*
X94495000Y-107749676D01*
X94690323Y-108088461D01*
G37*
%TD.AperFunction*%
%TD*%
D25*
%TO.N,/GPS_TXD*%
X128243167Y-130229201D02*
X128243232Y-130230119D01*
X128245814Y-130254145D01*
X128245954Y-130255105D01*
X128250257Y-130278290D01*
X128250482Y-130279279D01*
X128256505Y-130301621D01*
X128256819Y-130302619D01*
X128264564Y-130324119D01*
X128264966Y-130325105D01*
X128274431Y-130345763D01*
X128274918Y-130346716D01*
X128286105Y-130366532D01*
X128286663Y-130367432D01*
X128299570Y-130386406D01*
X128300187Y-130387238D01*
X128314816Y-130405370D01*
X128315472Y-130406121D01*
X128325323Y-130416539D01*
X128130000Y-130755324D01*
X127934677Y-130416538D01*
X127944527Y-130406120D01*
X127945183Y-130405370D01*
X127959812Y-130387238D01*
X127960429Y-130386406D01*
X127973336Y-130367432D01*
X127973894Y-130366532D01*
X127985081Y-130346716D01*
X127985568Y-130345763D01*
X127995033Y-130325105D01*
X127995435Y-130324119D01*
X128003180Y-130302619D01*
X128003494Y-130301621D01*
X128009517Y-130279279D01*
X128009742Y-130278290D01*
X128014045Y-130255105D01*
X128014185Y-130254145D01*
X128016767Y-130230119D01*
X128016832Y-130229201D01*
X128017268Y-130216594D01*
X128242731Y-130216594D01*
X128243167Y-130229201D01*
%TA.AperFunction,Conductor*%
D24*
G36*
X128243167Y-130229201D02*
G01*
X128243232Y-130230119D01*
X128245814Y-130254145D01*
X128245954Y-130255105D01*
X128250257Y-130278290D01*
X128250482Y-130279279D01*
X128256505Y-130301621D01*
X128256819Y-130302619D01*
X128264564Y-130324119D01*
X128264966Y-130325105D01*
X128274431Y-130345763D01*
X128274918Y-130346716D01*
X128286105Y-130366532D01*
X128286663Y-130367432D01*
X128299570Y-130386406D01*
X128300187Y-130387238D01*
X128314816Y-130405370D01*
X128315472Y-130406121D01*
X128325323Y-130416539D01*
X128130000Y-130755324D01*
X127934677Y-130416538D01*
X127944527Y-130406120D01*
X127945183Y-130405370D01*
X127959812Y-130387238D01*
X127960429Y-130386406D01*
X127973336Y-130367432D01*
X127973894Y-130366532D01*
X127985081Y-130346716D01*
X127985568Y-130345763D01*
X127995033Y-130325105D01*
X127995435Y-130324119D01*
X128003180Y-130302619D01*
X128003494Y-130301621D01*
X128009517Y-130279279D01*
X128009742Y-130278290D01*
X128014045Y-130255105D01*
X128014185Y-130254145D01*
X128016767Y-130230119D01*
X128016832Y-130229201D01*
X128017268Y-130216594D01*
X128242731Y-130216594D01*
X128243167Y-130229201D01*
G37*
%TD.AperFunction*%
%TD*%
D25*
%TO.N,/GPS_TXD*%
X116333878Y-119584527D02*
X116334629Y-119585183D01*
X116352761Y-119599812D01*
X116353593Y-119600429D01*
X116372567Y-119613336D01*
X116373467Y-119613894D01*
X116393283Y-119625081D01*
X116394236Y-119625568D01*
X116414894Y-119635033D01*
X116415880Y-119635435D01*
X116437380Y-119643180D01*
X116438378Y-119643494D01*
X116460720Y-119649517D01*
X116461709Y-119649742D01*
X116484894Y-119654045D01*
X116485854Y-119654185D01*
X116509880Y-119656767D01*
X116510798Y-119656832D01*
X116523406Y-119657269D01*
X116523406Y-119882731D01*
X116510798Y-119883167D01*
X116509880Y-119883232D01*
X116485854Y-119885814D01*
X116484894Y-119885954D01*
X116461709Y-119890257D01*
X116460720Y-119890482D01*
X116438378Y-119896505D01*
X116437380Y-119896819D01*
X116415880Y-119904564D01*
X116414894Y-119904966D01*
X116394236Y-119914431D01*
X116393283Y-119914918D01*
X116373467Y-119926105D01*
X116372567Y-119926663D01*
X116353593Y-119939570D01*
X116352761Y-119940187D01*
X116334629Y-119954816D01*
X116333878Y-119955472D01*
X116323461Y-119965323D01*
X115984676Y-119770000D01*
X116323461Y-119574677D01*
X116333878Y-119584527D01*
%TA.AperFunction,Conductor*%
D24*
G36*
X116333878Y-119584527D02*
G01*
X116334629Y-119585183D01*
X116352761Y-119599812D01*
X116353593Y-119600429D01*
X116372567Y-119613336D01*
X116373467Y-119613894D01*
X116393283Y-119625081D01*
X116394236Y-119625568D01*
X116414894Y-119635033D01*
X116415880Y-119635435D01*
X116437380Y-119643180D01*
X116438378Y-119643494D01*
X116460720Y-119649517D01*
X116461709Y-119649742D01*
X116484894Y-119654045D01*
X116485854Y-119654185D01*
X116509880Y-119656767D01*
X116510798Y-119656832D01*
X116523406Y-119657269D01*
X116523406Y-119882731D01*
X116510798Y-119883167D01*
X116509880Y-119883232D01*
X116485854Y-119885814D01*
X116484894Y-119885954D01*
X116461709Y-119890257D01*
X116460720Y-119890482D01*
X116438378Y-119896505D01*
X116437380Y-119896819D01*
X116415880Y-119904564D01*
X116414894Y-119904966D01*
X116394236Y-119914431D01*
X116393283Y-119914918D01*
X116373467Y-119926105D01*
X116372567Y-119926663D01*
X116353593Y-119939570D01*
X116352761Y-119940187D01*
X116334629Y-119954816D01*
X116333878Y-119955472D01*
X116323461Y-119965323D01*
X115984676Y-119770000D01*
X116323461Y-119574677D01*
X116333878Y-119584527D01*
G37*
%TD.AperFunction*%
%TD*%
D25*
%TO.N,/GPS_RXD*%
X126953167Y-130249201D02*
X126953232Y-130250119D01*
X126955814Y-130274145D01*
X126955954Y-130275105D01*
X126960257Y-130298290D01*
X126960482Y-130299279D01*
X126966505Y-130321621D01*
X126966819Y-130322619D01*
X126974564Y-130344119D01*
X126974966Y-130345105D01*
X126984431Y-130365763D01*
X126984918Y-130366716D01*
X126996105Y-130386532D01*
X126996663Y-130387432D01*
X127009570Y-130406406D01*
X127010187Y-130407238D01*
X127024816Y-130425370D01*
X127025472Y-130426121D01*
X127035323Y-130436539D01*
X126840000Y-130775324D01*
X126644677Y-130436538D01*
X126654527Y-130426120D01*
X126655183Y-130425370D01*
X126669812Y-130407238D01*
X126670429Y-130406406D01*
X126683336Y-130387432D01*
X126683894Y-130386532D01*
X126695081Y-130366716D01*
X126695568Y-130365763D01*
X126705033Y-130345105D01*
X126705435Y-130344119D01*
X126713180Y-130322619D01*
X126713494Y-130321621D01*
X126719517Y-130299279D01*
X126719742Y-130298290D01*
X126724045Y-130275105D01*
X126724185Y-130274145D01*
X126726767Y-130250119D01*
X126726832Y-130249201D01*
X126727268Y-130236594D01*
X126952731Y-130236594D01*
X126953167Y-130249201D01*
%TA.AperFunction,Conductor*%
D24*
G36*
X126953167Y-130249201D02*
G01*
X126953232Y-130250119D01*
X126955814Y-130274145D01*
X126955954Y-130275105D01*
X126960257Y-130298290D01*
X126960482Y-130299279D01*
X126966505Y-130321621D01*
X126966819Y-130322619D01*
X126974564Y-130344119D01*
X126974966Y-130345105D01*
X126984431Y-130365763D01*
X126984918Y-130366716D01*
X126996105Y-130386532D01*
X126996663Y-130387432D01*
X127009570Y-130406406D01*
X127010187Y-130407238D01*
X127024816Y-130425370D01*
X127025472Y-130426121D01*
X127035323Y-130436539D01*
X126840000Y-130775324D01*
X126644677Y-130436538D01*
X126654527Y-130426120D01*
X126655183Y-130425370D01*
X126669812Y-130407238D01*
X126670429Y-130406406D01*
X126683336Y-130387432D01*
X126683894Y-130386532D01*
X126695081Y-130366716D01*
X126695568Y-130365763D01*
X126705033Y-130345105D01*
X126705435Y-130344119D01*
X126713180Y-130322619D01*
X126713494Y-130321621D01*
X126719517Y-130299279D01*
X126719742Y-130298290D01*
X126724045Y-130275105D01*
X126724185Y-130274145D01*
X126726767Y-130250119D01*
X126726832Y-130249201D01*
X126727268Y-130236594D01*
X126952731Y-130236594D01*
X126953167Y-130249201D01*
G37*
%TD.AperFunction*%
%TD*%
D25*
%TO.N,/GPS_RXD*%
X115553878Y-120274527D02*
X115554629Y-120275183D01*
X115572761Y-120289812D01*
X115573593Y-120290429D01*
X115592567Y-120303336D01*
X115593467Y-120303894D01*
X115613283Y-120315081D01*
X115614236Y-120315568D01*
X115634894Y-120325033D01*
X115635880Y-120325435D01*
X115657380Y-120333180D01*
X115658378Y-120333494D01*
X115680720Y-120339517D01*
X115681709Y-120339742D01*
X115704894Y-120344045D01*
X115705854Y-120344185D01*
X115729880Y-120346767D01*
X115730798Y-120346832D01*
X115743406Y-120347269D01*
X115743406Y-120572731D01*
X115730798Y-120573167D01*
X115729880Y-120573232D01*
X115705854Y-120575814D01*
X115704894Y-120575954D01*
X115681709Y-120580257D01*
X115680720Y-120580482D01*
X115658378Y-120586505D01*
X115657380Y-120586819D01*
X115635880Y-120594564D01*
X115634894Y-120594966D01*
X115614236Y-120604431D01*
X115613283Y-120604918D01*
X115593467Y-120616105D01*
X115592567Y-120616663D01*
X115573593Y-120629570D01*
X115572761Y-120630187D01*
X115554629Y-120644816D01*
X115553878Y-120645472D01*
X115543461Y-120655323D01*
X115204676Y-120460000D01*
X115543461Y-120264677D01*
X115553878Y-120274527D01*
%TA.AperFunction,Conductor*%
D24*
G36*
X115553878Y-120274527D02*
G01*
X115554629Y-120275183D01*
X115572761Y-120289812D01*
X115573593Y-120290429D01*
X115592567Y-120303336D01*
X115593467Y-120303894D01*
X115613283Y-120315081D01*
X115614236Y-120315568D01*
X115634894Y-120325033D01*
X115635880Y-120325435D01*
X115657380Y-120333180D01*
X115658378Y-120333494D01*
X115680720Y-120339517D01*
X115681709Y-120339742D01*
X115704894Y-120344045D01*
X115705854Y-120344185D01*
X115729880Y-120346767D01*
X115730798Y-120346832D01*
X115743406Y-120347269D01*
X115743406Y-120572731D01*
X115730798Y-120573167D01*
X115729880Y-120573232D01*
X115705854Y-120575814D01*
X115704894Y-120575954D01*
X115681709Y-120580257D01*
X115680720Y-120580482D01*
X115658378Y-120586505D01*
X115657380Y-120586819D01*
X115635880Y-120594564D01*
X115634894Y-120594966D01*
X115614236Y-120604431D01*
X115613283Y-120604918D01*
X115593467Y-120616105D01*
X115592567Y-120616663D01*
X115573593Y-120629570D01*
X115572761Y-120630187D01*
X115554629Y-120644816D01*
X115553878Y-120645472D01*
X115543461Y-120655323D01*
X115204676Y-120460000D01*
X115543461Y-120264677D01*
X115553878Y-120274527D01*
G37*
%TD.AperFunction*%
%TD*%
D25*
%TO.N,/GYRO_INT*%
X113275376Y-106243554D02*
X113270128Y-106249226D01*
X113269333Y-106250174D01*
X113258955Y-106263851D01*
X113258269Y-106264851D01*
X113249111Y-106279667D01*
X113248543Y-106280688D01*
X113240607Y-106296643D01*
X113240158Y-106297655D01*
X113233442Y-106314749D01*
X113233102Y-106315729D01*
X113227608Y-106333962D01*
X113227366Y-106334890D01*
X113223092Y-106354262D01*
X113222932Y-106355129D01*
X113219880Y-106375641D01*
X113219787Y-106376439D01*
X113217955Y-106398089D01*
X113217915Y-106398820D01*
X113217636Y-106409250D01*
X112942364Y-106409250D01*
X112942084Y-106398820D01*
X112942044Y-106398090D01*
X112940213Y-106376440D01*
X112940120Y-106375640D01*
X112937067Y-106355128D01*
X112936907Y-106354262D01*
X112932634Y-106334890D01*
X112932392Y-106333961D01*
X112926897Y-106315728D01*
X112926558Y-106314750D01*
X112919843Y-106297656D01*
X112919393Y-106296642D01*
X112911456Y-106280687D01*
X112910888Y-106279667D01*
X112901731Y-106264851D01*
X112901045Y-106263851D01*
X112890666Y-106250174D01*
X112889871Y-106249226D01*
X112884624Y-106243554D01*
X113080000Y-105904676D01*
X113275376Y-106243554D01*
%TA.AperFunction,Conductor*%
D24*
G36*
X113275376Y-106243554D02*
G01*
X113270128Y-106249226D01*
X113269333Y-106250174D01*
X113258955Y-106263851D01*
X113258269Y-106264851D01*
X113249111Y-106279667D01*
X113248543Y-106280688D01*
X113240607Y-106296643D01*
X113240158Y-106297655D01*
X113233442Y-106314749D01*
X113233102Y-106315729D01*
X113227608Y-106333962D01*
X113227366Y-106334890D01*
X113223092Y-106354262D01*
X113222932Y-106355129D01*
X113219880Y-106375641D01*
X113219787Y-106376439D01*
X113217955Y-106398089D01*
X113217915Y-106398820D01*
X113217636Y-106409250D01*
X112942364Y-106409250D01*
X112942084Y-106398820D01*
X112942044Y-106398090D01*
X112940213Y-106376440D01*
X112940120Y-106375640D01*
X112937067Y-106355128D01*
X112936907Y-106354262D01*
X112932634Y-106334890D01*
X112932392Y-106333961D01*
X112926897Y-106315728D01*
X112926558Y-106314750D01*
X112919843Y-106297656D01*
X112919393Y-106296642D01*
X112911456Y-106280687D01*
X112910888Y-106279667D01*
X112901731Y-106264851D01*
X112901045Y-106263851D01*
X112890666Y-106250174D01*
X112889871Y-106249226D01*
X112884624Y-106243554D01*
X113080000Y-105904676D01*
X113275376Y-106243554D01*
G37*
%TD.AperFunction*%
%TD*%
D25*
%TO.N,/GYRO_INT*%
X125695324Y-112060000D02*
X125356446Y-112255376D01*
X125350773Y-112250128D01*
X125349825Y-112249333D01*
X125336148Y-112238955D01*
X125335148Y-112238269D01*
X125320332Y-112229111D01*
X125319311Y-112228543D01*
X125303356Y-112220607D01*
X125302344Y-112220158D01*
X125285250Y-112213442D01*
X125284270Y-112213102D01*
X125266037Y-112207608D01*
X125265109Y-112207366D01*
X125245737Y-112203092D01*
X125244870Y-112202932D01*
X125224358Y-112199880D01*
X125223560Y-112199787D01*
X125201910Y-112197955D01*
X125201179Y-112197915D01*
X125190750Y-112197636D01*
X125190750Y-111922364D01*
X125201179Y-111922084D01*
X125201909Y-111922044D01*
X125223559Y-111920213D01*
X125224359Y-111920120D01*
X125244871Y-111917067D01*
X125245737Y-111916907D01*
X125265109Y-111912634D01*
X125266038Y-111912392D01*
X125284271Y-111906897D01*
X125285249Y-111906558D01*
X125302343Y-111899843D01*
X125303357Y-111899393D01*
X125319312Y-111891456D01*
X125320332Y-111890888D01*
X125335148Y-111881731D01*
X125336148Y-111881045D01*
X125349825Y-111870666D01*
X125350772Y-111869872D01*
X125356445Y-111864623D01*
X125695324Y-112060000D01*
%TA.AperFunction,Conductor*%
D24*
G36*
X125695324Y-112060000D02*
G01*
X125356446Y-112255376D01*
X125350773Y-112250128D01*
X125349825Y-112249333D01*
X125336148Y-112238955D01*
X125335148Y-112238269D01*
X125320332Y-112229111D01*
X125319311Y-112228543D01*
X125303356Y-112220607D01*
X125302344Y-112220158D01*
X125285250Y-112213442D01*
X125284270Y-112213102D01*
X125266037Y-112207608D01*
X125265109Y-112207366D01*
X125245737Y-112203092D01*
X125244870Y-112202932D01*
X125224358Y-112199880D01*
X125223560Y-112199787D01*
X125201910Y-112197955D01*
X125201179Y-112197915D01*
X125190750Y-112197636D01*
X125190750Y-111922364D01*
X125201179Y-111922084D01*
X125201909Y-111922044D01*
X125223559Y-111920213D01*
X125224359Y-111920120D01*
X125244871Y-111917067D01*
X125245737Y-111916907D01*
X125265109Y-111912634D01*
X125266038Y-111912392D01*
X125284271Y-111906897D01*
X125285249Y-111906558D01*
X125302343Y-111899843D01*
X125303357Y-111899393D01*
X125319312Y-111891456D01*
X125320332Y-111890888D01*
X125335148Y-111881731D01*
X125336148Y-111881045D01*
X125349825Y-111870666D01*
X125350772Y-111869872D01*
X125356445Y-111864623D01*
X125695324Y-112060000D01*
G37*
%TD.AperFunction*%
%TD*%
D25*
%TO.N,/SPI2_CS0*%
X118125325Y-121263461D02*
X118115474Y-121273878D01*
X118114818Y-121274629D01*
X118100189Y-121292761D01*
X118099572Y-121293593D01*
X118086665Y-121312567D01*
X118086107Y-121313467D01*
X118074920Y-121333283D01*
X118074433Y-121334236D01*
X118064968Y-121354894D01*
X118064566Y-121355880D01*
X118056821Y-121377380D01*
X118056507Y-121378378D01*
X118050484Y-121400720D01*
X118050259Y-121401709D01*
X118045956Y-121424894D01*
X118045816Y-121425854D01*
X118043234Y-121449880D01*
X118043169Y-121450798D01*
X118042733Y-121463406D01*
X117817271Y-121463406D01*
X117816834Y-121450798D01*
X117816769Y-121449880D01*
X117814187Y-121425854D01*
X117814047Y-121424894D01*
X117809744Y-121401709D01*
X117809519Y-121400720D01*
X117803496Y-121378378D01*
X117803182Y-121377380D01*
X117795437Y-121355880D01*
X117795035Y-121354894D01*
X117785570Y-121334236D01*
X117785083Y-121333283D01*
X117773896Y-121313467D01*
X117773338Y-121312567D01*
X117760431Y-121293593D01*
X117759814Y-121292761D01*
X117745185Y-121274629D01*
X117744529Y-121273878D01*
X117734679Y-121263461D01*
X117930002Y-120924676D01*
X118125325Y-121263461D01*
%TA.AperFunction,Conductor*%
D24*
G36*
X118125325Y-121263461D02*
G01*
X118115474Y-121273878D01*
X118114818Y-121274629D01*
X118100189Y-121292761D01*
X118099572Y-121293593D01*
X118086665Y-121312567D01*
X118086107Y-121313467D01*
X118074920Y-121333283D01*
X118074433Y-121334236D01*
X118064968Y-121354894D01*
X118064566Y-121355880D01*
X118056821Y-121377380D01*
X118056507Y-121378378D01*
X118050484Y-121400720D01*
X118050259Y-121401709D01*
X118045956Y-121424894D01*
X118045816Y-121425854D01*
X118043234Y-121449880D01*
X118043169Y-121450798D01*
X118042733Y-121463406D01*
X117817271Y-121463406D01*
X117816834Y-121450798D01*
X117816769Y-121449880D01*
X117814187Y-121425854D01*
X117814047Y-121424894D01*
X117809744Y-121401709D01*
X117809519Y-121400720D01*
X117803496Y-121378378D01*
X117803182Y-121377380D01*
X117795437Y-121355880D01*
X117795035Y-121354894D01*
X117785570Y-121334236D01*
X117785083Y-121333283D01*
X117773896Y-121313467D01*
X117773338Y-121312567D01*
X117760431Y-121293593D01*
X117759814Y-121292761D01*
X117745185Y-121274629D01*
X117744529Y-121273878D01*
X117734679Y-121263461D01*
X117930002Y-120924676D01*
X118125325Y-121263461D01*
G37*
%TD.AperFunction*%
%TD*%
D25*
%TO.N,/SPI2_CS0*%
X99093878Y-129844527D02*
X99094629Y-129845183D01*
X99112761Y-129859812D01*
X99113593Y-129860429D01*
X99132567Y-129873336D01*
X99133467Y-129873894D01*
X99153283Y-129885081D01*
X99154236Y-129885568D01*
X99174894Y-129895033D01*
X99175880Y-129895435D01*
X99197380Y-129903180D01*
X99198378Y-129903494D01*
X99220720Y-129909517D01*
X99221709Y-129909742D01*
X99244894Y-129914045D01*
X99245854Y-129914185D01*
X99269880Y-129916767D01*
X99270798Y-129916832D01*
X99283406Y-129917269D01*
X99283406Y-130142731D01*
X99270798Y-130143167D01*
X99269880Y-130143232D01*
X99245854Y-130145814D01*
X99244894Y-130145954D01*
X99221709Y-130150257D01*
X99220720Y-130150482D01*
X99198378Y-130156505D01*
X99197380Y-130156819D01*
X99175880Y-130164564D01*
X99174894Y-130164966D01*
X99154236Y-130174431D01*
X99153283Y-130174918D01*
X99133467Y-130186105D01*
X99132567Y-130186663D01*
X99113593Y-130199570D01*
X99112761Y-130200187D01*
X99094629Y-130214816D01*
X99093878Y-130215472D01*
X99083461Y-130225323D01*
X98744676Y-130030000D01*
X99083461Y-129834677D01*
X99093878Y-129844527D01*
%TA.AperFunction,Conductor*%
D24*
G36*
X99093878Y-129844527D02*
G01*
X99094629Y-129845183D01*
X99112761Y-129859812D01*
X99113593Y-129860429D01*
X99132567Y-129873336D01*
X99133467Y-129873894D01*
X99153283Y-129885081D01*
X99154236Y-129885568D01*
X99174894Y-129895033D01*
X99175880Y-129895435D01*
X99197380Y-129903180D01*
X99198378Y-129903494D01*
X99220720Y-129909517D01*
X99221709Y-129909742D01*
X99244894Y-129914045D01*
X99245854Y-129914185D01*
X99269880Y-129916767D01*
X99270798Y-129916832D01*
X99283406Y-129917269D01*
X99283406Y-130142731D01*
X99270798Y-130143167D01*
X99269880Y-130143232D01*
X99245854Y-130145814D01*
X99244894Y-130145954D01*
X99221709Y-130150257D01*
X99220720Y-130150482D01*
X99198378Y-130156505D01*
X99197380Y-130156819D01*
X99175880Y-130164564D01*
X99174894Y-130164966D01*
X99154236Y-130174431D01*
X99153283Y-130174918D01*
X99133467Y-130186105D01*
X99132567Y-130186663D01*
X99113593Y-130199570D01*
X99112761Y-130200187D01*
X99094629Y-130214816D01*
X99093878Y-130215472D01*
X99083461Y-130225323D01*
X98744676Y-130030000D01*
X99083461Y-129834677D01*
X99093878Y-129844527D01*
G37*
%TD.AperFunction*%
%TD*%
D25*
%TO.N,/SPI2_DC*%
X120455324Y-137290000D02*
X120116539Y-137485323D01*
X120106121Y-137475472D01*
X120105370Y-137474816D01*
X120087238Y-137460187D01*
X120086406Y-137459570D01*
X120067432Y-137446663D01*
X120066532Y-137446105D01*
X120046716Y-137434918D01*
X120045763Y-137434431D01*
X120025105Y-137424966D01*
X120024119Y-137424564D01*
X120002619Y-137416819D01*
X120001621Y-137416505D01*
X119979279Y-137410482D01*
X119978290Y-137410257D01*
X119955105Y-137405954D01*
X119954145Y-137405814D01*
X119930119Y-137403232D01*
X119929201Y-137403167D01*
X119916594Y-137402731D01*
X119916594Y-137177268D01*
X119929201Y-137176832D01*
X119930119Y-137176767D01*
X119954145Y-137174185D01*
X119955105Y-137174045D01*
X119978290Y-137169742D01*
X119979279Y-137169517D01*
X120001621Y-137163494D01*
X120002619Y-137163180D01*
X120024119Y-137155435D01*
X120025105Y-137155033D01*
X120045763Y-137145568D01*
X120046716Y-137145081D01*
X120066532Y-137133894D01*
X120067432Y-137133336D01*
X120086406Y-137120429D01*
X120087238Y-137119812D01*
X120105370Y-137105183D01*
X120106120Y-137104527D01*
X120116538Y-137094677D01*
X120455324Y-137290000D01*
%TA.AperFunction,Conductor*%
D24*
G36*
X120455324Y-137290000D02*
G01*
X120116539Y-137485323D01*
X120106121Y-137475472D01*
X120105370Y-137474816D01*
X120087238Y-137460187D01*
X120086406Y-137459570D01*
X120067432Y-137446663D01*
X120066532Y-137446105D01*
X120046716Y-137434918D01*
X120045763Y-137434431D01*
X120025105Y-137424966D01*
X120024119Y-137424564D01*
X120002619Y-137416819D01*
X120001621Y-137416505D01*
X119979279Y-137410482D01*
X119978290Y-137410257D01*
X119955105Y-137405954D01*
X119954145Y-137405814D01*
X119930119Y-137403232D01*
X119929201Y-137403167D01*
X119916594Y-137402731D01*
X119916594Y-137177268D01*
X119929201Y-137176832D01*
X119930119Y-137176767D01*
X119954145Y-137174185D01*
X119955105Y-137174045D01*
X119978290Y-137169742D01*
X119979279Y-137169517D01*
X120001621Y-137163494D01*
X120002619Y-137163180D01*
X120024119Y-137155435D01*
X120025105Y-137155033D01*
X120045763Y-137145568D01*
X120046716Y-137145081D01*
X120066532Y-137133894D01*
X120067432Y-137133336D01*
X120086406Y-137120429D01*
X120087238Y-137119812D01*
X120105370Y-137105183D01*
X120106120Y-137104527D01*
X120116538Y-137094677D01*
X120455324Y-137290000D01*
G37*
%TD.AperFunction*%
%TD*%
D25*
%TO.N,/RTS*%
X78125324Y-109925000D02*
X77786539Y-110120323D01*
X77776121Y-110110472D01*
X77775370Y-110109816D01*
X77757238Y-110095187D01*
X77756406Y-110094570D01*
X77737432Y-110081663D01*
X77736532Y-110081105D01*
X77716716Y-110069918D01*
X77715763Y-110069431D01*
X77695105Y-110059966D01*
X77694119Y-110059564D01*
X77672619Y-110051819D01*
X77671621Y-110051505D01*
X77649279Y-110045482D01*
X77648290Y-110045257D01*
X77625105Y-110040954D01*
X77624145Y-110040814D01*
X77600119Y-110038232D01*
X77599201Y-110038167D01*
X77586594Y-110037731D01*
X77586594Y-109812268D01*
X77599201Y-109811832D01*
X77600119Y-109811767D01*
X77624145Y-109809185D01*
X77625105Y-109809045D01*
X77648290Y-109804742D01*
X77649279Y-109804517D01*
X77671621Y-109798494D01*
X77672619Y-109798180D01*
X77694119Y-109790435D01*
X77695105Y-109790033D01*
X77715763Y-109780568D01*
X77716716Y-109780081D01*
X77736532Y-109768894D01*
X77737432Y-109768336D01*
X77756406Y-109755429D01*
X77757238Y-109754812D01*
X77775370Y-109740183D01*
X77776120Y-109739527D01*
X77786538Y-109729677D01*
X78125324Y-109925000D01*
%TA.AperFunction,Conductor*%
D24*
G36*
X78125324Y-109925000D02*
G01*
X77786539Y-110120323D01*
X77776121Y-110110472D01*
X77775370Y-110109816D01*
X77757238Y-110095187D01*
X77756406Y-110094570D01*
X77737432Y-110081663D01*
X77736532Y-110081105D01*
X77716716Y-110069918D01*
X77715763Y-110069431D01*
X77695105Y-110059966D01*
X77694119Y-110059564D01*
X77672619Y-110051819D01*
X77671621Y-110051505D01*
X77649279Y-110045482D01*
X77648290Y-110045257D01*
X77625105Y-110040954D01*
X77624145Y-110040814D01*
X77600119Y-110038232D01*
X77599201Y-110038167D01*
X77586594Y-110037731D01*
X77586594Y-109812268D01*
X77599201Y-109811832D01*
X77600119Y-109811767D01*
X77624145Y-109809185D01*
X77625105Y-109809045D01*
X77648290Y-109804742D01*
X77649279Y-109804517D01*
X77671621Y-109798494D01*
X77672619Y-109798180D01*
X77694119Y-109790435D01*
X77695105Y-109790033D01*
X77715763Y-109780568D01*
X77716716Y-109780081D01*
X77736532Y-109768894D01*
X77737432Y-109768336D01*
X77756406Y-109755429D01*
X77757238Y-109754812D01*
X77775370Y-109740183D01*
X77776120Y-109739527D01*
X77786538Y-109729677D01*
X78125324Y-109925000D01*
G37*
%TD.AperFunction*%
%TD*%
D25*
%TO.N,/SPI2_DC*%
X99639053Y-136462826D02*
X99639454Y-136477156D01*
X99639521Y-136478151D01*
X99641998Y-136501317D01*
X99642150Y-136502341D01*
X99646440Y-136524884D01*
X99646681Y-136525915D01*
X99652783Y-136547838D01*
X99653113Y-136548857D01*
X99661028Y-136570157D01*
X99661441Y-136571139D01*
X99671168Y-136591818D01*
X99671652Y-136592745D01*
X99683191Y-136612803D01*
X99683731Y-136613661D01*
X99697082Y-136633097D01*
X99697662Y-136633875D01*
X99712826Y-136652690D01*
X99713429Y-136653386D01*
X99722036Y-136662609D01*
X99562609Y-136822036D01*
X99553386Y-136813429D01*
X99552690Y-136812826D01*
X99533875Y-136797662D01*
X99533097Y-136797082D01*
X99513661Y-136783731D01*
X99512803Y-136783191D01*
X99492745Y-136771652D01*
X99491818Y-136771168D01*
X99471139Y-136761441D01*
X99470157Y-136761028D01*
X99448857Y-136753113D01*
X99447838Y-136752783D01*
X99425915Y-136746681D01*
X99424884Y-136746440D01*
X99402341Y-136742150D01*
X99401317Y-136741998D01*
X99378151Y-136739521D01*
X99377156Y-136739454D01*
X99362826Y-136739053D01*
X99261383Y-136361383D01*
X99639053Y-136462826D01*
%TA.AperFunction,Conductor*%
D24*
G36*
X99639053Y-136462826D02*
G01*
X99639454Y-136477156D01*
X99639521Y-136478151D01*
X99641998Y-136501317D01*
X99642150Y-136502341D01*
X99646440Y-136524884D01*
X99646681Y-136525915D01*
X99652783Y-136547838D01*
X99653113Y-136548857D01*
X99661028Y-136570157D01*
X99661441Y-136571139D01*
X99671168Y-136591818D01*
X99671652Y-136592745D01*
X99683191Y-136612803D01*
X99683731Y-136613661D01*
X99697082Y-136633097D01*
X99697662Y-136633875D01*
X99712826Y-136652690D01*
X99713429Y-136653386D01*
X99722036Y-136662609D01*
X99562609Y-136822036D01*
X99553386Y-136813429D01*
X99552690Y-136812826D01*
X99533875Y-136797662D01*
X99533097Y-136797082D01*
X99513661Y-136783731D01*
X99512803Y-136783191D01*
X99492745Y-136771652D01*
X99491818Y-136771168D01*
X99471139Y-136761441D01*
X99470157Y-136761028D01*
X99448857Y-136753113D01*
X99447838Y-136752783D01*
X99425915Y-136746681D01*
X99424884Y-136746440D01*
X99402341Y-136742150D01*
X99401317Y-136741998D01*
X99378151Y-136739521D01*
X99377156Y-136739454D01*
X99362826Y-136739053D01*
X99261383Y-136361383D01*
X99639053Y-136462826D01*
G37*
%TD.AperFunction*%
%TD*%
M02*
